<svg id="Слой_1" data-name="Слой 1" xmlns="http://www.w3.org/2000/svg" viewBox="0 0 34 28.6"><title>1</title><path d="M20.59,9.53l2.65-.71,8.25-2.24a.91.91,0,0,1,1.3.73c.73,2.7,1.49,5.38,2.15,8.09a7.25,7.25,0,0,1-4,8.28c-.34.16-.39.31-.29.65.43,1.54.83,3.08,1.24,4.63,0,.14.09.27.14.42l3.46-.88a.89.89,0,0,1,1.22.63A.88.88,0,0,1,36,30.22l-8.63,2.32a1.82,1.82,0,0,1-.56,0,.88.88,0,0,1-.18-1.74L29.88,30l.36-.11a3,3,0,0,0-.05-.38c-.42-1.57-.85-3.14-1.26-4.71-.07-.25-.15-.4-.46-.37A7.31,7.31,0,0,1,20.68,19c-.39-1.44-.75-2.9-1.12-4.35,0-.14-.08-.27-.15-.54-.1.3-.17.47-.22.65-.21.75-.38,1.51-.63,2.24a7.33,7.33,0,0,1-7.64,4.81c-.23,0-.34,0-.41.25-.45,1.71-.91,3.42-1.38,5.17.13,0,.25.1.37.13l3.17.83c.67.18.94.58.79,1.15a1,1,0,0,1-1.26.6l-2.75-.73L3.56,27.69c-.55-.15-.82-.45-.81-.92,0-.63.53-1,1.23-.8,1,.25,2,.49,3,.77.34.09.48.05.58-.31.4-1.56.83-3.12,1.26-4.67a.4.4,0,0,0-.25-.56,7.22,7.22,0,0,1-4.19-7.56,29.09,29.09,0,0,1,.9-3.68c.44-1.67.89-3.34,1.33-5,.24-.9.58-1.09,1.49-.85L20,7.27c.87.23,1.07.59.85,1.46ZM8.14,5.93C7.68,7.65,7.23,9.32,6.79,11c-.07.25.1.28.3.3l1.72.19,8.78,1.09c.25,0,.36,0,.42-.3.18-.74.39-1.47.59-2.21.11-.4.2-.8.32-1.24Zm12.41,5.45c0,.14,0,.24.06.33q.31,1.17.63,2.33c.09.35.1.83.33,1s.68,0,1,0L23,15l8.49-1,1.21-.17L31.31,8.5Z" transform="translate(-2.75 -3.99)"/></svg>