<svg id="Слой_1" data-name="Слой 1" xmlns="http://www.w3.org/2000/svg" viewBox="0 0 74.5 87.73"><title>km</title><path d="M39.23,6.63A31.82,31.82,0,0,0,7.58,32.41,31.45,31.45,0,0,0,28.45,68.08c10.68,3.54,20.63,1.77,29.64-5a2.78,2.78,0,0,1,4.18.51,3.87,3.87,0,0,1,.59,1.94,22.63,22.63,0,0,1-2.62,10.88,23.41,23.41,0,0,1-8.55,8.81,37.33,37.33,0,0,1-7.14,3.36,1.84,1.84,0,0,1-2.15-.41A1.87,1.87,0,0,1,42.13,86,12.74,12.74,0,0,0,42,75.91a.74.74,0,0,0-.91-.55,35.4,35.4,0,0,1-14.58-1.93A36.87,36.87,0,0,1,3.72,51.14,34.52,34.52,0,0,1,1.51,35.47c1.12-12.6,7.12-22.27,17.77-29A34.68,34.68,0,0,1,34.81,1.19,36.37,36.37,0,0,1,62.8,10,36.1,36.1,0,0,1,75.35,32.18a36.71,36.71,0,0,1-4,23.81,2.82,2.82,0,0,1-4.72.59,2.89,2.89,0,0,1-.31-3.19,44.16,44.16,0,0,0,2.23-5.18c3.51-11.32,1.52-21.62-6.12-30.69A30.44,30.44,0,0,0,44.67,7.22,29.72,29.72,0,0,0,39.23,6.63Z" transform="translate(-1.37 -1)"/><path d="M23.09,43.33c0-1.24,0-2.49,0-3.73a2.9,2.9,0,0,1,3-3.07,5.82,5.82,0,1,0-5.9-6,3,3,0,0,1-2.11,3,2.9,2.9,0,0,1-3.7-2.79A11.62,11.62,0,1,1,29.56,41.77a.77.77,0,0,0-.65.92c0,1.5,0,3,0,4.51a2.91,2.91,0,1,1-5.82,0C23.08,45.88,23.09,44.6,23.09,43.33Z" transform="translate(-1.37 -1)"/><path d="M26,58.45a2.92,2.92,0,0,1-2.9-2.9,2.91,2.91,0,1,1,5.82,0A2.94,2.94,0,0,1,26,58.45Z" transform="translate(-1.37 -1)"/><path d="M51.33,58.45a2.92,2.92,0,0,1-2.9-2.9,2.91,2.91,0,1,1,5.82,0A2.94,2.94,0,0,1,51.33,58.45Z" transform="translate(-1.37 -1)"/><path d="M49.74,18.47h0a3.13,3.13,0,0,1,3.13,3.13V46.08a3.13,3.13,0,0,1-3.13,3.13h0a2.68,2.68,0,0,1-2.68-2.68V21.15A2.68,2.68,0,0,1,49.74,18.47Z"/></svg>