<?xml version="1.0" standalone="no"?>
<!DOCTYPE svg PUBLIC "-//W3C//DTD SVG 20010904//EN"
 "http://www.w3.org/TR/2001/REC-SVG-20010904/DTD/svg10.dtd">
<svg version="1.0" xmlns="http://www.w3.org/2000/svg"
 width="203.000000pt" height="203.000000pt" viewBox="0 0 203.000000 203.000000"
 preserveAspectRatio="xMidYMid meet">
<metadata>
Created by potrace 1.14, written by Peter Selinger 2001-2017
</metadata>
<g transform="translate(0.000000,203.000000) scale(0.100000,-0.100000)"
fill="#000000" stroke="none">
<path d="M1532 2017 c-10 -11 -8 -20 9 -41 l21 -27 -35 -72 c-29 -59 -213
-393 -223 -406 -1 -1 -25 4 -51 13 -37 12 -92 17 -223 17 -178 1 -255 -7 -392
-42 -99 -25 -118 -33 -204 -90 -203 -135 -299 -324 -264 -519 30 -165 114
-242 281 -254 34 -3 66 -9 72 -15 5 -5 13 -41 16 -80 7 -73 30 -113 73 -127
10 -3 18 -9 18 -14 0 -5 -29 -62 -65 -127 -62 -114 -64 -121 -58 -171 3 -29
10 -55 15 -58 5 -3 25 5 45 18 27 18 55 58 112 161 l77 138 74 3 c41 2 88 7
103 11 23 6 31 3 43 -14 9 -12 32 -30 53 -41 39 -20 178 -160 208 -210 14 -24
21 -28 47 -23 17 3 40 14 50 24 19 18 19 19 -13 84 -18 37 -30 69 -27 73 7 6
6 6 121 16 113 9 163 36 195 104 26 54 29 56 94 67 64 11 127 94 152 203 32
138 -8 295 -121 468 -31 49 -74 105 -94 124 -61 57 -152 130 -165 130 -6 0
-23 15 -37 33 l-26 33 56 99 c32 55 92 162 135 239 l78 138 33 -5 c25 -4 38
-1 50 13 16 18 16 20 -8 42 -31 29 -142 86 -183 94 -20 4 -34 1 -42 -9z"/>
</g>
</svg>
