<svg id="Слой_1" data-name="Слой 1" xmlns="http://www.w3.org/2000/svg" viewBox="0 0 127.9 127.9"><defs><style>.cls-1{fill:#5b8a40;}.cls-2{fill:#fff;}</style></defs><title>14</title><circle class="cls-1" cx="63.95" cy="63.95" r="63.95"/><path class="cls-2" d="M25.12,65.42l0,3.82.65,0h3.17a15.83,15.83,0,0,1,2.63.22,6.18,6.18,0,0,1,2.32.87,4.89,4.89,0,0,1,1.64,1.78,6.1,6.1,0,0,1,.63,3,5.28,5.28,0,0,1-.59,2.64A4.52,4.52,0,0,1,34,79.32a6.2,6.2,0,0,1-2.2.82,14.37,14.37,0,0,1-2.53.22,15,15,0,0,1-2-.12,5.42,5.42,0,0,1-1.62-.45,3.7,3.7,0,0,1-1.25-1,4.63,4.63,0,0,1-.85-1.64,7.9,7.9,0,0,1-.13,1.64,2.88,2.88,0,0,1-.31.87.81.81,0,0,1-.38.35,1.07,1.07,0,0,1-.35.07,1.13,1.13,0,0,1-.38-.07.81.81,0,0,1-.38-.35,2.86,2.86,0,0,1-.31-.81,6.19,6.19,0,0,1-.13-1.44,6.13,6.13,0,0,1-.13.81,2.54,2.54,0,0,1-.38.87,2.38,2.38,0,0,1-.78.71,2.66,2.66,0,0,1-1.35.29,1.92,1.92,0,0,1-1.48-.5,1.55,1.55,0,0,1-.46-1.06,1.5,1.5,0,0,1,.34-1,1.09,1.09,0,0,1,.9-.43,1.32,1.32,0,0,1,.85.22.89.89,0,0,1,.32.48,1,1,0,0,1,0,.51.58.58,0,0,1-.16.31q.35,0,.68-.69a7,7,0,0,0,.32-2.6v-1q0-.76,0-1.79t0-2.2q0-1.17,0-2.31t0-2.1V64.45a10.29,10.29,0,0,0-.1-1.59,4.87,4.87,0,0,0-.26-1,1.44,1.44,0,0,0-.35-.56.56.56,0,0,0-.34-.16.48.48,0,0,1,.13.31.93.93,0,0,1-.07.53,1.2,1.2,0,0,1-.43.5,1.59,1.59,0,0,1-.92.22,1.09,1.09,0,0,1-.9-.43,1.49,1.49,0,0,1-.34-1,1.45,1.45,0,0,1,.46-1,2,2,0,0,1,1.48-.47,3.05,3.05,0,0,1,1.53.34,2.59,2.59,0,0,1,.9.81,2.79,2.79,0,0,1,.41,1,4,4,0,0,1,.1.78,6.78,6.78,0,0,1,.15-1.59,2.54,2.54,0,0,1,.35-.87.91.91,0,0,1,.44-.35,1.43,1.43,0,0,1,.41-.07.84.84,0,0,1,.69.31,1.84,1.84,0,0,1,.35.75,4.71,4.71,0,0,1,.12.92c0,.32,0,.61,0,.87a3.66,3.66,0,0,1,.91-1.5A4.19,4.19,0,0,1,26,60.26a6.47,6.47,0,0,1,1.76-.4q1-.09,2.09-.09a20.47,20.47,0,0,1,2.25.12,7.64,7.64,0,0,1,1.72.35,4.9,4.9,0,0,1,1.34.69,3.77,3.77,0,0,1,.81.82,2.58,2.58,0,0,1,.4.85,3.44,3.44,0,0,1,.1.81A3.75,3.75,0,0,1,36.2,65,3.07,3.07,0,0,1,35.43,66a3,3,0,0,1-1.07.6,4,4,0,0,1-1.22.19,3.45,3.45,0,0,1-1.41-.25,2.67,2.67,0,0,1-.9-.62,2.18,2.18,0,0,1-.48-.84,3,3,0,0,1-.15-.91,2.33,2.33,0,0,1,1.07-2,2.34,2.34,0,0,1,1.25-.35,2.94,2.94,0,0,1,1,.23A2.56,2.56,0,0,0,32,61.54a20.34,20.34,0,0,0-2.72-.15q-.59,0-1.32.07a3.58,3.58,0,0,0-1.4.44,2.84,2.84,0,0,0-1.1,1.19,5,5,0,0,0-.44,2.32Zm-3.47,4.88a.86.86,0,0,0,.21.59.74.74,0,0,0,.59.23.78.78,0,0,0,.62-.23.86.86,0,0,0,.21-.59q0-.85-.82-.85T21.66,70.29Zm.79-6A.35.35,0,0,1,22.1,64q-.09-.26-.21-.26c-.1,0-.15.14-.15.29a.77.77,0,0,0,.21.54.66.66,0,0,0,.5.22.69.69,0,0,0,.53-.22.77.77,0,0,0,.21-.54c0-.16,0-.25-.15-.29a.16.16,0,0,0-.16.09l-.09.19a.57.57,0,0,1-.12.18A.3.3,0,0,1,22.45,64.3Zm0,11.6a.3.3,0,0,1,.22.07.58.58,0,0,1,.12.18l.09.19a.16.16,0,0,0,.16.09c.08,0,.12,0,.13-.07a1,1,0,0,0,0-.22.77.77,0,0,0-.21-.54.69.69,0,0,0-.53-.22.66.66,0,0,0-.5.22.77.77,0,0,0-.21.54.92.92,0,0,0,0,.22s.05.05.13.07.15-.09.21-.26A.35.35,0,0,1,22.45,75.9ZM22,65.3q-.15,0-.15.26a.58.58,0,0,0,.16.43.54.54,0,0,0,.4.16.59.59,0,0,0,.41-.16.55.55,0,0,0,.18-.43q0-.26-.15-.26c-.06,0-.11,0-.15.15s-.14.15-.29.15-.25,0-.28-.15S22.1,65.3,22,65.3Zm0,9.6c.06,0,.1,0,.13-.15s.12-.15.28-.15.25,0,.29.15.09.15.15.15.15-.09.15-.26a.55.55,0,0,0-.18-.43.59.59,0,0,0-.41-.16.54.54,0,0,0-.4.16.58.58,0,0,0-.16.43Q21.89,74.9,22,74.9Zm.41-7.9c-.12,0-.18-.06-.18-.13s-.06-.1-.18-.1S22,66.84,22,67c0,.31.17.47.5.47s.5-.16.5-.47q0-.21-.15-.21c-.1,0-.15,0-.15.12S22.59,67,22.45,67Zm0,6.2c.14,0,.21,0,.21.12s0,.12.15.12.15-.07.15-.2q0-.47-.5-.47t-.5.47c0,.14,0,.2.15.2s.18,0,.18-.1S22.33,73.22,22.45,73.2Zm8.49.29a2.58,2.58,0,0,0-1-2.07,3.52,3.52,0,0,0-2.26-.75H25.1v4.7a3.24,3.24,0,0,0,.29,1.41,3.48,3.48,0,0,0,.76,1.06,3.19,3.19,0,0,0,1,.66,3.07,3.07,0,0,0,1.1.22,2.55,2.55,0,0,0,1.2-.28,3.11,3.11,0,0,0,.88-.68,3,3,0,0,0,.54-.85,2.08,2.08,0,0,0,.19-.78,2.68,2.68,0,0,0-.13-1,1.2,1.2,0,0,0-.31-.46.8.8,0,0,1-.15.75.91.91,0,0,1-.76.34.88.88,0,0,1-.66-.29,1.1,1.1,0,0,1-.28-.79,1.23,1.23,0,0,1,1.29-1.2,1.37,1.37,0,0,1,.69.18,2.09,2.09,0,0,1,.53.43,2.3,2.3,0,0,1,.35.53,1.77,1.77,0,0,1,.16.49,1.73,1.73,0,0,0-.41-1.22A1.87,1.87,0,0,0,30.94,73.49Zm1.2,4.17c-.08-.06-.11-.11-.09-.15s0-.08-.09-.12h-.12a.08.08,0,0,0-.09.09q-.24.41.09.53a.61.61,0,0,0,.68-.18q.06-.15,0-.21c-.08-.06-.14-.05-.19,0S32.22,77.72,32.14,77.67Zm0-6c.14-.06.22,0,.26,0s.1.09.18,0,.06-.09,0-.21a.53.53,0,0,0-.65-.2.48.48,0,0,0-.25.18.28.28,0,0,0,0,.18.23.23,0,0,0,.09.15l.13.09a.12.12,0,0,1,.09,0c.08,0,.11-.08.09-.13S32.09,71.71,32.17,71.67Zm.5,1.62a.16.16,0,0,0,.12-.18c0-.1.08-.17.23-.21s.26,0,.32.07.13.15.21.13.14-.1.06-.29a.82.82,0,0,0-.31-.35.55.55,0,0,0-.46-.09.71.71,0,0,0-.38.24.35.35,0,0,0,0,.41Q32.47,73.29,32.67,73.29Zm.06,2.82c-.12,0-.21.08-.26.23a.37.37,0,0,0,0,.41.64.64,0,0,0,.37.24.54.54,0,0,0,.48-.06,1,1,0,0,0,.37-.35q.06-.26-.12-.26c-.08,0-.14,0-.18.12s-.16.12-.35.06-.23-.1-.22-.19A.18.18,0,0,0,32.73,76.11Zm-.15-11.78a.84.84,0,0,0,.19.57.71.71,0,0,0,1,0,.84.84,0,0,0,.19-.57q0-.82-.7-.82T32.58,64.33Zm.29,10.31a.8.8,0,0,0,.21.57.69.69,0,0,0,.53.22.84.84,0,0,0,.57-.22.73.73,0,0,0,.25-.57.68.68,0,0,0-.25-.56.88.88,0,0,0-.57-.21.71.71,0,0,0-.53.21A.75.75,0,0,0,32.88,74.64Z" transform="translate(-6.05 -6.05)"/><path class="cls-2" d="M57.67,69.91A13.63,13.63,0,0,1,57,74a9.81,9.81,0,0,1-1.89,3.45,9.11,9.11,0,0,1-3.22,2.38,11.07,11.07,0,0,1-4.61.88,11.09,11.09,0,0,1-4.6-.88,8.93,8.93,0,0,1-3.22-2.38A9.93,9.93,0,0,1,37.64,74,13.63,13.63,0,0,1,37,69.91a13.25,13.25,0,0,1,.62-4.07,9.23,9.23,0,0,1,1.88-3.35,8.9,8.9,0,0,1,3.22-2.26,11.59,11.59,0,0,1,4.6-.84,11.57,11.57,0,0,1,4.61.84A8.85,8.85,0,0,1,57,65.84,13.25,13.25,0,0,1,57.67,69.91Zm-18.74-.2a.82.82,0,0,0,.21.56.7.7,0,0,0,.56.23.64.64,0,0,0,.5-.23.82.82,0,0,0,.21-.56.86.86,0,0,0-.21-.59.64.64,0,0,0-.5-.24.7.7,0,0,0-.56.24A.86.86,0,0,0,38.93,69.71Zm1.38-1.82a.12.12,0,0,0,.09,0,.8.8,0,0,0,.09-.23.66.66,0,0,0-.16-.53.64.64,0,0,0-.48-.2.59.59,0,0,0-.5.18.79.79,0,0,0-.23.5q0,.26.12.26c.12,0,.2-.07.25-.22a.32.32,0,0,1,.34-.22.37.37,0,0,1,.29.29Q40.13,67.89,40.31,67.89Zm-.5,4.17a.39.39,0,0,1-.34-.25c-.09-.17-.17-.24-.25-.22s-.09,0-.1.1a1.35,1.35,0,0,0,0,.19.66.66,0,0,0,.73.68.63.63,0,0,0,.48-.2.66.66,0,0,0,.16-.53q-.06-.26-.12-.26c-.12,0-.21.08-.26.23A.36.36,0,0,1,39.81,72.06ZM40.28,66c.14,0,.21.1.22.19a.14.14,0,0,0,.16.13c.08,0,.13-.08.15-.24a.47.47,0,0,0-.07-.41.52.52,0,0,0-.37-.2.44.44,0,0,0-.41.09.88.88,0,0,0-.26.41c-.06.16,0,.23.09.23s.17,0,.22-.12S40.14,65.92,40.28,66Zm-.5,7.31c-.12,0-.15.07-.09.2a.89.89,0,0,0,.26.41.52.52,0,0,0,.41.12q.44-.09.44-.65c0-.16,0-.23-.15-.23a.21.21,0,0,0-.21.15.26.26,0,0,1-.18.18.28.28,0,0,1-.28-.09A.22.22,0,0,0,39.78,73.29Zm1.29-8.52c.08,0,.14-.06.18-.18,0-.29-.08-.46-.35-.5s-.43,0-.53.35c0,.1,0,.17,0,.21s.12,0,.18,0a.27.27,0,0,1,.21-.1.22.22,0,0,1,.16.15C41,64.73,41,64.77,41.07,64.77Zm-.29,10.16a.19.19,0,0,1-.21-.09c-.06-.08-.12-.1-.18-.06s-.07.07,0,.21c.1.31.27.43.53.35a.43.43,0,0,0,.31-.18.34.34,0,0,0,0-.32c-.06-.12-.12-.18-.18-.18s-.1,0-.13.12A.22.22,0,0,1,40.78,74.93Zm.82-11.37s.07,0,.09-.12.08-.29-.12-.35a.32.32,0,0,0-.41.21q-.06.12,0,.12s0,0,.09,0a.13.13,0,0,1,.15,0,.16.16,0,0,1,.09.13s0,.07.09.07Zm-.21,12.51c-.06,0-.09,0-.1,0s0,0-.1,0-.07,0,0,.12.23.26.41.21.23-.18.12-.35,0-.12-.09-.12h0c-.06,0-.09,0-.09.09S41.45,76,41.39,76.08Zm11.42-6.87A2,2,0,0,1,52,70.67a2.49,2.49,0,0,1-1.31.38,1.51,1.51,0,0,1-1.1-.41,1.3,1.3,0,0,1-.43-1,1.47,1.47,0,0,1,.22-.9.91.91,0,0,1,.66-.46,1.15,1.15,0,0,1,.72,0,1,1,0,0,1,.43.35.86.86,0,0,1,.15.49.92.92,0,0,1-.12.47,2,2,0,0,0,.69-1.17,7.55,7.55,0,0,0,.19-1.76,6.66,6.66,0,0,0-.37-2.2,6.05,6.05,0,0,0-1-1.85,5.23,5.23,0,0,0-1.51-1.28,3.76,3.76,0,0,0-1.86-.48,3.71,3.71,0,0,0-1.84.48A5.22,5.22,0,0,0,44,62.69a6,6,0,0,0-1,1.85,6.66,6.66,0,0,0-.37,2.2,7.52,7.52,0,0,0,.19,1.76,2,2,0,0,0,.69,1.17.71.71,0,0,1-.13-.47,1,1,0,0,1,.15-.49.91.91,0,0,1,.43-.35,1.21,1.21,0,0,1,.73,0,.92.92,0,0,1,.66.46,1.48,1.48,0,0,1,.22.9,1.28,1.28,0,0,1-.44,1,1.57,1.57,0,0,1-1.12.41,2.49,2.49,0,0,1-1.31-.38q-.63-.38-.47-.07a1.35,1.35,0,0,0,.35.46.93.93,0,0,0,.31.18,3.58,3.58,0,0,0-.21,1.38,7,7,0,0,0,.4,2.28,8.83,8.83,0,0,0,1,2.11,6.33,6.33,0,0,0,1.48,1.57,2.91,2.91,0,0,0,1.75.62,3,3,0,0,0,1.76-.6A6,6,0,0,0,50.59,77a8.49,8.49,0,0,0,1-2.11A7.27,7.27,0,0,0,52,72.64a6.85,6.85,0,0,0,0-.81,2.62,2.62,0,0,0-.13-.6.94.94,0,0,0,.31-.18,1.69,1.69,0,0,0,.37-.41,2.23,2.23,0,0,0,.28-.63A2,2,0,0,0,52.82,69.21Zm.32-5.55c.06,0,.09,0,.09-.07a.16.16,0,0,1,.09-.13.13.13,0,0,1,.15,0s.07,0,.09,0,0,0,0-.12-.23-.26-.41-.21-.23.18-.12.35,0,.12.09.12Zm.18,12.51c-.06,0-.09-.08-.09-.12s0-.07-.09-.09h0c-.06,0-.09,0-.09.12s-.08.29.12.35.31,0,.41-.21,0-.12,0-.12-.09,0-.1,0S53.38,76.19,53.32,76.17ZM53.94,75a.22.22,0,0,1-.16-.15q0-.12-.13-.12c-.06,0-.12.06-.18.18a.34.34,0,0,0,0,.32.43.43,0,0,0,.31.18c.25.08.43,0,.53-.35q.06-.21,0-.21c-.06,0-.12,0-.18.06A.19.19,0,0,1,53.94,75Zm-.29-10.16q.09,0,.13-.12a.22.22,0,0,1,.16-.15.27.27,0,0,1,.21.1c.06.07.12.08.18,0s.07-.11,0-.21q-.15-.47-.53-.35c-.27,0-.39.21-.35.5C53.5,64.8,53.56,64.86,53.64,64.86Zm.79,1.2c.14-.06.23,0,.28.09s.12.16.22.12.15-.08.09-.23a.88.88,0,0,0-.26-.41.44.44,0,0,0-.41-.09.52.52,0,0,0-.37.2.46.46,0,0,0-.07.41c0,.16.07.24.15.24a.14.14,0,0,0,.16-.13C54.22,66.17,54.3,66.1,54.43,66.06Zm.5,7.31a.22.22,0,0,0-.22.09.28.28,0,0,1-.28.09.26.26,0,0,1-.18-.18.21.21,0,0,0-.21-.15c-.1,0-.15.08-.15.23q0,.56.44.65a.52.52,0,0,0,.41-.12.89.89,0,0,0,.26-.41C55.08,73.45,55.05,73.38,54.93,73.38ZM54.41,68c.12,0,.19-.07.21-.21a.37.37,0,0,1,.29-.29.32.32,0,0,1,.34.22c0,.15.13.22.25.22s.12-.09.12-.26a.8.8,0,0,0-.23-.5.59.59,0,0,0-.5-.18.63.63,0,0,0-.48.2.65.65,0,0,0-.16.53.76.76,0,0,0,.09.23A.11.11,0,0,0,54.41,68Zm.5,4.17a.36.36,0,0,1-.29-.26c-.06-.16-.15-.23-.26-.23s-.08.09-.12.26a.65.65,0,0,0,.16.53.63.63,0,0,0,.48.2.66.66,0,0,0,.73-.68,1.45,1.45,0,0,0,0-.19c0-.07,0-.1-.1-.1s-.16.05-.25.22A.39.39,0,0,1,54.9,72.14Zm.88-2.35a.86.86,0,0,0-.21-.59A.7.7,0,0,0,55,69a.64.64,0,0,0-.5.24.86.86,0,0,0-.21.59.82.82,0,0,0,.21.56.64.64,0,0,0,.5.23.7.7,0,0,0,.56-.23A.82.82,0,0,0,55.79,69.79Z" transform="translate(-6.05 -6.05)"/><path class="cls-2" d="M73.41,70.53H67v6a7.18,7.18,0,0,0,.09,1.25,2.91,2.91,0,0,0,.23.78,1.1,1.1,0,0,0,.37.44,2.17,2.17,0,0,0,.46.23.86.86,0,0,1-.32-.65.82.82,0,0,1,.31-.65,1.11,1.11,0,0,1,.75-.26,1.15,1.15,0,0,1,.81.31,1,1,0,0,1,.34.81,1.39,1.39,0,0,1-.57,1.13,2.26,2.26,0,0,1-1.45.46,2.19,2.19,0,0,1-1.39-.43,3,3,0,0,1-.84-1.72,3.09,3.09,0,0,1-.44,1.6,1,1,0,0,1-.82.54,1,1,0,0,1-.81-.54,3,3,0,0,1-.37-1.66,7.2,7.2,0,0,1-.29.73,2.83,2.83,0,0,1-.48.72,2.22,2.22,0,0,1-.79.54,3.13,3.13,0,0,1-1.22.21,2.68,2.68,0,0,1-1.12-.19,2,2,0,0,1-.65-.45,1.35,1.35,0,0,1-.31-.53,1.67,1.67,0,0,1-.07-.41,1.87,1.87,0,0,1,0-.34,1.21,1.21,0,0,1,.19-.44,1.12,1.12,0,0,1,.43-.37,1.7,1.7,0,0,1,.78-.15,1.32,1.32,0,0,1,1,.34,1,1,0,0,1,.31.69.92.92,0,0,1-.26.68,1.93,1.93,0,0,0,.79-1.12,5.36,5.36,0,0,0,.24-1.59V64.42a6.89,6.89,0,0,0-.37-2.57q-.37-.87-.9-.87a1.22,1.22,0,0,1,.16.25,1,1,0,0,1,.1.46,1,1,0,0,1-.29.65,1.13,1.13,0,0,1-.88.32,1.44,1.44,0,0,1-.91-.32,1.19,1.19,0,0,1-.41-1,1.52,1.52,0,0,1,.09-.47,1.46,1.46,0,0,1,.29-.5,1.62,1.62,0,0,1,.56-.4,2.12,2.12,0,0,1,.88-.16,3.13,3.13,0,0,1,1.47.31,2.77,2.77,0,0,1,.93.75,2.71,2.71,0,0,1,.47.91,4.65,4.65,0,0,1,.16.76,5.87,5.87,0,0,1,.26-2.17.86.86,0,0,1,.82-.56,1,1,0,0,1,.91.59,5.39,5.39,0,0,1,.32,2.08,4.6,4.6,0,0,1,.15-.76,2.8,2.8,0,0,1,.4-.85,2.33,2.33,0,0,1,.75-.69,2.27,2.27,0,0,1,1.18-.28,2.3,2.3,0,0,1,1.47.51,1.45,1.45,0,0,1,.65,1.13,1,1,0,0,1-.46.85,1.6,1.6,0,0,1-.87.29,1.08,1.08,0,0,1-.87-.29.94.94,0,0,1-.25-.62q0-.5.26-.65-.41.12-.7.92A7.27,7.27,0,0,0,67,64.42v4.67h6.4V64.42a7.31,7.31,0,0,0-.29-2.36q-.29-.81-.71-.92a.64.64,0,0,1,.24.59,1,1,0,0,1-.26.65,1.12,1.12,0,0,1-.91.32,1.44,1.44,0,0,1-.81-.26,1.15,1.15,0,0,1-.4-1,1.4,1.4,0,0,1,.48-1,2.3,2.3,0,0,1,1.6-.45,2.05,2.05,0,0,1,1.12.28,2.34,2.34,0,0,1,.71.68,2.78,2.78,0,0,1,.38.85,5.16,5.16,0,0,1,.15.78A5.39,5.39,0,0,1,75,60.4a1,1,0,0,1,.92-.59,1,1,0,0,1,.84.53,4.66,4.66,0,0,1,.4,2.09,3.89,3.89,0,0,1,.16-.79,2.58,2.58,0,0,1,.46-.85,2.55,2.55,0,0,1,.88-.69A3.15,3.15,0,0,1,80,59.81a2.36,2.36,0,0,1,1.35.4A1.23,1.23,0,0,1,82,61.28a1.21,1.21,0,0,1-.46,1,1.62,1.62,0,0,1-1,.34,1.58,1.58,0,0,1-.85-.22.7.7,0,0,1-.35-.63.8.8,0,0,1,.12-.43.85.85,0,0,1,.21-.25,1,1,0,0,0-.4.1,1,1,0,0,0-.41.44,3.49,3.49,0,0,0-.32,1,9.26,9.26,0,0,0-.13,1.75V76.49a5.45,5.45,0,0,0,.31,1.89,1.73,1.73,0,0,0,1,1.1.79.79,0,0,1-.25-.37,1.43,1.43,0,0,1-.07-.46,1,1,0,0,1,.26-.69,1.15,1.15,0,0,1,.91-.31,1.61,1.61,0,0,1,.69.13,1.42,1.42,0,0,1,.44.31,1,1,0,0,1,.22.38,1.39,1.39,0,0,1,.06.38,1.51,1.51,0,0,1-.07.4,1.22,1.22,0,0,1-.29.48,2,2,0,0,1-.63.43,2.67,2.67,0,0,1-1.12.19,3.46,3.46,0,0,1-1.2-.18,2.27,2.27,0,0,1-.78-.47A2.15,2.15,0,0,1,77.4,79a4.08,4.08,0,0,1-.26-.81,2.93,2.93,0,0,1-.37,1.63,1,1,0,0,1-.84.54,1.07,1.07,0,0,1-.85-.53,2.88,2.88,0,0,1-.44-1.53,1.82,1.82,0,0,1-.28.91,2.22,2.22,0,0,1-.62.63,2.63,2.63,0,0,1-.81.37,3.28,3.28,0,0,1-.85.12,2.15,2.15,0,0,1-1.5-.46,1.47,1.47,0,0,1-.5-1.13,1.17,1.17,0,0,1,.41-.94,1.36,1.36,0,0,1,.91-.35,1.15,1.15,0,0,1,.9.31,1,1,0,0,1,.28.66,1,1,0,0,1-.32.76,1.51,1.51,0,0,0,.81-.68,4.15,4.15,0,0,0,.34-2Zm-9.6-.65a.84.84,0,0,0,.19.57.71.71,0,0,0,1,0,.84.84,0,0,0,.19-.57q0-.82-.71-.82T63.8,69.88Zm.76-5.32a.35.35,0,0,1-.35-.26Q64.13,64,64,64c-.08,0-.12.13-.12.32a.86.86,0,0,0,.19.56.6.6,0,0,0,.48.23.57.57,0,0,0,.46-.23.86.86,0,0,0,.19-.56c0-.19,0-.3-.12-.32a.16.16,0,0,0-.16.09l-.09.19a.76.76,0,0,1-.1.18A.21.21,0,0,1,64.57,64.57Zm-.09,11.07q.23,0,.26.26c0,.18.09.27.21.29s.09,0,.1-.07a1.17,1.17,0,0,0,0-.25,1,1,0,0,0-.18-.59.45.45,0,0,0-.82,0,1,1,0,0,0-.18.59,1.19,1.19,0,0,0,0,.25s0,.05.1.07.14-.09.18-.28S64.32,75.64,64.48,75.64Zm-.32-10c-.1,0-.15.1-.15.29a.58.58,0,0,0,.16.43.54.54,0,0,0,.4.16.51.51,0,0,0,.37-.16.58.58,0,0,0,.16-.43c0-.2,0-.29-.15-.29s-.1.05-.13.16a.22.22,0,0,1-.25.16c-.16,0-.25-.05-.28-.16S64.21,65.62,64.16,65.62Zm0,8.9s.07-.05.1-.16a.27.27,0,0,1,.5,0q0,.16.1.16c.08,0,.12-.1.12-.29,0-.43-.16-.65-.47-.65s-.47.22-.47.65C64,74.42,64,74.52,64.13,74.52Zm.44-7.11c-.12,0-.18-.07-.19-.15s-.06-.12-.16-.12-.15.08-.15.23c0,.31.17.47.5.47s.44-.16.44-.47c0-.16,0-.23-.15-.23s-.12,0-.13.13A.14.14,0,0,1,64.57,67.42Zm-.09,5.23a.14.14,0,0,1,.16.13c0,.09,0,.13.1.13s.12-.08.12-.23q0-.5-.38-.5t-.41.5c0,.16,0,.23.12.23s.15,0,.15-.12S64.38,72.66,64.48,72.64Zm10.81-2.7a.84.84,0,0,0,.19.57.71.71,0,0,0,1,0,.84.84,0,0,0,.19-.57q0-.82-.71-.82T75.29,69.94ZM76,64.63a.35.35,0,0,1-.35-.26c-.06-.18-.13-.26-.21-.26s-.12.13-.12.32a.85.85,0,0,0,.19.56.6.6,0,0,0,.48.23A.57.57,0,0,0,76.5,65a.86.86,0,0,0,.19-.56c0-.2,0-.3-.12-.32a.17.17,0,0,0-.16.09l-.09.19a.74.74,0,0,1-.1.18A.21.21,0,0,1,76,64.63ZM76,75.7q.23,0,.26.26c0,.18.09.27.21.29s.09,0,.1-.07a1.22,1.22,0,0,0,0-.25,1,1,0,0,0-.18-.59.45.45,0,0,0-.82,0,1,1,0,0,0-.18.59,1.18,1.18,0,0,0,0,.25s0,.05.1.07.14-.09.18-.28S75.8,75.7,76,75.7Zm-.32-10c-.1,0-.15.1-.15.29a.57.57,0,0,0,.16.43.54.54,0,0,0,.4.16.5.5,0,0,0,.37-.16.57.57,0,0,0,.16-.43c0-.19,0-.29-.15-.29s-.1.05-.13.16A.22.22,0,0,1,76,66c-.16,0-.25-.05-.28-.16S75.7,65.68,75.64,65.68Zm0,8.9s.07-.05.1-.16a.27.27,0,0,1,.5,0q0,.16.1.16c.08,0,.12-.1.12-.29q0-.65-.47-.65t-.47.65C75.49,74.48,75.53,74.58,75.61,74.58ZM76,67.47c-.12,0-.18-.07-.19-.15s-.06-.12-.16-.12-.15.08-.15.23q0,.47.5.47t.44-.47c0-.16,0-.23-.15-.23s-.12,0-.13.13A.14.14,0,0,1,76,67.47ZM76,72.7c.1,0,.15,0,.16.13s0,.13.1.13.12-.08.12-.24c0-.33-.13-.5-.38-.5s-.41.17-.41.5c0,.16,0,.24.12.24s.15,0,.15-.12S75.86,72.72,76,72.7Z" transform="translate(-6.05 -6.05)"/><path class="cls-2" d="M96.05,71.18q-2.17,0-3.85,0a8.31,8.31,0,0,1-2.88-.5,4.35,4.35,0,0,1-2.53-2.47A12.5,12.5,0,0,1,86,63.39c0-.14,0-.36,0-.66a3.45,3.45,0,0,0-.22-.91,2.27,2.27,0,0,0-.51-.79,1.25,1.25,0,0,0-.92-.34.83.83,0,0,1,.53.82.92.92,0,0,1-.28.65,1.15,1.15,0,0,1-.87.29,1.37,1.37,0,0,1-.94-.31,1.24,1.24,0,0,1-.35-1,1.07,1.07,0,0,1,.28-.75,2.06,2.06,0,0,1,.65-.49,3.67,3.67,0,0,1,.75-.26,2.85,2.85,0,0,1,.59-.09,5,5,0,0,1,.72.06,1.83,1.83,0,0,1,.75.29,2.39,2.39,0,0,1,.66.72A3.66,3.66,0,0,1,87.27,62a1.45,1.45,0,0,1,0-.29v-.29A2.65,2.65,0,0,1,87.52,60a.78.78,0,0,1,.63-.46c.27,0,.55.2.84.59A4,4,0,0,1,89.56,62a2.84,2.84,0,0,0,0-.31,2.55,2.55,0,0,1,0-.28A4.18,4.18,0,0,1,89.69,60q.16-.43.4-.43a.64.64,0,0,1,.5.35,4.35,4.35,0,0,1,.44.92,7.26,7.26,0,0,1,.32,1.35,10.79,10.79,0,0,1,.12,1.6V65.3a6.56,6.56,0,0,0,.63,3.35,2.51,2.51,0,0,0,2.31,1h1.64V63.42a3.22,3.22,0,0,0-.46-1.92,2.25,2.25,0,0,0-1-.81.93.93,0,0,1,.41.73,1,1,0,0,1-.32.72,1.22,1.22,0,0,1-.88.31,1.36,1.36,0,0,1-.69-.16,1.41,1.41,0,0,1-.44-.38,1.54,1.54,0,0,1-.23-.46,1.39,1.39,0,0,1-.07-.41,1.78,1.78,0,0,1,.06-.37,1.17,1.17,0,0,1,.28-.5,1.74,1.74,0,0,1,.63-.43,2.9,2.9,0,0,1,1.12-.18,3.22,3.22,0,0,1,1.32.25,4,4,0,0,1,1,.59,2.62,2.62,0,0,1,.6.7,3,3,0,0,1,.26.57,2.87,2.87,0,0,1,.35-1.6,1,1,0,0,1,.82-.51q1.09,0,1.2,2a1.88,1.88,0,0,1,.21-.65,2.19,2.19,0,0,1,.53-.66,2.91,2.91,0,0,1,.9-.51,3.69,3.69,0,0,1,1.31-.21,2.21,2.21,0,0,1,1.5.44,1.46,1.46,0,0,1,.5,1.15,1.13,1.13,0,0,1-.46.94,1.54,1.54,0,0,1-1,.35,1.58,1.58,0,0,1-1.06-.32.89.89,0,0,1,0-1.44,1.19,1.19,0,0,0-.87.69,4.64,4.64,0,0,0-.28,1.89v1.64q0,1.06,0,2.32t0,2.6q0,1.34,0,2.48t0,2v1.13a4.72,4.72,0,0,1-.54,1.76,4.92,4.92,0,0,1-1,1.31,5.74,5.74,0,0,1-1.37.9,7.84,7.84,0,0,1-1.45.53,14.37,14.37,0,0,1-2.07.4,18.69,18.69,0,0,1-2.2.13,14.28,14.28,0,0,1-2.16-.16,8.25,8.25,0,0,1-1.91-.51,6.41,6.41,0,0,1-1.13-.59,6.81,6.81,0,0,1-.78-.59.41.41,0,0,1,.22.29.8.8,0,0,1,0,.43.78.78,0,0,1-.29.38,1.08,1.08,0,0,1-1.16,0,.91.91,0,0,1-.32-.43,1.19,1.19,0,0,1-.06-.53.86.86,0,0,1,.21-.48,1.17,1.17,0,0,1,1.12-.38A3.41,3.41,0,0,1,84.89,76a3.3,3.3,0,0,1,0-2,3.35,3.35,0,0,1,1.16-1.59,2.94,2.94,0,0,1,2-.59,3.61,3.61,0,0,1,1.64.43,2.2,2.2,0,0,1,.88.9,2.17,2.17,0,0,1,.22,1.15,2.61,2.61,0,0,1-1.2,2,2.44,2.44,0,0,1-1.25.38,1.66,1.66,0,0,0,.69,1,4.52,4.52,0,0,0,1.45.73,6.46,6.46,0,0,0,1.82.28,4.49,4.49,0,0,0,1.79-.32,3.14,3.14,0,0,0,1.37-1.09,3.3,3.3,0,0,0,.54-2Zm-8.78,3.35a.84.84,0,0,0,.19.57.71.71,0,0,0,1,0,.85.85,0,0,0,.19-.57q0-.82-.71-.82T87.27,74.52ZM89.12,64c.08,0,.12,0,.12-.15a.56.56,0,0,0-.19-.47.68.68,0,0,0-.43-.15c-.33.06-.5.21-.5.44a.47.47,0,0,0,.09.29.23.23,0,0,0,.18.12c.08,0,.13-.05.16-.16a.2.2,0,0,1,.22-.16.16.16,0,0,1,.16.12A.18.18,0,0,0,89.12,64ZM89,65.62h.09a.28.28,0,0,1,.28.15.22.22,0,0,0,.19.15.13.13,0,0,0,.15-.15.79.79,0,0,0-.26-.56.74.74,0,0,0-.5-.26.65.65,0,0,0-.46.18.57.57,0,0,0-.19.44,1.41,1.41,0,0,0,0,.28c0,.13.08.19.16.19a.23.23,0,0,0,.23-.18A.36.36,0,0,1,89,65.62Zm1.5,2.11h0a.08.08,0,0,0,0-.06.81.81,0,0,0-.35-.68,1.07,1.07,0,0,0-.59-.26.74.74,0,0,0-.59.21.79.79,0,0,0-.18.53q0,.5.22.59l.19.09s.06,0,.07-.1a1.32,1.32,0,0,1,.06-.23,1.13,1.13,0,0,1,.12-.25.27.27,0,0,1,.25-.12.56.56,0,0,1,.37.18.54.54,0,0,0,.34.18Zm7.46,2a.79.79,0,0,0,.24.6,1,1,0,0,0,1.23,0,.79.79,0,0,0,.23-.6.85.85,0,0,0-1.7,0Zm.91-5.52a.41.41,0,0,1-.41-.28c-.08-.19-.17-.28-.26-.28s-.12.13-.12.32a.88.88,0,0,0,.22.6.73.73,0,0,0,.57.25.74.74,0,0,0,.56-.25.85.85,0,0,0,.23-.6q0-.29-.15-.32a.19.19,0,0,0-.19.09l-.1.2a.72.72,0,0,1-.13.19A.3.3,0,0,1,98.84,64.18ZM98.75,75.7a.29.29,0,0,1,.31.28q0,.28.25.31c.08,0,.12,0,.13-.07a1.19,1.19,0,0,0,0-.25,1,1,0,0,0-.22-.63.62.62,0,0,0-.48-.28.61.61,0,0,0-.5.28A1,1,0,0,0,98,76a1.13,1.13,0,0,0,0,.25s0,.05.1.07.17-.1.22-.29A.35.35,0,0,1,98.75,75.7Zm-.41-10.43c-.12,0-.18.11-.18.32a.51.51,0,0,0,.21.43.74.74,0,0,0,.47.16A.68.68,0,0,0,99.3,66a.53.53,0,0,0,.19-.43q0-.32-.18-.32c-.08,0-.13.06-.16.18s-.13.18-.31.18-.28-.06-.32-.18S98.42,65.27,98.34,65.27Zm0,9.28c.06,0,.1-.06.13-.18s.13-.18.31-.18a.27.27,0,0,1,.29.18c0,.12.08.18.12.18s.15-.11.15-.32q0-.67-.56-.68t-.59.68Q98.16,74.55,98.31,74.55Zm.53-7.4q-.21,0-.22-.16c0-.09-.07-.13-.19-.13s-.18.09-.18.26.2.47.59.47.56-.16.56-.47-.07-.26-.21-.26-.13,0-.15.15A.18.18,0,0,1,98.84,67.15Zm-.09,5.43c.12,0,.18,0,.19.13s.05.13.13.13.12-.08.12-.23q0-.53-.44-.53t-.5.53c0,.16,0,.23.15.23s.18,0,.18-.12S98.63,72.6,98.75,72.58Z" transform="translate(-6.05 -6.05)"/><path class="cls-2" d="M118.49,62.72a2.3,2.3,0,0,1,1,.16,1.55,1.55,0,0,1,.79.69,1.89,1.89,0,0,0-.31-1.06,2.77,2.77,0,0,0-.84-.81,4.16,4.16,0,0,0-1.25-.51,6.51,6.51,0,0,0-1.54-.18,5.68,5.68,0,0,0-2.61.54A4.78,4.78,0,0,0,112,63a5.56,5.56,0,0,0-.91,1.89,7.85,7.85,0,0,0-.28,2A12.12,12.12,0,0,0,111,69a1.26,1.26,0,0,0,.63.94.84.84,0,0,1-.16-1,1.1,1.1,0,0,1,.4-.4,1.22,1.22,0,0,1,.65-.16,1,1,0,0,1,.88.44,1.71,1.71,0,0,1,.29,1,1.16,1.16,0,0,1-.48.94,1.91,1.91,0,0,1-1.22.38,1.83,1.83,0,0,1-1.35-.53,2.4,2.4,0,0,1-.68-1.2,1.89,1.89,0,0,0,.16.79,2.43,2.43,0,0,0,.37.59,1.81,1.81,0,0,0,.43.37.77.77,0,0,0,.31.13v.85a10.74,10.74,0,0,0,.28,2.38,7.66,7.66,0,0,0,.88,2.25,5.35,5.35,0,0,0,1.51,1.66A3.7,3.7,0,0,0,116,79a6,6,0,0,0,2.57-.53A5,5,0,0,0,120.5,77a6.94,6.94,0,0,0,1.15-2.35,11,11,0,0,0,.4-3.05q0-.94.68-.94a1.12,1.12,0,0,1,.28,0,.63.63,0,0,1,.31.22,1.48,1.48,0,0,1,.25.54,3.78,3.78,0,0,1,.1,1,8.38,8.38,0,0,1-.59,3.08,7.93,7.93,0,0,1-1.72,2.66A8.32,8.32,0,0,1,118.58,80a9.81,9.81,0,0,1-7.2,0A9,9,0,0,1,108.27,78,10.26,10.26,0,0,1,106,74.46a13.82,13.82,0,0,1-.85-5.11,10.64,10.64,0,0,1,.68-3.79,9.23,9.23,0,0,1,2-3.16,9.39,9.39,0,0,1,3.2-2.16,11.15,11.15,0,0,1,4.33-.79,9,9,0,0,1,2,.2q.87.21,1.5.43l1.06.37a1.11,1.11,0,0,0,.75,0,.4.4,0,0,1-.22-.29.83.83,0,0,1,0-.41.72.72,0,0,1,.26-.37.88.88,0,0,1,.56-.16.89.89,0,0,1,1,1,.92.92,0,0,1-.53.87,1.52,1.52,0,0,1-1.12.13,3.53,3.53,0,0,1,1.54,1.35,3.73,3.73,0,0,1,.54,2,3.5,3.5,0,0,1-.18,1.06,3,3,0,0,1-.57,1,2.89,2.89,0,0,1-1.06.76,4.1,4.1,0,0,1-1.66.29,3.79,3.79,0,0,1-1.41-.23,2.69,2.69,0,0,1-1-.62,2.47,2.47,0,0,1-.54-.85,2.74,2.74,0,0,1-.18-1,2.16,2.16,0,0,1,.68-1.66A2.52,2.52,0,0,1,118.49,62.72Zm-11.45,7a.82.82,0,0,0,.21.56.7.7,0,0,0,.56.23.64.64,0,0,0,.5-.23.82.82,0,0,0,.21-.56.86.86,0,0,0-.21-.59.64.64,0,0,0-.5-.24.7.7,0,0,0-.56.24A.86.86,0,0,0,107,69.71Zm1.38-1.82a.12.12,0,0,0,.09,0,.82.82,0,0,0,.09-.23.66.66,0,0,0-.16-.53.63.63,0,0,0-.48-.2.59.59,0,0,0-.5.18.8.8,0,0,0-.23.5q0,.26.12.26c.12,0,.2-.07.25-.22a.32.32,0,0,1,.34-.22.38.38,0,0,1,.29.29C108.23,67.82,108.3,67.89,108.41,67.89Zm-.5,4.17a.39.39,0,0,1-.34-.25c-.09-.17-.17-.24-.25-.22s-.09,0-.1.1a1.28,1.28,0,0,0,0,.19.66.66,0,0,0,.73.68.63.63,0,0,0,.48-.2.66.66,0,0,0,.16-.53c0-.18-.08-.26-.12-.26s-.21.08-.26.23A.37.37,0,0,1,107.91,72.06Zm0,1.23c-.12,0-.15.07-.09.2a.89.89,0,0,0,.26.41.52.52,0,0,0,.41.12q.44-.09.44-.65c0-.16,0-.23-.15-.23a.21.21,0,0,0-.21.15.26.26,0,0,1-.18.18.28.28,0,0,1-.28-.09A.22.22,0,0,0,107.89,73.29Zm.5-7.31c.14,0,.21.1.22.19a.14.14,0,0,0,.16.13c.08,0,.13-.08.15-.24a.47.47,0,0,0-.07-.41.52.52,0,0,0-.37-.2.44.44,0,0,0-.41.09.88.88,0,0,0-.26.41c-.06.16,0,.23.09.23s.17,0,.22-.12S108.25,65.92,108.38,66Zm.79-1.2c.08,0,.14-.06.18-.18,0-.29-.08-.46-.35-.5s-.43,0-.53.35c0,.1,0,.17,0,.21s.12,0,.18,0a.27.27,0,0,1,.21-.1.22.22,0,0,1,.16.15C109.07,64.73,109.12,64.77,109.18,64.77Zm-.29,10.16a.19.19,0,0,1-.21-.09c-.06-.08-.12-.1-.18-.06s-.07.07,0,.21c.1.31.27.43.53.35a.43.43,0,0,0,.31-.18.35.35,0,0,0,0-.32c-.06-.12-.12-.18-.18-.18s-.1,0-.13.12A.22.22,0,0,1,108.88,74.93Zm.82-11.37s.07,0,.09-.12.08-.29-.12-.35-.31,0-.41.21,0,.12,0,.12,0,0,.09,0a.13.13,0,0,1,.15,0,.16.16,0,0,1,.09.13s0,.07.09.07Zm-.21,12.51c-.06,0-.09,0-.1,0s0,0-.1,0-.07,0,0,.12.23.26.41.21.24-.18.12-.35,0-.12-.09-.12h0c-.06,0-.09,0-.09.09S109.56,76,109.5,76.08Zm8.9-10.93a.85.85,0,0,0,.18.54.54.54,0,0,0,.44.22.63.63,0,0,0,.47-.22.77.77,0,0,0,.21-.54.72.72,0,0,0-.21-.53.65.65,0,0,0-.47-.2.56.56,0,0,0-.44.2A.79.79,0,0,0,118.4,65.15Z" transform="translate(-6.05 -6.05)"/></svg>