<svg id="Слой_1" data-name="Слой 1" xmlns="http://www.w3.org/2000/svg" viewBox="0 0 127.9 127.9"><defs><style>.cls-1{fill:#dc80ad;}.cls-2{fill:#fff;}</style></defs><title>15</title><circle class="cls-1" cx="63.95" cy="63.95" r="63.95"/><path class="cls-2" d="M24.88,64.34q-.18.21-.86,1.06t-1.6,2.09l1.2,2.28,1.22,2.28,1,1.92q.45.85.65,1.18a8.81,8.81,0,0,0,1.06,1.55,2.62,2.62,0,0,0,1.29.83.71.71,0,0,1-.46-.69.88.88,0,0,1,.27-.62,1,1,0,0,1,.78-.28,1.46,1.46,0,0,1,.63.12.94.94,0,0,1,.37.29,1.19,1.19,0,0,1,.18.36,1.09,1.09,0,0,1,.05.28,1.49,1.49,0,0,1-.09.49,1.2,1.2,0,0,1-.32.47,1.91,1.91,0,0,1-.63.37,2.85,2.85,0,0,1-1,.15,2.43,2.43,0,0,1-1.05-.22,3.39,3.39,0,0,1-.81-.53,3.92,3.92,0,0,1-.58-.63l-.38-.53a4.34,4.34,0,0,1,.28.71,2.07,2.07,0,0,1,.1.55q0,.64-.56.64a1.72,1.72,0,0,1-1-.46,4.12,4.12,0,0,1-1-1.36,1.37,1.37,0,0,1,0,.46,1.44,1.44,0,0,1-.32.62,2,2,0,0,1-.73.53,3,3,0,0,1-1.24.22A2.26,2.26,0,0,1,20,78.16a1.3,1.3,0,0,1-.59-1,1.07,1.07,0,0,1,1-1.2,1.33,1.33,0,0,1,.71.17,1.08,1.08,0,0,1,.4.41,1,1,0,0,1,.12.53.86.86,0,0,1-.17.49q.62-.13.62-1a3.31,3.31,0,0,0-.14-.88,5,5,0,0,0-.47-1.09q-.28-.49-.76-1.38l-1.06-2-1.86,2.59Q16.93,75,16.4,75.88a.94.94,0,0,0-.14.54,1.15,1.15,0,0,0,.14.51,1.07,1.07,0,0,0,.37.38,1,1,0,0,0,.55.15A.73.73,0,0,1,17,77.2a.69.69,0,0,1-.1-.37.83.83,0,0,1,.28-.59,1.19,1.19,0,0,1,.87-.28,1.38,1.38,0,0,1,.58.1,1,1,0,0,1,.35.26.78.78,0,0,1,.17.33,1.6,1.6,0,0,1,0,.33,1.27,1.27,0,0,1-.18.69,1.47,1.47,0,0,1-.46.46,2.22,2.22,0,0,1-.62.27,2.47,2.47,0,0,1-.64.09,1.72,1.72,0,0,1-1.45-.58,1.37,1.37,0,0,1-.22-1.32A7.56,7.56,0,0,1,14.79,78q-.37.46-.58.46T14,78a3.26,3.26,0,0,1,.47-1.27q-.15.23-.4.54a4,4,0,0,1-.56.58,3.58,3.58,0,0,1-.71.46,1.87,1.87,0,0,1-.85.19,1.5,1.5,0,0,1-.77-.17,1.23,1.23,0,0,1-.42-.38,1.17,1.17,0,0,1-.18-.45,2.33,2.33,0,0,1,0-.36.91.91,0,0,1,.08-.32,1.37,1.37,0,0,1,.24-.38,1.52,1.52,0,0,1,.42-.33,1.32,1.32,0,0,1,.64-.14.89.89,0,0,1,.72.27.87.87,0,0,1,.15.95.71.71,0,0,1-.28.29,3.06,3.06,0,0,0,.73-.4,6,6,0,0,0,1.19-1.14q.21-.23.68-.86l1.12-1.45q.64-.82,1.37-1.79t1.45-1.9l-.86-1.64-.81-1.55-.69-1.31-.49-.94a8.65,8.65,0,0,0-1.47-2.06,3.08,3.08,0,0,0-1.14-.81c.19.09.26.27.23.55a.83.83,0,0,1-.36.63,1.07,1.07,0,0,1-.45.14,1.27,1.27,0,0,1-.59-.06,1.17,1.17,0,0,1-.51-.36,1.07,1.07,0,0,1-.22-.72q0-1.26,1.9-1.26a2.66,2.66,0,0,1,1.69.56,5.36,5.36,0,0,1,1.31,1.62,4.22,4.22,0,0,1-.38-.88,2.49,2.49,0,0,1-.1-.65c0-.43.2-.64.59-.64a1.25,1.25,0,0,1,.9.46,9.33,9.33,0,0,1,1.13,1.69,1,1,0,0,1-.06-.27c0-.09,0-.18,0-.27A1.55,1.55,0,0,1,19.14,61a1.87,1.87,0,0,1,1.38-.49,2.45,2.45,0,0,1,.5.06,2.14,2.14,0,0,1,.58.22,1.41,1.41,0,0,1,.47.42,1.09,1.09,0,0,1,.19.65,1,1,0,0,1-.27.69,1,1,0,0,1-.78.28.86.86,0,0,1-.55-.15.73.73,0,0,1-.26-.37.79.79,0,0,1,0-.42.5.5,0,0,1,.21-.31.62.62,0,0,0-.38.14.72.72,0,0,0-.18.58,3.21,3.21,0,0,0,.15.86,5.9,5.9,0,0,0,.59,1.27q.13.28.4.76t.6,1.11l.08-.1a21.52,21.52,0,0,0,1.78-2.45,3.24,3.24,0,0,0,.55-1.47.71.71,0,0,0-.44-.69A.69.69,0,0,1,24,62a.83.83,0,0,1,0,.41.6.6,0,0,1-.24.33.87.87,0,0,1-.53.14.7.7,0,0,1-.64-.33,1.43,1.43,0,0,1-.21-.77,1.26,1.26,0,0,1,.37-.85,1.39,1.39,0,0,1,1.09-.41,1.12,1.12,0,0,1,.88.4A1.61,1.61,0,0,1,25.06,62a2.71,2.71,0,0,1,.65-1.09,1.11,1.11,0,0,1,.68-.37c.17,0,.25.12.24.36a2.45,2.45,0,0,1-.55,1.1l.38-.49a3.51,3.51,0,0,1,.46-.48,2.37,2.37,0,0,1,.58-.36,1.73,1.73,0,0,1,.71-.14,1.2,1.2,0,0,1,.94.38,1.27,1.27,0,0,1,.35.87,1.46,1.46,0,0,1-.33.9,1,1,0,0,1-.87.44,1,1,0,0,1-.79-.26.83.83,0,0,1-.23-.56.69.69,0,0,1,.38-.69,1,1,0,0,0-.51.14,2.62,2.62,0,0,0-.53.46q-.3.32-.71.83Zm-6.46.15c-.12.07-.23,0-.33-.12s-.2-.19-.31-.14-.08.2,0,.38a1,1,0,0,0,.46.41.54.54,0,0,0,.49,0,.62.62,0,0,0,.27-.4.7.7,0,0,0-.12-.55c-.1-.19-.21-.26-.33-.23s-.11.2,0,.35S18.59,64.43,18.42,64.5Zm.26,1.15c-.05,0,0,.11.05.28q.36.49.72.31a.38.38,0,0,0,.22-.32.63.63,0,0,0-.06-.42q-.15-.31-.28-.2c-.05,0-.06.09,0,.2a.21.21,0,0,1-.12.26.24.24,0,0,1-.29-.05Q18.75,65.58,18.68,65.65Zm1.26,1.41A.29.29,0,0,1,19.7,67c-.05-.06-.1-.06-.15,0s0,0-.05.06,0,.09.05.14c.17.34.38.44.62.31a.28.28,0,0,0,.18-.28,1,1,0,0,0-.08-.38.28.28,0,0,0-.09-.13s-.07,0-.09,0a.11.11,0,0,0-.09.15A.17.17,0,0,1,19.93,67.06Zm.51,2.23a.69.69,0,0,0,.2.53.85.85,0,0,0,1.08,0,.69.69,0,0,0,.2-.53.74.74,0,1,0-1.49,0Zm1.85,2.1a.28.28,0,0,1,.23.09c.05.06.1.06.15,0s0,0,.05-.06,0-.09-.05-.14c-.17-.34-.38-.44-.62-.31a.28.28,0,0,0-.18.28,1,1,0,0,0,.08.38.27.27,0,0,0,.09.13s.07,0,.09,0a.11.11,0,0,0,.09-.15A.17.17,0,0,1,22.29,71.39Zm1.26,1.41q.08,0-.05-.28-.36-.49-.72-.31a.38.38,0,0,0-.22.32.63.63,0,0,0,.06.42c.1.21.2.27.28.21s.06-.09,0-.21a.21.21,0,0,1,.12-.26.24.24,0,0,1,.29.05Q23.47,72.88,23.55,72.8ZM23.8,74c.12-.07.23,0,.33.12s.2.19.31.14.08-.2,0-.38a1,1,0,0,0-.46-.41.54.54,0,0,0-.49,0,.61.61,0,0,0-.27.4.7.7,0,0,0,.12.55q.15.28.33.23c.1-.08.11-.2,0-.35S23.63,74,23.8,74Z" transform="translate(-5.76 -5.52)"/><path class="cls-2" d="M39.08,60.55l.38,0a1.14,1.14,0,0,1,.45.15,1.11,1.11,0,0,1,.38.42,2.15,2.15,0,0,1,.22.83,1.66,1.66,0,0,1,.37-1.17,1.51,1.51,0,0,1,1-.27,2.49,2.49,0,0,0,.1.65q.1.37.31,1,.05.2.33.92t.65,1.7l.78,2.09q.41,1.1.79,2.08t.64,1.67c.17.46.28.75.33.87q.77,1.92,1.2,3.14t.73,1.91a3.4,3.4,0,0,0,.54.95.8.8,0,0,0,.6.26.78.78,0,0,1-.41-.31.81.81,0,0,1-.13-.44.93.93,0,0,1,.28-.65,1,1,0,0,1,.79-.3,1.08,1.08,0,0,1,.94.37,1.19,1.19,0,0,1,.27.68,1.43,1.43,0,0,1-.08.42,1.16,1.16,0,0,1-.27.45,1.62,1.62,0,0,1-.55.36,2.3,2.3,0,0,1-.9.15,2.76,2.76,0,0,1-1.42-.38,3,3,0,0,1-1.11-1.46,2.59,2.59,0,0,1,.15.8,1.18,1.18,0,0,1-.23.77.73.73,0,0,1-.59.28,1.2,1.2,0,0,1-.83-.44,3.37,3.37,0,0,1-.7-1.41,1.64,1.64,0,0,1-.05.55,1.5,1.5,0,0,1-.31.6,1.89,1.89,0,0,1-.65.49,2.49,2.49,0,0,1-1.09.2A2.33,2.33,0,0,1,41,78.28a1.62,1.62,0,0,1-.65-.55,1.27,1.27,0,0,1-.22-.71,1,1,0,0,1,.23-.65,1.1,1.1,0,0,1,.9-.41,1.05,1.05,0,0,1,.85.36.9.9,0,0,1,.15.67.64.64,0,0,1-.41.54q.56,0,.71-.33a1.76,1.76,0,0,0,.14-.69,4.26,4.26,0,0,0-.09-.73q-.09-.47-.23-1.06T42,73.46c-.13-.44-.26-.87-.4-1.29H37l-.9,2.69a5.37,5.37,0,0,0-.33,1.59,1.12,1.12,0,0,0,.69,1.08.94.94,0,0,1-.28-.69.88.88,0,0,1,.26-.63,1.13,1.13,0,0,1,.85-.27,1.27,1.27,0,0,1,1,.4,1.38,1.38,0,0,1,.35.94,2,2,0,0,1,0,.26,1,1,0,0,1-.2.42,1.4,1.4,0,0,1-.5.38,2,2,0,0,1-.9.17A1.84,1.84,0,0,1,35.78,78a1.26,1.26,0,0,1-.51-.94q-.31,1.18-.73,1.36t-.42-.54a2.42,2.42,0,0,1,.1-.72,1.69,1.69,0,0,1-.79,1,2.53,2.53,0,0,1-1.23.31,1.51,1.51,0,0,1-1.08-.38,1.25,1.25,0,0,1-.41-.95,1.19,1.19,0,0,1,.33-.81,1.15,1.15,0,0,1,.9-.37,1.18,1.18,0,0,1,.71.18.85.85,0,0,1,.32.42.91.91,0,0,1,0,.48.58.58,0,0,1-.18.33q.95,0,2.31-3.49.23-.59.55-1.51l.69-2q.37-1.09.76-2.27t.73-2.28l.64-2.06q.29-1,.47-1.63a3,3,0,0,0,.15-.83A3.4,3.4,0,0,0,39.08,60.55Zm.26,4.9q-.15.46-.4,1.15L38.43,68l-.53,1.5-.44,1.28h3.69Zm1.87-.33q-.18.15-.32-.1c-.09-.17-.18-.24-.27-.21s-.1.14-.05.36q.28.72.87.51a.43.43,0,0,0,.29-.32.82.82,0,0,0,0-.55q-.1-.31-.26-.28c-.09.05-.11.15-.08.31A.21.21,0,0,1,41.21,65.11Zm0,1.21c-.05,0-.05.1,0,.26.2.38.41.53.62.46a.4.4,0,0,0,.28-.31.82.82,0,0,0,0-.41c0-.19-.09-.28-.2-.28a.25.25,0,0,0-.08.22.21.21,0,0,1-.18.22.17.17,0,0,1-.24-.06Q41.34,66.27,41.24,66.32Zm.95,1.56a.22.22,0,0,1-.18-.12c-.05-.08-.11-.08-.18,0s-.08.07,0,.2q.13.49.54.38t.2-.61q0-.23-.18-.15t-.08.14A.14.14,0,0,1,42.19,67.88Zm.15,2.05a.79.79,0,0,0,.33.42.48.48,0,0,0,.44.06.4.4,0,0,0,.31-.28.77.77,0,0,0,0-.51A1,1,0,0,0,43,69.2a.53.53,0,0,0-.42-.09.39.39,0,0,0-.35.3A.77.77,0,0,0,42.34,69.93Zm1.44,2.23c.05-.05.11,0,.18.06s.14.11.2,0,.09-.08,0-.23a.45.45,0,0,0-.59-.38c-.27.12-.34.33-.2.64s.12.27.2.18.11-.13.08-.18S43.66,72.2,43.78,72.16ZM44.06,74c.05,0,.07-.11.06-.22a.23.23,0,0,1,.17-.24.31.31,0,0,1,.33.08q.1.13.21.1c.07,0,.07-.09,0-.28q-.21-.64-.72-.46a.47.47,0,0,0-.33.31.62.62,0,0,0,0,.46C43.87,74,44,74.07,44.06,74Zm.77.95A.21.21,0,0,1,45,75a.83.83,0,0,1,.17.13l.13.15a.08.08,0,0,0,.13,0c.1,0,.12-.11.05-.28a1.13,1.13,0,0,0-.41-.53.49.49,0,0,0-.49-.06.54.54,0,0,0-.36.38.71.71,0,0,0,0,.56c.07.2.17.3.31.28s.09-.16.05-.33S44.67,75,44.83,75Z" transform="translate(-5.76 -5.52)"/><path class="cls-2" d="M62.82,63.91a3.67,3.67,0,0,0-.46-1.39,2.35,2.35,0,0,0-1.83-1.15,4.16,4.16,0,0,0-1.12.05,2.76,2.76,0,0,0-1.95,1.49A6.34,6.34,0,0,0,56.8,66v9a4.52,4.52,0,0,1-.38,1.7,3.43,3.43,0,0,1-.83,1.14,2.91,2.91,0,0,1-1.13.61,3.18,3.18,0,0,1-1.27.1,2.21,2.21,0,0,1-1.05-.24,2.58,2.58,0,0,1-.77-.6,2.45,2.45,0,0,1-.46-.81,2.65,2.65,0,0,1-.15-.86,2.54,2.54,0,0,1,.56-1.74,1.88,1.88,0,0,1,1.49-.64,1.58,1.58,0,0,1,1,.32,1.65,1.65,0,0,1,.56.77,1.52,1.52,0,0,1,0,.94,1.49,1.49,0,0,1-.63.82,1.11,1.11,0,0,0,1-.28,2,2,0,0,0,.49-1,8.06,8.06,0,0,0,.15-1.56q0-.91,0-2V63.88A3.75,3.75,0,0,0,55,62.17a1.15,1.15,0,0,0-.83-.64.73.73,0,0,1,.29.46.75.75,0,0,1-.09.49,1.06,1.06,0,0,1-.42.4,1.45,1.45,0,0,1-.73.17,1.34,1.34,0,0,1-.83-.31,1,1,0,0,1-.4-.82,1.27,1.27,0,0,1,.44-1,1.93,1.93,0,0,1,1.31-.38,3.43,3.43,0,0,1,1.2.19,2.85,2.85,0,0,1,.86.49,2.09,2.09,0,0,1,.51.61,1.28,1.28,0,0,1,.17.58,3.49,3.49,0,0,1,1.79-1.64,4.73,4.73,0,0,1,2.35-.32,5,5,0,0,1,2.18.78,3.11,3.11,0,0,1,1.32,1.64,4.37,4.37,0,0,1,.28-1.78.89.89,0,0,1,1.58,0,4.08,4.08,0,0,1,.32,1.86,3.7,3.7,0,0,1,.14-.68,2.53,2.53,0,0,1,.38-.77,2.16,2.16,0,0,1,.76-.63,2.69,2.69,0,0,1,1.26-.26,3.1,3.1,0,0,1,.56.06,1.75,1.75,0,0,1,.64.27,1.07,1.07,0,0,1,.46.56,1.2,1.2,0,0,1-.36,1.35,1.24,1.24,0,0,1-.85.27,1.41,1.41,0,0,1-.71-.18.63.63,0,0,1-.35-.54.54.54,0,0,1,.05-.4.71.71,0,0,1,.18-.24q-.36,0-.68.63a5.72,5.72,0,0,0-.32,2.32l.05,10.54a3.7,3.7,0,0,0,.28,1.52,1.46,1.46,0,0,0,.92.83.7.7,0,0,1-.29-.94,1,1,0,0,1,.37-.41,1.1,1.1,0,0,1,.62-.17,1.28,1.28,0,0,1,.6.13,1.1,1.1,0,0,1,.38.32,1.36,1.36,0,0,1,.21.4,1.24,1.24,0,0,1,.06.36,1.64,1.64,0,0,1-.05.35.94.94,0,0,1-.24.42,1.76,1.76,0,0,1-.55.37,2.35,2.35,0,0,1-1,.17,2.46,2.46,0,0,1-1.1-.22,2.54,2.54,0,0,1-.72-.51,1.91,1.91,0,0,1-.41-.61,4.29,4.29,0,0,1-.18-.53,2.17,2.17,0,0,1-.4,1.44,1.11,1.11,0,0,1-.87.45,1.22,1.22,0,0,1-.88-.49,2.17,2.17,0,0,1-.44-1.4,1.29,1.29,0,0,1-.17.58,2.1,2.1,0,0,1-.51.61,2.85,2.85,0,0,1-.86.49,3.43,3.43,0,0,1-1.2.19,1.92,1.92,0,0,1-1.31-.38,1.27,1.27,0,0,1-.44-1,1,1,0,0,1,.4-.82,1.34,1.34,0,0,1,.83-.31,1.49,1.49,0,0,1,.72.17,1,1,0,0,1,.44.41.8.8,0,0,1,.09.5.64.64,0,0,1-.3.44,1.25,1.25,0,0,0,.87-.71,3.8,3.8,0,0,0,.38-1.78ZM52,75.42a.73.73,0,0,0,.17.5.62.62,0,0,0,.9,0,.74.74,0,0,0,.17-.5c0-.48-.2-.72-.62-.72S52,74.94,52,75.42ZM64.77,69.6a.73.73,0,0,0,.17.5.62.62,0,0,0,.9,0,.74.74,0,0,0,.17-.5c0-.48-.21-.72-.62-.72S64.77,69.12,64.77,69.6Zm.62-5a.26.26,0,0,1-.27-.22c0-.14-.1-.22-.17-.22s-.1.1-.1.26a.7.7,0,0,0,.15.45.48.48,0,0,0,.77,0,.7.7,0,0,0,.15-.45c0-.15,0-.24-.1-.26a.22.22,0,0,0-.19.23C65.62,64.51,65.54,64.58,65.39,64.58Zm0,9.74q.23,0,.24.21a.22.22,0,0,0,.19.23c.05,0,.08,0,.09-.06a.83.83,0,0,0,0-.19.7.7,0,0,0-.15-.45A.48.48,0,0,0,65,74a.7.7,0,0,0-.15.45.83.83,0,0,0,0,.19s0,0,.09.06.12-.07.17-.22A.26.26,0,0,1,65.39,74.32Zm-.33-8.9c-.07,0-.1.08-.1.23a.49.49,0,0,0,.13.35.41.41,0,0,0,.62,0,.5.5,0,0,0,.13-.35c0-.15,0-.23-.1-.23s-.09,0-.12.13-.1.13-.22.13-.19,0-.22-.13S65.11,65.42,65.05,65.42Zm0,8c.05,0,.09,0,.12-.13s.1-.13.22-.13.19,0,.22.13.06.13.12.13.1-.08.1-.23a.5.5,0,0,0-.13-.35.41.41,0,0,0-.62,0,.5.5,0,0,0-.13.35C65,73.39,65,73.47,65.05,73.47Zm.33-6.61c-.09,0-.13-.05-.14-.12s-.06-.09-.14-.09-.1.06-.1.18a.34.34,0,0,0,.38.38q.36,0,.36-.38c0-.12,0-.18-.1-.18a.1.1,0,0,0-.12.1C65.52,66.82,65.47,66.86,65.39,66.86Zm0,5.18q.13,0,.14.1a.1.1,0,0,0,.12.1c.07,0,.1-.06.1-.18s-.12-.38-.36-.38a.34.34,0,0,0-.38.38c0,.12,0,.18.1.18s.13,0,.14-.09S65.3,72.05,65.39,72Z" transform="translate(-5.76 -5.52)"/><path class="cls-2" d="M79.26,60.34a13.31,13.31,0,0,1,1.71.1,4.79,4.79,0,0,1,1.41.4,3.17,3.17,0,0,1,1.09.85,4.23,4.23,0,0,1,.74,1.42,6.88,6.88,0,0,1,.12-1.44,2.52,2.52,0,0,1,.27-.76.7.7,0,0,1,.33-.31,1,1,0,0,1,.31-.06,1,1,0,0,1,.33.06.7.7,0,0,1,.33.31,2.49,2.49,0,0,1,.27.71,5.43,5.43,0,0,1,.12,1.26,5.15,5.15,0,0,1,.12-.71,2.33,2.33,0,0,1,.32-.76,1.9,1.9,0,0,1,.68-.61,2.38,2.38,0,0,1,1.19-.26,1.68,1.68,0,0,1,1.3.43,1.36,1.36,0,0,1,.4.92,1.31,1.31,0,0,1-.29.83,1,1,0,0,1-.78.37,1.16,1.16,0,0,1-.74-.19.77.77,0,0,1-.28-.42.88.88,0,0,1,0-.45.5.5,0,0,1,.14-.27q-.31,0-.59.6a6.1,6.1,0,0,0-.28,2.27v1q0,.73,0,1.73t0,2.17q0,1.17,0,2.27t0,2v1.44a4.05,4.05,0,0,0,.24,1.65,1,1,0,0,0,.76.6.74.74,0,0,1-.29-.47.77.77,0,0,1,.09-.5,1.06,1.06,0,0,1,.42-.4,1.46,1.46,0,0,1,.73-.17,1.34,1.34,0,0,1,.83.31,1,1,0,0,1,.4.82,1.27,1.27,0,0,1-.44,1,1.93,1.93,0,0,1-1.31.38,3.22,3.22,0,0,1-1.14-.18,2.52,2.52,0,0,1-.78-.45,1.89,1.89,0,0,1-.46-.58,1.65,1.65,0,0,1-.18-.56q-.1,1.77-1.05,1.77a.87.87,0,0,1-.72-.45,2.51,2.51,0,0,1-.31-1.4,2.1,2.1,0,0,1-.23.51,2.38,2.38,0,0,1-.53.6,3.45,3.45,0,0,1-.83.51,2.81,2.81,0,0,1-1.15.22,2.54,2.54,0,0,1-1-.15,1.53,1.53,0,0,1-.55-.37,1,1,0,0,1-.24-.42,1.42,1.42,0,0,1-.05-.33,1.22,1.22,0,0,1,.06-.36,1.35,1.35,0,0,1,.2-.4,1.26,1.26,0,0,1,.38-.33,1.19,1.19,0,0,1,.6-.14,1.07,1.07,0,0,1,.77.27.84.84,0,0,1,.28.63.81.81,0,0,1-.36.64,2,2,0,0,0,.91-.71,2.81,2.81,0,0,0,.4-1.68V69.7H81.46a2.19,2.19,0,0,0-2,.87,5.73,5.73,0,0,0-.55,2.92q0,.56,0,1.29a8.05,8.05,0,0,1-.06,1.27,5.1,5.1,0,0,1-.49,1.72q-.36.69-.67.69c-.14,0-.25-.12-.35-.37a3.64,3.64,0,0,1-.14-1.19,2.19,2.19,0,0,1,0-.24,2.48,2.48,0,0,0,0-.27,3.44,3.44,0,0,1-.5,1.59q-.37.51-.73.51a.68.68,0,0,1-.55-.4,2.32,2.32,0,0,1-.24-1.19v-.26a1.25,1.25,0,0,1,0-.26,3.25,3.25,0,0,1-.46,1.28,1.82,1.82,0,0,1-.68.62,1.87,1.87,0,0,1-.74.19h-.65a1.47,1.47,0,0,1-.53-.12,2.31,2.31,0,0,1-.55-.31,2.09,2.09,0,0,1-.44-.43.87.87,0,0,1-.18-.53,1.09,1.09,0,0,1,.31-.86,1.21,1.21,0,0,1,.82-.27,1,1,0,0,1,.76.26.81.81,0,0,1,.24.56.7.7,0,0,1-.46.72,1.09,1.09,0,0,0,.81-.3,2,2,0,0,0,.45-.69,3,3,0,0,0,.19-.78q0-.38,0-.59a15,15,0,0,1,.12-1.87,6.82,6.82,0,0,1,.42-1.69,3.78,3.78,0,0,1,.87-1.32A3.16,3.16,0,0,1,77,69.5,6.25,6.25,0,0,1,75.55,69a3.87,3.87,0,0,1-1.19-.87,4,4,0,0,1-.81-1.35,5.45,5.45,0,0,1-.29-1.9,4,4,0,0,1,.51-2.05,4.26,4.26,0,0,1,1.36-1.42,6.27,6.27,0,0,1,1.92-.82A9,9,0,0,1,79.26,60.34ZM76,65a.66.66,0,0,0-.18-.49.59.59,0,0,0-.44-.18.71.71,0,0,0-.49.18.61.61,0,0,0-.21.49.65.65,0,0,0,.21.5.69.69,0,0,0,.49.19.57.57,0,0,0,.44-.19A.7.7,0,0,0,76,65Zm.13,1.28a.19.19,0,0,0-.09.18c0,.07-.06.12-.19.15s-.25,0-.29,0-.09-.11-.14-.09-.12.07-.1.2a.74.74,0,0,0,.31.32.54.54,0,0,0,.41.06.48.48,0,0,0,.31-.22.36.36,0,0,0,0-.35C76.24,66.34,76.16,66.27,76.08,66.27Zm.05-2.46c.1,0,.17-.09.21-.26a.29.29,0,0,0,0-.35A.59.59,0,0,0,76,63a.45.45,0,0,0-.38.08.7.7,0,0,0-.26.33q-.1.23.05.23c.05,0,.1,0,.15-.1s.14-.1.28-.05.2.07.2.17S76.06,63.79,76.13,63.81Zm.64,10.92a.16.16,0,0,0-.17.13.11.11,0,0,1-.17.08.2.2,0,0,1-.17-.14.14.14,0,0,0-.14-.12c-.07,0-.13.07-.18.2a.31.31,0,0,0,.05.35.54.54,0,0,0,.36.17.38.38,0,0,0,.33-.1.58.58,0,0,0,.15-.36.08.08,0,0,0,0-.13C76.84,74.75,76.81,74.73,76.77,74.73Zm-.13-1.36c-.12,0-.19-.07-.2-.17a.24.24,0,0,0-.18-.19s0,0-.09.06a.28.28,0,0,0-.06.14.59.59,0,0,0,0,.48.42.42,0,0,0,.32.22.49.49,0,0,0,.46-.08.78.78,0,0,0,.28-.41c.07-.14.05-.22-.05-.26s-.16,0-.22.09A.23.23,0,0,1,76.64,73.37Zm-.1-11c.07,0,.09.07.08.12s0,.08.08.11a.11.11,0,0,1,.08,0,.52.52,0,0,0,.19-.19q.09-.14-.24-.32a.4.4,0,0,0-.54.2q-.08.13,0,.15c.07.05.12,0,.15,0S76.44,62.34,76.54,62.37Zm0,5.28a.11.11,0,0,1-.15,0,.1.1,0,0,0-.15,0s0,.09,0,.15a.44.44,0,0,0,.56.18c.17-.1.2-.26.08-.46a.07.07,0,0,0-.08-.08h-.1c-.05,0-.07.07-.06.1S76.63,67.6,76.57,67.65Zm1.36,3.87q-.08-.05-.28.15a.46.46,0,0,1-.44.15.43.43,0,0,1-.23-.37c0-.18-.06-.27-.13-.27l-.06,0a1.17,1.17,0,0,0-.17.21.67.67,0,0,0-.06.55.65.65,0,0,0,.37.4.81.81,0,0,0,1-.51.58.58,0,0,0,.09-.27A.08.08,0,0,0,77.92,71.52Zm-.13-5.36a2,2,0,0,0,.85,1.72,3.39,3.39,0,0,0,2,.56H82.9V64.7a2.83,2.83,0,0,0-.26-1.23,3,3,0,0,0-.67-.92,2.79,2.79,0,0,0-.91-.58,2.67,2.67,0,0,0-1-.19,2.43,2.43,0,0,0-1.05.22,2.59,2.59,0,0,0-.77.54,2.52,2.52,0,0,0-.47.68,1.55,1.55,0,0,0-.17.64,2.33,2.33,0,0,0,.12.86,1,1,0,0,0,.27.4.7.7,0,0,1,.13-.65.8.8,0,0,1,.67-.3.77.77,0,0,1,.58.26,1,1,0,0,1,.24.69,1.07,1.07,0,0,1-.29.72,1.06,1.06,0,0,1-.83.33,1.19,1.19,0,0,1-.6-.15,1.81,1.81,0,0,1-.46-.37,1.94,1.94,0,0,1-.31-.46,1.52,1.52,0,0,1-.14-.42,1.5,1.5,0,0,0,.36,1.06A1.55,1.55,0,0,0,77.8,66.16Zm6.92,3.33a.72.72,0,1,0,1.44,0,.72.72,0,1,0-1.44,0Zm.69-5.1a.28.28,0,0,1-.31-.24c0-.16-.09-.24-.18-.24a.19.19,0,0,0-.1.06.52.52,0,0,0,0,.22.81.81,0,0,0,.18.51.53.53,0,0,0,.44.23.52.52,0,0,0,.41-.23.82.82,0,0,0,.18-.51A1,1,0,0,0,86,64s0,0-.12-.06-.19.1-.2.26A.23.23,0,0,1,85.41,64.4Zm.08,9.79a.26.26,0,0,1,.19.06.51.51,0,0,1,.1.15,1,1,0,0,0,.09.17.17.17,0,0,0,.15.08c.09,0,.13-.11.13-.28a.69.69,0,0,0-.19-.49.62.62,0,0,0-.47-.21.7.7,0,0,0-.69.69c0,.17,0,.27.13.28s.16-.08.22-.23A.34.34,0,0,1,85.49,74.19Zm-.44-8.79c-.09,0-.13.08-.13.26q0,.56.49.56t.46-.56c0-.17,0-.26-.1-.26s-.09,0-.12.14-.11.14-.24.14-.22,0-.26-.14S85.09,65.4,85.05,65.4Zm0,7.84c.05,0,.09,0,.13-.14s.13-.14.28-.14a.24.24,0,0,1,.26.14c0,.09.08.14.13.14S86,73.15,86,73a.46.46,0,0,0-.17-.37.56.56,0,0,0-.37-.14.6.6,0,0,0-.4.14.46.46,0,0,0-.17.37C84.92,73.15,85,73.24,85.08,73.24Zm.33-6.2c-.1,0-.15-.06-.15-.13s-.05-.1-.15-.1-.13.07-.13.2q0,.46.44.46T85.8,67c0-.14,0-.2-.13-.2s-.08,0-.09.12S85.51,67,85.41,67Zm.08,4.64c.1,0,.16,0,.17.11s.05.12.14.12.15-.07.15-.2q0-.44-.46-.44T85,71.7c0,.14.05.2.15.2s.16,0,.17-.1S85.37,71.69,85.49,71.68Z" transform="translate(-5.76 -5.52)"/><path class="cls-2" d="M93.95,64.63a6.1,6.1,0,0,0-.28-2.26c-.19-.41-.38-.62-.59-.62a.57.57,0,0,1,.15.27.8.8,0,0,1,0,.45.77.77,0,0,1-.28.42,1.16,1.16,0,0,1-.74.19,1,1,0,0,1-.78-.37,1.3,1.3,0,0,1-.29-.83,1.29,1.29,0,0,1,.38-.9,1.7,1.7,0,0,1,1.28-.41,2.44,2.44,0,0,1,1.29.3,2,2,0,0,1,.71.7,2.25,2.25,0,0,1,.28.83,6,6,0,0,1,.05.68,6.6,6.6,0,0,1,.12-1.39,2.51,2.51,0,0,1,.27-.76.7.7,0,0,1,.33-.31,1,1,0,0,1,.33-.06.68.68,0,0,1,.56.26,1.59,1.59,0,0,1,.29.64,4.85,4.85,0,0,1,.12.82c0,.29,0,.56,0,.79a3.64,3.64,0,0,1,.72-1.37A3.2,3.2,0,0,1,99,60.91a4.59,4.59,0,0,1,1.37-.37,13.67,13.67,0,0,1,1.6-.09,13.13,13.13,0,0,1,1.56.09,7.09,7.09,0,0,1,1.23.24A4.3,4.3,0,0,1,107,62.31a3.86,3.86,0,0,1,.82,2.37,4.24,4.24,0,0,1-.47,2.12,4,4,0,0,1-1.14,1.31,4.47,4.47,0,0,1-1.41.68,6,6,0,0,1-1.28.23,11.59,11.59,0,0,1,1.7.19,4.85,4.85,0,0,1,1.68.64,3.73,3.73,0,0,1,1.27,1.35,4.63,4.63,0,0,1,.5,2.31,5.55,5.55,0,0,1-.19,1.38,4.71,4.71,0,0,1-.65,1.44,4.94,4.94,0,0,1-1.22,1.24,4.79,4.79,0,0,1-1.86.78,8.31,8.31,0,0,1-1.22.18q-.65.05-1.32.05a12.77,12.77,0,0,1-1.5-.09,6.06,6.06,0,0,1-1.41-.33,3.24,3.24,0,0,1-1.14-.72,2.48,2.48,0,0,1-.67-1.24,3.43,3.43,0,0,1-.33,1.76.93.93,0,0,1-.77.53,1.1,1.1,0,0,1-.86-.53,2.12,2.12,0,0,1-.4-1.32,2.05,2.05,0,0,1-.94,1.44,2.85,2.85,0,0,1-1.47.44,2,2,0,0,1-1.24-.38,1.06,1.06,0,0,1-.42-.82,1.22,1.22,0,0,1,.4-1,1.33,1.33,0,0,1,.83-.31,1.2,1.2,0,0,1,.77.28.73.73,0,0,1,.28.54q0,.44-.2.56a1.09,1.09,0,0,1-.33.15,1,1,0,0,0,.86-.49,3.93,3.93,0,0,0,.29-1.87Zm1.67,4.92a.73.73,0,0,0,.17.5.62.62,0,0,0,.9,0,.74.74,0,0,0,.17-.5.78.78,0,0,0-.17-.53.56.56,0,0,0-.45-.19Q95.61,68.83,95.61,69.55Zm.62-5a.26.26,0,0,1-.27-.22c0-.15-.1-.22-.17-.22s-.1.1-.1.26a.7.7,0,0,0,.15.45.48.48,0,0,0,.77,0,.7.7,0,0,0,.15-.45c0-.15,0-.24-.1-.26a.22.22,0,0,0-.19.23C96.46,64.46,96.38,64.52,96.23,64.52Zm0,9.74c.15,0,.23.07.24.2a.21.21,0,0,0,.19.23c.05,0,.08,0,.09-.06a.83.83,0,0,0,0-.19.7.7,0,0,0-.15-.45.48.48,0,0,0-.77,0,.7.7,0,0,0-.15.45.83.83,0,0,0,0,.19s0,0,.09.06.12-.07.17-.22A.26.26,0,0,1,96.23,74.27Zm-.33-8.9c-.07,0-.1.08-.1.23a.49.49,0,0,0,.13.35.41.41,0,0,0,.62,0,.5.5,0,0,0,.13-.35c0-.15,0-.23-.1-.23s-.09,0-.12.13-.1.13-.22.13-.19,0-.22-.13S95.95,65.37,95.9,65.37Zm0,8.05c.05,0,.09,0,.12-.13s.1-.13.22-.13.19,0,.22.13.06.13.12.13.1-.08.1-.23a.5.5,0,0,0-.13-.35.4.4,0,0,0-.62,0,.49.49,0,0,0-.13.35C95.79,73.34,95.83,73.42,95.9,73.42Zm.33-6.62c-.09,0-.13-.05-.14-.11s-.06-.09-.14-.09-.1.06-.1.18a.34.34,0,0,0,.38.38c.24,0,.36-.13.36-.38s0-.18-.1-.18a.1.1,0,0,0-.12.1C96.36,66.77,96.31,66.81,96.23,66.81Zm0,5.18q.13,0,.14.1a.1.1,0,0,0,.12.1c.07,0,.1-.06.1-.18s-.12-.38-.36-.38a.34.34,0,0,0-.38.38c0,.12,0,.18.1.18s.13,0,.14-.09S96.14,72,96.23,72Zm4.92-3.61a1.87,1.87,0,0,0,.85-.19,2.37,2.37,0,0,0,.67-.49,2.42,2.42,0,0,0,.45-.65,1.64,1.64,0,0,0,.17-.69,2.71,2.71,0,0,0,.44-.37,1.5,1.5,0,0,0,.36-1.06,1.53,1.53,0,0,1-.14.42,2,2,0,0,1-.31.46,1.78,1.78,0,0,1-.46.37,1.19,1.19,0,0,1-.6.15,1,1,0,0,1-.85-.33,1.09,1.09,0,0,1-.28-.72,1,1,0,0,1,.24-.69.77.77,0,0,1,.58-.26.78.78,0,0,1,.67.31.69.69,0,0,1,.13.64,1,1,0,0,0,.27-.4,2.34,2.34,0,0,0,.12-.86,1.81,1.81,0,0,0-.17-.68,2.67,2.67,0,0,0-.47-.74A2.73,2.73,0,0,0,102,62a2.22,2.22,0,0,0-1.05-.24,2.18,2.18,0,0,0-.91.2,2.51,2.51,0,0,0-.79.58,2.75,2.75,0,0,0-.55.91,3.43,3.43,0,0,0-.21,1.23V68.4h2.64Zm-2.64,5.56a4,4,0,0,0,.23,1.42,3.15,3.15,0,0,0,.59,1,2.72,2.72,0,0,0,.78.61,2.1,2.1,0,0,0,.83.24l.47,0a2.3,2.3,0,0,0,.53,0,1.79,1.79,0,0,0,.95-.35,2.42,2.42,0,0,0,.63-.72,3.34,3.34,0,0,0,.36-.92,4.35,4.35,0,0,0,.12-1,.49.49,0,0,0,.19-.09,1.39,1.39,0,0,0,.29-.27,1.69,1.69,0,0,0,.27-.46,1.75,1.75,0,0,0,.12-.67,1.87,1.87,0,0,1-.64,1.1,1.13,1.13,0,0,1-.79.28,1.15,1.15,0,0,1-.77-.28.92.92,0,0,1-.33-.74,1,1,0,0,1,.23-.65.77.77,0,0,1,.62-.27.56.56,0,0,1,.58.32.71.71,0,0,1,.06.53,1.07,1.07,0,0,0,.22-.48,2.8,2.8,0,0,0,.09-.71,2,2,0,0,0-.31-1.15,2.3,2.3,0,0,0-.73-.68,2.63,2.63,0,0,0-.87-.32,4.42,4.42,0,0,0-.71-.08h-3Zm6.28-11.56c.09,0,.15,0,.18,0s.08.06.13,0,.05-.07,0-.15a.32.32,0,0,0-.46-.18c-.19.1-.26.2-.21.3a.54.54,0,0,0,.15.19.11.11,0,0,1,.08,0c.05,0,.07-.07.06-.11S104.74,62.4,104.79,62.37Zm0,5c-.05-.05-.07-.09-.06-.13s0-.07-.06-.1h-.08a.07.07,0,0,0-.08.08q-.15.31.08.44a.36.36,0,0,0,.49-.15.23.23,0,0,0,0-.15c-.05-.05-.1-.05-.14,0A.09.09,0,0,1,104.77,67.39Zm.38-3.67q.08,0,.08-.15c0-.08.06-.14.18-.15s.2,0,.24.05.09.12.14.1.1-.08.05-.23a.82.82,0,0,0-.23-.31.35.35,0,0,0-.33-.08.49.49,0,0,0-.28.2.33.33,0,0,0,0,.33C105,63.65,105.07,63.73,105.15,63.73Zm.05,2.36c-.09,0-.15.07-.2.2a.35.35,0,0,0,0,.33.44.44,0,0,0,.27.2.43.43,0,0,0,.36-.06.65.65,0,0,0,.26-.3c0-.14,0-.2-.08-.2s-.09,0-.13.09-.12.09-.26,0-.18-.09-.17-.15A.15.15,0,0,0,105.2,66.09Zm.31,4.79c.09,0,.14,0,.18,0s.08.06.13,0,.05-.07,0-.15a.32.32,0,0,0-.46-.18c-.19.1-.26.2-.21.3a.53.53,0,0,0,.15.19.11.11,0,0,1,.08,0c.05,0,.07-.07.06-.12S105.46,70.92,105.51,70.88Zm0,5c-.05-.05-.07-.09-.06-.13s0-.07-.06-.1h-.08a.07.07,0,0,0-.08.08q-.15.31.08.43a.36.36,0,0,0,.49-.15.23.23,0,0,0,0-.15c-.05-.05-.1-.05-.14,0A.1.1,0,0,1,105.48,75.91Zm-.18-11a.74.74,0,0,0,.15.48.48.48,0,0,0,.38.19.55.55,0,0,0,.41-.19.67.67,0,0,0,.18-.48.63.63,0,0,0-.18-.46.57.57,0,0,0-.41-.18.49.49,0,0,0-.38.18A.69.69,0,0,0,105.3,64.86Zm.56,7.38c.05,0,.08-.07.08-.15s.06-.14.18-.15.2,0,.24.05.09.12.14.1.1-.08.05-.23a.81.81,0,0,0-.23-.31.35.35,0,0,0-.33-.08.49.49,0,0,0-.28.21.33.33,0,0,0,0,.33C105.72,72.16,105.78,72.24,105.87,72.24Zm.05,2.36c-.09,0-.15.07-.2.2a.35.35,0,0,0,0,.33.43.43,0,0,0,.27.2.43.43,0,0,0,.36-.06.66.66,0,0,0,.26-.29c0-.14,0-.2-.08-.2s-.09,0-.13.09-.12.09-.26,0-.18-.09-.17-.15A.15.15,0,0,0,105.92,74.6Zm.1-1.23a.74.74,0,0,0,.15.47.47.47,0,0,0,.38.19.55.55,0,0,0,.41-.19.67.67,0,0,0,.18-.47.63.63,0,0,0-.18-.46.56.56,0,0,0-.41-.18.48.48,0,0,0-.38.18A.68.68,0,0,0,106,73.37Z" transform="translate(-5.76 -5.52)"/><path class="cls-2" d="M117.38,60.55l.38,0a1.14,1.14,0,0,1,.45.15,1.11,1.11,0,0,1,.38.42,2.15,2.15,0,0,1,.22.83,1.66,1.66,0,0,1,.37-1.17,1.51,1.51,0,0,1,1-.27,2.49,2.49,0,0,0,.1.65q.1.37.31,1,.05.2.33.92t.65,1.7l.78,2.09q.41,1.1.79,2.08t.64,1.67c.17.46.28.75.33.87q.77,1.92,1.2,3.14t.73,1.91a3.4,3.4,0,0,0,.54.95.8.8,0,0,0,.6.26.78.78,0,0,1-.41-.31.81.81,0,0,1-.13-.44.93.93,0,0,1,.28-.65,1,1,0,0,1,.79-.3,1.08,1.08,0,0,1,.94.37,1.19,1.19,0,0,1,.27.68,1.43,1.43,0,0,1-.08.42,1.16,1.16,0,0,1-.27.45,1.62,1.62,0,0,1-.55.36,2.3,2.3,0,0,1-.9.15,2.76,2.76,0,0,1-1.42-.38,3,3,0,0,1-1.11-1.46,2.59,2.59,0,0,1,.15.8,1.18,1.18,0,0,1-.23.77.73.73,0,0,1-.59.28,1.2,1.2,0,0,1-.83-.44,3.37,3.37,0,0,1-.7-1.41,1.64,1.64,0,0,1-.05.55,1.5,1.5,0,0,1-.31.6,1.89,1.89,0,0,1-.65.49,2.49,2.49,0,0,1-1.09.2,2.33,2.33,0,0,1-1.05-.22,1.62,1.62,0,0,1-.65-.55,1.27,1.27,0,0,1-.22-.71,1,1,0,0,1,.23-.65,1.1,1.1,0,0,1,.9-.41,1.05,1.05,0,0,1,.85.36.9.9,0,0,1,.15.67.64.64,0,0,1-.41.54q.56,0,.71-.33a1.76,1.76,0,0,0,.14-.69,4.26,4.26,0,0,0-.09-.73q-.09-.47-.23-1.06t-.33-1.24c-.13-.44-.26-.87-.4-1.29h-4.56l-.9,2.69a5.37,5.37,0,0,0-.33,1.59,1.12,1.12,0,0,0,.69,1.08.94.94,0,0,1-.28-.69.88.88,0,0,1,.26-.63,1.13,1.13,0,0,1,.85-.27,1.27,1.27,0,0,1,1,.4,1.38,1.38,0,0,1,.35.94,2,2,0,0,1,0,.26,1,1,0,0,1-.2.42,1.4,1.4,0,0,1-.5.38,2,2,0,0,1-.9.17,1.84,1.84,0,0,1-1.26-.45,1.26,1.26,0,0,1-.51-.94q-.31,1.18-.73,1.36t-.42-.54a2.42,2.42,0,0,1,.1-.72,1.69,1.69,0,0,1-.79,1,2.53,2.53,0,0,1-1.23.31,1.51,1.51,0,0,1-1.08-.38,1.25,1.25,0,0,1-.41-.95,1.19,1.19,0,0,1,.33-.81,1.15,1.15,0,0,1,.9-.37,1.18,1.18,0,0,1,.71.18.85.85,0,0,1,.32.42.91.91,0,0,1,0,.48.58.58,0,0,1-.18.33q.95,0,2.31-3.49.23-.59.55-1.51l.69-2q.37-1.09.76-2.27t.73-2.28l.64-2.06q.29-1,.47-1.63a3,3,0,0,0,.15-.83A3.4,3.4,0,0,0,117.38,60.55Zm.26,4.9q-.15.46-.4,1.15L116.73,68l-.53,1.5-.44,1.28h3.69Zm1.87-.33q-.18.15-.32-.1c-.09-.17-.18-.24-.27-.21s-.1.14-.05.36q.28.72.87.51a.43.43,0,0,0,.29-.32.82.82,0,0,0,0-.55q-.1-.31-.26-.28c-.09.05-.11.15-.08.31A.21.21,0,0,1,119.51,65.11Zm0,1.21c-.05,0-.05.1,0,.26.2.38.41.53.62.46a.4.4,0,0,0,.28-.31.82.82,0,0,0,0-.41c0-.19-.09-.28-.2-.28a.25.25,0,0,0-.08.22.21.21,0,0,1-.18.22.17.17,0,0,1-.24-.06Q119.64,66.27,119.53,66.32Zm.95,1.56a.22.22,0,0,1-.18-.12c-.05-.08-.11-.08-.18,0s-.08.07,0,.2q.13.49.54.38t.2-.61q0-.23-.18-.15t-.08.14A.14.14,0,0,1,120.48,67.88Zm.15,2.05a.79.79,0,0,0,.33.42.48.48,0,0,0,.44.06.4.4,0,0,0,.31-.28.77.77,0,0,0,0-.51,1,1,0,0,0-.35-.42.53.53,0,0,0-.42-.09.39.39,0,0,0-.35.3A.77.77,0,0,0,120.64,69.93Zm1.44,2.23c.05-.05.11,0,.18.06s.14.11.2,0,.09-.08,0-.23a.45.45,0,0,0-.59-.38c-.27.12-.34.33-.2.64s.12.27.2.18.11-.13.08-.18S122,72.2,122.07,72.16Zm.28,1.87c.05,0,.07-.11.06-.22a.23.23,0,0,1,.17-.24.31.31,0,0,1,.33.08q.1.13.21.1c.07,0,.07-.09,0-.28q-.21-.64-.72-.46a.47.47,0,0,0-.33.31.62.62,0,0,0,0,.46C122.16,74,122.25,74.07,122.35,74Zm.77.95a.21.21,0,0,1,.22,0,.83.83,0,0,1,.17.13l.13.15a.08.08,0,0,0,.13,0c.1,0,.12-.11.05-.28a1.13,1.13,0,0,0-.41-.53.49.49,0,0,0-.49-.06.54.54,0,0,0-.36.38.71.71,0,0,0,0,.56c.07.2.17.3.31.28s.09-.16.05-.33S123,75,123.12,75Z" transform="translate(-5.76 -5.52)"/><path class="cls-2" d="M27,42.24l.35-.64a2.19,2.19,0,0,0,.19-.41,13.8,13.8,0,0,1,1.26.88,7.36,7.36,0,0,1,.9.83,2.58,2.58,0,0,1,.48.72.58.58,0,0,1,0,.53.28.28,0,0,1-.42.11,1.81,1.81,0,0,1-.5-.43,2.6,2.6,0,0,0-.77-.57,1.24,1.24,0,0,0-.25-.1.47.47,0,0,0-.31,0,1.16,1.16,0,0,0-.38.27,4.25,4.25,0,0,0-.5.61l-.34.52-.32.52-.27.45-.17.29-.44.76-.68,1.2a2.51,2.51,0,0,0-.31.71,1.11,1.11,0,0,0,0,.5.66.66,0,0,0,.19.33,1.44,1.44,0,0,0,.33.23l.48.24.74.37a.25.25,0,0,1,.12.39.56.56,0,0,1-.55.21,3.8,3.8,0,0,1-1-.2,9.78,9.78,0,0,1-1.13-.45c-.4-.18-.77-.36-1.12-.54a3.84,3.84,0,0,0,.24-.36l.25-.42-1.06-1.88q-.57-1-1.13-2l-1.08-2-.89-1.62a1.23,1.23,0,0,0-.33-.46q-.19-.09-.46.27c-.18.25-.49.69-.93,1.35a1.34,1.34,0,0,1-.16.18.14.14,0,0,1-.17,0c-.13-.06-.14-.17-.05-.32l.33-.48.43-.66.46-.73.44-.72c.39-.65.7-1.19.92-1.62s.4-.75.53-1a1.41,1.41,0,0,1,.12-.19l.08,0a.23.23,0,0,1,.16,0c.1.05.1.17,0,.35a3.67,3.67,0,0,0-.28.58.36.36,0,0,0,.06.28,5.47,5.47,0,0,0,1.29,1q1.06.69,3,1.67Zm-1.1,1.91a17.07,17.07,0,0,0-1.44-1q-1-.63-2.56-1.42l-.63-.32-.66-.34-.61-.3-.46-.22q.16.33.49.93t.72,1.35l.82,1.55.84,1.51c.27.48.51.89.73,1.25s.39.62.51.78l.63-1,.61-1,.52-.88Z" transform="translate(-5.76 -5.52)"/><path class="cls-2" d="M35.17,34.72c-.15.12-.39.34-.72.67s-.67.67-1,1-.47.53-.72.84-.47.57-.65.76a.25.25,0,0,1-.16.09.23.23,0,0,1-.16-.05c-.09-.07-.06-.18.08-.34.35-.37.5-.64.44-.79a5.57,5.57,0,0,0-1-1.19,33.49,33.49,0,0,0-2.59-2.26L28.13,33l-.57-.46L27,32.15l-.4-.31L26.92,33c.13.48.28,1,.45,1.61l.53,1.82q.27.94.51,1.72t.43,1.32a2.14,2.14,0,0,0,.27.58.33.33,0,0,0,.41.06,2.94,2.94,0,0,0,.52-.47c.15-.15.27-.19.36-.11s.1.19,0,.32a4.49,4.49,0,0,1-.46.43,8.68,8.68,0,0,0-.77.75,4.6,4.6,0,0,0-.48.58,3.52,3.52,0,0,1-.4.5.25.25,0,0,1-.16.09.22.22,0,0,1-.16-.06c-.09-.07-.06-.18.08-.34a2.1,2.1,0,0,0,.33-.42.42.42,0,0,0,0-.3q-.29-.93-.64-2.09t-.69-2.35l-.66-2.27q-.32-1.09-.56-1.88l-.1-.32a.41.41,0,0,0-.12-.19c-.11-.09-.28,0-.51.18s-.64.58-1.21,1.14l-.2.14a.15.15,0,0,1-.17,0c-.11-.09-.1-.19,0-.32s.55-.52,1-1,.95-1,1.54-1.6L26.5,30l.5-.58.48-.55.37-.41a.23.23,0,0,1,.16-.09.22.22,0,0,1,.16.05q.13.11-.08.34-.52.56-.44.79a5.43,5.43,0,0,0,1,1.18,33.33,33.33,0,0,0,2.58,2.26L33,34.48a6.52,6.52,0,0,0,.77.57.48.48,0,0,0,.45,0,2.72,2.72,0,0,0,.6-.52c.14-.15.27-.19.36-.11S35.29,34.59,35.17,34.72Z" transform="translate(-5.76 -5.52)"/><path class="cls-2" d="M37.46,21.42a.14.14,0,0,1,.14,0,.37.37,0,0,1,.14.11c.06.07.06.12,0,.15l-.14.09-.12.07a.56.56,0,0,0-.28.71,5.25,5.25,0,0,0,.66,1.08l.66.84.43.53.91,1.11.88,1.05q.41.49.76.87a7,7,0,0,0,.59.57.87.87,0,0,0,1.16.05s.1,0,.18.1.07.11.05.12q-.45.32-.73.47c-.18.1-.41.25-.66.43s-.53.38-.85.63-.59.46-.84.62c-.05,0-.12,0-.22-.12s-.06-.09,0-.11a.53.53,0,0,0,.24-.66A4.92,4.92,0,0,0,39.66,29l-.41-.53L39,28.14l-.24-.3-.29-.36a0,0,0,0,0-.05,0l-.19.12-.35.25a1.22,1.22,0,0,0-.22.22.93.93,0,0,0-.14.25,1.87,1.87,0,0,0-.08.36c0,.35-.08.73-.11,1.14L37.2,31c0,.4-.05.76-.07,1.11s0,.62,0,.84a1,1,0,0,1-.06.37.42.42,0,0,1-.13.14l-.21.13-.28.16Q35,34.68,34.5,35c-.08.06-.15.05-.21,0a.36.36,0,0,1,0-.09l0-.09a1.2,1.2,0,0,0,.32-.18,1.76,1.76,0,0,0,.51-.48,1.61,1.61,0,0,0,.15-.68c0-.38.06-.82.09-1.31s.07-1,.11-1.42.09-.84.15-1.18a1.22,1.22,0,0,1,.22-.62,3.35,3.35,0,0,1-1.22.54,3.46,3.46,0,0,1-1.19,0,3.06,3.06,0,0,1-1-.35,2.69,2.69,0,0,1-.81-.67,2.13,2.13,0,0,1-.43-.88,2.29,2.29,0,0,1,0-1,2.91,2.91,0,0,1,.52-1.08,4.57,4.57,0,0,1,1.12-1l.91-.61.9-.57.75-.47.5-.32.92-.61.67-.46Zm.21,5.11L37.23,26l-.56-.66-.6-.69L35.49,24a.3.3,0,0,0-.25-.08,1.43,1.43,0,0,0-.4.06,2.44,2.44,0,0,0-.44.17,3,3,0,0,0-.4.24,2.43,2.43,0,0,0-1.09,1.39,1.79,1.79,0,0,0,.47,1.55,3,3,0,0,0,1,.82,2.16,2.16,0,0,0,1,.25,2.74,2.74,0,0,0,1-.22,5.77,5.77,0,0,0,1-.58,4.12,4.12,0,0,0,.51-.4.2.2,0,0,0,0-.29Z" transform="translate(-5.76 -5.52)"/><path class="cls-2" d="M47.11,27a.15.15,0,0,1-.21-.1.16.16,0,0,1,.12-.23,1.83,1.83,0,0,0,.73-.38.63.63,0,0,0,.16-.58,8.45,8.45,0,0,0-.21-.94q-.16-.59-.4-1.3T46.81,22c-.17-.51-.35-1-.52-1.42s-.26-.65-.37-.89a4.72,4.72,0,0,0-.27-.54,1.32,1.32,0,0,0-.49-.58.74.74,0,0,0-.54,0l-.1.05-.09,0c-.13,0-.2,0-.23-.11s0-.22.1-.26l.12,0,.1,0,.14,0,.26-.09.73-.23.73-.21.66-.19.51-.16c.4-.14.84-.3,1.31-.49s.93-.36,1.37-.51A4.83,4.83,0,0,1,52.12,16a1.15,1.15,0,0,1,1,.78,1.8,1.8,0,0,1,.11,1,2.65,2.65,0,0,1-.36.93,5.17,5.17,0,0,1-.68.87,10.53,10.53,0,0,1-.88.81A13.74,13.74,0,0,1,52.77,20a5.92,5.92,0,0,1,1.3-.12,2.35,2.35,0,0,1,1,.24,1.36,1.36,0,0,1,.64.75,2.08,2.08,0,0,1,0,1.5,3.56,3.56,0,0,1-.88,1.32,6.44,6.44,0,0,1-1.46,1.07,10.39,10.39,0,0,1-1.73.75l-.69.21-.77.23-.77.23-.71.22Zm4.05-8.77a1.35,1.35,0,0,0-.85-.85,2.32,2.32,0,0,0-1.47.08c-.81.27-1.18.53-1.1.79s.09.31.19.61l.31.94.3.91.16.48s0,0,.12,0a5,5,0,0,0,.56-.16,3.21,3.21,0,0,0,1.71-1.09A1.76,1.76,0,0,0,51.16,18.19ZM49.5,23.34l.33.87a1.24,1.24,0,0,0,.12.26,1.1,1.1,0,0,0,.77.52,2.31,2.31,0,0,0,1.19-.11,2.93,2.93,0,0,0,1.53-1,1.67,1.67,0,0,0,.06-1.63,2,2,0,0,0-.54-.81,1.76,1.76,0,0,0-.78-.37,2.84,2.84,0,0,0-1,0,7.49,7.49,0,0,0-1.18.3l-.57.22a4.92,4.92,0,0,0-.5.23Z" transform="translate(-5.76 -5.52)"/><path class="cls-2" d="M64.75,21.34l-.52.5a7.93,7.93,0,0,1-.78.64,5.94,5.94,0,0,1-1,.58,3.83,3.83,0,0,1-1.19.33,4.47,4.47,0,0,1-1.76-.11,3.87,3.87,0,0,1-1.38-.69,3.57,3.57,0,0,1-.94-1.15,4.49,4.49,0,0,1-.47-1.49,4.3,4.3,0,0,1,.08-1.72,4.94,4.94,0,0,1,1.44-2.4,7.86,7.86,0,0,1,.87-.69,4.84,4.84,0,0,1,.46-.29c.19-.11.4-.21.63-.31s.48-.19.75-.28a4.52,4.52,0,0,1,.85-.18,6.6,6.6,0,0,1,1.64,0,4.27,4.27,0,0,1,1.47.46,3.46,3.46,0,0,1,1.59,4,5.63,5.63,0,0,1-.54,1.26,7.2,7.2,0,0,1-.68,1Zm-2.15.54a2,2,0,0,0,1.59-1,3.85,3.85,0,0,0,.27-2.43A4.56,4.56,0,0,0,64,17a4,4,0,0,0-.84-1.13,3.37,3.37,0,0,0-1.13-.7,2.8,2.8,0,0,0-1.3-.15,1.92,1.92,0,0,0-.89.34,2.28,2.28,0,0,0-.67.76,3.46,3.46,0,0,0-.38,1.13,4.83,4.83,0,0,0,0,1.44,3.9,3.9,0,0,0,.49,1.47,3.54,3.54,0,0,0,.9,1,3.35,3.35,0,0,0,1.15.57A3.26,3.26,0,0,0,62.6,21.88Z" transform="translate(-5.76 -5.52)"/><path class="cls-2" d="M79,23.6c-.19,0-.53-.1-1-.16l-1.48-.17c-.35,0-.73-.05-1.16-.06s-.77,0-1-.05a.23.23,0,0,1-.17-.07.18.18,0,0,1,0-.15c0-.11.13-.15.35-.13.53,0,.85,0,1-.13a5.13,5.13,0,0,0,.46-1.45A28.6,28.6,0,0,0,76.38,18l.2-1.77a7.7,7.7,0,0,0,.06-.93l-1.18-.17L74.27,15l-1.1-.08-1.1,0q-.15.51-.35,1.52T71.33,19c-.1.94-.18,1.66-.24,2.16a5.58,5.58,0,0,0-.06.91.42.42,0,0,0,.28.33,2.88,2.88,0,0,0,.8.16c.22,0,.32.09.31.21s-.11.19-.29.17-.53-.1-1-.16-1-.12-1.48-.17c-.35,0-.74-.06-1.16-.07s-.77,0-1-.05a.25.25,0,0,1-.17-.07.19.19,0,0,1,0-.15c0-.11.13-.15.35-.13.53,0,.85,0,1-.12A5.15,5.15,0,0,0,69,20.58a29.47,29.47,0,0,0,.51-3.25l.24-2.16a5.46,5.46,0,0,0,.06-.91.41.41,0,0,0-.28-.32,3,3,0,0,0-.81-.16c-.22,0-.32-.09-.31-.21s.11-.19.3-.17c.34.07.7.13,1.07.18l1.22.15,1.48.14,1.86.17,1.61.14,1.4.1,1.38.09,1.55.13a.25.25,0,0,1,.17.07.19.19,0,0,1,0,.15c0,.11-.13.15-.35.13-.53-.05-.85,0-1,.13a5.09,5.09,0,0,0-.46,1.44,29,29,0,0,0-.51,3.25L78,21.82a5.47,5.47,0,0,0-.06.91.42.42,0,0,0,.28.33,3,3,0,0,0,.8.16c.22,0,.32.09.31.21S79.19,23.62,79,23.6Z" transform="translate(-5.76 -5.52)"/><path class="cls-2" d="M86.69,25.14a8,8,0,0,1-1.69.14A5.92,5.92,0,0,1,83.23,25c-.17-.06-.36-.13-.56-.22l-.5-.24c-.1.21-.19.43-.28.65l-.27.65-.24.58-.18.46a3.17,3.17,0,0,0-.29,1.22.51.51,0,0,0,.37.47,3.53,3.53,0,0,0,.47.1,2,2,0,0,0,.56,0s.05,0,.06.1a.53.53,0,0,1,0,.2A1,1,0,0,1,82,29l-.72,0-.95,0-1,0-.79-.06a2.52,2.52,0,0,1-.4-.05L78,28.7c-.06,0-.07-.09,0-.18a.12.12,0,0,1,.1-.09.26.26,0,0,0,.13,0,.74.74,0,0,0,.26-.35c.08-.19.17-.36.27-.54L79.44,26q.41-.89.84-1.87l.86-2c.28-.66.53-1.25.73-1.8a13.3,13.3,0,0,0,.59-1.84,3,3,0,0,0,.08-1.06.8.8,0,0,0-.26-.53,1.59,1.59,0,0,0-.46-.24l-.16,0-.2-.06s-.06-.06,0-.14a.53.53,0,0,1,.05-.11.18.18,0,0,1,.11,0l.4-.06.67-.08.81-.08.8-.07.64,0a1.23,1.23,0,0,1,.36,0,.37.37,0,0,1,.29.34,1.78,1.78,0,0,1-.11.63l-.2.48-.31.75c.22-.11.51-.23.87-.38A9.29,9.29,0,0,1,87,17.47a7.9,7.9,0,0,1,1.31-.19,3.24,3.24,0,0,1,1.22.14,3.56,3.56,0,0,1,1.31.72,3,3,0,0,1,.75,1,3,3,0,0,1,.24,1.19,3.29,3.29,0,0,1-.22,1.2A4.6,4.6,0,0,1,90.81,23a6.22,6.22,0,0,1-1.12,1,5.93,5.93,0,0,1-1.2.65,6.32,6.32,0,0,1-1.08.34ZM83,22.48a.82.82,0,0,0,.15.48,2.44,2.44,0,0,0,.48.56,4.94,4.94,0,0,0,.76.56,4.71,4.71,0,0,0,1,.45,2.7,2.7,0,0,0,1,.13,2.23,2.23,0,0,0,1-.31,3.18,3.18,0,0,0,.9-.83,5.59,5.59,0,0,0,.75-1.42,3.87,3.87,0,0,0,.26-1.22,2.91,2.91,0,0,0-.17-1.13,2.46,2.46,0,0,0-.58-.91,2.41,2.41,0,0,0-1-.57,2.3,2.3,0,0,0-.7-.09,3.59,3.59,0,0,0-.81.1,4.24,4.24,0,0,0-.8.28,2,2,0,0,0-.63.44,2.94,2.94,0,0,0-.4.59c-.15.27-.3.58-.46.92s-.3.68-.43,1Z" transform="translate(-5.76 -5.52)"/><path class="cls-2" d="M97.12,29.69l-.74.08a9.23,9.23,0,0,1-1,0,6.13,6.13,0,0,1-1.17-.14A3.86,3.86,0,0,1,93,29.22a4.12,4.12,0,0,1-1.29-1.12,3.22,3.22,0,0,1-.54-2.79,4.58,4.58,0,0,1,.66-1.43,4.75,4.75,0,0,1,1.24-1.28,5.71,5.71,0,0,1,2.76-1,8.42,8.42,0,0,1,1.15,0l.56,0a7,7,0,0,1,.7.13A7.85,7.85,0,0,1,99,22a4.25,4.25,0,0,1,.78.36,6.09,6.09,0,0,1,1.27,1,3.72,3.72,0,0,1,.82,1.21,2.92,2.92,0,0,1,.2,1.4,3.29,3.29,0,0,1-.61,1.54,3.77,3.77,0,0,1-1.07,1.06,6.45,6.45,0,0,1-1.29.66,8.49,8.49,0,0,1-1.2.36Zm-2-.84A2.1,2.1,0,0,0,97,29a4.34,4.34,0,0,0,1.87-1.73,4.69,4.69,0,0,0,.66-1.4,3.7,3.7,0,0,0,.12-1.37,2.9,2.9,0,0,0-.4-1.2,2.48,2.48,0,0,0-.9-.87,1.92,1.92,0,0,0-.92-.26,2.6,2.6,0,0,0-1,.19,3.93,3.93,0,0,0-1.06.65,5.26,5.26,0,0,0-1,1.11,4,4,0,0,0-.63,1.42,3.19,3.19,0,0,0,0,1.32,2.9,2.9,0,0,0,.5,1.12A3,3,0,0,0,95.09,28.85Z" transform="translate(-5.76 -5.52)"/><path class="cls-2" d="M110.61,31.62a1.55,1.55,0,0,1-.41.1,6,6,0,0,1-.67.07c-.24,0-.49,0-.74,0a3.11,3.11,0,0,1-.61-.07c-.09,0-.12-.07-.1-.13a.67.67,0,0,1,.11-.15.65.65,0,0,0,.15-.37,1.83,1.83,0,0,0,0-.61,2.61,2.61,0,0,0-.26-.71,2.34,2.34,0,0,0-.55-.67,1.65,1.65,0,0,0-1.62-.25,4.83,4.83,0,0,0-2,1.3,4.17,4.17,0,0,0-.92,1.29,3,3,0,0,0-.27,1.32A2.89,2.89,0,0,0,103,34a4,4,0,0,0,.93,1.14,4.66,4.66,0,0,0,1.49.93,4.43,4.43,0,0,0,1.24.25h.07a.13.13,0,0,1,.05.13.31.31,0,0,1-.09.14.16.16,0,0,1-.11.05l-1-.09a11.69,11.69,0,0,1-1.39-.23,10,10,0,0,1-1.46-.43,4,4,0,0,1-1.23-.71,3.72,3.72,0,0,1-1.49-2.77,4,4,0,0,1,1.36-2.87,5.24,5.24,0,0,1,2.2-1.38,5.69,5.69,0,0,1,2.22-.22,6.13,6.13,0,0,1,2,.55,6.55,6.55,0,0,1,1.44.9,5.74,5.74,0,0,1,.73.74,4.51,4.51,0,0,1,.45.66,2,2,0,0,1,.2.51C110.66,31.49,110.65,31.58,110.61,31.62Z" transform="translate(-5.76 -5.52)"/><path class="cls-2" d="M110.37,42.5l-.72-.18a8.78,8.78,0,0,1-1-.33,5.93,5.93,0,0,1-1-.53,3.58,3.58,0,0,1-.88-.81,3.76,3.76,0,0,1-.74-1.49,3.2,3.2,0,0,1,0-1.46,3.41,3.41,0,0,1,.64-1.32,5,5,0,0,1,1.19-1.1,5.19,5.19,0,0,1,1.67-.76,6,6,0,0,1,1.58-.18,5.63,5.63,0,0,1,1.38.2,8.25,8.25,0,0,1,1.07.37,5.38,5.38,0,0,1,.5.24,6.15,6.15,0,0,1,.59.36,7.3,7.3,0,0,1,.62.47,4.05,4.05,0,0,1,.58.6,5.58,5.58,0,0,1,.78,1.34,3.48,3.48,0,0,1,.27,1.41,3,3,0,0,1-.38,1.37,3.61,3.61,0,0,1-1.19,1.22,4.11,4.11,0,0,1-1.42.61,6.88,6.88,0,0,1-1.46.16,8.51,8.51,0,0,1-1.25-.08ZM108.83,41a2,2,0,0,0,1.68.83,4.69,4.69,0,0,0,2.43-1,5.08,5.08,0,0,0,1.18-1.07,3.9,3.9,0,0,0,.66-1.22,2.83,2.83,0,0,0,.12-1.25,2.27,2.27,0,0,0-.48-1.12,1.79,1.79,0,0,0-.75-.56,2.55,2.55,0,0,0-1-.18,4.21,4.21,0,0,0-1.25.24,5.83,5.83,0,0,0-1.36.69,4.27,4.27,0,0,0-1.16,1.1,3.31,3.31,0,0,0-.55,1.22,2.82,2.82,0,0,0,0,1.21A2.7,2.7,0,0,0,108.83,41Z" transform="translate(-5.76 -5.52)"/><path class="cls-2" d="M110.56,45.21c0-.09,0-.15.1-.2a.18.18,0,0,1,.26.09,1.69,1.69,0,0,0,.46.65.76.76,0,0,0,.63.11,10.07,10.07,0,0,0,1-.26l1.37-.45,1.55-.55c.53-.2,1-.38,1.5-.57l.94-.4a5.26,5.26,0,0,0,.57-.29,1.37,1.37,0,0,0,.6-.49.6.6,0,0,0,0-.49.23.23,0,0,0-.07-.09.19.19,0,0,1-.06-.08q0-.18.11-.22c.14-.06.24,0,.29.08l0,.11,0,.09a.7.7,0,0,0,0,.13l.11.23.3.66c.1.23.19.45.28.66l.25.6.2.46c.17.36.38.76.62,1.18s.45.83.64,1.23a3.9,3.9,0,0,1,.41,1.72,1.09,1.09,0,0,1-.77,1,2.25,2.25,0,0,1-1.06.17,3.12,3.12,0,0,1-1-.27,5.7,5.7,0,0,1-1-.57,10.2,10.2,0,0,1-.93-.76,12.08,12.08,0,0,1,.47,1.28,5,5,0,0,1,.22,1.19,1.91,1.91,0,0,1-.19,1,1.4,1.4,0,0,1-.77.64,2.57,2.57,0,0,1-1.61.14,4,4,0,0,1-1.48-.72,6.23,6.23,0,0,1-1.25-1.28,9.11,9.11,0,0,1-.93-1.55c-.09-.19-.18-.4-.27-.63l-.29-.7-.3-.7c-.09-.23-.19-.45-.28-.64Zm4.07,2-.91.37a1.59,1.59,0,0,0-.28.13,1,1,0,0,0-.5.74,1.84,1.84,0,0,0,.2,1.09,2.75,2.75,0,0,0,1.16,1.35A2.07,2.07,0,0,0,116,50.8a2.11,2.11,0,0,0,.84-.55,1.53,1.53,0,0,0,.35-.75,2.28,2.28,0,0,0-.06-.93,6,6,0,0,0-.4-1.07c-.06-.13-.15-.3-.27-.51a4.16,4.16,0,0,0-.28-.45Zm5.66,1.19a1.35,1.35,0,0,0,.86-.85,1.87,1.87,0,0,0-.19-1.35c-.34-.73-.65-1.05-.92-1l-.64.22-1,.35-1,.33-.51.19s0,0,0,.11a4.35,4.35,0,0,0,.22.51,3,3,0,0,0,1.29,1.51A2.19,2.19,0,0,0,120.29,48.37Z" transform="translate(-5.76 -5.52)"/><path class="cls-2" d="M24.66,96.63l.28.66a2.22,2.22,0,0,0,.2.4,14.88,14.88,0,0,1-1.55.29,8.12,8.12,0,0,1-1.27.07,3.05,3.05,0,0,1-.9-.14.65.65,0,0,1-.43-.35c-.07-.18,0-.3.19-.37a2,2,0,0,1,.68-.06,2.81,2.81,0,0,0,1-.16l.25-.11a.43.43,0,0,0,.18-.23,1,1,0,0,0,0-.44,4,4,0,0,0-.16-.75c-.06-.19-.12-.38-.19-.58l-.2-.57-.18-.49-.12-.31-.32-.81-.51-1.27a2.49,2.49,0,0,0-.36-.68,1.23,1.23,0,0,0-.39-.34.77.77,0,0,0-.4-.09,1.58,1.58,0,0,0-.41.08l-.51.18-.79.27a.28.28,0,0,1-.4-.17q-.1-.26.2-.52a3.71,3.71,0,0,1,.79-.53,10.26,10.26,0,0,1,1.12-.49l1.19-.42c0,.13.08.26.13.41l.17.45,2.22.51,2.39.56,2.29.54,1.9.45a1.4,1.4,0,0,0,.59.07c.14,0,.17-.21.09-.5s-.23-.8-.46-1.54a1.15,1.15,0,0,1,0-.23c0-.06,0-.1.11-.12s.23,0,.29.17.09.32.16.55.15.47.24.73l.28.81c.1.27.19.54.28.78q.4,1.05.68,1.71t.42,1a1.31,1.31,0,0,1,.07.21.15.15,0,0,1,0,.08.21.21,0,0,1-.13.1c-.11,0-.2,0-.27-.23a3.51,3.51,0,0,0-.28-.58.42.42,0,0,0-.26-.14,6.14,6.14,0,0,0-1.67.23q-1.26.28-3.32,1Zm-.8-2q.57-.07,1.75-.36t2.85-.84l.68-.23.72-.24.65-.22.49-.17-1.08-.28-1.56-.39-1.79-.45L24.79,91l-1.5-.32q-.66-.13-1-.16l.41,1.12q.2.57.4,1.08c.12.33.24.64.36.94S23.74,94.28,23.86,94.6Z" transform="translate(-5.76 -5.52)"/><path class="cls-2" d="M31,105.56l-.71-.21a8.39,8.39,0,0,1-1-.35,5.81,5.81,0,0,1-1-.56,3.5,3.5,0,0,1-.85-.83,3.68,3.68,0,0,1-.67-1.51,3.23,3.23,0,0,1,.06-1.45,3.5,3.5,0,0,1,.7-1.3,5.06,5.06,0,0,1,1.24-1.06,5.26,5.26,0,0,1,1.7-.71,6,6,0,0,1,1.59-.13,5.61,5.61,0,0,1,1.37.24,8.09,8.09,0,0,1,1.05.4,5,5,0,0,1,.49.25,6.14,6.14,0,0,1,.58.38,7.37,7.37,0,0,1,.6.49,4,4,0,0,1,.55.62,5.54,5.54,0,0,1,.72,1.36,3.47,3.47,0,0,1,.21,1.42,3,3,0,0,1-.44,1.36A3.67,3.67,0,0,1,36,105.13a4.15,4.15,0,0,1-1.45.57,6.88,6.88,0,0,1-1.46.12,8.59,8.59,0,0,1-1.25-.12ZM29.57,104a2,2,0,0,0,1.64.87,4.75,4.75,0,0,0,2.47-.88,5.19,5.19,0,0,0,1.22-1,4,4,0,0,0,.72-1.21,2.86,2.86,0,0,0,.17-1.24,2.26,2.26,0,0,0-.43-1.14,1.76,1.76,0,0,0-.72-.58,2.53,2.53,0,0,0-1-.21,4.17,4.17,0,0,0-1.26.2,5.84,5.84,0,0,0-1.39.65,4.37,4.37,0,0,0-1.21,1.07,3.41,3.41,0,0,0-.6,1.21,2.82,2.82,0,0,0,0,1.21A2.65,2.65,0,0,0,29.57,104Z" transform="translate(-5.76 -5.52)"/><path class="cls-2" d="M45.41,111a5.69,5.69,0,0,1,.92.8,3.34,3.34,0,0,1,.67,1,2.37,2.37,0,0,1,.14,1.2,2.75,2.75,0,0,1-.64,1.34,2.6,2.6,0,0,1-.85.69,4.35,4.35,0,0,1-1.06.38,6.58,6.58,0,0,1-1.17.15,9.82,9.82,0,0,1-1.17,0,10.36,10.36,0,0,1-1.83-.34,4.78,4.78,0,0,1-1.38-.62,6,6,0,0,1-1.23-1q-.39-.47-.22-.67c.1-.13.22-.26.37-.41l.43-.43.41-.39.32-.3a.32.32,0,0,1,.2-.12.16.16,0,0,1,.13.05.22.22,0,0,1,0,.14.23.23,0,0,1,0,.15.87.87,0,0,0-.18.55,1.9,1.9,0,0,0,.16.74,3.2,3.2,0,0,0,.52.84,4.58,4.58,0,0,0,.92.81,1.83,1.83,0,0,0,.82.32,2,2,0,0,0,.84-.07,2.77,2.77,0,0,0,.81-.4,4.19,4.19,0,0,0,.74-.68,3.26,3.26,0,0,0,.6-1.11,2.78,2.78,0,0,0,.11-1.11,2.32,2.32,0,0,0-.36-1,2.92,2.92,0,0,0-.82-.82l-.28-.16-.4-.19-.38-.17-.2-.1q-.2-.14.07-.47a.11.11,0,0,1,.11,0h.12c.3.21.63.41,1,.61a3.4,3.4,0,0,0,1.07.4,1.52,1.52,0,0,0,.61,0,3.18,3.18,0,0,0,.67-.23,4.15,4.15,0,0,0,.65-.39,2.85,2.85,0,0,0,.55-.52,2.17,2.17,0,0,0,.56-1.41,1.39,1.39,0,0,0-.68-1.13,2,2,0,0,0-.74-.31,2.68,2.68,0,0,0-.84,0,2.59,2.59,0,0,0-.78.21,1.49,1.49,0,0,0-.57.42.3.3,0,0,1-.21.06.14.14,0,0,1-.15-.13,2,2,0,0,1-.05-.53,1.26,1.26,0,0,1,.33-.79.79.79,0,0,1,.57-.24,3.06,3.06,0,0,1,1,.1,6.86,6.86,0,0,1,1.3.47,10.63,10.63,0,0,1,1.5.87,4.49,4.49,0,0,1,.72.62,2.49,2.49,0,0,1,.5.76,1.67,1.67,0,0,1,.11.86,1.82,1.82,0,0,1-.42.9,2.17,2.17,0,0,1-.79.62,3.67,3.67,0,0,1-1,.29,5.79,5.79,0,0,1-1.06.07,7.56,7.56,0,0,1-1-.09Z" transform="translate(-5.76 -5.52)"/><path class="cls-2" d="M47.92,117.52a4,4,0,0,1,.25-1.07q.21-.58.48-1.16a10,10,0,0,1,.62-1.09,11.57,11.57,0,0,1,.72-1,6.86,6.86,0,0,1,.78-.82,4.09,4.09,0,0,1,.79-.56,6.28,6.28,0,0,1,1.4-.54A8.67,8.67,0,0,1,54.5,111a8.18,8.18,0,0,1,1.49,0,4.91,4.91,0,0,1,1.23.28,3.44,3.44,0,0,1,2.27,2.6,4.91,4.91,0,0,1,0,1.84,8.07,8.07,0,0,1-.62,2c-.16.32-.34.64-.54,1a4.29,4.29,0,0,1-.68.86A7.34,7.34,0,0,1,56,120.81a9.88,9.88,0,0,1-2,.84,8.14,8.14,0,0,1-2,.35,4,4,0,0,1-1.65-.22A3.93,3.93,0,0,1,48,118.9,4.4,4.4,0,0,1,47.92,117.52ZM51,115.13a8.79,8.79,0,0,0-.66,2,5.65,5.65,0,0,0-.07,1.79,3.13,3.13,0,0,0,.51,1.39,2.33,2.33,0,0,0,1.11.85,1.87,1.87,0,0,0,1.31,0,3.64,3.64,0,0,0,1.23-.74,6.47,6.47,0,0,0,1.06-1.23,11.58,11.58,0,0,0,.83-1.43,9.54,9.54,0,0,0,.79-2.46,5.31,5.31,0,0,0,0-1.84,2.81,2.81,0,0,0-.54-1.24,2.08,2.08,0,0,0-.85-.65,2,2,0,0,0-1.3,0,3.89,3.89,0,0,0-1.28.7A6.5,6.5,0,0,0,52,113.5,9.08,9.08,0,0,0,51.1,115Z" transform="translate(-5.76 -5.52)"/><path class="cls-2" d="M66.38,119.47a3.33,3.33,0,0,1,.64-1.23,4.34,4.34,0,0,1,1.1-1,5.67,5.67,0,0,1,1.43-.63,5.39,5.39,0,0,1,1.62-.21,6.59,6.59,0,0,1,1.62.23,4.12,4.12,0,0,1,1.37.65,3.16,3.16,0,0,1,.94,1.11,3.27,3.27,0,0,1,.32,1.61,3.5,3.5,0,0,1-.35,1.42,5.88,5.88,0,0,1-.75,1.18,7.58,7.58,0,0,1-.84.88l-.59.52-.6.42a8.57,8.57,0,0,1-.88.52,6.06,6.06,0,0,1-1.09.44,4.42,4.42,0,0,1-3.49-.47,4.17,4.17,0,0,1-1.32-1.54,6.22,6.22,0,0,1-.6-2.06,14.35,14.35,0,0,1-.1-2.21,11.62,11.62,0,0,1,.3-2.3,7.82,7.82,0,0,1,.75-2A5.25,5.25,0,0,1,67,113.35a3.19,3.19,0,0,1,1.61-.74,13.73,13.73,0,0,1,1.43-.14q.68,0,1.29,0l1.12,0a5.51,5.51,0,0,0,.93-.05c.4-.06.66-.19.75-.38s.06-.09.1-.09a.15.15,0,0,1,.11,0,.12.12,0,0,1,0,.08,1.15,1.15,0,0,1-.17.48,4.08,4.08,0,0,1-.4.58,3.45,3.45,0,0,1-.49.5.74.74,0,0,1-.44.21l-.53,0-.57,0c-.39,0-.79,0-1.22-.06s-.84-.05-1.25-.06a2.8,2.8,0,0,0-1.48.32,2.76,2.76,0,0,0-.95.89,3.69,3.69,0,0,0-.51,1.24,7.46,7.46,0,0,0-.17,1.35c0,.14,0,.3,0,.48s0,.35,0,.52,0,.34,0,.5A4,4,0,0,0,66.38,119.47Zm4.3,4.8a2,2,0,0,0,1.73-.74,4,4,0,0,0,.68-2.37,4.5,4.5,0,0,0-.19-1.51,3.82,3.82,0,0,0-.64-1.23,3.19,3.19,0,0,0-1-.84,2.73,2.73,0,0,0-1.26-.32,2,2,0,0,0-.93.22,2.4,2.4,0,0,0-.79.66,3.52,3.52,0,0,0-.56,1.06,4.87,4.87,0,0,0-.24,1.42,3.82,3.82,0,0,0,.23,1.52,3.38,3.38,0,0,0,.71,1.14,3.21,3.21,0,0,0,2.27,1Z" transform="translate(-5.76 -5.52)"/><path class="cls-2" d="M89.46,121.09a2.42,2.42,0,0,1-.24.24l-.53.47-.7.59-.76.6c-.25.19-.49.35-.71.49a2,2,0,0,1-.54.25.61.61,0,0,1-.47-.09,1.68,1.68,0,0,1-.43-.42,4.37,4.37,0,0,1-.4-.66c-.13-.25-.26-.52-.38-.81q-.28.34-.72.82a10.31,10.31,0,0,1-1,.93,9.74,9.74,0,0,1-1.15.82,4,4,0,0,1-1.21.5,2.51,2.51,0,0,1-.93,0,2,2,0,0,1-.73-.26,1.63,1.63,0,0,1-.52-.49,2,2,0,0,1-.29-.65,1.24,1.24,0,0,1,.14-1,4.67,4.67,0,0,1,1-1l.89-.69,1.18-.88L82,119q.51-.4.74-.62a7.76,7.76,0,0,0-.5-.92,2.66,2.66,0,0,0-.56-.64,1.57,1.57,0,0,0-.66-.32,1.94,1.94,0,0,0-.83,0,2.06,2.06,0,0,0-.74.31,2.66,2.66,0,0,0-.53.47,2,2,0,0,0-.3.47.85.85,0,0,0-.09.33.15.15,0,0,1-.14.18.82.82,0,0,1-.54-.07.55.55,0,0,1-.33-.37.48.48,0,0,1,0-.22c.25-.21.57-.46.94-.72s.77-.53,1.18-.78a13.52,13.52,0,0,1,1.25-.67,5.54,5.54,0,0,1,1.16-.41,2.94,2.94,0,0,1,1.28-.06,1.51,1.51,0,0,1,.78.46,2.47,2.47,0,0,1,.48.85c.12.34.23.71.36,1.1q.28.88.58,1.7a9.11,9.11,0,0,0,.64,1.41,3.47,3.47,0,0,0,.74.93.93.93,0,0,0,.83.24,1.73,1.73,0,0,0,.44-.17,4,4,0,0,0,.43-.27L89,121l.21-.18a.2.2,0,0,1,.25.11A.34.34,0,0,1,89.46,121.09ZM84,121l-.27-.62-.28-.64-.24-.52-.14-.28-.62.4c-.23.15-.46.31-.69.47l-.64.49c-.2.16-.37.31-.49.43a2.76,2.76,0,0,0-.54.67.94.94,0,0,0-.07.68,1.43,1.43,0,0,0,.54.83,1.29,1.29,0,0,0,1.1.17,2.47,2.47,0,0,0,.72-.29,5.64,5.64,0,0,0,.65-.44,5.41,5.41,0,0,0,.5-.44,2.68,2.68,0,0,0,.28-.32c.08-.12.14-.21.18-.29A.35.35,0,0,0,84,121Z" transform="translate(-5.76 -5.52)"/><path class="cls-2" d="M99.67,117.87c-.19.06-.5.19-.94.38s-.89.4-1.34.62-.65.33-1,.54-.66.37-.91.49a.25.25,0,0,1-.18,0,.2.2,0,0,1-.12-.1c-.05-.1,0-.19.21-.29.48-.23.72-.43.73-.59a5.15,5.15,0,0,0-.46-1.45,30.34,30.34,0,0,0-1.49-3l-.33-.59-.35-.62-.32-.56-.25-.42-.18,1.14q-.11.75-.24,1.66c-.08.61-.16,1.23-.25,1.87s-.16,1.24-.22,1.78-.11,1-.13,1.37a2,2,0,0,0,0,.63.31.31,0,0,0,.35.2,3.18,3.18,0,0,0,.67-.26c.2-.09.32-.09.38,0s0,.22-.15.29a5.14,5.14,0,0,1-.6.24,9.75,9.75,0,0,0-1,.44,4.78,4.78,0,0,0-.68.38,4,4,0,0,1-.58.33.26.26,0,0,1-.18,0,.2.2,0,0,1-.12-.1c-.05-.09,0-.19.22-.29a2.25,2.25,0,0,0,.47-.28.44.44,0,0,0,.15-.27q.1-1,.25-2.17t.31-2.42q.16-1.21.31-2.34t.24-1.94c0-.13,0-.24,0-.33a.39.39,0,0,0,0-.22q-.1-.17-.54,0t-1.58.65l-.24.07a.14.14,0,0,1-.15-.08c-.07-.12,0-.22.15-.29s.72-.3,1.3-.56,1.27-.58,2.08-1l.58-.29.7-.37.66-.35.51-.26a.27.27,0,0,1,.18,0,.2.2,0,0,1,.12.1c.05.1,0,.19-.22.29q-.71.35-.73.59A5,5,0,0,0,95.2,112a30,30,0,0,0,1.48,3l1.07,1.93a6.14,6.14,0,0,0,.48.79.47.47,0,0,0,.43.13,3,3,0,0,0,.77-.28c.2-.1.32-.09.38,0S99.83,117.79,99.67,117.87Z" transform="translate(-5.76 -5.52)"/><path class="cls-2" d="M109.78,110q-.24.16-.81.59t-1.13.91c-.26.22-.54.47-.84.75s-.54.51-.75.68a.24.24,0,0,1-.17.07.2.2,0,0,1-.15-.07c-.08-.08,0-.19.13-.33q.6-.5.55-.74a5.34,5.34,0,0,0-.84-1.29,31.72,31.72,0,0,0-2.25-2.53l-.48-.5-.51-.52-.47-.47-.35-.35c0,.27.07.65.13,1.14s.13,1,.22,1.65.17,1.23.26,1.87.18,1.23.26,1.77.17,1,.24,1.35a2,2,0,0,0,.18.61.32.32,0,0,0,.39.11,3.24,3.24,0,0,0,.58-.41c.16-.14.29-.16.38-.07s.07.2-.06.32a5.14,5.14,0,0,1-.52.37,8.93,8.93,0,0,0-.87.66,4.63,4.63,0,0,0-.56.52,3.68,3.68,0,0,1-.47.45.24.24,0,0,1-.17.07.21.21,0,0,1-.15-.07c-.08-.08,0-.19.13-.33a2.12,2.12,0,0,0,.38-.38.43.43,0,0,0,.07-.29q-.16-1-.34-2.15t-.35-2.41q-.17-1.21-.33-2.33t-.29-1.93l-.05-.33a.4.4,0,0,0-.09-.2c-.1-.1-.27-.06-.53.11s-.71.51-1.36,1l-.21.12a.14.14,0,0,1-.16,0c-.1-.1-.07-.2.06-.32s.62-.46,1.11-.84,1.07-.86,1.76-1.42l.48-.41.58-.52.55-.49.42-.36a.24.24,0,0,1,.17-.07.21.21,0,0,1,.15.07c.08.08,0,.19-.13.33q-.6.5-.54.74a5.25,5.25,0,0,0,.83,1.28,31.24,31.24,0,0,0,2.24,2.53l1.56,1.61a6.21,6.21,0,0,0,.68.65.47.47,0,0,0,.45,0,2.8,2.8,0,0,0,.67-.45c.16-.14.29-.16.38-.07S109.91,109.86,109.78,110Z" transform="translate(-5.76 -5.52)"/><path class="cls-2" d="M114.92,100.8c0,.17,0,.4.06.69a7,7,0,0,1,0,1,5,5,0,0,1-.19,1.08,3.31,3.31,0,0,1-.52,1.05,4.11,4.11,0,0,1-1.25,1.17,4,4,0,0,1-1.47.52,4.12,4.12,0,0,1-1.56-.09,5.29,5.29,0,0,1-1.52-.64,4.79,4.79,0,0,1-1.35-1.17,5,5,0,0,1-.72-1.31,4.58,4.58,0,0,1-.27-1.27,6.69,6.69,0,0,1,0-1.06,4,4,0,0,1,.07-.51,5.86,5.86,0,0,1,.16-.64,6.65,6.65,0,0,1,.27-.71,3.81,3.81,0,0,1,.41-.72A5.93,5.93,0,0,1,108.14,97a4.16,4.16,0,0,1,1.34-.74,3.68,3.68,0,0,1,1.52-.15,3.9,3.9,0,0,1,1.64.6,3.76,3.76,0,0,1,1.11,1,5.69,5.69,0,0,1,.67,1.21,6.72,6.72,0,0,1,.35,1.12Zm-1,1.86a1.72,1.72,0,0,0,.26-1.75,4.21,4.21,0,0,0-1.8-1.77,5.28,5.28,0,0,0-1.48-.64,4.6,4.6,0,0,0-1.47-.14,3.55,3.55,0,0,0-1.31.34,2.56,2.56,0,0,0-1,.82,1.62,1.62,0,0,0-.31.85,2.08,2.08,0,0,0,.18,1,3.56,3.56,0,0,0,.67,1,5.43,5.43,0,0,0,1.17.93,4.61,4.61,0,0,0,1.51.62,4,4,0,0,0,1.43,0,3.47,3.47,0,0,0,1.22-.43A3,3,0,0,0,114,102.66Z" transform="translate(-5.76 -5.52)"/><path class="cls-2" d="M118.88,97.31c0,.09-.11.12-.22.08s-.16-.11-.12-.23a1.61,1.61,0,0,0,.14-.77.66.66,0,0,0-.39-.48,9.64,9.64,0,0,0-.92-.42c-.4-.16-.84-.34-1.34-.52l-1.54-.55L113,93.92l-1-.29a5.26,5.26,0,0,0-.63-.14,1.51,1.51,0,0,0-.8,0,.66.66,0,0,0-.33.39.26.26,0,0,0,0,.11.18.18,0,0,1,0,.09.25.25,0,0,1-.24.1c-.15,0-.2-.13-.16-.24l0-.11,0-.08a.77.77,0,0,0,.06-.12l.09-.24c.08-.22.17-.44.26-.67l.28-.67.26-.6L111,91q.21-.56.41-1.26c.13-.46.28-.9.43-1.31a4.19,4.19,0,0,1,1-1.53,1.25,1.25,0,0,1,1.31-.28,2.11,2.11,0,0,1,.9.53,2.71,2.71,0,0,1,.55.83,4.82,4.82,0,0,1,.3,1,8.84,8.84,0,0,1,.13,1.14,12.44,12.44,0,0,1,.59-1.24,5.3,5.3,0,0,1,.71-1,2.25,2.25,0,0,1,.86-.6,1.55,1.55,0,0,1,1,0,2.37,2.37,0,0,1,1.28.9,3.4,3.4,0,0,1,.56,1.46,5.64,5.64,0,0,1,0,1.73,8.83,8.83,0,0,1-.45,1.72q-.11.29-.26.63l-.29.7-.29.7c-.1.23-.19.45-.27.65Zm-4.82-8.39a1.51,1.51,0,0,0-1.25.09,2.05,2.05,0,0,0-.85,1.12q-.43,1.13,0,1.29l.63.24,1,.36.95.35.51.18s0,0,.08-.09a4.65,4.65,0,0,0,.21-.51,2.78,2.78,0,0,0,.16-1.92A2,2,0,0,0,114.06,88.92Zm3.27,4.4.94.3a1.54,1.54,0,0,0,.3.08,1.18,1.18,0,0,0,.91-.24,2,2,0,0,0,.66-.93,2.51,2.51,0,0,0,.13-1.72A1.85,1.85,0,0,0,119,89.76a2.26,2.26,0,0,0-1-.11,1.76,1.76,0,0,0-.81.34,2.55,2.55,0,0,0-.64.73,6.43,6.43,0,0,0-.49,1c-.05.14-.11.32-.18.55a3.62,3.62,0,0,0-.12.51Z" transform="translate(-5.76 -5.52)"/></svg>