<svg id="Слой_1" data-name="Слой 1" xmlns="http://www.w3.org/2000/svg" viewBox="0 0 128.08 128.08"><defs><style>.cls-1{fill:#4167aa;}.cls-2{fill:#fff;}</style></defs><title>16</title><circle class="cls-1" cx="64.04" cy="64.04" r="64.04"/><path class="cls-2" d="M65.8,61.34q-.3.34-1.44,1.79t-2.69,3.51q.95,1.81,2,3.83l2,3.83,1.72,3.23q.75,1.42,1.1,2a14.91,14.91,0,0,0,1.79,2.61,4.42,4.42,0,0,0,2.18,1.4,1.19,1.19,0,0,1-.78-1.16,1.47,1.47,0,0,1,.45-1,1.73,1.73,0,0,1,1.31-.47,2.48,2.48,0,0,1,1.06.19,1.58,1.58,0,0,1,.62.5,2,2,0,0,1,.3.6,1.86,1.86,0,0,1,.09.47,2.47,2.47,0,0,1-.15.82,2,2,0,0,1-.54.8,3.21,3.21,0,0,1-1.06.62,4.77,4.77,0,0,1-1.7.26,4.08,4.08,0,0,1-1.77-.37A5.64,5.64,0,0,1,69,83.87a6.51,6.51,0,0,1-1-1.06l-.65-.88a7.34,7.34,0,0,1,.47,1.18A3.49,3.49,0,0,1,68,84q0,1.08-.95,1.08a2.9,2.9,0,0,1-1.7-.78,6.92,6.92,0,0,1-1.74-2.28,2.33,2.33,0,0,1-.06.78,2.4,2.4,0,0,1-.54,1,3.42,3.42,0,0,1-1.23.88,5,5,0,0,1-2.09.37,3.79,3.79,0,0,1-2.11-.56,2.19,2.19,0,0,1-1-1.68,1.79,1.79,0,0,1,1.72-2,2.23,2.23,0,0,1,1.18.28,1.81,1.81,0,0,1,.67.69,1.71,1.71,0,0,1,.19.88,1.44,1.44,0,0,1-.28.82q1-.22,1-1.68a5.58,5.58,0,0,0-.24-1.49,8.47,8.47,0,0,0-.8-1.83q-.47-.82-1.27-2.33l-1.79-3.4-3.12,4.35q-1.49,2.07-2.39,3.58a1.58,1.58,0,0,0-.24.9,1.91,1.91,0,0,0,.24.86,1.78,1.78,0,0,0,.62.65,1.7,1.7,0,0,0,.93.26,1.22,1.22,0,0,1-.52-.45,1.17,1.17,0,0,1-.17-.62,1.4,1.4,0,0,1,.47-1,2,2,0,0,1,1.46-.47,2.31,2.31,0,0,1,1,.17,1.67,1.67,0,0,1,.58.43,1.3,1.3,0,0,1,.28.56,2.69,2.69,0,0,1,.06.56,2.13,2.13,0,0,1-.3,1.16,2.49,2.49,0,0,1-.78.78,3.71,3.71,0,0,1-1,.45,4.12,4.12,0,0,1-1.08.15,2.89,2.89,0,0,1-2.43-1,2.3,2.3,0,0,1-.37-2.22,12.63,12.63,0,0,1-1.4,2.41q-.62.78-1,.78t-.37-.84a5.48,5.48,0,0,1,.8-2.13q-.26.39-.67.9a6.68,6.68,0,0,1-.95,1,6,6,0,0,1-1.18.78,3.13,3.13,0,0,1-1.42.32,2.53,2.53,0,0,1-1.29-.28,2.08,2.08,0,0,1-.71-.65,2,2,0,0,1-.3-.75,3.93,3.93,0,0,1-.06-.6,1.51,1.51,0,0,1,.13-.54,2.29,2.29,0,0,1,.41-.65,2.56,2.56,0,0,1,.71-.56A2.22,2.22,0,0,1,44,80.85a1.5,1.5,0,0,1,1.21.45,1.46,1.46,0,0,1,.26,1.59,1.19,1.19,0,0,1-.47.5,5.15,5.15,0,0,0,1.23-.67,10,10,0,0,0,2-1.92q.34-.39,1.14-1.44t1.87-2.43q1.08-1.38,2.3-3T56,70.73q-.73-1.38-1.44-2.76l-1.36-2.61-1.16-2.2q-.52-1-.82-1.57a14.57,14.57,0,0,0-2.48-3.47,5.17,5.17,0,0,0-1.92-1.36q.47.22.39.93a1.4,1.4,0,0,1-.6,1.06,1.79,1.79,0,0,1-.75.24,2.13,2.13,0,0,1-1-.11,2,2,0,0,1-.86-.6,1.8,1.8,0,0,1-.37-1.21q0-2.11,3.19-2.11a4.47,4.47,0,0,1,2.84.95,9,9,0,0,1,2.2,2.71,7.09,7.09,0,0,1-.65-1.49,4.18,4.18,0,0,1-.17-1.1q0-1.08,1-1.08a2.1,2.1,0,0,1,1.51.78,15.75,15.75,0,0,1,1.9,2.84,1.57,1.57,0,0,1-.11-.45c0-.16,0-.31,0-.45a2.6,2.6,0,0,1,.82-1.9A3.15,3.15,0,0,1,58.47,55a4.1,4.1,0,0,1,.84.11,3.65,3.65,0,0,1,1,.37,2.36,2.36,0,0,1,.8.71,1.84,1.84,0,0,1,.32,1.1A1.62,1.62,0,0,1,61,58.41a1.73,1.73,0,0,1-1.31.47,1.45,1.45,0,0,1-.93-.26,1.23,1.23,0,0,1-.43-.62,1.32,1.32,0,0,1,0-.71.83.83,0,0,1,.34-.52A1,1,0,0,0,58,57a1.2,1.2,0,0,0-.3,1,5.37,5.37,0,0,0,.26,1.44,9.91,9.91,0,0,0,1,2.13q.21.47.67,1.27t1,1.87l.13-.17a36,36,0,0,0,3-4.11,5.42,5.42,0,0,0,.93-2.48,1.19,1.19,0,0,0-.73-1.16,1.16,1.16,0,0,1,.39.62,1.4,1.4,0,0,1,0,.69,1,1,0,0,1-.41.56,1.46,1.46,0,0,1-.88.24,1.17,1.17,0,0,1-1.08-.56A2.41,2.41,0,0,1,61.57,57a2.11,2.11,0,0,1,.62-1.42A2.34,2.34,0,0,1,64,54.93a1.88,1.88,0,0,1,1.49.67,2.69,2.69,0,0,1,.58,1.83,4.56,4.56,0,0,1,1.1-1.83A1.86,1.86,0,0,1,68.34,55q.43,0,.41.6a4.11,4.11,0,0,1-.93,1.85l.65-.82a5.8,5.8,0,0,1,.78-.8,3.93,3.93,0,0,1,1-.6A2.92,2.92,0,0,1,71.4,55a2,2,0,0,1,1.57.65,2.13,2.13,0,0,1,.58,1.46A2.46,2.46,0,0,1,73,58.59a1.76,1.76,0,0,1-1.46.73,1.73,1.73,0,0,1-1.34-.43,1.39,1.39,0,0,1-.39-.95,1.16,1.16,0,0,1,.65-1.16,1.62,1.62,0,0,0-.86.24,4.4,4.4,0,0,0-.88.78q-.5.54-1.18,1.4Zm-10.85.26q-.3.17-.56-.19t-.52-.24q-.22.17,0,.65a1.73,1.73,0,0,0,.78.69.91.91,0,0,0,.82,0A1,1,0,0,0,56,61.8a1.18,1.18,0,0,0-.19-.93q-.26-.47-.56-.39c-.17.14-.19.34,0,.58S55.23,61.49,54.94,61.6Zm.43,1.94q-.13,0,.09.47.6.82,1.21.52A.64.64,0,0,0,57,64a1.06,1.06,0,0,0-.11-.71q-.26-.52-.47-.34t-.06.34a.35.35,0,0,1-.19.43.4.4,0,0,1-.5-.09Q55.5,63.41,55.37,63.54Zm2.11,2.37a.48.48,0,0,1-.39-.15q-.13-.15-.26,0s-.06,0-.09.11,0,.15.09.24q.43.86,1,.52a.47.47,0,0,0,.3-.47,1.63,1.63,0,0,0-.13-.65.47.47,0,0,0-.15-.22q-.11-.09-.15,0a.18.18,0,0,0-.15.26A.29.29,0,0,1,57.48,65.91Zm.86,3.75a1.15,1.15,0,0,0,.34.88,1.43,1.43,0,0,0,1.81,0,1.15,1.15,0,0,0,.34-.88,1.25,1.25,0,0,0-2.5,0Zm3.1,3.53a.48.48,0,0,1,.39.15q.13.15.26,0s.06,0,.09-.11,0-.15-.09-.24q-.43-.86-1-.52a.47.47,0,0,0-.3.47,1.62,1.62,0,0,0,.13.65.45.45,0,0,0,.15.22q.11.09.15,0,.22,0,.15-.26A.29.29,0,0,1,61.45,73.19Zm2.11,2.37c.09,0,.06-.19-.09-.47q-.6-.82-1.21-.52a.64.64,0,0,0-.37.54,1.06,1.06,0,0,0,.11.71q.26.52.47.34c.09,0,.11-.14.06-.34a.35.35,0,0,1,.19-.43.4.4,0,0,1,.5.09C63.36,75.61,63.47,75.64,63.56,75.56ZM64,77.49q.3-.17.56.19t.52.24q.22-.17,0-.65a1.74,1.74,0,0,0-.78-.69.91.91,0,0,0-.82,0,1,1,0,0,0-.45.67,1.17,1.17,0,0,0,.19.93q.26.47.56.39t0-.58Q63.56,77.67,64,77.49Z" transform="translate(-5.96 -5.96)"/><path class="cls-2" d="M86.9,54.8a15.75,15.75,0,0,1,5,.69,9.51,9.51,0,0,1,3.42,1.92,7.54,7.54,0,0,1,2,2.89,9.82,9.82,0,0,1,.65,3.6,8.16,8.16,0,0,1-.75,3.53A8.55,8.55,0,0,1,95,70.22a11.79,11.79,0,0,1-3.32,2,16.83,16.83,0,0,1-4.26,1.1A13.14,13.14,0,0,0,84,74.2a9.26,9.26,0,0,0-2.48,1.51,7.31,7.31,0,0,0-1.59,1.92,5.66,5.66,0,0,0-.71,2.11,5.59,5.59,0,0,1,.8-1.4A5.78,5.78,0,0,1,81.43,77a8.27,8.27,0,0,1,2-1,8.44,8.44,0,0,1,2.67-.39,5.21,5.21,0,0,1,2.71.62,9.47,9.47,0,0,1,1.81,1.4q.78.78,1.46,1.4a2.35,2.35,0,0,0,1.64.62,2.78,2.78,0,0,0,1.44-.34,2.65,2.65,0,0,0,.93-.9,4,4,0,0,0,.5-1.21A5.51,5.51,0,0,0,96.76,76a1.28,1.28,0,0,1,.19-.8.57.57,0,0,1,.45-.24.68.68,0,0,1,.5.26,1.5,1.5,0,0,1,.32.78A10.18,10.18,0,0,1,98,79.41a8.25,8.25,0,0,1-1.27,2.86,6.89,6.89,0,0,1-2.18,2,5.79,5.79,0,0,1-3,.75,5,5,0,0,1-2.22-.43,5.38,5.38,0,0,1-1.53-1.1,10.21,10.21,0,0,1-1.16-1.44,16.61,16.61,0,0,0-1.08-1.44,5,5,0,0,0-1.29-1.1,3.52,3.52,0,0,0-1.81-.43,3.71,3.71,0,0,0-1.46.26,3.11,3.11,0,0,0-1,.65,2.31,2.31,0,0,0-.56.88,2.94,2.94,0,0,0-.17,1,2.19,2.19,0,0,0,.43,1.38,1.93,1.93,0,0,1,.15-1.83,1.7,1.7,0,0,1,1.53-.88,2.43,2.43,0,0,1,1.57.58,2.17,2.17,0,0,1,.71,1.79,1.91,1.91,0,0,1-.93,1.77,3.8,3.8,0,0,1-2,.56,2.63,2.63,0,0,1-1.06-.26,3.67,3.67,0,0,1-1.1-.78,4.31,4.31,0,0,1-.86-1.27,4.15,4.15,0,0,1-.34-1.74,8.34,8.34,0,0,1,.37-2.39,9.81,9.81,0,0,1,1.06-2.35,10.8,10.8,0,0,1,1.66-2.07,8.92,8.92,0,0,1,2.13-1.55l2.28-1.21a16.18,16.18,0,0,0,2.13-1.31,8.66,8.66,0,0,0,1.66-1.57,4.09,4.09,0,0,0,.86-1.94,2.22,2.22,0,0,0,1-.75,1.9,1.9,0,0,0,.54-1.23,2.73,2.73,0,0,1-1.42,1.49,1.77,1.77,0,0,1-1.68,0,1.9,1.9,0,0,1-1-1.64,1.4,1.4,0,0,1,.34-.93,1.28,1.28,0,0,1,1-.41,1.12,1.12,0,0,1,.67.17.89.89,0,0,1,.32.41,1.93,1.93,0,0,1,.11.47.69.69,0,0,1,0,.32,1.88,1.88,0,0,0,.73-1.1,6.38,6.38,0,0,0,.22-1.74,5.77,5.77,0,0,0-.22-1.36,5,5,0,0,0-.8-1.66,5.09,5.09,0,0,0-1.61-1.42,5.16,5.16,0,0,0-2.63-.6,5.58,5.58,0,0,0-4.48,1.92,4.86,4.86,0,0,0-1,1.64,4.6,4.6,0,0,0-.28,1.4,3.58,3.58,0,0,0,.84,2.56,2.58,2.58,0,0,0,1.92.88,3,3,0,0,1-1.31-1.08,2.39,2.39,0,0,1-.41-1.29,2.1,2.1,0,0,1,.67-1.53,2.6,2.6,0,0,1,1.92-.67,3,3,0,0,1,2.13.88,2.89,2.89,0,0,1,.93,2.18,3.78,3.78,0,0,1-.47,2,4,4,0,0,1-1.16,1.27,4.93,4.93,0,0,1-1.44.69,4.87,4.87,0,0,1-1.31.22,5.11,5.11,0,0,1-1.38-.24,4.94,4.94,0,0,1-1.59-.82,5.14,5.14,0,0,1-1.34-1.53,4.5,4.5,0,0,1-.56-2.33,7.69,7.69,0,0,1,.9-3.92A7.28,7.28,0,0,1,80.1,56.5a9.52,9.52,0,0,1,3.21-1.31A16.92,16.92,0,0,1,86.9,54.8Zm5.21,4.09a.23.23,0,0,1,.32,0,.27.27,0,0,0,.32,0c.09,0,.09-.13,0-.3a.91.91,0,0,0-.47-.3,1.08,1.08,0,0,0-.6,0q-.56.22-.17.82a.15.15,0,0,0,.17.17h.13c.11-.09.17-.16.17-.24A.24.24,0,0,1,92.11,58.89Zm.09,9.48c-.12-.06-.17-.12-.17-.19a.36.36,0,0,0-.13-.24.25.25,0,0,1-.17.09,1.54,1.54,0,0,0-.32.34q-.19.26.41.56a.81.81,0,0,0,1.08-.34q.17-.26,0-.3c-.09-.09-.19-.07-.3,0A.29.29,0,0,1,92.2,68.36ZM93,65.82q-.22,0-.39.43a.5.5,0,0,0,.06.6,1.06,1.06,0,0,0,.62.39.89.89,0,0,0,.78-.11,1.38,1.38,0,0,0,.56-.62c0-.29,0-.43-.17-.43s-.22,0-.32.19-.28.21-.54.15-.4-.16-.41-.32S93.09,65.85,93,65.82Zm.17-4.52q.13,0,.13-.26t.39-.3q.39-.13.54.09t.32.17q.3,0,.13-.39a1.07,1.07,0,0,0-.56-.56,1.21,1.21,0,0,0-.82-.13,1.11,1.11,0,0,0-.58.41.58.58,0,0,0,0,.62A.47.47,0,0,0,93.15,61.3Zm.22,2.37a1.17,1.17,0,0,0,.34.86,1.22,1.22,0,0,0,.9.34,1.32,1.32,0,0,0,.9-.34,1.1,1.1,0,0,0,.39-.86,1.19,1.19,0,0,0-.39-.86,1.24,1.24,0,0,0-.9-.39,1.15,1.15,0,0,0-.9.39A1.26,1.26,0,0,0,93.36,63.67Z" transform="translate(-5.96 -5.96)"/></svg>