<svg id="Слой_1" data-name="Слой 1" xmlns="http://www.w3.org/2000/svg" viewBox="0 0 128.08 128.08"><defs><style>.cls-1{fill:#7e7cb3;}.cls-2{fill:#fff;}</style></defs><title>17</title><circle class="cls-1" cx="64.04" cy="64.04" r="64.04"/><path class="cls-2" d="M62.62,58.51q-.42.46-2,2.38t-3.71,4.68q1.31,2.41,2.79,5.11l2.82,5.11,2.37,4.31q1,1.89,1.51,2.64a19.87,19.87,0,0,0,2.46,3.47,6.11,6.11,0,0,0,3,1.87,1.59,1.59,0,0,1-1.07-1.55,1.94,1.94,0,0,1,.62-1.38,2.43,2.43,0,0,1,1.81-.63,3.52,3.52,0,0,1,1.45.26,2.17,2.17,0,0,1,.86.66,2.64,2.64,0,0,1,.42.8,2.41,2.41,0,0,1,.12.63A3.2,3.2,0,0,1,75.89,88,2.68,2.68,0,0,1,75.14,89a4.45,4.45,0,0,1-1.45.83,6.77,6.77,0,0,1-2.34.34,5.78,5.78,0,0,1-2.43-.49A7.8,7.8,0,0,1,67,88.55a8.8,8.8,0,0,1-1.33-1.41L64.82,86a9.61,9.61,0,0,1,.65,1.58,4.52,4.52,0,0,1,.24,1.23q0,1.44-1.31,1.44a4.05,4.05,0,0,1-2.34-1,9.27,9.27,0,0,1-2.4-3,3,3,0,0,1-.09,1,3.16,3.16,0,0,1-.74,1.38,4.71,4.71,0,0,1-1.69,1.18,7.15,7.15,0,0,1-2.88.49,5.35,5.35,0,0,1-2.91-.75A2.9,2.9,0,0,1,50,87.23a2.26,2.26,0,0,1,.65-2,2.42,2.42,0,0,1,1.72-.75A3.15,3.15,0,0,1,54,84.9a2.45,2.45,0,0,1,.92.92A2.22,2.22,0,0,1,55.18,87a1.88,1.88,0,0,1-.39,1.09q1.42-.29,1.42-2.24a7.22,7.22,0,0,0-.33-2,11.11,11.11,0,0,0-1.1-2.44q-.65-1.09-1.75-3.1l-2.46-4.54-4.3,5.8q-2,2.76-3.29,4.77a2.06,2.06,0,0,0-.33,1.21A2.49,2.49,0,0,0,43,86.71a2.46,2.46,0,0,0,2.14,1.21,1.67,1.67,0,0,1-.71-.6,1.52,1.52,0,0,1-.24-.83,1.84,1.84,0,0,1,.65-1.32,2.81,2.81,0,0,1,2-.63,3.27,3.27,0,0,1,1.33.23,2.3,2.3,0,0,1,.8.57,1.71,1.71,0,0,1,.39.75,3.47,3.47,0,0,1,.09.75A2.77,2.77,0,0,1,49,88.38a3.38,3.38,0,0,1-1.07,1,5.19,5.19,0,0,1-1.42.6,5.85,5.85,0,0,1-1.48.2,4.05,4.05,0,0,1-3.35-1.29,3,3,0,0,1-.5-3,16.73,16.73,0,0,1-1.93,3.22q-.86,1-1.33,1t-.5-1.12a7.16,7.16,0,0,1,1.1-2.84q-.36.52-.92,1.21a9.06,9.06,0,0,1-1.31,1.29,8.35,8.35,0,0,1-1.63,1,4.44,4.44,0,0,1-2,.43,3.59,3.59,0,0,1-1.78-.37A2.83,2.83,0,0,1,30,89a2.59,2.59,0,0,1-.42-1,5.08,5.08,0,0,1-.09-.8,2,2,0,0,1,.18-.72,3,3,0,0,1,.56-.86,3.51,3.51,0,0,1,1-.75,3.14,3.14,0,0,1,1.48-.32,2.11,2.11,0,0,1,1.66.6,1.9,1.9,0,0,1,.36,2.13,1.61,1.61,0,0,1-.65.66A7.18,7.18,0,0,0,35.71,87a13.6,13.6,0,0,0,2.76-2.56Q38.94,84,40,82.55t2.58-3.24q1.48-1.84,3.18-4T49.15,71q-1-1.84-2-3.68t-1.87-3.47L43.69,61q-.71-1.29-1.13-2.1a19.46,19.46,0,0,0-3.41-4.62,7.14,7.14,0,0,0-2.64-1.81q.65.29.53,1.23a1.85,1.85,0,0,1-.83,1.41,2.52,2.52,0,0,1-1,.32,3,3,0,0,1-1.36-.14,2.7,2.7,0,0,1-1.19-.8,2.35,2.35,0,0,1-.5-1.61q0-2.81,4.39-2.81a6.29,6.29,0,0,1,3.92,1.26,12.08,12.08,0,0,1,3,3.62,9.29,9.29,0,0,1-.89-2,5.41,5.41,0,0,1-.24-1.46q0-1.43,1.37-1.44a2.93,2.93,0,0,1,2.08,1,21,21,0,0,1,2.61,3.79,2,2,0,0,1-.15-.6c0-.21,0-.41,0-.6a3.42,3.42,0,0,1,1.13-2.53A4.42,4.42,0,0,1,52.53,50a5.83,5.83,0,0,1,1.16.14,5.13,5.13,0,0,1,1.33.49,3.22,3.22,0,0,1,1.1.95,2.4,2.4,0,0,1,.44,1.46,2.12,2.12,0,0,1-.62,1.55,2.43,2.43,0,0,1-1.81.63,2,2,0,0,1-1.28-.34,1.64,1.64,0,0,1-.59-.83,1.71,1.71,0,0,1,0-.95,1.11,1.11,0,0,1,.47-.69,1.44,1.44,0,0,0-.89.32A1.57,1.57,0,0,0,51.41,54,7,7,0,0,0,51.76,56a13,13,0,0,0,1.37,2.84q.3.63.92,1.69T55.44,63l.18-.23a48.05,48.05,0,0,0,4.12-5.48A7.08,7.08,0,0,0,61,54a1.59,1.59,0,0,0-1-1.55,1.55,1.55,0,0,1,.53.83,1.81,1.81,0,0,1,0,.92,1.37,1.37,0,0,1-.56.75,2.07,2.07,0,0,1-1.22.32,1.63,1.63,0,0,1-1.48-.75,3.13,3.13,0,0,1-.47-1.72,2.77,2.77,0,0,1,.86-1.9A3.29,3.29,0,0,1,60.19,50a2.63,2.63,0,0,1,2,.89,3.52,3.52,0,0,1,.8,2.44,6,6,0,0,1,1.51-2.44A2.6,2.6,0,0,1,66.12,50q.59,0,.56.8a5.41,5.41,0,0,1-1.28,2.47l.89-1.09a7.85,7.85,0,0,1,1.07-1.06,5.45,5.45,0,0,1,1.33-.8A4.14,4.14,0,0,1,70.34,50a2.84,2.84,0,0,1,3,2.81,3.22,3.22,0,0,1-.77,2,2.84,2.84,0,0,1-3.86.4A1.82,1.82,0,0,1,68.14,54,1.54,1.54,0,0,1,69,52.43a2.29,2.29,0,0,0-1.19.32,6,6,0,0,0-1.22,1q-.68.72-1.63,1.87Zm-15,.34q-.42.23-.77-.26t-.71-.32q-.3.23.06.86a2.36,2.36,0,0,0,1.07.92A1.29,1.29,0,0,0,48.44,60a1.37,1.37,0,0,0,.62-.89,1.53,1.53,0,0,0-.27-1.23q-.36-.63-.77-.52c-.24.19-.26.45-.06.77S48.06,58.71,47.67,58.86Zm.59,2.58q-.18.06.12.63.83,1.09,1.66.69a.86.86,0,0,0,.5-.72,1.38,1.38,0,0,0-.15-.95q-.36-.69-.65-.46-.18.06-.09.46a.46.46,0,0,1-.27.57.56.56,0,0,1-.68-.12Q48.44,61.27,48.26,61.44Zm2.91,3.16a.67.67,0,0,1-.53-.2.22.22,0,0,0-.36,0s-.08,0-.12.14,0,.2.12.32q.59,1.15,1.42.69a.63.63,0,0,0,.42-.63,2.11,2.11,0,0,0-.18-.86.62.62,0,0,0-.21-.29q-.15-.11-.21.06a.24.24,0,0,0-.21.34A.38.38,0,0,1,51.17,64.6Zm1.19,5a1.51,1.51,0,0,0,.47,1.18,2,2,0,0,0,2.49,0,1.7,1.7,0,1,0-3-1.18Zm4.27,4.71a.68.68,0,0,1,.53.2q.18.2.36,0s.08,0,.12-.14,0-.2-.12-.32q-.59-1.15-1.42-.69a.63.63,0,0,0-.42.63,2.1,2.1,0,0,0,.18.86.6.6,0,0,0,.21.29q.15.12.21-.06a.24.24,0,0,0,.21-.34A.38.38,0,0,1,56.63,74.31Zm2.91,3.16c.12,0,.08-.25-.12-.63q-.83-1.09-1.66-.69a.86.86,0,0,0-.5.72,1.37,1.37,0,0,0,.15.95q.36.69.65.46c.12,0,.15-.19.09-.46a.46.46,0,0,1,.27-.57.56.56,0,0,1,.68.11C59.27,77.54,59.42,77.58,59.54,77.47Zm.59,2.58q.41-.23.77.26t.71.32q.3-.23-.06-.86a2.38,2.38,0,0,0-1.07-.92,1.29,1.29,0,0,0-1.13.06,1.36,1.36,0,0,0-.62.89A1.52,1.52,0,0,0,59,81q.36.63.77.52.36-.29.06-.78T60.13,80.05Z" transform="translate(-5.96 -5.96)"/><path class="cls-2" d="M91.4,77.58H79.54q-2.14,0-2.58-1a2.13,2.13,0,0,1,.21-2.07q.71-1.15,1.93-3t2.7-4.08q1.48-2.21,3.12-4.59T88,58.26q1.48-2.21,2.73-4l2-2.84q.59-.92.95-.95t.53.4A3.56,3.56,0,0,1,94.4,52q0,.75,0,1.44a5.61,5.61,0,0,1,.65-2.67q.59-1,1.25-1t1,.92a7.32,7.32,0,0,1,.44,3,7.18,7.18,0,0,1,.27-1.06,8.81,8.81,0,0,1,.5-1.26,3.2,3.2,0,0,1,.8-1,1.81,1.81,0,0,1,1.22-.43h.3s0,.14,0,.43-.06.78-.12,1.46-.09,1.72-.09,3.1v20a12.89,12.89,0,0,0,2.7-.23,3.22,3.22,0,0,0,1.69-.92,2,2,0,0,1-.56.06,3,3,0,0,1-.8-.12,1.42,1.42,0,0,1-.71-.46,1.45,1.45,0,0,1-.3-1,1.69,1.69,0,0,1,.27-1,1.66,1.66,0,0,1,.62-.55,2.6,2.6,0,0,1,.71-.23,3.83,3.83,0,0,1,.53-.06,1.68,1.68,0,0,1,1.42.55,2.08,2.08,0,0,1,.42,1.29,3.82,3.82,0,0,1-.24,1.29,5.09,5.09,0,0,1-.59,1.18,7.87,7.87,0,0,1,1.16-.6,1.55,1.55,0,0,1,1.34.32,1.38,1.38,0,0,0,.92.29q.38-.06.56-1a1.3,1.3,0,0,1,.59.77,2.06,2.06,0,0,1,0,1.15,3.14,3.14,0,0,1-.56,1.15,2.23,2.23,0,0,1-1.13.78,2.33,2.33,0,0,1-1.57,0,6.64,6.64,0,0,1-1.28-.72,3,3,0,0,1,1.13,2.18,2,2,0,0,1-.53,1.38,1.59,1.59,0,0,1-1.19.57,2.78,2.78,0,0,1-1.42-.34,1.22,1.22,0,0,1-.59-1.15,1.15,1.15,0,0,1,.65-1.09,1.27,1.27,0,0,1,1.07-.17,2.52,2.52,0,0,0-1.57-.55q-1.1-.09-2.76-.14v4.31a17.55,17.55,0,0,0,.18,2.79,5.46,5.46,0,0,0,.5,1.67,2,2,0,0,0,.86.86,6.24,6.24,0,0,0,1.25.43,2.9,2.9,0,0,1-1.42-2.47,3.12,3.12,0,0,1,1-2.27,3.54,3.54,0,0,1,2.61-1,3.19,3.19,0,0,1,1.6.37,3.38,3.38,0,0,1,1.07.95,3.8,3.8,0,0,1,.59,1.23,4.59,4.59,0,0,1,.18,1.18,4,4,0,0,1-1.54,3.45,5.62,5.62,0,0,1-3.44,1.15,10.6,10.6,0,0,1-1.75-.14,4.36,4.36,0,0,1-1.6-.6,4.66,4.66,0,0,1-1.33-1.29,7.64,7.64,0,0,1-1-2.15,5.3,5.3,0,0,1-.74,3.13,2.07,2.07,0,0,1-1.63,1,2.27,2.27,0,0,1-1.81-1.06,5,5,0,0,1-.8-3.07,6.27,6.27,0,0,1-2,3,6.39,6.39,0,0,1-4.24,1.23A4.64,4.64,0,0,1,85,89.73a4.5,4.5,0,0,1-1.42-1.18,4.61,4.61,0,0,1-.77-1.44,4.29,4.29,0,0,1-.24-1.26A3.92,3.92,0,0,1,83.66,83a3.8,3.8,0,0,1,2.88-1.15,3.25,3.25,0,0,1,2.49.95A3.06,3.06,0,0,1,89.92,85a3.2,3.2,0,0,1-.33,1.38,3.63,3.63,0,0,1-1,1.26,4.39,4.39,0,0,0,1.51-1.15A5.32,5.32,0,0,0,90.93,85a6.4,6.4,0,0,0,.39-1.61,14.43,14.43,0,0,0,.09-1.52ZM81.2,73q-.65,1-.5,1.44t1.69.4h9V58.23l-1.48,2.07Q89,61.62,88.05,63a29.24,29.24,0,0,0-1.54,2.5,3.32,3.32,0,0,0-.56,1.61,1.26,1.26,0,0,1,.62-.75,1.41,1.41,0,0,1,.92-.14,1.73,1.73,0,0,1,.89.49,1.45,1.45,0,0,1,.42,1.09,1.89,1.89,0,0,1-.5,1.41,1.82,1.82,0,0,1-1.45.66,2,2,0,0,1-2.08-1.06,3.71,3.71,0,0,1-.3-2.15A7.06,7.06,0,0,0,84,67.73a2.05,2.05,0,0,0-.09,1.12,16.18,16.18,0,0,1-1,1.61q-.48.63-.95,1.35T81.2,73Zm13.29-3.27a1.61,1.61,0,0,0,.39,1.12,1.47,1.47,0,0,0,2.08,0,1.62,1.62,0,0,0,.39-1.12q0-1.61-1.42-1.61T94.49,69.77ZM96,59.38a.7.7,0,0,1-.71-.52c-.12-.34-.26-.52-.42-.52s-.24.25-.24.63a1.64,1.64,0,0,0,.39,1.09,1.22,1.22,0,0,0,1,.46,1.16,1.16,0,0,0,.92-.46A1.64,1.64,0,0,0,97.34,59q0-.57-.24-.63a.33.33,0,0,0-.33.17c-.06.11-.12.24-.18.37a1.46,1.46,0,0,1-.21.34A.43.43,0,0,1,96,59.38ZM95.85,81q.47,0,.53.52c0,.34.18.54.42.57S97,82,97,82a2.22,2.22,0,0,0,0-.49,2,2,0,0,0-.36-1.15.93.93,0,0,0-1.66,0,2,2,0,0,0-.36,1.15,2.12,2.12,0,0,0,0,.49c0,.06.09.11.21.14s.28-.18.36-.55S95.54,81,95.85,81ZM95.2,61.44c-.2,0-.3.19-.3.57A1.1,1.1,0,0,0,96,63.17a1,1,0,0,0,.74-.32A1.11,1.11,0,0,0,97.1,62c0-.38-.1-.57-.3-.57s-.21.11-.27.32-.23.32-.5.32-.5-.1-.56-.32S95.32,61.44,95.2,61.44Zm-.06,17.4c.08,0,.15-.1.21-.32s.23-.32.5-.32.45.11.5.32.13.32.21.32.24-.19.24-.57q0-1.26-.95-1.26t-.95,1.26C94.9,78.65,95,78.84,95.14,78.84ZM96,64.95q-.36-.06-.39-.29c0-.15-.13-.23-.33-.23s-.3.15-.3.46q0,.92,1,.92a.8.8,0,0,0,.89-.92q0-.46-.3-.46c-.16,0-.25.09-.27.26S96.23,64.95,96,64.95Zm-.18,10.22c.2,0,.31.09.33.26s.09.26.21.26.24-.15.24-.46q0-1-.77-1t-.83,1c0,.31.08.46.24.46s.3-.08.3-.23S95.66,75.21,95.85,75.17Z" transform="translate(-5.96 -5.96)"/></svg>