<svg id="Слой_1" data-name="Слой 1" xmlns="http://www.w3.org/2000/svg" viewBox="0 0 32 31.9"><title>2</title><path d="M33.26,34.39H8.14a2.72,2.72,0,0,1-1.89-3c.06-2.1,0-4.21,0-6.31,0-.17,0-.41-.12-.5a4.59,4.59,0,0,1-1.4-2.41V18.84a2.65,2.65,0,0,0,.12-.26,2.23,2.23,0,0,1,2.4-1.74h1c0-1.08,0-2.09,0-3.1a2.62,2.62,0,0,1,.49-1.3,4,4,0,0,1,1-.72l-.15-.12a3.26,3.26,0,0,1-.51-5c.53-.57,1.08-1.13,1.64-1.67A.77.77,0,0,1,12,5c.57.58,1.15,1.16,1.68,1.77a3.25,3.25,0,0,1-.53,4.82l-.28.2a2.1,2.1,0,0,1,1.63,2.4c0,.88,0,1.75,0,2.65h3.12c0-.2,0-.38,0-.56q0-2.22,0-4.43a2.05,2.05,0,0,1,1.6-2.4s0-.06-.06-.07A3.31,3.31,0,0,1,18.74,4c.52-.48,1-1,1.46-1.55h1.1L23,4.27a3.26,3.26,0,0,1-.49,5l-.22.19a2,2,0,0,1,1.63,2.28q0,2.29,0,4.58c0,.17,0,.35,0,.52H27c0-.18,0-.34,0-.51,0-.85,0-1.69,0-2.54a1.9,1.9,0,0,1,1.25-1.85l.36-.16a3.31,3.31,0,0,1-.79-5c.55-.6,1.12-1.18,1.69-1.76a.8.8,0,0,1,1.26,0c.58.59,1.17,1.18,1.71,1.81a3.22,3.22,0,0,1,0,4.2,10.34,10.34,0,0,1-.84.79A2,2,0,0,1,33.25,14c0,.91,0,1.82,0,2.77h1a2.19,2.19,0,0,1,1.79.72,8.3,8.3,0,0,1,.7,1.23V22a4.5,4.5,0,0,1-1.21,2.28.9.9,0,0,0-.33.77c0,2.26,0,4.51,0,6.77a2.38,2.38,0,0,1-1.4,2.33C33.64,34.26,33.44,34.32,33.26,34.39Zm-12.51-16H7.35c-.68,0-1,.26-1,.94a23.39,23.39,0,0,0,0,2.49,2.21,2.21,0,0,0,3.51,1.65,2.29,2.29,0,0,0,1-1.87.7.7,0,0,1,.73-.72.72.72,0,0,1,.8.66c0,.11,0,.23,0,.35a2.23,2.23,0,0,0,2.27,2,2.26,2.26,0,0,0,2.24-2.11c.05-.61.3-.9.77-.92s.76.3.82.92A2.26,2.26,0,0,0,23,21.69c0-.54.33-.85.78-.86s.75.3.8.84a2.26,2.26,0,0,0,4.52,0c.06-.54.34-.84.79-.84s.74.31.78.85A2.19,2.19,0,0,0,33,23.83a2.29,2.29,0,0,0,2.16-2.3c0-.65,0-1.3,0-1.94,0-1-.2-1.23-1.21-1.23Zm-12.88,7v2.75H33.61V25.3a3.84,3.84,0,0,1-3.7-1.39,3.93,3.93,0,0,1-6.12,0,3.91,3.91,0,0,1-6.07,0,3.87,3.87,0,0,1-3,1.48,4,4,0,0,1-3.07-1.49A3.92,3.92,0,0,1,7.87,25.34ZM22.3,16.81c0-1.83,0-3.6,0-5.38,0-.34-.18-.47-.5-.47-.66,0-1.33,0-2,0-.48,0-.64.18-.63.65,0,1.59,0,3.18,0,4.78,0,.14,0,.28,0,.43Zm6.27,0h3.11c0-1,0-2.05,0-3.06a.6.6,0,0,0-.42-.41c-.74,0-1.49,0-2.24,0-.27,0-.44.13-.44.42C28.57,14.75,28.57,15.76,28.57,16.8Zm-15.65,0c0-1.06,0-2.07,0-3.07,0-.35-.25-.43-.54-.43-.65,0-1.29,0-1.94,0-.46,0-.69.15-.64.63a5.44,5.44,0,0,1,0,.55c0,.77,0,1.54,0,2.33ZM20.74,4.2c-.43.45-.86.85-1.22,1.3a1.67,1.67,0,0,0,.2,2.26,1.49,1.49,0,0,0,2,0A1.66,1.66,0,0,0,22,5.5C21.6,5,21.17,4.65,20.74,4.2Zm9.45,2.42c-.41.37-.83.71-1.18,1.09a1.66,1.66,0,0,0,0,2.34,1.51,1.51,0,0,0,2.08,0,1.67,1.67,0,0,0,.14-2.33C30.93,7.35,30.53,7,30.19,6.63ZM11.35,6.55c-.43.45-.82.83-1.17,1.25a1.67,1.67,0,0,0,.14,2.3,1.51,1.51,0,0,0,2.08,0,1.66,1.66,0,0,0,.11-2.3C12.16,7.36,11.77,7,11.35,6.55Z" transform="translate(-4.75 -2.49)"/></svg>