<svg id="Слой_1" data-name="Слой 1" xmlns="http://www.w3.org/2000/svg" viewBox="0 0 38 21.03"><title>3</title><path d="M1,19H1c0,.24,0,.46,0,.69s0,.38,0,.56a24.67,24.67,0,0,0,1.72,8.23.87.87,0,0,0,1.18.61A46.6,46.6,0,0,0,13,25.82a13.81,13.81,0,0,0,3.62-2.43c.38-.38.69-.84,1-1.26a.58.58,0,0,1,.22-.19,6.13,6.13,0,0,1,4.2,0,.37.37,0,0,1,.19.13,8,8,0,0,0,2.51,2.47A24.89,24.89,0,0,0,29.59,27a53,53,0,0,0,6.52,2.11.84.84,0,0,0,1.09-.54A23.25,23.25,0,0,0,38.69,23a30.4,30.4,0,0,0,.3-3.84s0-.09,0-.15l0-.89c-.11-1.38-.18-2.77-.34-4.14a31.64,31.64,0,0,0-1.13-5.38.57.57,0,0,0-.76-.46,45.72,45.72,0,0,0-5.64,1.48A23.36,23.36,0,0,0,25,12.53a8.34,8.34,0,0,0-2.83,3,.36.36,0,0,1-.22.15,8.1,8.1,0,0,1-4,0,.38.38,0,0,1-.23-.17,6.77,6.77,0,0,0-1.65-2,17.17,17.17,0,0,0-4.43-2.74,36.9,36.9,0,0,0-6.9-2.24l-1.6-.34a.55.55,0,0,0-.7.42c-.05.17-.1.33-.15.5A37.25,37.25,0,0,0,1,17.95c0,.11,0,.22,0,.36S1,18.76,1,19Z" transform="translate(-1 -8.11)"/></svg>