<svg id="Слой_1" data-name="Слой 1" xmlns="http://www.w3.org/2000/svg" viewBox="0 0 37.35 31.96"><title>8</title><circle cx="10.5" cy="16.42" r="2.25"/><circle cx="17.5" cy="16.42" r="2.25"/><circle cx="24.5" cy="16.42" r="2.25"/><path d="M38.75,32.24a10.25,10.25,0,0,1-5.18.91,12,12,0,0,1-3.16-.83.72.72,0,0,0-.63,0,11.23,11.23,0,0,1-4.77,1H13.89a10.76,10.76,0,0,1-8.56-3.91,10.62,10.62,0,0,1-2.55-7c0-3,0-6,0-9a10.7,10.7,0,0,1,5.67-9.6,10.39,10.39,0,0,1,5.31-1.35c3.84,0,7.67,0,11.51,0A10.68,10.68,0,0,1,34.88,8a10.43,10.43,0,0,1,1.36,5.34q0,4.48,0,9a11.18,11.18,0,0,1-.86,4.33,1.07,1.07,0,0,0,0,.67,8.38,8.38,0,0,0,2,3.4C37.84,31.2,38.3,31.74,38.75,32.24ZM35,31.14c-.11-.17-.16-.26-.22-.35A10.23,10.23,0,0,1,33.12,27a.92.92,0,0,1,.06-.56,9.64,9.64,0,0,0,1-4.36q0-4.29,0-8.58a8.67,8.67,0,0,0-.79-3.87A8.7,8.7,0,0,0,25.1,4.42c-3.73,0-7.46,0-11.19,0a10.19,10.19,0,0,0-1.34.08A8.68,8.68,0,0,0,7,7.49a7.86,7.86,0,0,0-2.08,5c-.08,3.49-.07,7,0,10.48A8,8,0,0,0,7,28.17a8.78,8.78,0,0,0,6.9,3H25A9.44,9.44,0,0,0,29.78,30a.49.49,0,0,1,.52,0,10.44,10.44,0,0,0,3.2,1C34,31.1,34.45,31.11,35,31.14Z" transform="translate(-2.25 -1.83)"/><path d="M25,33.79H13.88A11.26,11.26,0,0,1,4.94,29.7a11.12,11.12,0,0,1-2.67-7.37V20.7c0-2.43,0-4.94,0-7.41a11.18,11.18,0,0,1,5.92-10,10.91,10.91,0,0,1,5.55-1.41h3.71c2.61,0,5.21,0,7.82,0a11.16,11.16,0,0,1,10,5.89,11,11,0,0,1,1.43,5.59q0,4.49,0,9a11.72,11.72,0,0,1-.9,4.52.58.58,0,0,0,0,.33,7.82,7.82,0,0,0,1.9,3.19c.34.36.66.72,1,1.08l.9,1-.66.27a10.85,10.85,0,0,1-5.43.94,12.37,12.37,0,0,1-3.29-.86.23.23,0,0,0-.23,0A11.64,11.64,0,0,1,25,33.79Zm-5.07-1h5a10.18,10.18,0,0,0,4.56-.92,1.24,1.24,0,0,1,1,0,11.4,11.4,0,0,0,3,.79A9.06,9.06,0,0,0,37.89,32c-.29-.33-.59-.67-.9-1a8.91,8.91,0,0,1-2.13-3.6,1.56,1.56,0,0,1,.05-1,10.73,10.73,0,0,0,.83-4.14q0-4.48,0-9a10,10,0,0,0-1.29-5.09,10.22,10.22,0,0,0-9.19-5.39c-2.6,0-5.2,0-7.8,0H13.74a9.93,9.93,0,0,0-5,1.28A10.24,10.24,0,0,0,3.28,13.3c0,2.46,0,5,0,7.39v1.64a10.14,10.14,0,0,0,2.43,6.72,10.3,10.3,0,0,0,8.18,3.73H20ZM25,31.72H13.93A9.29,9.29,0,0,1,6.65,28.5,8.46,8.46,0,0,1,4.39,23c-.06-4-.06-7.36,0-10.5a8.32,8.32,0,0,1,2.2-5.3A9.19,9.19,0,0,1,12.51,4a10.62,10.62,0,0,1,1.4-.08H16.6c2.83,0,5.67,0,8.5,0a9.18,9.18,0,0,1,8.72,5.5,9.15,9.15,0,0,1,.84,4.09v2q0,3.3,0,6.6a10.2,10.2,0,0,1-1,4.58.43.43,0,0,0,0,.23,9.79,9.79,0,0,0,1.57,3.6l.14.22.62,1-1.47-.09c-.36,0-.69,0-1-.08a10.83,10.83,0,0,1-3.36-1.08A10.39,10.39,0,0,1,25,31.72Zm-4.74-1H25a8.88,8.88,0,0,0,4.5-1.14,1,1,0,0,1,1,0,9.88,9.88,0,0,0,3.05,1l.47,0a10.91,10.91,0,0,1-1.4-3.48,1.42,1.42,0,0,1,.1-.89,9.07,9.07,0,0,0,.94-4.14q0-3.3,0-6.6v-2A8.38,8.38,0,0,0,25.1,4.92c-2.83,0-5.66,0-8.49,0H13.91A9.66,9.66,0,0,0,12.64,5,8.22,8.22,0,0,0,7.37,7.82a7.34,7.34,0,0,0-2,4.67c-.07,3.13-.08,6.45,0,10.46a7.48,7.48,0,0,0,2,4.89,8.33,8.33,0,0,0,6.53,2.88h6.36Z" transform="translate(-2.25 -1.83)"/></svg>