<svg id="Слой_1" data-name="Слой 1" xmlns="http://www.w3.org/2000/svg" viewBox="0 0 29.53 29.54"><title>5</title><path d="M27.15,15.51c1.52,2.86,2.67,5.76,1.94,9.1a10.09,10.09,0,0,1-9.56,7.81,37.55,37.55,0,0,1-5.06-.09,8.21,8.21,0,0,1-6.4-4.72,18.33,18.33,0,0,1-1.33-13.7,5.87,5.87,0,0,1,.52-1.15c.78-1.44,2-1.69,3.18-.59,1,.92,1.94,2,3,2.9a6.79,6.79,0,0,0,1.67,1.17c1,.45,1.23.34,2.18-.53-.35-.38-.73-.74-1-1.16a7.25,7.25,0,0,1,1.44-10.2A7.36,7.36,0,0,1,27.88,5.85a2.08,2.08,0,0,0,1.37.71c1.53.09,3.07,0,4.61,0,1.25,0,1.75.58,1.64,1.79a6.08,6.08,0,0,1-5.89,5.55A2.18,2.18,0,0,0,27.15,15.51Zm-9.42,4.68h0c-1,0-1.92,0-2.87,0a1.32,1.32,0,0,0-1.45,1.7c.52,3.72,3.35,5.88,7.23,5.63a1.22,1.22,0,0,0,1.3-1.3c0-1.61,0-3.22,0-4.83a1.07,1.07,0,0,0-1.21-1.2Zm14.89-11H29.29c0,.77,0,1.48,0,2.19A3,3,0,0,0,32.62,9.17ZM22,7.36c-.55.82-1.14,1.32-1.11,1.78s.7,1,1.17,1.09A1,1,0,0,0,23.17,9C23.09,8.54,22.55,8.13,22,7.36Z" transform="translate(-5.98 -2.92)"/></svg>