<svg id="Слой_1" data-name="Слой 1" xmlns="http://www.w3.org/2000/svg" viewBox="0 0 37 29.79"><title>7</title><path d="M21.35,5.72A12.26,12.26,0,1,1,9.08,17.85,12.24,12.24,0,0,1,21.35,5.72ZM12.07,18a9.28,9.28,0,0,0,18.57,0,9.28,9.28,0,1,0-18.57,0Z" transform="translate(-2.25 -3.76)"/><path d="M6.14,7q.06,2.35.12,4.69c0,.45.27.75.62.74s.62-.34.59-.79q-.15-3-.3-5.91a.61.61,0,0,1,.54-.65.6.6,0,0,1,.6.6q.15,2.57.3,5.15c0,.77.11,1.53.14,2.3a2.93,2.93,0,0,1-1.33,2.75,2.33,2.33,0,0,0-1.05,2.53c.2,1.69.32,3.4.43,5.1.16,2.45.28,4.9.42,7.34a3.11,3.11,0,0,1-.35,1.81,1.52,1.52,0,0,1-1.38.88,1.44,1.44,0,0,1-1.35-.92,3.34,3.34,0,0,1-.32-1.34c0-1.6.11-3.2.2-4.79s.21-3.38.34-5.07c.09-1.19.22-2.37.34-3.55a1.77,1.77,0,0,0-.81-1.77,3.4,3.4,0,0,1-1.59-3.51c.14-1.34.17-2.69.25-4,.05-.95.1-1.9.16-2.85a.62.62,0,0,1,.61-.63.6.6,0,0,1,.54.69c-.08,1.66-.17,3.31-.26,5,0,.36,0,.72,0,1.08a.62.62,0,0,0,.55.61.62.62,0,0,0,.62-.5,2.81,2.81,0,0,0,0-.5q.08-2.85.15-5.7a.6.6,0,1,1,1.2,0c0,.43,0,.87,0,1.3Z" transform="translate(-2.25 -3.76)"/><path d="M36.59,19C35.21,18.9,35,18.66,35,17.32c0-1.64,0-3.27,0-4.91a14.1,14.1,0,0,1,2.73-8.33c.13-.18.26-.38.51-.3s.25.34.25.57c0,4.47,0,8.93,0,13.4,0,1.56.17,3.12.27,4.68.11,1.73.23,3.45.33,5.18.07,1.25.11,2.5.15,3.75a2.49,2.49,0,0,1-.41,1.43,1.47,1.47,0,0,1-2.54.07,2.22,2.22,0,0,1-.45-1.38c.08-2,.17-4,.28-6.05.08-1.52.2-3,.31-4.57C36.47,20.25,36.54,19.66,36.59,19Z" transform="translate(-2.25 -3.76)"/><path d="M14.53,17.94a6.81,6.81,0,1,1,6.79,6.85A6.81,6.81,0,0,1,14.53,17.94Z" transform="translate(-2.25 -3.76)"/></svg>