<svg id="Слой_1" data-name="Слой 1" xmlns="http://www.w3.org/2000/svg" viewBox="0 0 33 32.7"><title>4</title><path d="M30.75,7A3.7,3.7,0,0,1,33,9.21a2.09,2.09,0,0,1-2.73,2.66,3.41,3.41,0,0,1-2.11-2.2l-.84.76a13.75,13.75,0,0,1,1.46,1.07,2.48,2.48,0,0,1,.84,2.16,2,2,0,0,1-2.72,1.73,3.55,3.55,0,0,1-2.24-2.22l-.84.77a3.69,3.69,0,0,1,2,1.53,2.19,2.19,0,0,1-1.1,3.38,2.57,2.57,0,0,1-2.5-.81,11.17,11.17,0,0,1-1-1.37,3.39,3.39,0,0,0-1.47,2.12,1.57,1.57,0,0,0,.36,1.41,1,1,0,0,1-1,1.54,1.84,1.84,0,0,1-.79-.6,3.62,3.62,0,0,1-.23-3.72,6.17,6.17,0,0,1,3-3.06,1,1,0,0,0,.5-.52A6,6,0,0,1,24.49,11a1.21,1.21,0,0,0,.59-.62A6.42,6.42,0,0,1,28,7.48a1.34,1.34,0,0,0,.57-.59A5.45,5.45,0,0,1,32.82,3.8a3,3,0,0,1,2.51.87A1,1,0,0,1,35.5,6a.93.93,0,0,1-1.28.25,4,4,0,0,0-.77-.37,2.39,2.39,0,0,0-2.16.61Zm-7.54,8.94a1.41,1.41,0,0,0,.67,1,.89.89,0,0,0,.32,0,.91.91,0,0,0,0-.31A1,1,0,0,0,23.21,15.89Zm4.42-2.42a.92.92,0,0,0-1-1C26.76,13.15,27.16,13.55,27.63,13.46ZM31.13,10a1,1,0,0,0-1-1C30.29,9.72,30.65,10.07,31.13,10Z" transform="translate(-4.25 -2.05)"/><path d="M17.39,29.65l-3,1.23L12.5,16.57l.3.28c1,1,2,2,3.05,3.07a1.17,1.17,0,0,1,.3.61c.42,3,.82,6,1.22,8.94C17.38,29.52,17.38,29.56,17.39,29.65Z" transform="translate(-4.25 -2.05)"/><path d="M10.74,18.47l.32,2.37,1.13,8.44c.1.73.21,1.45.29,2.18a.37.37,0,0,1-.17.3c-.9.39-1.81.76-2.76,1.16-.09-.68-.19-1.33-.27-2-.29-2.15-.59-4.31-.86-6.46a1.72,1.72,0,0,1,.1-.82c.67-1.65,1.36-3.3,2-4.94l.1-.25Z" transform="translate(-4.25 -2.05)"/><path d="M17.43,7.19c-.62-.2-1.07.12-1.38.74a5.68,5.68,0,0,1-.39.56.57.57,0,0,1-.59.33c-.26,0-.37-.24-.43-.48-.13-.44-.25-.88-.42-1.31a.63.63,0,0,0-.33-.32c-.44-.16-.9-.26-1.33-.44a.72.72,0,0,1-.42-.42.72.72,0,0,1,.27-.53,9.89,9.89,0,0,1,1.09-.78A.53.53,0,0,0,13.76,4a10,10,0,0,1,0-1.34A.71.71,0,0,1,14,2.15a.73.73,0,0,1,.59.09,7.54,7.54,0,0,1,1,.75.62.62,0,0,0,.72.11c.38-.15.78-.27,1.17-.4a.55.55,0,0,1,.64.09.56.56,0,0,1,.07.64c-.15.42-.27.85-.43,1.26a.48.48,0,0,0,.09.53,10.4,10.4,0,0,1,.79,1.08.78.78,0,0,1,.1.62c-.06.14-.34.23-.53.26A4.89,4.89,0,0,1,17.43,7.19Z" transform="translate(-4.25 -2.05)"/><path d="M35.5,25.26c-.65-.24-1.09.14-1.42.77a5.42,5.42,0,0,1-.37.53.53.53,0,0,1-1-.15c-.12-.43-.27-.85-.39-1.28a.47.47,0,0,0-.37-.38c-.42-.11-.83-.26-1.24-.38-.24-.07-.46-.16-.51-.44s.14-.46.35-.61c.37-.25.74-.5,1.09-.78a.58.58,0,0,0,.19-.38c0-.48,0-1,0-1.44a.66.66,0,0,1,.26-.5.74.74,0,0,1,.59.08,9.09,9.09,0,0,1,1,.77.56.56,0,0,0,.65.11c.38-.16.78-.27,1.17-.4a.6.6,0,0,1,.67.06c.22.21.16.45.07.7-.14.41-.27.83-.43,1.23a.45.45,0,0,0,.08.5,12.35,12.35,0,0,1,.81,1.11.86.86,0,0,1,.1.59c-.06.25-.31.3-.56.29Z" transform="translate(-4.25 -2.05)"/><path d="M19.15,11.63a6.88,6.88,0,0,1-3.31,6.05,1,1,0,1,1-1.17-1.6,12,12,0,0,0,1-.83A4.84,4.84,0,0,0,16.84,10c-.05-.16-.13-.32-.17-.49a1,1,0,0,1,.6-1.19,1,1,0,0,1,1.26.51A7,7,0,0,1,19.15,11.63Z" transform="translate(-4.25 -2.05)"/><path d="M27.23,19.84a7.19,7.19,0,0,1,2.92.62.89.89,0,0,1,.57,1.19,1,1,0,0,1-1.23.67,14.14,14.14,0,0,0-1.83-.42,4.6,4.6,0,0,0-4.44,2.05,4.3,4.3,0,0,1-.5.61,1,1,0,0,1-1.2.09.87.87,0,0,1-.36-1.11A5.67,5.67,0,0,1,22,22.29,7,7,0,0,1,27.23,19.84Z" transform="translate(-4.25 -2.05)"/><path d="M21,4.56a2.49,2.49,0,0,1,2.51-2.51,2.52,2.52,0,1,1,0,5A2.5,2.5,0,0,1,21,4.56Z" transform="translate(-4.25 -2.05)"/><path d="M26.84,24.9a2.52,2.52,0,1,1-2.51,2.56A2.54,2.54,0,0,1,26.84,24.9Z" transform="translate(-4.25 -2.05)"/><path d="M34.44,17.91a2,2,0,0,1-.37-.19c-.74-.6-1.47-1.2-2.2-1.81a.51.51,0,0,1,0-.89c.72-.6,1.45-1.2,2.17-1.8a.54.54,0,0,1,.77,0L37,15a.51.51,0,0,1,0,.89q-1.08.91-2.17,1.79A2.2,2.2,0,0,1,34.44,17.91Z" transform="translate(-4.25 -2.05)"/><path d="M14.45,12.16a2.25,2.25,0,0,1-.31.43c-.73.61-1.46,1.21-2.2,1.82a.53.53,0,0,1-.75,0c-.73-.6-1.47-1.2-2.2-1.82a.51.51,0,0,1,0-.87c.73-.61,1.46-1.21,2.2-1.82a.53.53,0,0,1,.75,0c.73.61,1.47,1.21,2.19,1.82A2.12,2.12,0,0,1,14.45,12.16Z" transform="translate(-4.25 -2.05)"/><path d="M19.29,28.86l-.85-6.33.27.24,3.38,3.38c.65.66.52,1.33-.34,1.69Z" transform="translate(-4.25 -2.05)"/><path d="M6.84,27.72c.26,1.95.52,3.82.78,5.69a.32.32,0,0,1-.23.41c-.68.26-1.35.56-2,.84a.75.75,0,0,1-1-1l2.4-5.76A1.82,1.82,0,0,1,6.84,27.72Z" transform="translate(-4.25 -2.05)"/></svg>