<svg id="Слой_1" data-name="Слой 1" xmlns="http://www.w3.org/2000/svg" viewBox="0 0 36 28.12"><title>6</title><path d="M22.27,15.24a11,11,0,0,1,1.67,3.41,10.8,10.8,0,1,1-17.67-5,10.63,10.63,0,0,1,8.22-2.79,10.44,10.44,0,0,1,3.81,1,1.13,1.13,0,1,1-1,2,8.55,8.55,0,1,0,1.74,14.21l.17-.15c-.18-.27-.36-.54-.52-.81a10.75,10.75,0,0,1,.89-12.4,10.49,10.49,0,0,1,7.18-3.9,10.79,10.79,0,0,1,3.17,21.34,10.6,10.6,0,0,1-7-1,1.11,1.11,0,0,1-.51-1.53A1.13,1.13,0,0,1,24,29.2a8.4,8.4,0,0,0,8.35-.27,8.13,8.13,0,0,0,3.35-3.73,8.53,8.53,0,0,0-6-11.95A8.33,8.33,0,0,0,22.49,15Zm-1.5,11A8.5,8.5,0,0,0,22.07,21,8.3,8.3,0,0,0,20.76,17,8.44,8.44,0,0,0,20.76,26.21Z" transform="translate(-2.75 -4.3)"/><path d="M20.76,5.19a8.52,8.52,0,0,1,.72-.56,2.24,2.24,0,0,1,3.34,1.49,2.21,2.21,0,0,1-.56,2.1c-1,1.12-2.1,2.22-3.15,3.33a.39.39,0,0,1-.66,0c-1.06-1.11-2.13-2.22-3.18-3.34a2.36,2.36,0,0,1-.38-2.58,2.21,2.21,0,0,1,3.5-.76C20.53,5,20.64,5.08,20.76,5.19Z" transform="translate(-2.75 -4.3)"/></svg>