<?xml version="1.0" encoding="utf-8"?>
<!-- Generator: Adobe Illustrator 21.1.0, SVG Export Plug-In . SVG Version: 6.00 Build 0)  -->
<svg version="1.1" id="Слой_1" xmlns="http://www.w3.org/2000/svg" xmlns:xlink="http://www.w3.org/1999/xlink" x="0px" y="0px"
	 viewBox="0 0 400 200" style="enable-background:new 0 0 400 200;" xml:space="preserve">
<g>
	<g>
		<g>
			<path d="M77.1,123.5c-7.2,0-13-2.3-17.4-7c-4.5-4.7-6.7-10.9-6.7-18.7s2.2-14.1,6.6-18.7c4.4-4.7,10.2-7,17.3-7
				c6,0,11,1.4,15,4.3s6.2,6.8,6.7,11.6h-6.8c-0.3-3.2-1.7-5.7-4.3-7.6c-2.6-1.8-6.1-2.7-10.4-2.7c-5.1,0-9.3,1.8-12.4,5.3
				S60,91.5,60,97.8c0,6.4,1.6,11.3,4.8,14.8c3.2,3.5,7.3,5.3,12.4,5.3c7.2,0,12.5-2.4,16-7.1v-7.6H79.9v-5.9h19.5v25.4h-4.7
				l-1.7-5.2C89.6,121.5,84.3,123.5,77.1,123.5z"/>
			<path d="M77.1,125.1c-7.7,0-13.9-2.5-18.6-7.5c-4.7-4.9-7.1-11.6-7.1-19.8c0-8.3,2.4-14.9,7-19.8c4.7-5,10.9-7.5,18.5-7.5
				c6.4,0,11.7,1.5,15.9,4.6c4.3,3.1,6.8,7.4,7.4,12.7l0.2,1.8h-10l-0.1-1.5c-0.3-2.8-1.4-4.8-3.6-6.5c-2.3-1.6-5.5-2.4-9.5-2.4
				c-4.6,0-8.4,1.6-11.2,4.8c-2.9,3.2-4.3,7.8-4.3,13.7c0,6,1.4,10.5,4.4,13.7c2.9,3.2,6.6,4.8,11.2,4.8c6.4,0,11.2-2,14.4-6v-5.4
				H78.3v-9.1H101v28.6h-7.5l-1.3-3.8C88.6,123.6,83.5,125.1,77.1,125.1z M76.9,73.7c-6.7,0-12.1,2.2-16.1,6.5
				c-4.1,4.3-6.2,10.2-6.2,17.6c0,7.4,2,13.2,6.3,17.6c4.1,4.4,9.4,6.5,16.2,6.5c6.7,0,11.6-1.8,14.7-5.4l1.9-2.2l2.2,6.8h1.9V98.9
				H81.5v2.7h13.3v9.7l-0.3,0.4c-3.8,5.1-9.6,7.7-17.3,7.7c-5.5,0-10.1-2-13.6-5.8c-3.5-3.8-5.2-9.1-5.2-15.9c0-6.7,1.7-12,5.1-15.9
				c3.4-3.9,8-5.8,13.6-5.8c4.6,0,8.5,1,11.3,3c2.6,1.9,4.2,4.3,4.8,7.3h3.5C96,82.8,94.1,80,91,77.7C87.2,75,82.7,73.7,76.9,73.7z"
				/>
		</g>
		<g>
			<path d="M146.2,111.5c0,3.5-1.4,6.2-4.1,8.2c-2.7,2-6.7,3-12,3h-22.5V84.6H129c5.1,0,9.1,0.9,11.9,2.6c2.8,1.7,4.2,4.2,4.2,7.3
				c0,1.8-0.4,3.3-1.3,4.7c-0.9,1.4-2.2,2.5-3.8,3.4C144.1,104.3,146.2,107.2,146.2,111.5z M121.3,99.6h6.2c2.3,0,3.4-0.9,3.4-2.7
				c0-0.9-0.3-1.5-0.8-1.9s-1.4-0.6-2.6-0.6h-6.2C121.3,94.4,121.3,99.6,121.3,99.6z M132,110.1c0-1.8-1.1-2.7-3.4-2.7h-7.3v5.6h7.3
				C130.9,112.9,132,112,132,110.1z"/>
		</g>
		<g>
			<path d="M247.8,106.1c1.1,1.4,1.7,3.1,1.7,5c0,2.6-0.9,4.9-2.8,6.8c-1.9,1.9-4.4,3.3-7.5,4.2c-3.2,1-6.7,1.4-10.5,1.4
				c-6.5,0-12.5-1-17.8-2.9l4-10.4c3.9,1.4,8.4,2.2,13.4,2.2c1.7,0,3-0.2,4-0.6s1.5-1.1,1.5-1.9c0-0.7-0.2-1.3-0.7-1.6
				c-0.4-0.3-1.2-0.5-2.3-0.5h-8.7V99h7.2c1.2,0,2-0.2,2.5-0.5s0.8-0.9,0.8-1.6s-0.4-1.3-1.1-1.7c-0.7-0.4-2-0.6-3.8-0.6
				c-3.5,0-7.5,0.8-12.2,2.4l-3.5-9.9c5.9-2.3,11.5-3.4,16.9-3.4c5.7,0,10.4,0.9,14.1,2.8c3.7,1.9,5.5,4.6,5.5,8.2
				c0,1.7-0.5,3.2-1.5,4.7c-1,1.4-2.3,2.6-4,3.5C245.1,103.6,246.6,104.7,247.8,106.1z"/>
		</g>
		<g>
			<path d="M301.8,110.3v19.8h-14.5v-7.5h-21v7.5h-14.5v-19.8h1.1c2.2,0,3.8-1.1,4.7-3.2c0.9-2.1,1.4-5.2,1.5-9.1l0.5-13.4h37.2
				v25.7H301.8z M272.6,106.1c-0.3,1.7-0.9,3.1-1.8,4.2h10.3V96.8h-7.9l-0.1,2.4C273,102.1,272.9,104.4,272.6,106.1z"/>
		</g>
		<g>
			<path d="M342.2,99.4c2.7,2.2,4.1,5.4,4.1,9.5c0,4.3-1.6,7.6-4.8,10.1c-3.2,2.5-7.5,3.7-13,3.7h-22.1V84.6h15.7v11.5h8.4
				C335.6,96.1,339.5,97.2,342.2,99.4z M330.3,108.6c0-2.2-1.1-3.3-3.4-3.3H322v6.8h4.9C329.2,112.1,330.3,110.9,330.3,108.6z"/>
		</g>
	</g>
</g>
<g>
	<g>
		<path d="M167.2,102.3c0.2,0,0.4,0,0.6,0c0-0.1,0-0.2-0.1-0.3c0.1,0.1,0.3,0.2,0.3,0.2c0.1,0,0.1-0.2,0.2-0.3c0.1,0,0.1,0,0.2,0.1
			c0.1,0,0.3,0,0.3,0c0.2-0.2,0.4-0.2,0.5-0.1c0.1,0.2,0.2,0.4,0.3,0.5c0.1-0.1,0.2-0.2,0.4-0.3c0.2,0,0.5-0.1,0.8-0.1
			c0.4,0.4,0.8,0.7,1.4,0.8c0.1,0,0.2,0.1,0.2,0.2c0.4-0.1,0.4-0.1,0.4,0.3c0.6-0.2,1,0.3,1.5,0.5c0.2,0.1,0.4,0.2,0.6,0.2
			c0.1,0,0.3,0.1,0.4,0.1c0,0,0,0,0,0.1c0.1,0,0.3-0.1,0.4-0.1c0,0.1-0.1,0.2-0.1,0.3c0.1,0,0.3,0,0.5,0c0.1,0.1,0.3,0.2,0.4,0.4
			l0,0c0.1,0.1,0.2,0.1,0.3,0.2c0.1,0.2,0.3,0.3,0.5,0.4c0.2,0,0.3,0.1,0.5,0.2s0.3,0.3,0.5,0.4c0,0.1,0,0.1,0,0.2
			c0.2,0,0.2,0,0.4-0.6c0.2,0.1,0.5,0.2,0.7,0.4c0,0,0.1-0.1,0.2-0.3c0.1,0.1,0.2,0.5,0.4,0.1c0.1,0.1,0.1,0.1,0.2,0.2
			c0.1-0.1,0.1-0.1,0.2-0.2c0.2,0.1,0.1,0.6,0.6,0.4c0,0.3,0,0.6,0,0.9h0.1c0.3-0.4,0.4-0.8,0.6-1.2c0,0.3,0,0.6,0,0.9h0.1
			c0.1-0.2,0.1-0.4,0.2-0.6c0.1,0.1,0.1,0.1,0.2,0.2c0.1-0.1,0.1-0.2,0.2-0.3c0.5,0.3,0.7,0.2,1.1-0.3c0.2,0,0.4,0,0.6,0
			c0,0,0,0,0.1,0c0.4,0.3,0.8-0.1,1.2,0c0.1,0,0.2,0.1,0.3,0.1s0.2,0.1,0.3,0.1c0,0,0.1-0.2,0.1-0.3c0.2,0,0.4,0.1,0.6,0.1
			c0.1,0,0.3,0,0.4,0c0.1,0,0.1,0,0.2,0c0.4,0.2,0.6,0.2,0.8-0.1c0.4,0.1,0.8,0.1,1.2,0.2c0.1,0,0.1,0.1,0.1,0.1
			c0.1,0.2,0.2,0.3,0.3,0c0-0.1,0.1-0.1,0.2-0.1c0.1,0,0.3-0.1,0.5-0.1c0.1,0,0.2,0.1,0.3,0.2c0.2,0.2,0.2,0.2,0.4,0
			c0-0.1,0.2-0.1,0.2-0.1s0.1,0,0.1,0.1c0.3,0.2,0.4,0.2,0.5-0.2c0.3,0.2,0.7,0.3,0.7,0.8c0,0.1,0.1,0.2,0.2,0.4
			c0.3-0.5-0.3-0.8-0.1-1.2c0.4,0,0.7,0,1,0.4c0-0.1,0.1-0.2,0.1-0.3c0.4,0.1,0.9,0,1.2,0.4c0.3-0.3,0.5-0.2,0.7,0
			c0.1,0.1,0.3,0,0.4,0c0.1,0,0.2,0.1,0.3,0.1s0.3,0.1,0.4,0.1c0.2-0.1,0.3,0,0.5,0c0.4,0.2,0.8,0.4,1.2,0.6c0,0.1,0,0.1,0,0.2
			c0.1-0.1,0.2-0.3,0.3-0.4c0,0,0,0,0.1,0.1c0,0.1-0.1,0.3-0.2,0.5c0.1,0,0.2,0.1,0.2,0c0.1-0.2,0.3-0.1,0.4,0
			c0.5,0.3,0.9,0.6,1.4,0.9c0.1,0,0.1,0.2,0.1,0.2c0.1,0.2,0.1,0.5,0.2,0.8c0.3-0.1,0.5-0.3,0.7-0.4c0.1,0.1,0.2,0.3,0.2,0.5
			c0.1,0.2,0.1,0.3,0.3,0.4c0.1,0,0.1,0.1,0.2,0.2c0.1,0.1,0.2,0.1,0.3,0.1s0.1,0,0.2,0.1c0,0.1,0,0.1-0.1,0.2
			c-0.3,0.1-0.1,0.2,0,0.4c0.1,0.2,0.1,0.3,0.2,0.5c0.1,0.2,0.1,0.4,0.2,0.6c0.1,0.3,0.2,0.5,0.3,0.8c0,0.1,0.2,0.2,0.3,0.2
			c0.4,0.1,0.3,0.2,0.2,0.5c-0.1,0.2,0,0.5,0,0.7s0.1,0.3-0.1,0.4c0,0,0,0,0,0.1c0,0.3,0,0.6,0,0.8c0,0.1,0,0.3,0,0.4
			c-0.2,0.2-0.1,0.4-0.1,0.6c0,0.5-0.1,1-0.1,1.4c-0.1,0.6-0.1,1.1-0.2,1.7v0.1c-0.3,0.3-0.2,0.7-0.3,1c-0.2,0.5-0.5,1.1-0.7,1.6
			c0,0.1-0.1,0.2-0.2,0.3c-0.3-0.4-0.4-0.8-0.3-1.2c0.1-1.1,0.3-2.2,0.4-3.3c0.1-0.6,0.1-1.3,0.4-1.9c0-0.1,0-0.1,0-0.2
			c-0.1,0-0.2,0.1-0.2,0.1c0,0.1,0,0.2,0,0.3c0,0.1-0.1,0.2-0.2,0.3c-0.2-0.5,0.2-1-0.3-1.5c-0.2,0.4-0.2,0.8,0,1.2
			c0.1,0.2,0.1,0.4-0.1,0.5c0.3,0.4,0.2,0.8,0.2,1.2c0,1.5-0.3,3-1,4.3c-0.2,0.4-0.2,0.4-0.5,0.4c0,0.1,0,0.2-0.1,0.3
			c-0.1-0.2-0.3-0.3-0.4-0.4c-0.1,0.2-0.2,0.3-0.4,0.5c0-0.2-0.1-0.3-0.1-0.4c0.1-0.4,0.2-0.8,0.2-1.2c0.1-0.3,0.1-0.6,0.2-0.9
			c0-0.1,0-0.2-0.1-0.3h-0.1c-0.1,0.1-0.2,0.3-0.2,0.4c-0.1,0.3,0,0.6-0.2,0.9c-0.2,0.4-0.4,0.9-0.4,1.4c0,0.1-0.1,0.1-0.1,0.2
			c-0.1,0.2-0.1,0.3-0.2,0.5c0,0,0,0.1,0.1,0.1c-0.1,0-0.3-0.1-0.4-0.1c-0.2-0.1-0.3-0.1-0.4,0.1c0,0.1-0.1,0.1-0.2,0.2
			c-0.1-0.5,0.1-0.9,0.3-1.2c0.3-0.4,0.4-0.8,0.5-1.2c0.2-1.1,0.4-2.2,0.6-3.4c0-0.3,0.1-0.5,0.1-0.8c-0.4,0-0.3,0.6-0.7,0.3
			c0,0.1,0.1,0.3,0.1,0.4c0,0.5,0,1,0,1.5c0,0.1,0,0.1-0.1,0.2c-0.3,0.2-0.3,0.4-0.1,0.7c0.1,0.1,0.1,0.2,0.1,0.2
			c-0.1,0.6-0.2,1.1-0.4,1.7c0,0.1-0.2,0.2-0.2,0.2c-0.1,0.1-0.3,0.2-0.4,0.3c-0.1,0.1-0.1,0.3,0,0.4c0.2,0.3,0.2,0.6-0.1,0.8
			c-0.2,0.2-0.5,0.4-0.8,0.6c-0.2-0.1-0.2-0.3,0-0.4c0.2-0.2,0.4-0.4,0.6-0.5c0.1-0.1,0.1-0.2,0.2-0.3c-0.5-0.2-0.6,0.3-0.9,0.4
			c-0.2,0.1-0.3,0.5-0.5,0.9c-0.1-0.2-0.1-0.3-0.2-0.5c-0.3,0.2-0.5,0.6-0.9,0.7c0-0.3,0-0.5,0-0.8c-0.3,0.4-0.5,0.8-0.8,1.1
			c-0.1-0.1-0.2-0.2-0.3-0.3c0,0.1-0.1,0.2-0.1,0.4c0,0,0,0-0.1,0c-0.1-0.1-0.1-0.2-0.2-0.4c-0.1,0.1-0.2,0.1-0.4,0.2
			c-0.1-0.1-0.2-0.3-0.3-0.4h-0.1c0,0.2-0.1,0.5-0.1,0.7h-0.1c0-0.1-0.1-0.2-0.1-0.3c-0.1-0.2-0.3-0.3-0.4-0.1
			c-0.1,0.1-0.2,0.2-0.2,0.3c0,0.4-0.4,0.5-0.6,0.7c0,0-0.1,0.1-0.2,0c-0.3,0-0.7-0.1-1.1-0.1c-0.1-0.2,0-0.5,0.1-0.8
			c0.2-0.3,0.4-0.6,0.5-0.9c0.1-0.1,0.1-0.3,0.2-0.4c0,0-0.1,0-0.1-0.1c-0.1,0.2-0.3,0.3-0.4,0.5c-0.3,0.4-0.5,0.8-0.7,1.2
			c0,0.1,0,0.2,0.1,0.4c-0.1,0.3-0.1,0.3-0.5,0.1c-0.1-0.1-0.3-0.1-0.4,0c-0.2,0.1-0.4,0.2-0.6,0.3c0-0.1,0.1-0.1,0.2-0.2
			c-0.2,0-0.3,0-0.5-0.1c-0.2,0-0.3,0-0.5,0c-0.1,0-0.1,0-0.2,0c-0.1,0.3-0.3,0.2-0.4,0c-0.1-0.1-0.2-0.1-0.4-0.1
			c-0.3,0.1-0.6,0.3-0.9,0.5c0-0.1-0.1-0.2-0.1-0.3c-0.4,0.2-0.9,0.5-1.4,0.2v0.1c0-0.1-0.1-0.2-0.1-0.3c-0.2-0.1-0.4,0.2-0.5-0.1
			c-0.3-0.1-0.6-0.2-0.9-0.3c-0.2,0-0.3-0.1-0.5-0.1c-0.1,0-0.2-0.1-0.3-0.2c0,0,0,0,0-0.1c-0.2,0-0.5,0-0.7,0
			c-0.1,0-0.2-0.2-0.2-0.3c-0.1-0.1-0.1-0.2-0.2-0.4c-0.1,0.1-0.2,0.1-0.3,0.2s-0.3,0.2-0.4,0.2v0.1c-0.4-0.1-0.8-0.2-1.2-0.3h-0.1
			c-0.4,0-0.7,0.1-1.1,0.1c-0.1,0-0.1,0-0.2-0.1c-0.2-0.2-0.4-0.3-0.8-0.4c-0.4-0.1-0.8-0.3-1.2-0.4c-0.1,0-0.2-0.2-0.3-0.3
			c-0.2,0.2-0.5,0.2-0.7-0.1h-0.1c-0.5,0.1-0.5,0.1-0.6-0.4c0,0,0,0,0-0.1c-0.4,0.5-0.6,0.5-1,0c-0.1,0.1-0.2,0.2-0.2,0.3
			c-0.4-0.5-0.4-0.5-0.5-0.1c-0.1-0.1-0.2-0.2-0.4-0.2c-0.2-0.1-0.4-0.2-0.6-0.4c-0.1,0-0.1-0.1-0.2-0.2c-0.3,0-0.3,0.2-0.2,0.5
			c-0.3-0.1-0.5-0.2-0.8-0.3c0-0.1,0-0.3,0-0.3c-0.2,0-0.4-0.1-0.7-0.1c0.1,0.1,0.1,0.2,0.1,0.2c-0.2-0.1-0.4-0.2-0.5-0.3
			c-0.2-0.3-0.4-0.6-0.7-0.9c-0.1,0.1-0.1,0.1-0.2,0.2c-0.3-0.2-0.5-0.4-0.8-0.6c-0.2-0.2-0.5-0.3-0.7,0c-0.3-0.4-0.5-0.8-0.5-1.3
			c0-0.3-0.2-0.5-0.3-0.8c0-0.1-0.1-0.3-0.1-0.4c0.2-0.5-0.2-0.8-0.3-1.2c0-0.1-0.1-0.1-0.2-0.2c0,0-0.1,0-0.1,0.1
			c0.1,0.3-0.1,0.7,0.1,1c0.2,0.4,0.2,0.8,0.3,1.2c0,0.1,0.1,0.2,0.1,0.3c0,0.1,0.1,0.2,0.1,0.4c-0.2-0.1-0.3-0.1-0.4-0.2
			c0-0.1,0.1-0.2,0.1-0.3c-0.2,0.1-0.3,0.1-0.5,0.1c-0.4-0.2-0.4-0.6-0.4-1c0-0.6,0-1.3,0.3-1.9v-0.1c-0.2-0.6,0-1.2,0.1-1.8
			c0-0.1,0-0.2,0.1-0.3c0.3-0.5,0.4-1.1,0.4-1.8c-0.2,0.1-0.3,0.2-0.4,0.3c0,0.3,0,0.5,0,0.8l-0.1,0.1l-0.1-0.1
			c-0.1-0.1-0.1-0.3-0.1-0.5c-0.2,0.2-0.2,0.4-0.2,0.6c0.3,1.1,0.2,2.1-0.1,3.2c0,0.1,0,0.2,0,0.2c0.1,0.3,0.1,0.6-0.2,0.6
			c0.1,0.4,0.1,0.7,0.2,1h-0.1c-0.3-0.4,0-1-0.5-1.4c-0.2,0.3,0.2,0.5,0.1,0.8c-0.2,0-0.3,0-0.5,0l-0.1-0.1c0-0.2-0.1-0.5-0.1-0.7
			c0-0.5,0.1-0.9,0.1-1.4c0.2-0.1,0.4-0.1,0.7-0.2v-0.1c-0.1,0-0.2,0-0.3,0s-0.2,0-0.3-0.1c0,0,0,0-0.1,0c-0.4,0.3-0.4,0.3-0.6-0.1
			c-0.1-0.2-0.2-0.4-0.3-0.6c-0.1-0.3,0-0.6,0.2-0.8c-0.3-0.3-0.3-0.7-0.1-0.9c0.1-0.1,0.3,0,0.5,0c0.1,0,0.3,0,0.4-0.1
			c0.2,0.2,0.4,0.4,0.8,0.2c-0.2-0.8-0.9-0.5-1.5-0.7c0-0.1,0.1-0.1,0.1-0.2c-0.1,0-0.2,0-0.3,0c-0.1-0.5-0.2-0.9,0.3-1.2
			c0,0,0,0-0.1-0.1c-0.1,0-0.2,0-0.3,0c0-0.4-0.1-0.7-0.1-1.1c-0.3,0.1-0.4,0.2-0.4,0.4c0,0.6-0.1,1.2-0.1,1.9c0,0.4,0.1,0.8,0,1.1
			c-0.1,0.4,0,0.7,0,1.1c0.1,0.4,0,0.8,0,1.1l0,0c-0.3,0.2-0.2,0.4,0,0.6l-0.1,0.1c-0.1,0-0.2-0.1-0.3-0.1c0,0,0-0.1,0-0.2
			c-0.2,0.1-0.3,0.1-0.5,0.2c0,0.1,0,0.2,0,0.3h-0.1c0-0.2-0.1-0.3-0.1-0.5s0.1-0.3,0-0.5c0-0.1-0.1-0.2-0.2-0.3h-0.1
			c0,0.1,0.1,0.2,0.1,0.3c-0.3,0.1-0.4,0.1-0.4-0.2c0-0.1-0.1-0.2-0.1-0.4c0.4,0.1,0.4-0.2,0.4-0.4c0-0.1-0.1-0.2-0.2-0.3
			c0-0.4,0.2-0.7,0.1-1.2c-0.4,0.1-0.2,0.4-0.4,0.7c-0.1-0.2-0.2-0.4-0.3-0.7H159c0,0.1,0,0.2-0.1,0.3c0,0.2-0.1,0.4-0.1,0.6
			c-0.2,0.5-0.3,0.6-0.8,0.4c0-0.3,0.1-0.7,0.1-1c0-0.1,0.1-0.3,0.2-0.3c0.2-0.1,0.2-0.3,0.2-0.4c0-0.2,0.1-0.5,0.2-0.7
			c0.1-0.2,0.2-0.5,0.3-0.7s0.1-0.4,0.4-0.3c-0.2-0.9,0.4-1.5,0.6-2.2c0.3-1.1,0.7-2.1,1.1-3.1c0,0,0.1-0.1,0-0.1
			c-0.2-0.4,0.1-0.8,0.2-1.1c0.1-0.1,0.1-0.3,0.1-0.5c-0.3,0.1-0.5,0.3-0.6,0.6c-0.2,0.4-0.3,0.8-0.4,1.2c-0.1,0.2-0.2,0.3-0.4,0.5
			h-0.1c0.1,0.1,0.1,0.2,0.2,0.3c-0.3,0.2-0.3,0.2,0,0.5c-0.2,0.7-0.4,1.4-0.6,2c-0.4,1.1-0.9,2.3-1.3,3.4c-0.2,0.7-0.3,1.3-0.5,2
			c-0.2-0.1-0.5-0.3-0.8-0.4c-0.2-0.1-0.3-0.2-0.1-0.5c0.1-0.3,0.2-0.6,0.2-1c0.2,0.1,0.2,0.1,0.3,0.1c0-0.2,0.1-0.5,0.1-0.7h0.1
			c0-0.1-0.1-0.1-0.1-0.2c0.1-0.1,0.3-0.2,0.4-0.2c-0.3-0.3-0.5-0.3-0.7,0.1c-0.1,0.2-0.2,0.5-0.3,0.7c-0.3,0-0.3-0.5-0.6-0.3
			c-0.1,0.1-0.2,0.3-0.3,0.5c0.3,0.2,0.6-0.2,0.7,0.2c0,0.2-0.1,0.3-0.2,0.5c-0.2-0.1-0.4-0.2-0.6-0.3c0,0,0-0.1,0-0.2
			c-0.3-0.2-0.6-0.5-0.9-0.8c0,0.1-0.1,0.2-0.1,0.3c-0.1,0-0.2-0.1-0.3-0.1c0.3-0.5,0.4-1,0.8-1.3c0,0,0-0.2,0-0.3h-0.2
			c-0.2,0.1-0.4,0.3-0.4,0.5s-0.2,0.4-0.3,0.5h-0.2c0,0,0-0.1,0-0.2s0.1-0.1,0.1-0.2s0-0.2-0.1-0.3c0,0-0.2,0-0.3,0
			c-0.2,0.1-0.3,0.1-0.4-0.1c-0.1-0.1,0-0.3,0-0.4c0.1-0.1,0.2-0.2,0.4-0.3c0.1-0.1,0.1-0.2,0.1-0.2c-0.1,0-0.2-0.1-0.3-0.1
			s-0.3,0.1-0.3,0.2c-0.2,0.3-0.2,0.3-0.6,0.1c0.1-0.2,0.2-0.4-0.1-0.6c0,0,0-0.1,0-0.2s0.2-0.1,0.2-0.2s0-0.2,0-0.4
			c-0.1,0-0.2,0.1-0.3,0.1c-0.2,0.3-0.3,0.2-0.5-0.1c-0.1-0.1-0.2-0.2-0.3-0.3c0.1-0.2,0.1-0.4,0.2-0.6c0-0.1,0-0.3,0-0.4
			c0-0.3,0-0.6,0.2-0.8c0.2-0.3,0.4-0.7,0.6-1c0.2-0.2,0.4-0.4,0.6-0.6l0.1,0.1c-0.1,0.4-0.2,0.8-0.3,1.2c-0.1,0.2-0.2,0.3,0.1,0.4
			c-0.1,0.5-0.1,0.9-0.2,1.4c0.3-0.3,0.4-0.6,0.5-0.9c0.1-0.4,0.1-0.9,0.2-1.3c0.2-0.8,0.4-1.6,0.6-2.4v-0.1c0.4-0.2,0.3-0.7,0.6-1
			c0.1-0.1,0.1-0.3,0.2-0.5c-0.3,0-0.4,0.2-0.5,0.4c-0.6,1.1-1.1,2.1-2,3c0,0,0,0-0.1,0.1c-0.2-0.8-0.2-1.5,0.1-2.2
			c0.1-0.1,0.1-0.2,0.2-0.3c0.1-0.1,0.3-0.1,0.3-0.4c0.4-0.2,0.3-0.7,0.6-1c0.3-0.2,0.6-0.5,1-0.8c0.4-0.2,0.8-0.4,1.1-0.5
			c0.5-0.2,1-0.5,1.5-0.7s1-0.3,1.5-0.4c0.3-0.1,0.6-0.1,0.9-0.1c0.2,0,0.4,0.1,0.7,0.1s0.6,0,0.9,0c0.5,0,0.9-0.1,1.4-0.1
			s0.9,0,1.4,0.2c0.1,0.1,0.3,0,0.5,0.1c0.1,0,0.2,0,0.4,0c0.1,0,0.1,0,0.2,0c0.2-0.2,0.4-0.1,0.6,0.1c0-0.1,0.1-0.2,0.1-0.3
			c0.1,0,0.3,0.1,0.4,0.1v0.1c-0.2,0.1-0.3,0.2-0.5,0.2c0.2,0.5,0.4,1,0.6,1.5c0,0,0,0,0.1,0c0.1-0.5,0.1-1.2,1-1.2
			c-0.1,0.2-0.2,0.3-0.3,0.4C167.1,101.8,167.1,101.9,167.2,102.3z M183.7,121.6c-0.3,0.2-0.1,0.5,0,0.8c0.1-0.1,0.1-0.2,0.1-0.3
			c0-0.1,0-0.1,0-0.2C184.1,121.7,183.9,121.7,183.7,121.6c0.1-0.2,0.2-0.4,0.5-0.4c0,0,0.1-0.1,0.1-0.2s0-0.2-0.1-0.2
			c-0.4-0.3-0.4-0.4-0.1-0.7c0.1,0.1,0.1,0.1,0.1,0.2c0.2-0.2,0.4-0.3,0.6-0.5c0-0.1,0-0.3-0.1-0.5c-0.1,0.1-0.2,0.1-0.4,0.2
			c0-0.4-0.2-0.8-0.1-1.2c0-0.1,0-0.2-0.1-0.3c-0.1,0-0.2,0.1-0.2,0.1c-0.1,0.1-0.1,0.3-0.1,0.4c-0.2,0.4-0.4,0.8-0.4,1.2
			c0,0.1,0,0.2-0.1,0.2c-0.3,0.4-0.2,0.9-0.1,1.3C183.6,121.5,183.7,121.6,183.7,121.6z M195.7,118.9h-0.1c-0.1-0.1-0.1-0.3-0.2-0.4
			c-0.1-0.1-0.1-0.2-0.2-0.2c0,0-0.1,0.1-0.2,0.1c0.1,0.1,0.1,0.2,0.2,0.2l0,0c0.1,0.2,0.1,0.4,0.1,0.4c0.3,0.1,0.2,0.3,0.1,0.5
			c-0.1,0.1-0.1,0.2-0.2,0.3c-0.4,0.5-0.8,1-1.5,1.3c-0.2-0.4,0-1.8,0.3-2c-0.3-0.5-0.2-1,0.1-1.5c-0.1-0.4-0.2-0.7-0.3-1h-0.1
			c0,0.1-0.1,0.2-0.1,0.3c-0.1,0.2,0,0.5,0,0.7c0,0.4-0.1,0.7-0.1,1.1c0,0.2-0.1,0.4-0.2,0.6c-0.2,0.2-0.3,0.4-0.3,0.7
			c0.2-0.1,0.3-0.1,0.4-0.1c-0.1,1.1-0.3,2.1-0.4,3.1c0.3-0.1,0.4-0.1,0.4-0.4c0.1-0.5,0.2-1,0.7-1.3c0.1,0,0.3-0.1,0.3,0
			c0.2,0.2,0.3,0.1,0.3,0c0.1-0.2,0.2-0.4,0.4-0.6c0.1-0.1,0.3-0.3,0.4-0.4c0.2,0.1,0.2,0.2,0.3,0.3c0.1-0.1,0.2-0.2,0.2-0.2
			c-0.1-0.1-0.2-0.1-0.3-0.2c0,0,0.2-0.2,0.2-0.1c0.1,0.1,0.3,0.2,0.3,0.3c0.1,0.2,0,0.4,0.3,0.4c0.1-0.8-0.2-1.5,0.2-2.4
			c0.1,0.2,0.3,0.3,0.3,0.4c-0.2,0.4,0,0.6,0.1,0.8c-0.1,0.2-0.1,0.4-0.2,0.6c0,0,0.1,0,0.1,0.1c0.1-0.2,0.2-0.4,0.3-0.6
			c0.1-0.3,0.2-0.6-0.2-0.8c0.5-0.4,0.5-0.8,0.2-1.2c0,0.1,0,0.1,0,0.2c-0.1,0.1-0.2,0.3-0.4,0.3s-0.3-0.2-0.2-0.4
			c0-0.2,0-0.3,0-0.5c-0.1-0.4-0.1-0.8,0.2-1.1c-0.3-0.2-0.4-0.5-0.4-0.9c0-0.3,0-0.7,0-1c0-0.1-0.1-0.1-0.1-0.2
			c0,0.1-0.1,0.1-0.1,0.2s0,0.2,0,0.3c0,0.3,0,0.6,0,0.9c-0.1,1.1-0.2,2.2-0.4,3.2C195.8,118.6,195.7,118.8,195.7,118.9z
			 M156.8,110.9h0.1c0-0.2,0.1-0.4,0-0.6c-0.1-0.4-0.1-0.7,0-1s0.1-0.7,0.2-1c0.1-0.4,0.3-0.8,0.4-1.2c0,0,0.1,0,0.1-0.1
			c0.1-0.1,0.2-0.2,0.2-0.4c0.2-0.6,0.3-1.2,0.7-1.7c0.3-0.3,0.2-0.8,0.5-1.1c-0.1,0-0.2,0.1-0.3,0.1c-0.4,0.5-0.8,1.1-1.1,1.6
			c-0.2,0.4-0.4,0.9-0.7,1.2c-0.1,0.1-0.1,0.2-0.1,0.3c0,0.3,0,0.6,0,0.9c-0.2,0.7-0.4,1.3-0.7,1.9c-0.1,0.4-0.3,0.7-0.4,1
			c0,0,0,0,0.1,0.1c0.1,0,0.2-0.1,0.2-0.1c0.1-0.2,0.3-0.3,0.5-0.3C156.7,110.6,156.8,110.7,156.8,110.9z M179.5,113.8
			c-0.4,0-0.4,0.2-0.5,0.4c-0.1,0.1-0.1,0.3-0.3,0.3c-0.1,0-0.2,0.2-0.2,0.3c-0.1,0.3-0.1,0.5-0.1,0.8c0,0.2-0.1,0.4-0.1,0.7
			c0.1,0.4-0.2,0.7-0.3,1c0,0.1-0.1,0.3-0.1,0.4c0,0.3,0,0.6-0.1,0.9c-0.1,0.5-0.1,1,0,1.5c0.4-0.1,0.3-0.6,0.5-0.7
			c-0.1-0.3-0.1-0.4-0.1-0.6s0.1-0.5,0.2-0.7c0-0.2,0.1-0.4,0.1-0.5c0.1-0.4,0.2-0.8,0.3-1.2c0-0.1,0-0.1,0.1-0.2
			c0.1-0.2,0.3-0.5,0.3-0.8c0-0.2,0.1-0.4,0.1-0.6C179.4,114.4,179.5,114.1,179.5,113.8z M186.8,116.7c0.1-0.1,0.1-0.1,0.1-0.1
			c0.1-0.2,0.1-0.5,0.5-0.4l0.1-0.2c0-0.1-0.1-0.2-0.2-0.2c-0.1-0.1-0.3-0.1-0.3-0.2c0-0.2,0.1-0.4,0.1-0.6c0.1,0.1,0.2,0.2,0.3,0.3
			c0.1-0.3,0.2-0.6,0.6-0.6c-0.1-0.2-0.1-0.4-0.2-0.7c-0.1,0.1-0.2,0.2-0.3,0.3c-0.1-0.1-0.1-0.2-0.2-0.3c-0.1-0.2-0.1-0.4-0.2-0.6
			c0-0.1,0-0.3,0-0.4c0-0.3,0-0.4-0.3-0.3c-0.1-0.1-0.1-0.2-0.2-0.3c-0.3,0.3-0.2,0.5,0.2,0.5c0,0.1,0,0.2,0,0.4
			c-0.2,0.5-0.3,1-0.2,1.5c0,0.1,0,0.1,0,0.2c-0.3,0.4-0.1,0.9,0,1.3C186.6,116.4,186.7,116.5,186.8,116.7z M181.3,111.6
			c0.1,0,0.1,0,0.2-0.1c0-0.2,0-0.4,0-0.5c0-0.2,0-0.3,0-0.5c0-0.1,0-0.2,0-0.3c0-0.1-0.1-0.2-0.1-0.3c0-0.4,0.1-0.7,0.1-1.1
			s0-0.7,0-1.1c0-0.1-0.1-0.3-0.2-0.3c-0.2,0-0.3,0.1-0.4,0.3c0,0.2,0,0.3,0,0.5c-0.1,0-0.2,0-0.3,0.1c0.1,0.3,0.4,0.5,0.2,0.9
			c0,0,0,0,0,0.1c0.3,0.3,0.2,0.8,0.2,1.2c0,0.2,0,0.5,0,0.7C181,111.3,181.2,111.5,181.3,111.6z M190.3,116.9c0.1,0,0.1,0,0.2,0
			c-0.3-0.9,0.3-1.8-0.1-2.7c0-0.1,0-0.2,0-0.2c0-0.7,0-1.3,0-2c0-0.6-0.1-1.1-0.1-1.7c0-0.1-0.1-0.2-0.2-0.3
			c-0.1,0.2-0.1,0.3-0.1,0.5c0,0.4,0.2,0.8,0,1.2c0,0,0,0.1,0,0.2c0,0.3,0.1,0.6,0.1,0.8c0,0.7-0.1,1.5,0,2.2c0,0.4,0,0.8,0,1.1
			C190.2,116.2,190.3,116.5,190.3,116.9z M192.1,121c0.1-0.5,0.3-1,0.4-1.5c0.1-0.2,0.1-0.3-0.1-0.4c-0.1-0.1-0.1-0.3-0.1-0.4
			c0-0.3,0-0.6,0.1-1c0-0.2,0-0.3-0.2-0.4c-0.2,0.3,0,0.7-0.4,0.9c-0.1-0.1-0.1-0.2-0.1-0.2c-0.1-0.1-0.3-0.2-0.4-0.3l-0.1,0.1
			c0.1,0.1,0.2,0.3,0.3,0.4c0.4,0.2,0.4,0.3,0.2,0.7c-0.1,0.2-0.1,0.3-0.2,0.5c0.1,0,0.2,0.1,0.3,0.1
			C191.8,120,191.5,120.6,192.1,121z M165.8,107.8c0.1-0.5,0.4-1-0.2-1.4l0,0c-0.1,0.1-0.2,0.1-0.3,0.1c0-0.1,0-0.2,0-0.3
			c0-0.1,0-0.1,0-0.2c0.1-0.3,0.1-0.7,0.2-1c0-0.2,0.1-0.3,0.2-0.5c0,0-0.1,0-0.1-0.1c-0.1,0.1-0.4,0.3-0.4,0.4
			c-0.1,0.7-0.4,1.3-0.7,2c-0.1,0.3-0.2,0.6-0.3,1c0,0,0.1,0,0.1,0.1c0.2-0.2,0.3-0.5,0.5-0.7c0.1-0.2,0.3-0.4,0.5-0.2
			C165.4,107.6,165.5,107.7,165.8,107.8z M198.6,111.1c-0.1,0.6,0.5,1,0.2,1.6c0.1,0,0.2,0,0.3-0.1c-0.1,0.8-0.1,0.8,0.2,0.9
			c0.1-0.2,0.3-0.4,0.3-0.5c-0.2-0.4,0-0.8,0.1-1.2c0-0.2,0-0.4-0.2-0.5c-0.1,0-0.1-0.1-0.1-0.2c0-0.2,0-0.3-0.1-0.5
			c0-0.1-0.1-0.2-0.2-0.3H199c0,0.4,0,0.8,0,1.3C198.9,111.4,198.7,111.2,198.6,111.1z M196,121.1c-0.1-0.1-0.2-0.2-0.3-0.3
			c-0.1,0.3-0.2,0.6-0.3,0.9c-0.1,0.2-0.3,0.5-0.2,0.6c0.1,0.4-0.1,0.7-0.2,1c-0.1,0.2-0.1,0.4,0.1,0.5c0.2-0.4,0.4-0.8,0.6-1.1
			v-0.1c-0.1-0.4,0.1-0.7,0.2-1c0.1-0.1,0.1-0.4,0.3-0.2c0.1,0.1,0.1,0.3,0.2,0.5c0,0.1-0.1,0.2-0.1,0.2c0,0.1,0.2,0.1,0.3,0.2
			c0-0.6,0.1-1.1-0.3-1.6C196.1,120.9,196,121,196,121.1z M200.3,119.3C200.4,119.4,200.4,119.4,200.3,119.3c0,0.3-0.1,0.5-0.1,0.7
			c0,0.3,0.1,0.6,0,0.9c0,0.5,0,0.9-0.1,1.4c0.2-0.1,0.3-0.1,0.3-0.3c0-0.3,0-0.7,0-1c0-0.4,0.1-0.9,0.2-1.3c0-0.2,0-0.4-0.1-0.7
			c0,0-0.1,0-0.1,0.1c-0.1-0.1-0.3-0.1-0.3-0.2c-0.1-0.3-0.3-0.3-0.4-0.2c0,0.3-0.1,0.6-0.1,0.8c0,0.1,0,0.2,0.1,0.2s0.2,0,0.3-0.1
			C200.2,119.5,200.3,119.4,200.3,119.3z M197.1,111.5c0.1,0,0.1,0,0.2,0c0-0.4,0-0.8-0.1-1.2c-0.1-0.5-0.2-1-0.3-1.5
			c0-0.3,0-0.6-0.3-0.8c-0.1-0.1-0.1-0.3-0.2-0.4c-0.1-0.2-0.1-0.4-0.2-0.6c0-0.1-0.2-0.1-0.3-0.3c0,0.2,0,0.2,0,0.3
			c0.1,0.4,0.4,0.7,0.3,1.1c0,0,0,0.1,0.1,0.1c0.2,0.1,0.2,0.2,0.2,0.4c0,0.2,0.1,0.4,0.1,0.6c0.1,0.4,0.1,0.8,0.2,1.3
			c0,0.1,0,0.2,0.1,0.2c0.2,0.1,0.1,0.2,0.1,0.4C197,111.3,197.1,111.4,197.1,111.5z M156.1,107.2c-0.2-0.3-0.2-0.3-0.4,0
			c-0.1,0.1-0.2,0.1-0.2,0.2s-0.1,0.1-0.1,0.2c0,0.3-0.1,0.5-0.4,0.5c-0.2,0.7-0.4,1.4-0.7,2c0.1,0,0.2,0,0.3,0s0.2,0,0.3,0.1
			c-0.2-1.5,0.6-2.4,1.6-3.2c0,0,0,0-0.1-0.1C156.4,107.1,156.2,107.1,156.1,107.2z M174.9,120.5c0.3,0.3,0.5,0.1,0.6-0.2
			c0.1-0.2,0.2-0.3,0.4-0.5c0.1,0.2,0.1,0.3,0.2,0.4c0.1-0.2,0.3-0.3,0.3-0.4s0-0.2,0.1-0.3c-0.1,0-0.2,0-0.3,0s-0.2,0.1-0.4,0.2
			c0.2-0.5-0.1-0.6-0.4-0.4c0.1-0.4,0.4-0.8,0.1-1.2c-0.2,0.2-0.3,0.5-0.3,0.8c0,0.5,0.2,1-0.3,1.4
			C174.9,120.4,174.9,120.4,174.9,120.5z M179.2,110.5L179.2,110.5c0.1,0.1,0.3,0.2,0.4,0.2c0.2-0.1,0.4-0.2,0.5-0.4
			c0.1-0.1,0-0.3,0-0.5c0,0-0.2,0-0.2-0.1c-0.1,0-0.1-0.1-0.2-0.1c-0.1,0-0.2,0-0.3,0s-0.1,0-0.2,0c0-0.2,0-0.3,0.1-0.4
			c-0.4-0.2-0.5-0.2-0.4-0.6v-0.1c0,0,0-0.1-0.1-0.1h-0.1c-0.1,0.2-0.2,0.4-0.2,0.6s0.1,0.5,0.2,0.7c0.1,0,0.2-0.1,0.3-0.1
			c0.2,0.2,0.5,0.4,0.7,0.6C179.4,110.4,179.3,110.4,179.2,110.5z M170.4,108.1l0.1,0.1c0.1-0.1,0.1-0.2,0.2-0.3
			c0.1-0.1,0.1-0.2,0.2-0.4c0-0.1,0.1-0.1,0.2-0.2l-0.1-0.1c-0.1,0.1-0.3,0.3-0.4,0.4h-0.1c-0.2,0.2-0.3,0.4-0.5,0.6v0.1
			c0.2,0.3,0.2,0.5,0.1,0.8c0,0.2,0,0.3,0.2,0.2c0.2-0.1,0.4-0.2,0.6-0.4c0.1-0.1,0.1-0.2,0.1-0.3c0-0.1-0.2-0.1-0.3-0.1
			s-0.2,0.1-0.4,0.1C170.4,108.5,170.4,108.3,170.4,108.1z M188.1,122.2c0.1,0.1,0.2,0.2,0.3,0.3c0.1,0,0.2,0.1,0.3,0.1
			c0.1-0.1,0.2-0.2,0.2-0.3c-0.1-0.3-0.2-0.5-0.3-0.8c0-0.1-0.1-0.1-0.2-0.2c-0.1,0.1-0.1,0.2-0.2,0.3c-0.2,0.2-0.3,0.4-0.5,0.5
			s-0.2,0.2-0.2,0.3c0,0.1,0,0.3,0,0.4s0,0.1,0,0.2c0.1,0,0.1,0,0.2-0.1c0.1-0.1,0.1-0.1,0.1-0.2C187.9,122.6,188,122.4,188.1,122.2
			z M182.3,114.6c0,0.3-0.1,0.5-0.1,0.7c0,0.3,0,0.7,0,1c0,0.1,0.1,0.1,0.2,0.2c0-0.1,0.1-0.1,0.1-0.2s0-0.3,0-0.3
			c0.3-0.3,0.5-0.6,0.3-1c0,0,0,0,0-0.1c0-0.2-0.1-0.5-0.2-0.7C182.4,114.2,182.9,114.8,182.3,114.6z M171.8,119.3h0.1
			c0-0.1,0.1-0.1,0.1-0.2c0.1-0.5,0.1-0.9,0.2-1.4c0-0.4,0.1-0.8,0.2-1.1c0-0.3,0.1-0.6,0.2-0.9h-0.1c-0.1,0.1-0.2,0.3-0.3,0.4
			s-0.1,0.2-0.1,0.3c0,0.2-0.1,0.4-0.1,0.6s0,0.4-0.1,0.5c0,0.4,0,0.7-0.1,1.1C171.8,118.8,171.8,119,171.8,119.3z M174.3,120.1
			c0.2-0.2,0.3-0.3,0.4-0.5c0.1-0.1,0.2-0.3,0.2-0.4c-0.1-0.2,0-0.3,0-0.5c0.1-0.1,0.1-0.3,0.1-0.4s-0.1-0.1-0.1-0.2
			c-0.1,0-0.1,0.1-0.2,0.1c-0.2,0.1-0.3,0.3-0.5,0.4s-0.2,0.3-0.1,0.5c0.1,0.2,0.3,0.3,0.1,0.6C174.2,119.8,174.3,119.9,174.3,120.1
			z M169.9,115.3C169.9,115.3,170,115.3,169.9,115.3c0.2,0,0.3-0.1,0.3-0.2c0.1-0.2,0.2-0.3,0.4-0.3c0.1,0,0.2-0.1,0.3-0.2
			c0,0,0-0.1-0.1-0.1s-0.2,0.1-0.4,0.1c0.2-0.5,0.4-0.9,0-1.4C170,113.9,170,114.6,169.9,115.3z M181.4,121.2
			c0.1,0.2,0.2,0.4,0.1,0.6c0,0.4-0.1,0.8-0.2,1.2c0,0.1,0,0.1,0,0.2c0.1,0,0.2-0.1,0.2-0.1c0.2-0.4,0.7-0.8,0.4-1.3v-0.1
			C182,121.3,181.9,121.2,181.4,121.2z M163.2,110.8c0.1-0.3,0.2-0.6,0.3-0.9s0.3-0.5,0.4-0.8c0.1-0.3,0.3-0.5,0.2-0.9
			c-0.5,1-1,2-1.5,2.9c0,0,0,0,0.1,0C162.9,111,163.1,110.9,163.2,110.8z M171.4,110.2c0.3,0,0.6-0.3,0.5-0.6c0-0.1-0.1-0.1-0.1-0.2
			c-0.1,0.1-0.2,0.1-0.2,0.2c-0.1,0.4-0.3,0.5-0.6,0.6c-0.1,0-0.1,0.1-0.2,0.1c-0.1,0.1-0.2,0.2-0.2,0.3c0,0.1,0,0.2,0,0.2
			c0.1,0.1,0.2,0.1,0.4,0.2C171.1,110.8,171.2,110.5,171.4,110.2z M189.5,118.7c0-0.3,0-0.5,0-0.7c0-0.4,0-0.7,0-1.1
			c0-0.2-0.1-0.4-0.2-0.6c-0.1,0.1-0.1,0.1-0.1,0.1c0,0.5-0.2,1-0.1,1.5c0,0.1,0,0.2,0,0.2C189,118.5,189.2,118.5,189.5,118.7z
			 M198.7,114.4c-0.1,0.4-0.1,0.7-0.1,1c0,0.4-0.1,0.8-0.1,1.2c0,0.1,0,0.2,0.1,0.4C199,116.4,199,115.1,198.7,114.4z M192.2,121.6
			C192.2,121.5,192.2,121.5,192.2,121.6c-0.2,0-0.5,0-0.5,0.1c-0.2,0.5-0.3,0.9-0.4,1.4c0,0.1,0.1,0.2,0.2,0.2c0.1,0,0.2,0,0.2,0
			c0-0.1,0-0.2,0-0.3c-0.1-0.2-0.1-0.3,0-0.5C191.9,122.1,192.1,121.8,192.2,121.6z M199.8,116.9c0.3-0.4,0.6-0.8,0.8-1.1
			c0.3-0.4,0.2-0.5-0.2-0.7c-0.1,0.2-0.1,0.3-0.2,0.5c0,0.2-0.1,0.4-0.1,0.6c0,0.1-0.1,0.2-0.2,0.2c-0.1,0-0.3,0-0.3,0.2
			C199.6,116.6,199.7,116.7,199.8,116.9z M159.9,113.7c0.6-0.5,0.6-1.7,0.2-1.9c-0.1,0.3-0.2,0.6-0.3,0.8v0.1c0,0.2,0.1,0.4,0.1,0.5
			C159.9,113.4,159.9,113.5,159.9,113.7z M181.9,119.5c0.3-0.2,0.3-0.4,0.2-0.6c0,0-0.1-0.1-0.2-0.1l-0.1,0.1c0,0.4-0.1,0.9-0.1,1.3
			c0,0.1,0.2,0.2,0.3,0.2s0.2-0.1,0.2-0.2C182.3,120,182.2,119.8,181.9,119.5z M197.6,109.7c0.3-0.2,0.4-0.8,0.3-1.2
			c-0.1-0.2-0.2-0.4-0.5-0.4C197.4,108.6,197.5,109.2,197.6,109.7z M167.6,117.6c0.3-0.5,0.2-1.5-0.1-1.8c0,0.5,0.1,1.1-0.3,1.5
			C167.3,117.4,167.4,117.5,167.6,117.6z M176.4,115.4c0.1-0.2,0.1-0.3,0.2-0.4c0.1-0.1,0.1-0.3,0.3-0.4c0.3-0.1,0.3-0.5,0.4-0.7
			c-0.2-0.1-0.3-0.1-0.5-0.2c-0.1,0.2-0.1,0.3-0.2,0.5c0,0.1,0,0.2-0.2,0.3C176.2,114.8,176.2,115,176.4,115.4z M173.3,107.5
			c0.4-0.5,0.5-1,0.6-1.6C173.3,106.3,173,107.1,173.3,107.5z M195,108.8c-0.2,0.5,0,1.2,0.3,1.4C195.6,109.5,195.4,109,195,108.8z
			 M177.1,109.2c0.4-0.4,0.6-1.5,0.3-1.7l-0.1,0.1c-0.1,0.3,0,0.7-0.3,0.9v0.1C177,108.8,177.1,109,177.1,109.2z M163.3,105
			C163.3,104.9,163.3,104.9,163.3,105c-0.2,0.1-0.4,0.1-0.5,0.3c-0.1,0.1-0.1,0.1-0.1,0.2c-0.1,0.2-0.1,0.5-0.2,0.8
			c0,0,0.1,0.1,0.2,0.2c0.1-0.3,0.2-0.5,0.3-0.7C163.2,105.4,163.3,105.2,163.3,105z M167.6,119.8h-0.1c0,0.1,0,0.2,0,0.4
			c0,0.1,0,0.3,0,0.4c-0.1,0.3,0.2,0.7,0.5,0.7c0.1,0,0.2-0.1,0.3-0.1c-0.6-0.1-0.6-0.1-0.5-0.6c0-0.1,0-0.2,0-0.3
			C167.7,120.1,167.7,119.9,167.6,119.8z M186.1,121.8c0.1-0.3,0.2-0.6,0.3-0.8c0.1-0.4,0-0.5-0.4-0.5
			C186,120.9,185.8,121.3,186.1,121.8z M162.7,114.2c0,0.2,0.1,0.4,0.1,0.7c0,0.1,0,0.2,0.1,0.2c0.3,0.1,0.6,0.2,0.8,0.3
			c0,0,0-0.1,0.1-0.1c-0.3-0.1-0.5-0.3-0.8-0.4c0.4-0.5,0.4-0.5,0.3-0.7C163.1,114.4,162.9,114.2,162.7,114.2z M199.5,113.7h-0.1
			c-0.1,0.3,0.3,1,0.6,1.1c0-0.2,0.1-0.4,0.1-0.6c0-0.1,0-0.2-0.1-0.3c-0.1,0-0.2,0.1-0.3,0.1h-0.1
			C199.6,113.9,199.6,113.8,199.5,113.7z M182.3,117.3c-0.1,0-0.1,0-0.2,0c-0.1,0.3-0.2,0.7-0.2,1c0,0.1,0.1,0.2,0.2,0.3
			c0.1-0.1,0.2-0.1,0.2-0.2s0-0.2,0-0.3c0-0.2,0-0.3,0-0.5C182.4,117.6,182.4,117.5,182.3,117.3z M190.5,117.3
			c0,0.5-0.2,1.1,0.2,1.6C191,118.3,190.7,117.8,190.5,117.3z M198.4,110.1c-0.2,0.1-0.3,0.1-0.4,0.2c-0.1,0-0.1,0.1-0.1,0.1
			c0,0.2-0.1,0.3-0.1,0.5c0,0.1,0.1,0.2,0.2,0.3c0.1-0.1,0.1-0.2,0.2-0.3c0.1-0.2,0.1-0.3,0.1-0.5c0.1,0.1,0.2,0.2,0.4,0.3
			C198.7,110.4,198.6,110.3,198.4,110.1z M198,118.1c0.1-0.2,0.1-0.3,0.1-0.4s-0.2-0.2-0.2-0.1c-0.1,0.1-0.2,0.2-0.2,0.3
			c0,0.1-0.1,0.3-0.1,0.4c0,0.2,0.1,0.4,0.4,0.5C198,118.5,198.2,118.3,198,118.1z M156.7,112.4c0.3,0,0.3-0.2,0.4-0.4
			c0-0.2,0-0.5,0.1-0.8c-0.1-0.1-0.2-0.2-0.3-0.4c0,0,0,0-0.1,0C156.8,111.5,156.8,111.9,156.7,112.4z M201.1,115.3
			c0.4-0.6,0.4-1.2,0-1.4C201,114.4,200.8,114.9,201.1,115.3z M160.7,115.6c0.2-0.6,0-1.4-0.3-1.5
			C160.4,114.6,160.3,115.2,160.7,115.6z M183,107.1c-0.2-0.1-0.3-0.2-0.6-0.3c0.1,0.4,0.1,0.7,0.2,1c0,0.1,0.1,0.1,0.3,0.2
			C182.9,107.7,183,107.4,183,107.1z M199.8,110.8c0.1-0.3,0.1-0.5,0.2-0.8c0-0.1-0.1-0.2-0.2-0.2c-0.1,0-0.2,0-0.3,0.1
			C199.4,110.1,199.5,110.6,199.8,110.8z M201.3,113.6c0-0.4,0-0.8,0.1-1.2l-0.1-0.1c0,0-0.1,0-0.1,0.1
			C201,112.6,201,113.3,201.3,113.6z M192.7,123.2c-0.4,0.7-0.5,1-0.2,1.1C192.9,123.7,193,123.4,192.7,123.2z M167.7,117.9
			L167.7,117.9c-0.1,0.5-0.1,0.9-0.1,1.3h0.1c0.1-0.1,0.3-0.2,0.3-0.3c0-0.3-0.1-0.5-0.1-0.8C167.9,118,167.8,117.9,167.7,117.9z
			 M173.3,110c-0.1-0.2,0-0.5-0.4-0.4c-0.3,0.1-0.5,0.9-0.4,1.2c0.1-0.1,0.2-0.3,0.2-0.4C172.8,110.2,172.9,110,173.3,110z M186,110
			c0.4-0.2,0.5-1.2,0.1-1.7C186,108.9,186,109.5,186,110z M167.5,108.8C167.5,108.8,167.6,108.7,167.5,108.8
			c0.1-0.3,0.2-0.6,0.3-0.9c0-0.2,0.1-0.3,0.1-0.5c0,0,0-0.1-0.1-0.1c0,0-0.1,0-0.1,0.1c-0.1,0.4-0.2,0.7-0.2,1.1
			C167.4,108.5,167.5,108.7,167.5,108.8z M172.1,112.2c0.3,0.1,0.5-0.3,0.8-0.3c0.1,0,0.1-0.2,0.1-0.3c0,0,0,0-0.1,0
			c-0.1,0.1-0.2,0.1-0.3,0.2c0-0.1-0.1-0.2-0.1-0.3c0,0,0,0-0.1,0C172.3,111.7,172.2,111.9,172.1,112.2z M173.3,110.5
			c0,0,0.1,0,0.1,0.1c0.1-0.1,0.3-0.2,0.4-0.4c0.1-0.1,0.2-0.2,0.3-0.2c-0.1,0-0.3,0-0.4,0c-0.2,0-0.4-0.1-0.4,0.2
			C173.3,110.3,173.3,110.4,173.3,110.5z M162.9,112.3c-0.2,0.1-0.3,0.1-0.4,0.2c0.1,0.2,0.2,0.4,0.4,0.5c0.1-0.1,0.3-0.2,0.3-0.3
			C163.2,112.6,163.1,112.4,162.9,112.3z M199.4,119c-0.3,0.6-0.4,0.8-0.1,1.1C199.6,119.8,199.6,119.3,199.4,119z M174.6,107
			c-0.1-0.1-0.3-0.2-0.4-0.2c-0.1,0.2-0.2,0.4-0.3,0.5c0,0.1,0,0.2,0,0.3c0.1,0,0.2,0,0.3,0C174.4,107.5,174.5,107.3,174.6,107z
			 M199.9,118.3c0.1-0.2,0.3-0.4,0.4-0.6c0-0.1-0.1-0.2-0.1-0.3c-0.1,0-0.2,0.1-0.3,0.1C199.6,117.8,199.6,118,199.9,118.3z
			 M191.8,110.5C191.8,110.5,191.8,110.6,191.8,110.5c0.1,0,0.3,0,0.3-0.1c0.1-0.2,0.1-0.4,0.2-0.7c0-0.1,0-0.2,0-0.3
			c-0.1,0.1-0.2,0.1-0.2,0.2C191.9,109.9,191.9,110.2,191.8,110.5z M202.1,111.2c0,0.8,0.1,1,0.4,1.1
			C202.4,111.9,202.6,111.5,202.1,111.2z M163.4,105.5c0.4-0.2,0.7-0.6,0.6-1C163.6,104.6,163.4,105,163.4,105.5z M167.6,109h-0.1
			c-0.3,0.4-0.4,1,0,1.2C167.5,109.7,167.6,109.4,167.6,109z M155.4,102.8c0.4-0.1,0.8-0.6,0.8-1
			C155.8,102.1,155.5,102.5,155.4,102.8z M179,112.9c-0.4,0.3-0.5,0.6-0.2,1.1c0.1,0,0.2-0.1,0.4-0.2
			C178.5,113.6,179.2,113.3,179,112.9z M169.5,107.4c0-0.2,0-0.3-0.1-0.5l-0.2-0.1c-0.1,0.1-0.2,0.8,0,0.9h0.2
			C169.4,107.6,169.5,107.5,169.5,107.4z M167.1,106c0.2-0.3,0.6-0.6,0.7-1C167.3,105.1,167.1,105.5,167.1,106z M184.2,115.6
			c0,0.3-0.1,0.6-0.1,0.8c0,0.1,0,0.1,0.1,0.2c0,0,0.1,0,0.2,0C184.6,116.4,184.6,115.9,184.2,115.6z M185.1,112.8
			c0-0.2,0-0.4,0-0.6c0-0.1-0.1-0.1-0.1-0.2l-0.1,0.1c0,0.1-0.1,0.3-0.1,0.4s0,0.2,0,0.4c0,0,0.1,0.1,0.1,0
			C184.9,113,185,112.9,185.1,112.8z M170.1,107.4c0.4-0.4,0.5-0.7,0.3-0.9C170.1,106.8,170,107.1,170.1,107.4z M175.6,117.2
			C175.6,117.3,175.6,117.3,175.6,117.2c0,0.3-0.1,0.4-0.2,0.6c0.5-0.1,0.7-0.5,0.5-0.8C175.8,117.1,175.7,117.2,175.6,117.2z
			 M169.8,120.6C169.9,120.6,169.9,120.6,169.8,120.6c0.3-0.5,0.2-0.9-0.3-1C169.7,120,169.7,120.3,169.8,120.6z M169.5,113.1
			L169.5,113.1c0.2-0.1,0.3-0.2,0.5-0.3c0.1-0.1,0.1-0.2,0-0.3c0-0.1-0.2-0.1-0.2-0.1c-0.1,0-0.2,0.1-0.2,0.2
			C169.5,112.8,169.5,112.9,169.5,113.1z M156.2,111.3c-0.3,0-0.4,0.1-0.3,0.3c0,0.2,0.1,0.4,0.1,0.6
			C156.2,112,156.2,111.7,156.2,111.3z M159.2,106.8c0,0.3,0.2,0.6,0.4,0.6c0.1,0,0.2-0.1,0.2-0.2c0,0,0-0.2-0.1-0.2
			C159.6,106.9,159.4,106.9,159.2,106.8z M187,117.6c0.2-0.2,0.2-0.4,0-0.5c0.1-0.1,0.1-0.2,0.1-0.3l-0.1-0.1
			c-0.1,0.1-0.3,0.2-0.3,0.3C186.8,117.1,186.9,117.3,187,117.6z M194.7,119.6c-0.3-0.1-0.3-0.3-0.3-0.5c0-0.1-0.1-0.1-0.1-0.2
			c-0.1,0-0.2,0-0.2,0.1C194,119.2,194.3,119.6,194.7,119.6z M189.1,113.8c-0.1,0.5-0.1,0.8,0,1
			C189.4,114.2,189.3,113.9,189.1,113.8z M195,116.6c0,0.1,0,0.1,0,0.2c0.1,0.1,0.2,0.2,0.3,0.3c0.3,0,0.6-0.2,0.6-0.4
			c0,0,0-0.1-0.1-0.1s-0.1,0-0.2,0c-0.1,0.1-0.2,0.2-0.2,0.3C195.2,116.8,195.1,116.7,195,116.6z M172.4,114.6l-0.1,0.1
			c0.1,0.2,0.2,0.3,0.3,0.5c0,0,0.2,0,0.2-0.1s0.1-0.3,0-0.4C172.7,114.6,172.5,114.6,172.4,114.6z M191.9,124.8
			c0.2-0.4,0.2-0.7-0.1-0.7C191.5,124.6,191.5,124.7,191.9,124.8z M174.4,116.5c0.1,0.2,0.1,0.5,0.4,0.5c0.1,0,0.2-0.3,0.1-0.4
			C174.8,116.3,174.6,116.5,174.4,116.5z M166.6,113.7c0.3-0.2,0.3-0.6,0.1-1C166.4,113,166.4,113.4,166.6,113.7z M163.5,101.6
			c0.3,0,0.5-0.1,0.5-0.3c0-0.1-0.1-0.2-0.2-0.2C163.6,101.1,163.5,101.3,163.5,101.6z M186.5,119.6h-0.1c0,0.1-0.1,0.2,0,0.3
			c0,0.1,0.1,0.1,0.2,0.2c0,0.1,0.1,0.1,0.1,0.2c0.1-0.1,0.2-0.2,0.2-0.3C186.7,120,186.6,119.8,186.5,119.6z M168.8,103.4
			c-0.2-0.1-0.4-0.1-0.5,0.1s0,0.4,0.2,0.6C168.6,103.9,168.7,103.6,168.8,103.4z M193.5,116l-0.1,0.1c0.1,0.1,0.2,0.3,0.4,0.4
			c0.1,0,0.2-0.1,0.4-0.2v-0.1C193.9,116.1,193.7,116.1,193.5,116z M166.7,120.2h-0.1c0,0.1,0,0.3,0,0.3c0.2,0.1,0.4,0.2,0.6,0.2
			c0,0,0-0.1,0.1-0.1C167.1,120.5,166.9,120.3,166.7,120.2z M166.4,104.9c-0.1,0.3-0.3,0.6-0.4,0.9
			C166.5,105.7,166.6,105.3,166.4,104.9z M170.9,102.2c-0.1,0.1-0.2,0.2-0.3,0.3c0.1,0.1,0.2,0.2,0.2,0.2c0.1-0.1,0.2-0.2,0.4-0.2
			C171.1,102.4,171,102.3,170.9,102.2z M188.8,107.6C188.8,107.5,188.9,107.5,188.8,107.6c0-0.2,0-0.4-0.1-0.6
			c0-0.1-0.1-0.1-0.2-0.1c0,0.1-0.1,0.2-0.1,0.2C188.6,107.2,188.7,107.4,188.8,107.6z M192.7,112.4c0.2-0.5,0.1-0.8-0.3-0.8
			C192.5,111.9,192.6,112.1,192.7,112.4z M190.6,123.5h0.1c0.4-0.4,0.5-0.6,0.3-0.8C190.8,123,190.7,123.2,190.6,123.5z
			 M177.6,122.1c0.1-0.2,0.1-0.3,0.2-0.3c0.2-0.1,0.1-0.3,0.1-0.5c0,0-0.1-0.1-0.1,0l-0.1,0.1c0,0.1,0,0.2,0,0.2
			c-0.1,0-0.1,0.1-0.2,0.1C177.5,121.8,177.6,121.9,177.6,122.1z M195.9,111c0.1-0.1,0.1-0.7,0-0.7c0,0-0.2,0-0.2,0.1
			S195.7,110.8,195.9,111z M194.1,109.7C194.1,109.7,194.1,109.6,194.1,109.7c0.1-0.5-0.1-0.8-0.3-1.2h-0.1
			C193.8,108.9,193.9,109.3,194.1,109.7z M158,110.7h0.1c0.1-0.2,0.2-0.4,0.3-0.6C158,110.2,157.9,110.4,158,110.7z M166.8,106.3
			L166.8,106.3c-0.4,0-0.6,0.2-0.4,0.6C166.6,106.7,166.7,106.5,166.8,106.3z M163.9,103.8c-0.2,0.3-0.5,0.4-0.4,0.7
			C163.8,104.5,163.9,104.3,163.9,103.8z M193.6,107.4h0.1c0-0.1,0.1-0.3,0-0.4s-0.3-0.1-0.4-0.1c0,0,0,0.1-0.1,0.1
			C193.4,107.1,193.5,107.3,193.6,107.4z M169.6,114.3c0.1-0.2,0.1-0.4-0.2-0.5c-0.1,0-0.2,0.1-0.2,0.1
			C169.2,114.2,169.4,114.3,169.6,114.3z M188.3,116.2c-0.2,0.2-0.2,0.5-0.5,0.4c0.1,0.1,0.2,0.3,0.2,0.2c0.1,0,0.3-0.1,0.3-0.2
			C188.3,116.6,188.3,116.4,188.3,116.2z M187.3,121.2L187.3,121.2c0.2,0.1,0.3,0.2,0.5,0.2c0-0.1,0-0.2,0-0.3
			C187.6,120.9,187.5,121.3,187.3,121.2z M157.9,114.6c-0.2-0.4-0.5-0.4-0.7-0.1C157.4,114.5,157.6,114.6,157.9,114.6z M194.3,110.9
			c0.1-0.4,0-0.7-0.2-0.8C194.2,110.4,194,110.7,194.3,110.9z M192.3,116.2c-0.1,0-0.1,0-0.2,0c0,0.1-0.1,0.3,0,0.4
			c0,0.1,0.1,0.1,0.1,0.1c0.1,0,0.2-0.1,0.2-0.1C192.4,116.5,192.3,116.3,192.3,116.2z M159.5,105.5c-0.1,0.3-0.1,0.5-0.2,0.8
			C159.7,106.1,159.8,105.8,159.5,105.5z M158.2,111.1c-0.1-0.1-0.2-0.1-0.3-0.3c-0.1,0.2-0.2,0.3-0.2,0.4s0,0.1,0.1,0.2
			c0.1,0,0.1-0.1,0.2-0.1C158,111.3,158.1,111.2,158.2,111.1z M170.8,106c0.3,0,0.4-0.1,0.4-0.5C170.9,105.5,170.8,105.6,170.8,106z
			 M171.2,107.9c0.4,0,0.5-0.2,0.4-0.7C171.4,107.4,171.3,107.6,171.2,107.9z M191.8,111.6c0.1-0.3,0.2-0.5,0-0.8
			C191.7,111.1,191.6,111.3,191.8,111.6z M184.9,110.2h-0.1c0,0.1-0.1,0.2-0.1,0.3c0,0.1,0.2,0.2,0.3,0.3c0,0,0.1,0,0.1-0.1
			C185,110.6,184.9,110.4,184.9,110.2z M191.9,115.5c0.2,0.1,0.2,0.2,0.3,0.2c0,0,0.1-0.1,0.2-0.1c-0.1-0.1-0.1-0.2-0.2-0.3
			C192.2,115.3,192.1,115.4,191.9,115.5z M159.7,105.1c0-0.2,0-0.4,0-0.7C159.3,104.9,159.3,105,159.7,105.1z M186.8,111.3
			c0.2-0.2,0.2-0.3,0.1-0.5h-0.2C186.6,111,186.6,111.1,186.8,111.3z M164.3,103.1c-0.2,0.1-0.3,0.2-0.3,0.4c0,0,0.1,0.1,0.2,0.1
			C164.3,103.5,164.4,103.3,164.3,103.1L164.3,103.1z M196.2,112.8h0.1c0.1-0.3,0.1-0.5-0.2-0.7
			C196.1,112.3,196.1,112.5,196.2,112.8z M189.7,119.1c-0.1-0.1-0.2-0.2-0.3-0.3c-0.1,0.1-0.2,0.2-0.2,0.2c0,0.1,0.1,0.2,0.2,0.3
			C189.5,119.3,189.6,119.2,189.7,119.1z M194.9,121.9c0.1,0,0.1,0,0.2,0c0-0.2,0-0.4-0.1-0.5c-0.1,0-0.2,0.1-0.2,0.1
			C194.8,121.6,194.8,121.7,194.9,121.9z M169.7,109c-0.3-0.3-0.3-0.3-0.6-0.1c0.1,0.1,0.2,0.2,0.3,0.4
			C169.5,109.2,169.6,109.1,169.7,109z M172.5,105.7c-0.1,0.2-0.2,0.3-0.3,0.5c0.1,0,0.2,0.1,0.2,0
			C172.6,106.1,172.7,106,172.5,105.7z M161.2,101.3C161.2,101.3,161.2,101.2,161.2,101.3c-0.4,0-0.5,0.1-0.5,0.5
			C160.9,101.6,161.1,101.4,161.2,101.3z M176.7,110.5c-0.1,0.3-0.1,0.5,0.1,0.7C176.9,110.9,177,110.7,176.7,110.5z M168.6,113.8
			c0.1-0.3,0-0.4-0.1-0.4s-0.2,0.1-0.2,0.2C168.3,113.6,168.4,113.7,168.6,113.8z M178,109.1c0.1-0.1,0.2-0.1,0.2-0.2
			c-0.1-0.1-0.1-0.2-0.2-0.3l-0.2,0.1C177.8,108.9,177.9,109,178,109.1z M162.4,103.9c-0.4,0.1-0.5,0.2-0.4,0.6
			C162.2,104.3,162.3,104.1,162.4,103.9z M170.2,122.4c-0.1,0.1-0.2,0.2-0.2,0.3c0,0.1,0,0.2,0,0.2s0.1,0,0.2,0
			C170.3,122.8,170.3,122.5,170.2,122.4z M190.1,109h0.1c0.2-0.3,0.2-0.5-0.1-0.7C190.1,108.6,190.1,108.8,190.1,109z M173.1,107.8
			H173c0,0.1,0,0.3,0,0.4s0.2,0.1,0.3,0.1C173.2,108.1,173.2,108,173.1,107.8z M177.1,110.2c-0.1-0.1-0.2-0.2-0.2-0.2
			c-0.1,0.1-0.2,0.1-0.3,0.2c0,0,0.1,0.1,0.1,0.2C176.9,110.4,177,110.3,177.1,110.2z M171.1,106.4c0,0,0.1,0,0.1,0.1
			c0.1-0.2,0.3-0.3,0.2-0.6h-0.1C171.2,106,171.2,106.2,171.1,106.4z M166.6,117.9L166.6,117.9c0.1,0.1,0.2,0.2,0.3,0.3
			c0.1,0,0.1,0,0.2,0c0-0.1-0.1-0.2-0.1-0.2C166.9,117.9,166.8,117.9,166.6,117.9z M171.3,116L171.3,116c-0.2-0.1-0.3,0-0.5,0
			c0,0.1,0,0.2,0.1,0.2C171.1,116.3,171.2,116.2,171.3,116z M189.2,116.2c0.3-0.2,0.3-0.6-0.1-0.7
			C189.1,115.7,189.2,116,189.2,116.2z M164.9,102.9c0,0.3,0.2,0.3,0.4,0.3l0.1-0.1C165.2,103,165.1,103,164.9,102.9z M198.2,108.6
			c0,0,0.1,0,0.1-0.1c-0.1-0.1-0.1-0.2-0.2-0.4c-0.1,0-0.2,0.1-0.2,0.1C197.9,108.5,198.1,108.5,198.2,108.6z M189.2,114.8
			c-0.3,0.3-0.3,0.4,0,0.6C189.2,115.2,189.2,115,189.2,114.8z M162.5,102.8c-0.1,0.2-0.2,0.2-0.3,0.3c0,0,0.1,0.1,0.1,0.2
			c0.1-0.1,0.2-0.2,0.3-0.2C162.6,103.1,162.5,103,162.5,102.8z M183.2,116.8c0,0.2,0,0.4,0,0.5c0.1,0,0.2,0,0.2,0
			C183.5,117.1,183.4,116.9,183.2,116.8z M188,111.6c-0.1,0.2-0.1,0.3-0.1,0.4c0,0,0,0.1,0.1,0.1h0.1
			C188.1,112,188.2,111.8,188,111.6z M160.2,105.3c0,0.2,0.1,0.3,0.3,0.3l0.1-0.1C160.5,105.2,160.4,105.2,160.2,105.3z
			 M201.2,111.1c-0.1,0-0.1,0.1-0.2,0.1c0.1,0.2,0.2,0.4,0.3,0.6c0,0,0.1,0,0.1-0.1C201.4,111.5,201.3,111.3,201.2,111.1z
			 M193.2,108.2c-0.1,0-0.1,0.1-0.2,0.1c0.1,0.1,0.2,0.2,0.3,0.3l0.1-0.1C193.3,108.4,193.2,108.3,193.2,108.2z M161.7,109.3
			c-0.1,0.3-0.1,0.5,0.2,0.5C161.9,109.6,162,109.4,161.7,109.3z M166.7,112.2h0.1c0.2-0.3,0.2-0.4,0-0.7
			C166.8,111.8,166.7,112,166.7,112.2z M174.7,121.2c0.1-0.2,0.2-0.3,0.3-0.4c-0.1,0-0.1-0.1-0.2-0.1
			C174.6,120.8,174.5,120.9,174.7,121.2z M176.1,107.6l0.1,0.1c0.1-0.1,0.2-0.1,0.2-0.2c0,0-0.1-0.1-0.2-0.2
			C176.2,107.4,176.2,107.5,176.1,107.6z M164.4,101.3C164.4,101.4,164.4,101.4,164.4,101.3c0.2-0.1,0.2-0.1,0.3-0.2
			c0,0-0.1-0.1-0.1-0.2c-0.1,0.1-0.2,0.1-0.2,0.2C164.3,101.2,164.3,101.3,164.4,101.3z M166.5,107.5c-0.1-0.1-0.1-0.2-0.1-0.3
			c-0.1,0.1-0.2,0.1-0.2,0.2s0.1,0.2,0.1,0.3C166.3,107.6,166.4,107.6,166.5,107.5z M193.6,108h0.1c0.2-0.3,0.2-0.4-0.1-0.6
			C193.6,107.7,193.6,107.8,193.6,108z M181.6,108.6c0,0.4,0,0.4,0.4,0.3C181.9,108.8,181.8,108.7,181.6,108.6z M187.1,124.7
			C187.1,124.8,187.2,124.8,187.1,124.7c0.4,0.1,0.4-0.1,0.4-0.3c0,0-0.1,0-0.1-0.1C187.3,124.5,187.2,124.6,187.1,124.7z
			 M200.7,118.4c0.1,0,0.1,0,0.2,0c0-0.1,0-0.3,0-0.4c-0.1,0-0.2,0-0.2,0C200.7,118.2,200.7,118.3,200.7,118.4z M166.1,104
			C166.2,104,166.2,104.1,166.1,104c0.2,0,0.3-0.1,0.5-0.3C166.3,103.7,166.2,103.8,166.1,104z M166.2,102.2L166.2,102.2
			c-0.1,0.1-0.1,0.3,0,0.3s0.2,0,0.4,0v-0.1C166.5,102.3,166.4,102.3,166.2,102.2z M182.4,109.3l0.1-0.1c-0.1-0.1-0.2-0.2-0.3-0.2
			l-0.1,0.1C182.2,109.2,182.3,109.3,182.4,109.3z M187.6,119.2c0.2-0.1,0.4-0.2,0.6-0.2C188,118.9,187.8,118.9,187.6,119.2z
			 M188.1,124.5C188.1,124.4,188,124.4,188.1,124.5c-0.2,0.1-0.3,0.2-0.4,0.3C188.1,124.8,188.1,124.7,188.1,124.5z M197.1,112.1
			c0.1,0,0.1,0,0.2,0c0-0.1,0-0.2,0-0.4c-0.1,0-0.2,0-0.2,0C197,111.9,197.1,112,197.1,112.1z M188.3,110c0.1,0,0.1,0,0.2,0
			c0-0.1,0-0.2,0-0.4c-0.1,0-0.2,0-0.2,0C188.3,109.8,188.3,109.9,188.3,110z M187.8,106.6c-0.1-0.1-0.2-0.2-0.3-0.2
			s-0.1,0.1-0.2,0.1c0.1,0.1,0.1,0.1,0.2,0.1C187.6,106.7,187.7,106.6,187.8,106.6z M186.1,117.4c0.1,0,0.1,0,0.2,0
			c0-0.1,0-0.3,0-0.4c-0.1,0-0.2,0-0.2,0C186,117.2,186.1,117.3,186.1,117.4z"/>
	</g>
	<g>
		<path d="M157.4,85.1c0-0.3,0.1-0.4,0.4-0.3c0.2,0.1,0.5,0.1,0.7,0.2c0.1-0.3,0-0.4-0.2-0.4s-0.4,0-0.6-0.1
			c-0.2-0.1-0.4-0.2-0.3-0.4c0-0.1-0.1-0.1-0.1-0.2c0.1,0,0.2-0.1,0.3-0.1c-0.1-0.1-0.1-0.2-0.2-0.3c0.5-0.2,0.8,0,1.2,0.2
			c0.1,0,0.1,0.1,0.1,0.2c0,0.3,0.2,0.5,0.4,0.7c0.5,0.5,0.9,1,1.2,1.6c0,0,0,0.1,0.1,0.1c0.7,0.7,1.1,1.6,1.4,2.5
			c0,0.1,0.1,0.1,0.1,0.2c0.2,0.3,0.4,0.6,0.5,0.9c0.3,0.6,0.6,1.2,0.8,1.8c0.1,0.2,0.2,0.4,0.4,0.6c0-0.2,0-0.5-0.1-0.7
			c-0.1-0.4-0.4-0.7-0.5-1.1c-0.2-0.5-0.5-1.1-0.7-1.6c-0.1-0.2,0-0.4-0.1-0.6c-0.1-0.1-0.2-0.2-0.3-0.4c-0.2-0.2-0.3-0.5-0.5-0.7
			c-0.1-0.1-0.1-0.2-0.2-0.4c0.1-0.1,0.2-0.1,0.2-0.1c-0.3-0.3-0.6-0.7-0.9-1c-0.2-0.3-0.5-0.7-0.5-1.1h-0.1l-0.1,0.1
			c-0.2-0.1-0.8-0.9-0.9-1.2c0.3,0,0.5-0.2,0.5-0.6c-0.2,0-0.3,0.1-0.5,0.1c-0.1,0-0.3,0.1-0.4,0.1c0-0.2-0.1-0.3-0.1-0.5
			c0,0,0,0,0.1-0.1c0.3,0.2,0.4,0.1,0.5-0.2c0.1-0.2,0.3-0.2,0.4,0c0.2,0.2,0.3,0.3,0.4,0.5c0.2,0,0.4-0.1,0.6-0.2
			c-0.1-0.2-0.2-0.4-0.5-0.3c-0.1,0-0.2-0.2-0.3-0.3c0-0.1,0.1-0.2,0.2-0.2c0,0,0.1,0,0.2,0c0.1-0.1,0.1-0.2,0.1-0.3
			c0.1,0.1,0.2,0.1,0.2,0.2c0.1,0.2,0.5,0.1,0.6-0.1s0-0.3-0.2-0.3c-0.1,0-0.3,0-0.5-0.1c0.2-0.1,0.3-0.2,0.4-0.3
			c0.1,0.1,0.2,0.4,0.4,0.1c0.2,0.4,0,1,0.7,0.9c-0.1-0.3-0.1-0.6-0.2-1c0,0,0.1-0.1,0.2-0.1c0,0.1,0,0.2,0,0.2
			c0,0.1,0.1,0.1,0.2,0.1c0-0.1,0.1-0.1,0.1-0.2s0.1-0.2,0.1-0.2c0.1,0.1,0.1,0.2,0.2,0.3v0.1c0.3,0.3,0.2,0.7,0.2,1.1
			c0,0.2,0.2,0.5,0.3,0.7c0.2,0.3,0.3,0.6,0.3,0.9c0,0.1,0.1,0.2,0.1,0.2c0,0.1,0.1,0.2,0.1,0.3c-0.1,0-0.1,0-0.1,0
			c-0.5-0.4-1.2-0.5-1.4-1.2c-0.1-0.2-0.4-0.4-0.5-0.6c-0.3-0.3-0.3-0.4-0.7-0.5c0.1,0.1,0.1,0.2,0.2,0.3c0.1,0.2,0.3,0.3,0.5,0.5
			s0.4,0.4,0.4,0.6c0.1,0.6,0.5,0.7,0.9,0.8c0.5,0.2,0.9,0.5,1.1,1c0.3,0.6,0.6,1.2,0.9,1.8c0,0.1,0,0.2,0,0.3
			c0,0.5,0.4,0.9,0.5,1.4c0,0,0.3,0,0.4,0.1c0,0,0.1,0,0.1-0.1c0,0.1,0.1,0.3,0.1,0.4s0,0.1,0,0.2c0.6,0.4,0.5,1.1,0.5,1.7
			c0,0.2,0,0.3,0.3,0.3c-0.1,0.1-0.1,0.2-0.1,0.3c0.1,0,0.2,0.1,0.3,0.2c-0.1,0.1-0.2,0.1-0.2,0.1c0.1,0.2,0.2,0.4,0.3,0.5
			c0,0,0,0.1-0.1,0.2s-0.1,0.1-0.2,0.2l0.1,0.1c0.1,0,0.2-0.1,0.3-0.1c0.1,0.2,0.3,0.5,0.4,0.8c0.1,0.3,0.3,0.6,0.4,0.9
			c0.1,0.2,0.2,0.3,0.4,0.4c0,0,0.1,0,0.1-0.1c-0.1-0.2-0.1-0.3-0.2-0.5c-0.1-0.2-0.1-0.4-0.2-0.6c0-0.1,0-0.1-0.1-0.2
			c-0.2-0.2-0.2-0.3,0-0.4c-0.2-0.5-0.4-0.9-0.5-1.4c0-0.1,0.1-0.3,0.1-0.5c-0.4-0.1-0.3-0.5-0.4-0.8c0.1-0.1,0.5-0.2,0.2-0.5
			c0,0.1-0.1,0.2-0.2,0.3c-0.1-0.2-0.2-0.3-0.2-0.5c0-0.1-0.1-0.3,0-0.4c0-0.1,0-0.2,0.1-0.4c-0.1,0-0.1-0.1-0.3-0.1
			c0-0.1,0.1-0.3,0.1-0.4s-0.2-0.1-0.4-0.2c0-0.8-0.4-1.7-0.1-2.6c0-0.1,0-0.2-0.1-0.3c0-0.1,0-0.3,0-0.4l0.1-0.1
			c0-0.4,0-0.7-0.1-1.1c0-0.1-0.1-0.2-0.1-0.2h-0.1c0,1.3-0.1,2.7-0.1,4c-0.3,0-0.5-0.1-0.7-0.3c-0.2-0.2-0.3-0.5-0.5-0.7
			c-0.2-0.3-0.4-0.7-0.5-1c0-0.1,0-0.2,0-0.4c-0.7-0.7-0.6-1.7-0.9-2.6c0.1-0.1,0.2-0.1,0.4-0.2c-0.6-0.1-0.5-0.6-0.7-1
			c-0.1-0.2,0-0.4-0.1-0.6c0.3,0.1,0.6,0.2,1,0.3c0-0.1,0-0.2,0-0.4c0-0.1,0-0.3,0-0.4c0.4,0.4,0.2,1,0.3,1.5c0.5-0.1,0.8-1,0.5-1.4
			c0.1-0.1,0.2-0.2,0.3-0.3l0.1,0.1c0,0.4,0,0.9,0,1.3c0,0.1-0.3,0.2-0.4,0.2c-0.2,0.2-0.1,0.3,0.1,0.5c0.2,0.1,0.5,0.2,0.2,0.5
			c0,0,0.1,0.2,0.2,0.2c0.1,0,0.3,0,0.5,0c-0.1-0.1-0.2-0.2-0.3-0.3c0-0.1,0-0.2,0.1-0.3c-0.1,0-0.3,0-0.4,0c0-0.1,0-0.2,0-0.3
			c0.1,0,0.1,0,0.1,0c0.1,0,0.2,0,0.3,0c0-0.1,0-0.2-0.1-0.3c0-0.1-0.1-0.2,0-0.2c0.2-0.3,0.1-0.6,0-0.9c0-0.1-0.1-0.2-0.1-0.4
			c0-0.1,0.1-0.2,0.1-0.3c0.1,0.1,0.2,0.1,0.3,0.3c0.1,0.1,0,0.2,0,0.3c0.1,0,0.1,0,0.2-0.6c0.1,0,0.3,0.1,0.4,0.1
			c0.1-0.3-0.1-0.5-0.3-0.5c-0.1,0-0.3,0-0.4-0.1v-0.1l0.1-0.1c0.2,0,0.5,0,0.7,0.1c0.1,0,0.1,0.2,0.2,0.3c0,0.3,0,0.6,0.1,1
			c0.2-0.1,0.4-0.2,0.6-0.3c-0.1-0.1-0.1-0.2-0.2-0.2c-0.1-0.1-0.2-0.2,0-0.4c0.1,0,0-0.3,0-0.4s-0.1-0.3-0.2-0.4l0.1-0.1
			c0.2,0.1,0.4,0.2,0.6,0.3c0.2,0.1,0.4,0.1,0.6,0c0,0,0.1-0.2,0.1-0.4c0-0.1,0-0.1,0-0.3c0.3,0.2,0.5,0.1,0.6-0.1
			c0.2,0.5,0,1.1-0.3,1.6c0.1-0.1,0.2-0.1,0.2-0.2c0.3,0.3,0.3,2.3,0,3c-0.2-0.2-0.4-0.4-0.6-0.7c0.2,0,0.3,0,0.5-0.1
			c0-0.2,0-0.2-0.5-0.2c0-0.2,0-0.4,0-0.7c-0.3,0.1-0.5-0.1-0.6-0.5c0-0.1-0.1-0.2-0.1-0.2c-0.1,0-0.2,0-0.2,0.1s0,0.2,0,0.2
			c0.1,0.1,0.2,0.2,0.3,0.4c0.1,0.2,0.2,0.4,0.3,0.6c-0.6,0.1-0.7,0-0.7-0.5c-0.3,0-0.3,0.2-0.5,0.4c0,0,0,0.1,0.1,0.2
			s0.2,0.1,0.3,0.1c0.3,0.1,0.6,0.1,0.7,0.2c0.4,0.4,0.7,0.8,1,1.2c0.1,0.2,0,0.6-0.1,0.9c0,0.2-0.1,0.3-0.2,0.5
			c0.3-0.1,0.4-0.3,0.6,0c0-0.5,0.1-1,0-1.6c-0.1-0.2,0.1-0.6,0.1-0.8c0-0.1,0.1-0.2,0.1-0.3c-0.1-0.4-0.2-0.9,0.1-1.2v-0.1
			c-0.2-0.3-0.2-0.6-0.1-0.9l-0.1-0.1c0-0.1-0.1-0.2-0.1-0.2c0.2-0.3,0-0.5,0.1-0.8c0.1-0.2,0-0.5,0-0.8c0.2-0.1,0.3-0.2,0.5-0.2
			c0.1,0.1,0.1,0.2,0.2,0.2c0.1-0.1,0.1-0.1,0.2-0.2c0.1,0,0.1-0.1,0.2-0.1c0.1,0,0.3,0,0.4,0c0.1,0.1,0.2,0.2,0.4,0.3
			c-0.1,0.2-0.1,0.5-0.2,0.7c-0.1,0.2-0.2,0.3-0.3,0.4c0,0,0,0.1-0.1,0.2c0.1,0,0.1,0,0.2,0c0.1,0,0.2-0.1,0.3-0.2
			c0,0.2,0,0.4,0,0.6s0,0.3,0.1,0.5c0,0.2,0.1,0.2,0.3,0.2s0.3,0.2,0.5,0.2c0.1,0,0.2,0,0.3,0.1c0-0.1,0-0.3-0.1-0.3
			c-0.3-0.2-0.5-0.4-0.7-0.5c0-0.2-0.1-0.4-0.1-0.6c-0.2-0.6-0.1-1.1,0.3-1.6c0.2-0.3,0.4-0.3,0.7,0c0.1-0.3,0.3-0.5,0.3-0.7
			c0.3-0.1,0.5-0.1,0.7-0.2c0,0.4-0.7,0.2-0.7,0.6c0.3,0.1,0.5,0,0.6-0.2c0.1-0.1,0.2-0.3,0.4-0.4c0.1,0.5-0.2,0.7-0.4,1
			c-0.2,0.2-0.2,0.3,0.1,0.4c0.2-0.2,0.3-0.4,0.4-0.6c0.1-0.1,0.1-0.3,0.2-0.4c0.2-0.5,0.5-0.6,1-0.2c0.1,0.1,0.2,0.2,0.3,0.2
			s0.2,0.1,0.3,0c0.1,0,0-0.2,0.1-0.3c0,0,0-0.1,0-0.2c0.1,0.3,0.3,0.4,0.8,0.3c0.1,0.1,0.2,0.2,0.3,0.3c0,0.1,0,0.2-0.1,0.4
			c0.6-0.4,1.2,0,1.8,0c0.1,0,0.2,0.1,0.2,0.2s0,0.2,0.1,0.4c0.1-0.1,0.2-0.3,0.4-0.4c0,0,0,0.1,0.1,0.2c0.1,0.2,0.2,0.2,0.3,0
			s0.3-0.3,0.4,0l0.1,0.1c0.2-0.1,0.3,0.1,0.5,0.2s0.4,0.1,0.6,0.1c0.3-0.1,0.6,0,0.7,0.3c0,0.1,0.1,0.1,0.1,0.2
			c0.2-0.2,0.4-0.3,0.7-0.2c0.2,0.1,0.2,0.1,0.2,0.3c0,0.1,0,0.2,0,0.3c0.1-0.1,0.2-0.1,0.3-0.2c0,0,0-0.1,0.1-0.2s0.1-0.1,0.2-0.1
			c0,0,0.1,0.1,0.1,0.2c0.1,0.1,0.1,0.1,0.2,0.1v-0.1c0,0.1,0.1,0.2,0.1,0.2c0.1,0,0.2,0,0.3,0c0,0.2,0.1,0.4,0.2,0.6
			c0.2,0.4,0.2,0.4-0.1,0.7c0.7,0.3,0.4,1,0.5,1.5c0.1,0.7,0,1.4-0.6,2c0,0,0,0.1-0.1,0.1c-0.1,0.5-0.3,1.1-0.4,1.6
			c-0.2,0.9-0.3,1.8-0.5,2.8c-0.1,0.5-0.2,0.9-0.3,1.4s-0.2,1,0,1.6c0.1-0.2,0.4-0.2,0.2-0.5c0,0,0-0.1,0.1-0.2
			c0-0.1,0.1-0.2,0.1-0.3c0-1.5,0.3-2.9,0.6-4.3c0.1-0.5,0.3-1,0.4-1.5c0.1-0.3,0.3-0.5,0.4-0.8c0.2-0.6,0.4-1.2,0.3-1.9
			c0-0.2,0-0.5,0-0.7c0-0.3-0.1-0.5-0.2-0.8c-0.2-0.3-0.2-0.4,0.2-0.7c0,0.1,0,0.1,0,0.2s0,0.2,0.1,0.3c0,0,0.1,0,0.2,0
			c0-0.1,0.1-0.2,0.1-0.3c0-0.1,0-0.3-0.1-0.4c0.3,0.1,0.5,0.1,0.7,0.2c-0.2,0.1-0.3,0.2-0.4,0.2c-0.1,0.2-0.2,0.5-0.4,0.7
			c0.4,0.1,0.5-0.2,0.9-0.3c0.1,0.2,0.2,0.4,0.2,0.6c0,0-0.1,0-0.1,0.1c0.1,0.1,0.2,0.1,0.3,0.2c0.3-0.7,0.9-0.8,1.6-0.8
			c0,0.3,0.1,0.5,0.1,0.8c0.2-0.2,0.4-0.3,0.6-0.5c-0.1-0.1-0.2-0.1-0.3-0.2c0.1-0.1,0.2-0.2,0.2-0.3c0.4,0.1,0.7,0.2,1.1,0.3
			c-0.1,0.7-0.1,1.5-0.5,2.2c0,0.1,0,0.2,0,0.3c0,0.1,0.2,0.2,0.2,0.4c0,0.6,0,1.1-0.2,1.6c-0.1,0.2-0.1,0.4-0.1,0.6v0.1
			c-0.3,0.8-0.3,1.7-0.7,2.4c0,0.1,0,0.2,0,0.3c0.1,0,0.1,0,0.2,0c0.1-0.3,0.3-0.7,0.4-1c0.1-0.3,0-0.7,0.4-1
			c-0.1-0.6,0.2-1,0.5-1.4c0.1-0.1,0.2-0.3,0.3-0.5s0.3-0.5,0.4-0.7c0.2-0.3,0.4-0.6,0.6-1c0,0,0.1,0,0.2,0c0.1,0,0.2,0,0.2-0.1
			s-0.1-0.2-0.1-0.2c-0.1-0.1-0.2-0.1-0.2-0.1c0.1-0.3,0.1-0.6,0.2-0.8c0.2-0.4,0.1-0.8,0.1-1.1c0,0,0,0,0-0.1
			c-0.1,0-0.3,0.1-0.5,0.1c0.3,0.3,0.3,0.5,0,0.9c0.1,0.1,0.1,0.2,0.1,0.3c-0.1,0.2-0.2,0.4-0.2,0.6c-0.1,0.3-0.2,0.6-0.3,0.9
			c0,0,0,0,0,0.1c-0.6,0.2-0.5,0.9-0.8,1.3c-0.1,0.1-0.1,0.2-0.2,0.4c0.1-0.7,0.2-1.3,0.1-1.8c0-0.6,0-1.2,0.2-1.8
			c0.1-0.4,0.1-0.8,0.1-1.2c0-0.1,0.1-0.2,0.1-0.3c0.1,0.1,0.2,0.1,0.3,0.2s0.1,0.2,0.2,0.3c0.1,0.1,0.2,0.1,0.3,0.2
			c0-0.1,0-0.1,0-0.2s0-0.3,0-0.3c0.2-0.1,0.1,0.1,0.2,0.2c0.1,0.1,0.2,0.1,0.3,0.1c0,0,0.1-0.1,0.1-0.2c0.1,0.1,0.2,0.1,0.3,0.2
			c0.1-0.1,0.1-0.2,0.2-0.2c0.1,0.2,0.1,0.4,0.2,0.6c-0.2,0.6-0.3,1.2-0.1,1.9c0.5-0.4,0.1-1,0.3-1.4c0.1,0,0.1,0,0.2,0
			c0-0.1,0-0.2,0-0.3c0.3,0.2,0.2,0.5,0.2,0.8c0,0.1,0,0.2,0.1,0.3l0.1,0.1c-0.1,0.3,0.1,0.4,0.3,0.6c0.1-0.1,0.2-0.1,0.3-0.2
			c0,0.2,0,0.2-0.3,0.2l0,0c-0.1,0.4-0.1,0.4-0.5,0.3c-0.3-0.1-0.5-0.2-0.8-0.2c-0.1,0-0.3,0-0.4,0c0.2,0.3,0.4,0.4,0.7,0.4
			c0.2,0,0.4,0,0.6,0c0.2,0,0.3,0.2,0.2,0.3c-0.1,0.2-0.3,0.3-0.5,0.5c0,0,0,0-0.1-0.1c0-0.1,0-0.2,0-0.3c-0.1,0-0.1-0.1-0.2,0
			c-0.2,0.1-0.4,0.1-0.5-0.2c0-0.1-0.2-0.1-0.3-0.1s-0.1,0.1-0.1,0.2s0,0.2,0,0.4c0.2,0,0.3-0.1,0.4-0.1c0.2,0.2,0.6,0.3,0.4,0.6
			c-0.1,0.4,0.1,0.6,0.1,0.9c0.1,0.3,0.3,0.6-0.1,0.9v0.2c0.2,0.2,0.2,0.4,0.2,0.6c0,0.1,0.1,0.1,0.1,0.2c0.1-0.1,0.2-0.2,0.2-0.3
			c0-0.2,0-0.5,0-0.6c0.4-0.1,0.6-0.3,0.9-0.4c0,0.6-0.4,1-0.5,1.6c-0.1-0.1-0.2-0.1-0.3-0.2c0,0.1-0.1,0.2-0.1,0.3
			c-0.3,1.4-0.8,2.8-1.4,4.1c-0.1,0.3-0.2,0.6-0.4,0.9c-0.1,0.2-0.3,0.4-0.5,0.6c-0.1,0.2-0.1,0.3-0.2,0.5c-0.1,0.2-0.2,0.5-0.3,0.7
			c-0.1,0.1-0.1,0.3-0.2,0.4c-0.3,0.2-0.4,0.4-0.1,0.7c-0.2,0-0.4,0-0.6,0c0,0.3-0.1,0.5-0.1,0.8c0,0,0,0,0.1,0
			c0.1-0.1,0.2-0.2,0.3-0.3h0.1c0,0.1,0,0.2-0.1,0.3c0,0.1-0.1,0.1-0.2,0.2c0,0,0,0.1,0,0.2c0,0,0.1,0.1,0.2,0
			c0.3-0.1,0.5-0.4,0.6-0.7c0-0.4,0.2-0.7,0.5-1c0.1-0.1,0.1-0.2,0.2-0.3c0-0.1,0-0.3,0.1-0.4c0-0.1,0.2-0.1,0.3-0.1
			c0.3,0.1,0.4,0.1,0.4-0.3c-0.1,0-0.2,0.1-0.3,0.1c-0.2-0.4-0.1-0.5,0.5-0.9c-0.2-0.5-0.1-1,0.3-1.1c0.2-0.3,0.3-0.5,0.4-0.7
			c0-0.1,0-0.2,0.1-0.3c0-0.2,0.1-0.4,0.2-0.6c-0.2-0.1-0.1-0.3-0.1-0.5c0.2-0.5,0.3-1.1,0.6-1.5c0.4-0.5,0.5-1.1,0.7-1.6
			c0-0.1,0.1-0.2,0.1-0.3c0.1-0.4,0.1-0.8,0.8-0.8c0,0.1,0.1,0.1,0.1,0.1c0.4,0,0.8-0.1,1.2-0.1c0,0.5-0.3,0.8-0.6,1.1
			c-0.1,0.1-0.2,0.2-0.2,0.4c0,0.2-0.1,0.4-0.2,0.5c-0.1,0.2-0.3,0.4-0.5,0.7c-0.1,0.1-0.1,0.2-0.1,0.2l0.1,0.1
			c0.1-0.1,0.3-0.2,0.4-0.3c0.2-0.2,0.3-0.5,0.5-0.8c0.2-0.2,0.4-0.5,0.5-0.7s0.4-0.4,0.7-0.4c0.4-0.1,0.8-0.3,1.1-0.2
			c0.4,0,0.6-0.3,1-0.2c-0.2,0.3-0.3,0.5-0.5,0.8c-0.1,0.1-0.1,0.3-0.2,0.4c-0.1,0.3-0.3,0.6-0.4,0.8c0,0.1,0,0.2,0,0.2
			c0.1,0.1,0.2,0.1,0.4,0.2c-0.1,0.3-0.2,0.6-0.3,0.9c0,0.1,0,0.2,0,0.3c0.1,0,0.2-0.1,0.3-0.1c0.1-0.3,0.3-0.4,0.6-0.4
			c0.1,0,0.3-0.1,0.5-0.2c-0.1-0.1-0.2-0.2-0.3-0.3c0,0-0.1,0.1-0.2,0.2c-0.1,0-0.1,0.1-0.2,0.1c-0.1-0.1-0.2-0.1-0.2-0.2
			s0-0.2,0-0.3c0.2-0.2,0.1-0.4,0-0.6c0-0.1,0-0.3,0-0.4c0-0.2,0.1-0.4,0.4-0.3c0.3,0.1,0.6,0.1,1.1,0.1c-0.3,0.4-0.6,0.8-0.9,1.2
			l0.1,0.1c0.6-0.3,0.8-1,1.3-1.4h0.1c-0.2,0.5-0.4,1-0.6,1.4c0,0.1-0.2,0.1-0.2,0.1c-0.1,0.1-0.2,0.1-0.3,0.2V89c0.1,0,0.2,0,0.3,0
			c0,0.1,0,0.2,0.1,0.3h0.1c0.2-0.4,0.6-0.4,1-0.4c0.3,0,0.5-0.1,0.8-0.1c0.1,0.3,0.1,0.6,0.2,0.9c0.1-0.1,0.2-0.1,0.4-0.2
			c0,0.2,0,0.4,0,0.6c0.1-0.1,0.2-0.1,0.4-0.2c0.1,0,0.3,0.1,0.4,0.2c0.1,0.1,0.2,0.2,0.1,0.3c0,0.1-0.2,0.1-0.3,0.1
			c-0.3,0-0.5,0-0.8-0.1c-0.2-0.1-0.3,0-0.4,0.2c-0.2,0.5-0.3,0.9-0.5,1.4c0.2,0.1,0.3,0.1,0.3-0.1c0.1-0.3,0.3-0.7,0.4-1
			c0.6,0,1.2,0,1.8,0c0,0.1,0,0.2,0,0.2c0.2,0,0.3,0.1,0.5,0.1s0.3,0,0.4,0.1c0.1,0.1,0.2,0.1,0.4,0.1c-0.1,0.1-0.2,0.2-0.3,0.3
			c-0.2-0.1-0.4-0.1-0.7-0.2c0.1,0.3,0.1,0.5,0.4,0.5c0.1,0,0.3,0.2,0.4,0.4c0,0,0.1-0.1,0.2-0.2c0.1,0.1,0.2,0.2,0.2,0.4
			c0,0.2-0.5,0.5-0.8,0.5c0,0.5-0.4,0.6-0.8,0.9c0-0.2,0-0.3,0-0.4c0,0,0,0-0.1,0c-0.1,0.1-0.2,0.3-0.3,0.4c-0.2,0.3-0.4,0.7-0.5,1
			c0,0.1-0.1,0.2-0.2,0.2c-0.6,0.6-1.3,1.3-1.9,1.9c-0.3,0.3-0.6,0.6-0.9,1.1c0.2,0,0.3,0,0.3-0.1c0.3-0.2,0.5-0.5,0.8-0.7
			c0.1-0.1,0.2-0.2,0.3-0.3c0.1-0.2,0.2-0.3,0.4-0.4c0.1,0,0.2-0.1,0.2-0.1c0-0.3,0.3-0.4,0.5-0.6c0.1-0.1,0.2-0.1,0.2-0.2
			c0.4-0.6,1.1-1,1.4-1.6c0.1-0.2,0.6-0.1,0.8,0.1c0.1,0.1,0.2,0.1,0.3,0.1s0.2,0.1,0.3,0.1s0.1,0.1,0.2,0.2c0.1-0.5-0.2-0.8-1-1
			c0-0.3,0.2-0.4,0.5-0.5c0.2,0,0.4,0,0.7-0.1c0.2,0,0.3,0.2,0.4,0.3c0,0.1-0.1,0.2-0.2,0.3c-0.1,0.1-0.2,0.2-0.4,0.2V94
			c0.3,0.1,0.7,0.3,1,0.4c0,0.1,0,0.2-0.1,0.2c-0.3,0.1-0.3,0.4-0.5,0.6s-0.3,0.4-0.6,0.5c-0.2,0.1-0.3,0.3-0.4,0.5v0.1
			c0.1-0.1,0.3-0.1,0.4-0.2c0.2-0.1,0.5-0.3,0.7-0.4c0.1,0,0.1-0.1,0.1-0.2c0.2-0.3,0.4-0.6,0.6-0.8c0.1,0.3,0.3,0.3,0.4,0.2
			c0,0.1,0,0.1-0.3,0.2c-0.1,0.1-0.3,0.2-0.4,0.3c0.3,0.1,0.6,0.1,0.9,0.2l0,0c-0.4,0.3-0.4,0.9-1,1c-0.1,0-0.2,0.2-0.2,0.3
			c0.5,0,1,0,1.2-0.6c0-0.1,0.1-0.2,0.1-0.2c0.2-0.3,0.4-0.3,0.7-0.2c0.1,0,0.1,0.2,0.1,0.2s-0.1,0.1-0.2,0.1
			c-0.4-0.1-0.4-0.1-0.6,0.3c0.1,0,0.2,0,0.3,0c0.1,0.4,0.1,0.4,0.5,0.4c-0.3,0.3-0.5,0.5-0.7,0.8v0.1c0.2-0.1,0.4-0.1,0.6-0.2
			c0.3-0.1,0.5-0.2,0.8-0.3c0.2-0.1,0.3,0,0.3,0.2c-0.2,0.1-0.4,0.2-0.6,0.2v0.1c0.1,0,0.3,0,0.4,0c0.1,0.2-0.1,0.3-0.2,0.3
			c-0.2,0-0.3,0.1-0.5,0.1s-0.3,0-0.5,0c0.1,0.3,0.2,0.3,0.7,0.2c0,0.1,0.1,0.1,0.1,0.3c0.2-0.1,0.4-0.3,0.6-0.4
			c0.2-0.1,0.4-0.3,0.6,0c-0.2,0-0.3,0-0.5,0.1c0.2,0.2,0.3,0.3,0.5,0.4c-0.2,0.1-0.3,0.1-0.5,0.1V99c0.1,0,0.2,0.1,0.4,0.1
			c0,0.1-0.1,0.1-0.1,0.2c0.2,0.1,0.4,0.1,0.6,0.2c-0.2,0.1-0.4,0.2-0.6,0.3c0.2,0.1,0.3,0.2,0.5,0.4c-0.1,0.3-0.4,0.3-0.7,0.3
			c0.1,0.2,0.2,0.3,0.4,0.3c0.2-0.1,0.2,0,0.5,0.3c-0.1,0.3-0.3,0.4-0.6,0.5c-0.3,0-0.5,0.1-0.6-0.3l-0.1,0.1c0,0.1,0,0.3,0,0.4
			c-0.1,0-0.3,0-0.4,0.1c-0.1,0-0.1,0.2-0.2,0.2c0.1,0,0.2,0.1,0.3,0c0.4-0.1,0.8-0.3,1.2-0.4s0.5-0.1,0.5,0.3c0,0.1,0,0.2-0.1,0.2
			c0,0.1-0.1,0.1-0.1,0.2c0,0,0,0.1,0.1,0.1c0.4,0.2,0.4,0.4,0.1,0.7c-0.2,0.2-0.4,0.4-0.7,0.4c-0.5,0.1-0.9,0.3-1.3,0.5
			c-0.1,0-0.1,0.1-0.1,0.2c-0.1-0.1-0.1-0.2-0.1-0.3c-0.2,0.3-0.4,0.6-0.7,0.8c-0.2,0.2-0.5,0.3-0.8,0.5c0,0-0.1-0.1-0.2-0.2
			c0-0.1,0.1-0.2,0.1-0.2c0.5,0.1,0.4-0.3,0.5-0.5c0.1-0.3,0.1-0.3,0.4-0.1c0.1,0.1,0.2,0,0.4,0v-0.1c-0.1,0-0.2-0.1-0.3-0.1
			s-0.3,0-0.4-0.1c-0.3-0.1-0.6-0.1-0.7,0.3l-0.1,0.1c0-0.1-0.1-0.1-0.1-0.2s0-0.3,0-0.4h-0.1c0,0.1-0.1,0.2-0.1,0.3
			c0,0.1,0,0.2,0.1,0.3c0.2,0.5,0.1,0.6-0.4,0.6h-0.1c0.1,0.2,0.1,0.3,0.2,0.5c0,0.2-0.1,0.3-0.1,0.5c0.1,0,0.2-0.1,0.4-0.1l0.1,0.2
			c0.3,0,0.6,0,0.9,0c0.1,0,0.1-0.2,0.2-0.3c0.1,0.1,0.1,0.2,0.2,0.3c0.3-0.2,0.5-0.3,0.8-0.5c0,0,0-0.1,0-0.2s0-0.3,0.2-0.2
			c0.1,0,0.2-0.1,0.2-0.2c0.2-0.2,0.4-0.4,0.7-0.4c0.1,0.4-0.3,0.8-0.7,0.8c0,0.1-0.1,0.2-0.1,0.3c0,0,0.1,0,0.1,0.1
			c0.1-0.1,0.1-0.2,0.2-0.3c0,0,0.1,0,0.1,0.1c0,0.4-0.1,0.7-0.1,1.1c0,0,0,0,0.1,0c0.3-0.3,0.8-0.4,0.9-0.8
			c0.1-0.2,0.3-0.3,0.5-0.3c0,0.1,0,0.2,0.1,0.3c0.2-0.2,0.5-0.5,0.7-0.8c-0.1-0.1-0.2-0.2-0.3-0.3c0.3,0,0.6,0.1,0.9,0.1
			c-0.4,0.6-0.8,1-1.4,1.2c-0.3,0.1-0.6,0.5-0.8,0.7c0,0,0,0.1,0,0.2c0.4,0,0.4-0.6,1-0.5c-0.6,0.9-1.3,1.4-2.3,1.6
			c0.2-0.2,0.3-0.4,0.5-0.7c-0.1-0.2-0.2-0.2-0.4,0s-0.3,0.4-0.6,0.4c0,0.1,0,0.2,0,0.2c0.2,0.2,0.1,0.2-0.1,0.3
			c-0.1,0-0.2,0.1-0.3,0.1c-0.1-0.2-0.1-0.4-0.3-0.5c-0.1-0.1-0.3,0.1-0.2,0.3c0,0.1,0.1,0.2,0.2,0.3c-0.2,0-0.3,0.1-0.5,0
			c-0.3-0.1-0.5-0.2-0.8-0.3l0,0c-0.2-0.3-0.4-0.6-0.6-0.9c0-0.1,0.1-0.2,0.1-0.3c0.2-0.1,0.4-0.2,0.6-0.3c0.1,0,0.1-0.2,0.1-0.2
			c-0.1-0.1-0.2-0.2-0.3-0.2c0,0-0.1,0.1-0.2,0.2c-0.1,0.1-0.1,0.2-0.2,0.2c-0.5,0.1-0.9,0.2-1.4,0.2c-0.2,0-0.3,0-0.4-0.2
			c-0.1-0.2-0.2-0.3-0.5-0.1c-0.2-0.3-0.3-0.5-0.5-0.9c-0.1,0-0.2,0-0.3,0s-0.3-0.1-0.3-0.1c-0.1-0.4-0.6-0.5-0.7-0.8
			c0-0.1-0.1-0.1-0.2-0.1c-0.1-0.1-0.2-0.1-0.2-0.2c-0.1-0.4-0.4-0.4-0.7-0.5c-0.1,0-0.2,0-0.2,0c-0.1-0.3-0.3-0.4-0.6-0.2
			c0-0.1,0-0.2-0.1-0.3c-0.1-0.1-0.2-0.2-0.3-0.2c-0.4,0.1-0.6,0-0.9-0.2c-0.1-0.1-0.2-0.1-0.3-0.1c0-0.1,0-0.2-0.1-0.3
			c-0.1-0.1-0.3-0.1-0.5-0.1c-0.1-0.3-0.4-0.5-0.7-0.6c-0.2-0.1-0.3-0.2-0.3-0.5c0-0.1,0-0.2,0-0.3c-0.1,0-0.2,0.1-0.3,0.1h-0.1
			c0.1-0.1,0.2-0.2,0.3-0.3c-0.3,0-0.5,0-0.7,0c-0.1-0.3,0-0.5,0.3-0.6h0.1c0.1-0.1,0.2-0.2,0.4-0.3c0,0,0-0.1-0.1-0.1
			s-0.3,0-0.4,0.1c-0.3,0.1-0.5,0.3-0.8,0.5c-0.1-0.2-0.2-0.4-0.3-0.6c0-0.1-0.2-0.1-0.3-0.1c-0.4,0.1-0.5,0-0.4-0.4
			c0-0.1,0-0.2-0.1-0.2c-0.1,0.1-0.1,0.1-0.2,0.2c-0.1,0.1-0.1,0.1-0.2,0.2c0-0.1-0.1-0.1-0.1-0.2c-0.1-0.1-0.1-0.2-0.2-0.2
			c-0.5-0.2-1-0.2-1.5-0.1c-0.8,0.2-1.7,0.1-2.5-0.1c-0.5-0.1-1-0.1-1.5,0c-0.2,0.1-0.4-0.1-0.6-0.1c-0.2,0-0.4-0.1-0.6-0.1
			c-0.4-0.1-0.9-0.2-1.3-0.3c-0.1,0-0.2-0.1-0.3-0.1c-0.3,0-0.5-0.1-0.4-0.5c-0.2,0-0.3,0-0.5,0.1c-0.1-0.1-0.1-0.3-0.2-0.5
			c-0.1,0.1-0.2,0.2-0.2,0.3H183c0-0.3,0-0.5,0-0.8h-0.1c0,0.1-0.1,0.3-0.1,0.4c-0.4-0.1-0.7-0.6-0.6-1c0,0,0.1-0.1,0-0.1
			c0-0.1-0.1-0.2-0.2-0.3c-0.1,0.1-0.2,0.1-0.2,0.2c-0.1,0.1-0.1,0.3-0.2,0.5c-0.1,0.1-0.1,0.2-0.3,0.4c-0.1-0.2-0.1-0.2-0.1-0.4
			c-0.2,0.2-0.4,0.4-0.6,0.6c-0.2-0.1-0.3-0.2-0.6-0.3c0,0.1,0.1,0.2,0.1,0.3c-0.1,0.1-0.3,0.2-0.4,0.3c-0.2-0.1-0.2-0.3-0.1-0.5
			c0.1-0.1,0.1-0.2,0.1-0.3c-0.1,0-0.3,0-0.4,0c0-0.2,0-0.4,0.2-0.5s0.3-0.3,0.3-0.6c0-0.2,0-0.3,0-0.5c0-0.6-0.3-0.9-0.9-0.9
			c-0.1,0-0.3,0.2-0.2,0.4c0,0.4,0.1,0.7,0.2,1c0,0.1,0,0.2,0,0.3c-0.1-0.1-0.2-0.1-0.2-0.2c-0.2,0.1-0.4,0.2-0.5,0.3
			c-0.3,0.2-0.3-0.2-0.5-0.2c0.4-0.1,0.4-0.4,0.4-0.7c0.1-0.3-0.2-0.2-0.3-0.2c-0.1,0.2-0.1,0.4-0.2,0.6c0,0.1-0.2,0.2-0.3,0.1
			c-0.1,0-0.1-0.1-0.2-0.2c0-0.1,0.1-0.1,0.1-0.1c0.1-0.1,0.2-0.1,0.3-0.2c-0.1-0.1-0.2-0.2-0.3-0.1c-0.2,0.1-0.3,0.2-0.5,0.3
			c-0.1,0.1-0.2,0.2-0.3,0.4c0-0.3,0.1-0.8-0.5-0.5l0.1-0.1c-0.2-0.1-0.4-0.1-0.5-0.2c-0.2-0.1-0.5-0.2-0.7-0.3
			c-0.1,0.1-0.2,0.1-0.4,0.2c-0.1-0.2-0.2-0.4-0.3-0.6c0-0.1,0.1-0.2,0.1-0.2c0.1-0.1,0.2-0.2,0.3-0.3c0.1-0.1,0.1-0.2,0.1-0.4
			c-0.4,0.1-0.6,0.2-0.8,0.5c-0.1,0.3-0.4,0.3-0.6,0.4h-0.1c-0.1-0.1-0.3-0.2-0.4-0.4c0.5,0,0.5-0.4,0.7-0.7
			c0.1-0.2,0.2-0.4,0.5-0.3c0.2,0,0.4,0,0.6,0c0,0,0.1,0,0.1-0.1c0.1-0.2,0.2-0.5,0.3-0.8c-0.5-0.1-0.5,0.4-0.9,0.6
			c0-0.1,0-0.3,0-0.4s-0.1-0.2-0.2-0.2c-0.1,0-0.2,0.1-0.2,0.1c-0.1,0.1-0.2,0.2-0.3,0.3c0,0.1,0,0.2,0,0.3c-0.5,0-0.3,0.4-0.5,0.7
			c0-0.2-0.3-0.5,0-0.7c0,0,0-0.1,0-0.2c-0.3-0.4-0.2-0.8-0.1-1.3c0-0.4,0-0.8,0.1-1.2V90c0.4-0.3,0.2-0.6,0.2-1
			c0.1-0.4,0.1-0.7,0.1-1.1v-0.1c0-0.7,0-1.3,0-2c0-0.6,0.1-1.2,0.1-1.9c0-0.2,0-0.5-0.1-0.8c-0.3,0.3-0.3,0.6-0.3,0.9s0,0.6,0,0.9
			c-0.1,0.3,0,0.5,0,0.8s0,0.7-0.3,0.9c0,0,0,0.1,0,0.2c0,0.5,0,0.9,0,1.4c-0.1,0.7-0.2,1.4-0.4,2S172,91.4,172,92
			c0,0.3-0.1,0.6-0.2,0.8c-0.1,0.3-0.1,0.5-0.2,0.8c0,0,0.2,0.1,0.3,0.2c0.1,0.6-0.4,1.1-1.6,1.5c0,0.1,0.1,0.2,0.1,0.3
			c-0.3,0-0.5,0.1-0.8,0.1c-0.1,0-0.1,0.1-0.2,0.2c-0.1,0-0.3,0.1-0.4,0.2c-0.3,0.2-0.9-0.1-0.9-0.5c0,0,0-0.1,0-0.2
			c-0.2,0.1-0.2,0.3-0.1,0.4c0.1,0.1,0.1,0.3,0.1,0.4c-0.1,0.1-0.2,0.2-0.2,0.4l0,0c-0.4,0.2-0.8,0.5-1.2,0.5
			c-0.5,0.1-0.8,0.3-1.1,0.5c-0.2-0.3-0.3-0.3-0.7-0.1c0.1,0.1,0.2,0.1,0.3,0.2v0.1c-0.1-0.1-0.3-0.1-0.4-0.2
			c-0.2-0.1-0.3-0.2-0.5-0.3v0.1c-0.1,0.1-0.2,0.2-0.3,0.2c-0.4,0-0.8,0-1.2,0c0.1-0.3,0.2-0.5,0.3-0.7c-0.3-0.1-0.3-0.1-0.3,0.2
			c-0.3,0-0.3-0.5-0.8-0.3c0.1,0.1,0.2,0.2,0.3,0.3c0,0.2,0,0.4,0,0.6c-0.4,0.2-0.9,0.3-1.3,0.5c-0.2-0.2-0.4-0.1-0.6,0.1
			c-0.4,0.3-0.7,0.5-1.2,0.4c-0.1,0-0.2,0.1-0.2,0.2c-0.1,0.2-0.2,0.2-0.4,0.2c-0.4-0.1-0.8-0.1-1.2-0.2c-0.1,0-0.2-0.1-0.3-0.2
			c0,0.1,0,0.2,0,0.4c-0.3,0.1-0.6,0.2-0.9,0.2c-0.2,0-0.8,0.6-0.8,0.8v0.1c-0.2-0.2-0.5-0.3-0.4-0.7c0-0.2-0.1-0.4-0.1-0.6
			c0.3-0.2,0.7-0.2,1-0.1c0.2-0.3,0.2-0.4-0.1-0.4c-0.3-0.1-0.7-0.1-1-0.1c-0.1-0.1-0.2-0.3-0.4-0.4c-0.2-0.2-0.5-0.4-0.7-0.6
			c-0.3-0.3-0.3-0.6,0.1-0.9c0.1,0,0.2,0.1,0.3,0.2c0.1-0.2,0.1-0.4,0.2-0.6c-0.3-0.1-0.6-0.1-0.9-0.2c-0.3,0-0.6-0.1-0.9-0.1
			c0.3-0.4,0.4-0.4,0.7-0.1c0.1,0.1,0.2,0.1,0.3,0.1l0.1-0.1c0-0.1-0.1-0.2-0.2-0.3l0,0c-0.1-0.1-0.3-0.3-0.4-0.4
			c-0.2-0.1-0.4,0-0.6-0.1c0.1-0.5-0.2-0.8-0.4-1.2c-0.1-0.1-0.1-0.2,0-0.4c0-0.1,0-0.2,0-0.2c-0.4-0.5-0.6-1.1-0.8-1.6v-0.1
			c0.3-0.2,0.1-0.4,0.1-0.6s0.3-0.8,0.5-0.9l0.1-0.1c0.1-0.2,0.2-0.3,0.4-0.5c0,0.4,0.3,0.5,0.5,0.7c0.5,0.4,0.9,0.9,1.1,1.5v0.1
			c-0.1,0.1-0.3,0.1-0.4,0.2c0.2,0.3,0.3,0.4,0.6,0c0.1,0.2,0.1,0.4,0.2,0.5c0.3,0.1,0.3,0.5,0.5,0.7c0.3,0.3,0.3,0.6,0.1,1
			c0.2,0,0.4-0.1,0.7-0.1c-0.3-0.4-0.5-0.9-0.7-1.2c-0.1-0.2-0.2-0.3-0.2-0.5c0-0.1-0.2-0.3-0.3-0.4c0,0-0.1,0-0.1-0.1
			c-0.2-0.8-1-1.1-1.4-1.7c-0.2-0.3-0.3-0.6-0.4-0.8V89c0.1-0.2,0.1-0.4,0.3-0.5s0.5-0.3,0.7-0.2c0.3,0.1,0.7,0.3,1,0.5
			c0.1,0,0.1,0.1,0.1,0.2c0.1,0.3,0.3,0.4,0.6,0.4c-0.1-0.3-0.2-0.7-0.4-0.7c-0.4-0.1-0.5-0.4-0.6-0.6c-0.2-0.3-0.1-0.5,0.3-0.5
			c-0.1,0.4,0,0.5,0.2,0.5c0-0.2,0-0.3,0-0.5c-0.1,0-0.1,0-0.2,0c0-0.1,0-0.2,0-0.3c0.3-0.2,0.7,0,0.8,0.4c0,0.1,0.1,0.1,0.1,0.2
			c0.2,0.3,0.5,0.5,0.7,0.8s0.3,0.7,0.4,1c-0.4,0.3-0.8,0-1.2-0.2c0.1,0.5,0.5,0.7,0.8,1c0.1-0.1,0.1-0.1,0.1-0.1
			c0.1-0.3,0.5-0.4,0.6-0.1c0.3,0.5,0.5,1,0.8,1.4v0.1c-0.2,0.1-0.4,0.1-0.6,0.2c0.2,0.2,0.4,0.1,0.5,0c0.2-0.1,0.4-0.1,0.4,0.1
			c0.1,0.3,0.2,0.6,0.3,0.9c0.1,0,0.3-0.1,0.6-0.1c-0.2-0.2-0.3-0.4-0.4-0.6c-0.1-0.1-0.2-0.3-0.3-0.4c-0.2-0.2-0.3-0.5-0.5-0.7
			c0-0.1-0.1-0.1-0.1-0.2c-0.1-0.3-0.1-0.5-0.2-0.8l-0.1-0.1c-0.1-0.1-0.3-0.2-0.3-0.2c0-0.2,0-0.4,0.3-0.5c0.1,0,0.2-0.1,0.2-0.2
			s0-0.2,0-0.3c-0.1,0-0.2,0-0.3,0.1s-0.2,0.2-0.3,0.3c-0.2-0.3-0.4-0.6-0.6-1c0.4,0.1,0.8,0.2,1.1,0.4c0.1,0,0.1,0.1,0.1,0.2
			c0.2,0.2,0.3,0.3,0.6,0.1c-0.2-0.2-0.5-0.4-0.7-0.6c-0.1-0.1-0.2-0.2-0.4-0.4c-0.4,0.1-0.8-0.2-1.1-0.5c-0.1-0.2-0.3-0.3-0.4-0.5
			c-0.1-0.1-0.1-0.2,0-0.3c0.1-0.1,0.2-0.3,0.3-0.4c0.3,0.1,0.5,0.2,0.8,0.3c0-0.2,0-0.4,0-0.6c-0.1,0-0.2-0.1-0.3-0.1
			c0.1-0.4,0.2-0.4,0.8-0.4c0-0.1,0-0.2,0.1-0.3h0.1c0.1,0.1,0.2,0.2,0.2,0.3C157.1,85,157.2,85.1,157.4,85.1
			c-0.1,0.1-0.2,0.2-0.3,0.4c0.1,0,0.3,0.1,0.4,0.1c0.1,0.1,0.3,0.1,0.4,0.2c0.1,0.1,0.2,0.2,0.2,0.3c0.1,0.1,0.1,0.2,0.1,0.3
			c0-0.2,0-0.3,0-0.5C158.1,85.5,157.9,85.2,157.4,85.1z M163.3,95.4h0.1c0-0.2-0.1-0.3-0.1-0.5c-0.3-0.5-0.3-1.2-0.7-1.7
			c-0.1-0.1-0.1-0.3-0.1-0.5c-0.1-0.3-0.1-0.5-0.4-0.7c-0.1,0-0.1-0.1-0.1-0.2c-0.3-0.5-0.5-1-0.8-1.4c-0.1-0.1-0.2-0.2,0-0.4
			c0,0,0-0.1,0-0.2l-0.1-0.1c-0.2,0.2-0.3,0-0.4-0.1c0-0.1-0.1-0.1-0.2-0.1c-0.1-0.1-0.3-0.2-0.3-0.3c0-0.2-0.1-0.3-0.3-0.4
			s-0.4-0.1-0.4-0.2c0.1-0.2,0.1-0.3,0.1-0.4s-0.2-0.2-0.2-0.1c-0.2,0.1-0.4,0.2-0.6,0.3c0.1,0.2,0.3,0.4,0.4,0.6
			c0.1,0.2,0.2,0.3,0.4,0.4c0,0.1,0.1,0.1,0.2,0.2c0-0.1,0.1-0.2,0.1-0.2c0-0.1,0-0.2,0.1-0.2s0.2,0.1,0.2,0.2
			c0.1,0.3,0.2,0.5,0.3,0.8c0,0.2,0.1,0.3,0.3,0.2c0.2-0.1,0.3,0,0.4,0.2c0,0.1,0,0.2,0,0.3c0,0,0,0,0.1,0c0.2,0.3,0.3,0.5,0.5,0.8
			c0.3,0.3,0,0.6-0.1,0.9h0.1c0.1-0.1,0.2-0.2,0.3-0.3c0.1,0.2,0.2,0.3,0.4,0.5c-0.3,0.2-0.3,0.3-0.1,0.4s0.4,0.2,0.3,0.5
			c0,0,0,0.1,0.1,0.1c0.2,0.3,0.4,0.7,0.5,1C163,94.9,163.2,95.1,163.3,95.4z M202.8,100C202.8,100.1,202.8,100.1,202.8,100
			c0.1,0.1,0.1,0.1,0.2,0.1c0.2,0.1,0.6,0.4,0.6,0.6s-0.2,0.3-0.4,0.4c-0.2,0.2-0.5,0.4-0.7,0.6c-0.3,0.3-0.6,0.5-0.9,0.8
			c-0.1,0.1-0.2,0.2-0.4,0.3c0,0,0,0.1,0.1,0.1c0.2-0.1,0.6-0.1,0.7-0.3c0.1-0.3,0.4-0.3,0.6-0.5c0.2-0.1,0.3-0.2,0.5-0.4
			c0.2-0.2,0.3-0.3,0.5-0.3c0.1-0.1,0.2-0.2,0.3-0.3c0.3-0.2,0.5-0.5,0.8-0.7c0.3-0.3,0.7-0.7,1-1c0.1-0.1,0.2-0.2,0.2-0.2
			c0.3,0,0.5-0.1,0.5-0.5c0.1,0.1,0.2,0.2,0.4,0.3c0.1-0.3,0.2-0.5,0.3-0.8c0.1-0.1,0.3-0.1,0.5-0.2c0-0.3-0.2-0.3-0.4-0.2
			c-0.2,0.1-0.4,0.2-0.6,0.3c-0.1,0.1-0.1,0.2-0.2,0.3c-0.4,0.3-0.8,0.7-1.2,1c-0.1,0.1-0.2,0.1-0.2,0.1c-0.3-0.1-0.3,0.1-0.3,0.3
			c-0.2,0.2-0.3,0.3-0.5,0.5s-0.4,0.2-0.5-0.1c0-0.1-0.1-0.2-0.1-0.3c-0.1-0.1-0.2-0.3-0.3-0.3C203.1,99.8,202.9,100,202.8,100z
			 M176.1,78.5c0.2,0,0.3,0,0.5,0c0.3-0.1,0.4,0,0.4,0.3c0,0.1,0,0.3,0,0.4c-0.1,0.4-0.2,0.8,0.1,1.1c0,0.1,0,0.2,0,0.2
			c-0.1,0.6,0.1,1.3-0.1,1.9c-0.1,0.2,0.1,0.4-0.2,0.5c0,0,0,0.1,0,0.2c0.3,0.3,0.2,0.6,0.1,0.9c-0.1,0.2-0.2,0.5-0.3,0.7
			c0,0.1,0,0.2,0.1,0.3c0,0.1,0.1,0.3,0.1,0.4c0,0.2-0.1,0.4-0.1,0.7c0,0.2,0,0.4,0,0.6h0.1c0.1-0.2,0.2-0.4,0.2-0.6
			c0-0.3,0-0.7,0.1-1.1c0-0.1,0.1-0.2,0.1-0.3c0-0.7-0.1-1.5,0.2-2.1c-0.1-0.1-0.1-0.2-0.1-0.3c0-0.3,0-0.6,0-0.9
			c-0.1-0.7-0.1-1.3-0.1-2c0-0.3-0.1-0.7,0.4-0.7c0,0,0.1-0.1,0.1-0.2l-0.1-0.1c-0.3,0.2-0.4,0-0.4-0.3c0-0.1-0.1-0.1-0.1-0.1
			c-0.2,0.1-0.4,0.1-0.5,0.1C176.4,78.1,176.2,78.2,176.1,78.5z M205.8,102.9c-0.2-0.2,0-0.3,0.1-0.4s0.3-0.2,0.4-0.3
			c0.7-0.7,1.6-0.9,2.2-1.6c0.1-0.1,0.1-0.1,0.2-0.1c0.2-0.1,0.3-0.1,0.5-0.2c0.1-0.1,0.2-0.2,0.3-0.3v-0.2c-0.1,0-0.3,0-0.4,0.1
			c-0.2,0.2-0.5,0.3-0.8,0.1c0.1,0.4-0.1,0.5-0.4,0.6c-0.3,0.1-0.6,0.2-0.8,0.4c-0.3,0.2-0.5,0.4-0.7,0.6s-0.5,0.3-0.7,0.5
			c-0.4,0.5-0.9,0.9-1.4,1.3c-0.3,0.2-0.5,0.4-0.8,0.6c0,0-0.1,0.1-0.2,0.2c0.6-0.2,1.1-0.4,1.4-0.6
			C205.1,103.2,205.6,103.2,205.8,102.9z M182,90c0.1-0.2,0.1-0.4,0.2-0.5c0.2-0.2,0.2-0.3,0.1-0.5c0-0.1,0-0.3,0.1-0.4
			c0.2-0.2,0.3-0.4,0.1-0.7c0,0,0.1-0.2,0.2-0.2c0.1-0.1,0.2-0.1,0.3-0.1c0-0.1-0.1-0.2-0.1-0.3c-0.2-0.2-0.2-0.3-0.2-0.6
			c0-0.3,0.1-0.5,0.1-0.8c0-0.1-0.1-0.1-0.2-0.2c0,0.1-0.1,0.1-0.1,0.2c-0.1,0.3-0.1,0.6-0.1,0.9c-0.1,0-0.2,0.1-0.2,0.2
			c-0.1,0.1-0.2,0.2-0.2,0.3c0,0.1-0.1,0.2-0.1,0.2c0.1,0.3,0.1,0.5,0,0.8s0,0.7-0.1,1C181.7,89.5,181.7,89.8,182,90z M188,83
			L188,83c0,0.2,0,0.4,0,0.6c-0.1,0.3-0.2,0.6-0.3,0.9c-0.1,0.4-0.3,0.7-0.7,0.9c-0.2,0.1-0.4,0.2-0.6,0.3c-0.4,0.2-0.4,0.3-0.3,0.7
			c0.3-0.2,0.5-0.4,0.8-0.6c0.1-0.1,0.3,0,0.4-0.1l0.1,0.1c0.2-0.4,0.4-0.8,0.6-1.2c0.2-0.4,0.4-0.9,0.9-1.1
			c0.2-0.1,0.3-0.3,0.3-0.6c-0.5,0-0.5,0.5-0.9,0.6c0.1-0.4,0.1-0.8,0.2-1.2c0.1-0.2,0-0.4-0.2-0.5c-0.3,0.2-0.3,0.3-0.2,0.6
			C188.1,82.6,188,82.8,188,83z M169.7,93.7L169.7,93.7c0.2-0.1,0.3-0.2,0.5-0.2c0,0.1,0.1,0.3,0.1,0.4s0,0.1,0,0.2
			c0.1,0.1,0.1,0.2,0.2,0.4c0.1,0,0.1,0,0.2-0.1c0-0.2,0-0.5-0.1-0.7c0-0.2-0.1-0.4,0-0.5c0.2-0.3,0-0.6,0.1-0.8
			c-0.3-0.2-0.2-0.6-0.2-0.9c-0.1-0.6-0.3-1.3-0.2-1.9c0,0,0-0.1-0.1-0.1s-0.1,0.1-0.1,0.1c0,0.2-0.1,0.4-0.1,0.5
			c0,0.5,0.1,1.1,0.1,1.6c0,0.1,0,0.3,0.1,0.4c0.2,0.5,0.1,1-0.2,1.3c0-0.1-0.1-0.2-0.1-0.2c-0.1,0-0.2,0-0.3,0c0,0-0.1,0.1-0.1,0.2
			C169.5,93.4,169.6,93.5,169.7,93.7z M184.8,96.9C184.8,96.9,184.7,96.9,184.8,96.9c-0.1,0.1-0.2,0.2-0.2,0.3
			c-0.1,0.1-0.1,0.2-0.2,0.3c0.3,0.2,1.1,0.3,1.3,0c-0.1,0.5,0.4,0.3,0.5,0.6c0.1-0.1,0.1-0.2,0.2-0.2c0,0.1,0,0.1,0,0.1
			c0,0.2,0.2,0.1,0.4,0.2c0,0,0.2-0.1,0.1-0.2c-0.1-0.1-0.1-0.2-0.2-0.2c-0.1,0-0.2-0.1-0.2-0.1c-0.1-0.3-0.1-0.6-0.1-1
			c-0.3,0.1-0.5,0.2-0.7,0.3c-0.3-0.2-0.4-0.2-0.6,0.1c-0.1,0.1-0.2,0.1-0.3,0.1C184.8,97.1,184.8,97,184.8,96.9z M192.4,94.6
			c-0.1-0.1-0.1-0.2-0.1-0.3c0.2-0.2,0.3-0.5,0.5-0.7c0.3-0.2,0.4-0.4,0.3-0.7l0,0c0.2-0.1,0.1-0.3,0.1-0.5c0-0.1-0.1-0.2-0.3-0.1
			c-0.1,0.1-0.3,0.2-0.4,0.3c-0.1,0.1-0.1,0.2-0.1,0.3c0.1,0,0.2,0,0.4,0c-0.2,0.2-0.4,0.5-0.6,0.6c-0.1,0.2-0.3,0.3-0.3,0.4
			c0,0.2-0.2,0.3-0.3,0.5c-0.1,0.1-0.2,0.3-0.2,0.4s0.1,0.1,0.2,0.2c-0.1,0.1-0.3,0.1-0.4,0.2c-0.1,0.1-0.1,0.2-0.1,0.3
			c0.1,0,0.3,0.1,0.4,0.1c0.1,0,0.2-0.1,0.2-0.2c0-0.2,0-0.4,0.1-0.6C191.9,94.4,192,94.3,192.4,94.6z M186,93.8
			c0.2,0.2,0.2,0.4,0,0.5s-0.4,0.1-0.6,0.2c0.2,0.5,0.6-0.1,0.7,0.1c0.2-0.1,0.3-0.3,0.4-0.3c0.1,0,0.2,0.3,0.3,0.4
			c0.1-0.1,0.3-0.2,0.4-0.2c0.4,0.2,0.4-0.1,0.4-0.3c-0.1-0.1-0.1-0.1-0.2-0.1c0-0.1-0.1-0.1-0.1-0.2c-0.2-0.1-0.5-0.1-0.6-0.4
			c0,0-0.1-0.1-0.2-0.1C186.3,93.3,186.1,93.4,186,93.8z M183.1,91.8c-0.1-0.1-0.2-0.2-0.3-0.2c-0.1,0.1-0.1,0.2-0.2,0.4
			c0,0.1,0,0.2,0,0.3c0,0.1,0,0.2-0.1,0.2c-0.2,0.2-0.3,0.5-0.1,0.8c0.1-0.1,0.1-0.1,0.1-0.5c0.1,0.1,0.2,0.2,0.3,0.3
			c0.1-0.1,0.1-0.2,0.1-0.3c0.1,0.1,0.1,0.2,0.2,0.3c0.1,0.1,0.2,0.1,0.3,0.1c0-0.1,0-0.2,0-0.3c-0.1-0.1-0.2-0.2-0.2-0.4
			c0-0.1,0-0.2,0.1-0.4c0.1,0.2,0.2,0.2,0.2,0.3c0.2-0.1,0.3-0.8,0.2-1h-0.1c-0.1,0-0.2,0-0.3,0C183.1,91.6,183.1,91.7,183.1,91.8z
			 M157.2,96.7c0,0,0.1,0,0.1-0.1c-0.1-0.5-0.3-0.9-0.4-1.4l0,0c-0.2-0.1-0.2-0.3-0.2-0.5c0-0.1,0-0.2-0.1-0.2s-0.2,0-0.2,0
			c0,0.1-0.1,0.2,0,0.3c0.1,0.3,0.2,0.6,0.3,0.9c0,0.2,0,0.4,0,0.7c-0.3-0.2-0.5-0.3-0.7-0.5l-0.1,0.1c0,0.1,0.1,0.3,0.1,0.4
			s0.1,0.3,0.1,0.4c0,0.3,0.2,0.3,0.4,0.3s0.4-0.1,0.3-0.4c0-0.1,0-0.2,0-0.3C157,96.5,157.1,96.6,157.2,96.7z M176.1,92.8
			C176.2,92.8,176.2,92.8,176.1,92.8c0-0.2,0-0.4-0.1-0.5c0-0.1-0.2-0.1-0.3-0.2c0,0.1-0.1,0.2-0.1,0.3c0.1,0.5,0.1,0.5-0.3,0.7
			c-0.1,0.1-0.3,0.2-0.3,0.2c0.1,0.3,0,0.5-0.1,0.7c0,0.1,0,0.2,0.1,0.3h0.1c0.1-0.2,0.2-0.4,0.3-0.5c0.2,0.1,0.3,0.2,0.4,0.3
			c0,0,0.1,0,0.1-0.1c0-0.3,0-0.6,0.1-1C176.1,93,176.1,92.9,176.1,92.8z M174.6,87.2c0.1,0,0.1,0,0.2,0.1c0.1-0.1,0.2-0.3,0.2-0.4
			c0.1-0.3,0.1-0.7,0.1-1s0.1-0.4,0.3-0.6c0.2-0.1,0.4-0.1,0.5-0.2c0.1,0,0.2-0.1,0.3-0.2c-0.3-0.1-0.5,0-0.7,0.1
			c-0.1,0.1-0.3,0.1-0.3-0.1c0-0.3,0.1-0.5,0.1-0.8c0-0.1,0-0.2-0.1-0.3h-0.1C174.9,84.9,174.8,86.1,174.6,87.2z M198.2,94.6
			c0.3-0.1,0.4-0.3,0.2-0.4c-0.2-0.2-0.1-0.3,0-0.5c0.1-0.1,0.1-0.3,0-0.3c-0.2-0.2-0.3-0.5-0.3-0.8c0-0.1,0-0.1-0.1-0.2
			c0,0-0.1,0-0.2,0c-0.2,0.2-0.3,0.4-0.6,0.5s-0.1,0.3,0,0.4c0,0.1,0.2,0.1,0.3,0.1s0.2-0.1,0.4-0.2c0,0.3-0.1,0.5,0,0.8
			C198,94.2,198.1,94.4,198.2,94.6z M173,81.9c0.3-0.4,0.2-0.8,0.1-1.2c-0.1-0.2,0-0.4,0-0.6c-0.4-0.3-0.3-0.8-0.3-1.2
			c-0.2,0-0.4,0-0.4,0.3c0,0.1,0.1,0.3,0,0.4c0,0.1-0.2,0.1-0.3,0.2c0.1,0.1,0.2,0.1,0.3,0.2c0.2,0,0.3,0.1,0.2,0.3
			c0,0.2,0,0.3,0,0.5c0.1,0.3,0.1,0.5,0,0.8C172.8,81.7,172.9,81.8,173,81.9z M175.9,81.6c0-0.2,0-0.2,0-0.3c0,0,0,0-0.1,0.1
			c-0.3-0.2-0.5-0.5-0.8-0.8c0,0.1,0,0.3,0,0.4c0,0.3,0,0.6,0,0.9c0,0.2-0.2,0.4,0,0.6c0,0,0,0.2,0,0.3c0,0.1-0.1,0.2-0.1,0.4
			c0,0.2,0.1,0.3,0.3,0.2c0.1-0.7,0.2-1.3,0.3-2C175.6,81.4,175.7,81.5,175.9,81.6z M194.6,94.3L194.6,94.3c-0.1-0.1-0.2,0-0.2,0
			c-0.2,0.2-0.4,0.5-0.6,0.7c-0.2,0.3-0.5,0.7-0.6,1c-0.1,0.2-0.1,0.5,0.1,0.7c0.4-0.2,0.4-0.3,0.4-0.7c0-0.1,0.1-0.2,0.1-0.2
			C194,95.3,194.3,94.8,194.6,94.3z M196.8,91.8c-0.4,0.1-0.6,0.4-0.5,0.7c0,0.1,0.1,0.2,0.2,0.3c0.1-0.1,0.1-0.2,0.2-0.3
			c0.1-0.2,0.1-0.4,0.2-0.5c0.4-0.1,0.4-0.6,0.6-0.8c-0.2-0.1-0.3-0.1-0.5-0.2c-0.1,0.1-0.2,0.1-0.4,0.2c-0.1,0.1-0.1,0.1-0.2,0.2
			v0.2C196.9,91.5,196.7,91.7,196.8,91.8z M158.9,94.2c-0.2,0.6,0,1.3,0.5,1.4c0-0.2,0-0.3,0-0.5c0.3,0,0.4,0.4,0.7,0.3
			c-0.1-0.2-0.3-0.4-0.4-0.6C159.6,94.4,159.2,94.4,158.9,94.2z M178.6,86.3c0-0.2-0.1-0.6-0.1-0.9c-0.1,0-0.2,0.1-0.2,0.1
			c-0.1,0.2-0.2,0.4-0.3,0.7v0.1c0,0.3,0,0.6,0,0.9c0,0.1,0.1,0.3,0.1,0.4h0.1C178.3,87.2,178.4,86.8,178.6,86.3z M200.3,100.1
			C200.3,100.1,200.3,100.2,200.3,100.1c0.8-0.4,1.5-1,2.1-1.7c-0.2,0-0.4,0-0.5,0c-0.4,0.3-0.8,0.7-1.2,1.1
			C200.5,99.7,200.4,99.9,200.3,100.1z M169.2,89.4h-0.1c0,0.2,0,0.5,0,0.7c0.1,0.4,0.2,0.7,0.2,1.1c0,0.3,0.1,0.4,0.4,0.4
			c0.2-0.3,0.2-0.6,0-0.8c-0.2-0.3-0.3-0.7-0.3-1.1C169.4,89.7,169.3,89.5,169.2,89.4z M193.7,96.9c0.5,0.1,0.7-0.2,1-0.4
			c0,0,0.1-0.1,0.1-0.2c0.1-0.2,0.2-0.5,0.3-0.7s0.1-0.3,0.1-0.5c0,0,0,0-0.1,0C194.7,95.8,194.2,96.3,193.7,96.9z M172.1,91.5
			c-0.1-0.1-0.1-0.2-0.2-0.2c-0.2-0.1-0.2-0.2,0-0.4c0.2-0.3,0.2-0.6-0.2-0.9c-0.1,0.6-0.2,1.2-0.2,1.8
			C171.7,91.8,171.7,91.8,172.1,91.5z M178.8,82.7h0.1c0-0.5,0.6-0.8,0.3-1.4c0-0.1,0-0.2,0-0.3c0-0.2,0.1-0.4,0.1-0.5
			c0-0.3-0.1-0.4-0.3-0.4C178.9,80.9,178.8,81.8,178.8,82.7z M160.6,92.5c0,0.2,0,0.3,0.1,0.4c0.2,0.4,0.5,0.7,0.7,1.1
			c0.1,0.2,0.2,0.4,0.4,0.6C161.9,93.8,161.5,93,160.6,92.5z M170.3,80.4c-0.1,0.4-0.2,0.8-0.2,1.1c0,0.1,0.1,0.2,0.1,0.2
			c0.1,0,0.2,0,0.3,0c0,0,0-0.1,0-0.2c-0.2-0.4-0.1-0.8,0.1-1.1c0.2-0.3,0-0.5,0-0.8c0,0-0.1,0-0.1-0.1c-0.1,0.1-0.1,0.2-0.2,0.3
			C170,80.2,170,80.2,170.3,80.4z M175,78.2c-0.2-0.1-0.3,0-0.4,0.2c0,0.2,0,0.3,0,0.5c0,0.4,0.1,0.7,0.1,1.1c0,0.3,0,0.4,0.4,0.4
			c0-0.2,0.1-0.4,0-0.6C174.9,79.2,174.8,78.7,175,78.2z M187.1,95.2c-0.2-0.3-0.5-0.4-0.8-0.2c0,0.2,0,0.3,0,0.5l0,0
			c0.2,0.3,0.4,0.6,0.5,0.9c0.1,0,0.3-0.1,0.2-0.3C186.8,95.8,186.8,95.4,187.1,95.2z M175.3,78.1l0.1-0.1c0.1-0.4,0-0.6-0.5-0.9
			c-0.4-0.2-0.6-0.1-0.7,0.3c-0.1,0.3,0,0.4,0.5,0.5c-0.1-0.1-0.2-0.3-0.3-0.4C175,77.3,175,77.9,175.3,78.1z M160.1,93.3
			c-0.1,0.2-0.4,0.2-0.2,0.5s0.4,0.5,0.6,0.8c0.1,0.1,0.3,0.3,0.4,0.4c0,0,0.1,0,0.1-0.1s0-0.2,0-0.2
			C160.7,94.2,160.4,93.8,160.1,93.3z M161,83.5c-0.1,0-0.1-0.1-0.1,0c-0.2,0.1-0.4-0.1-0.5-0.2c-0.2-0.2-0.6-0.1-0.7,0.1
			c0,0.1,0,0.2,0,0.2c0.1,0.1,0.2,0.2,0.3,0.3c0.1-0.1,0.2-0.2,0.2-0.2c0.2,0.1,0.3,0.3,0.5,0.4C160.9,83.9,161,83.8,161,83.5z
			 M203.2,92.8C203.3,92.8,203.3,92.8,203.2,92.8c0.2-0.3,0.3-0.6,0.3-1c0-0.1,0.1-0.2,0.1-0.3c0-0.1,0-0.2,0-0.3
			c-0.1,0-0.2,0-0.3,0c-0.2,0.1-0.2,0.3-0.2,0.5s0.1,0.5-0.3,0.4c0,0-0.1,0.1-0.2,0.2C203,92.3,203,92.3,203.2,92.8z M188,94.8
			c0.2,0.1,0.3,0.1,0.5-0.1c0.3-0.3,0.4-0.8,0.2-1.2C188.4,93.9,188.2,94.3,188,94.8z M157,93.7c-0.8,0-1.4,0.2-1.6,0.6
			c0.1,0,0.3-0.1,0.3-0.1c0.2-0.2,0.3-0.2,0.4,0.1c0,0.1,0.2,0.2,0.2,0.2C156.6,94.2,156.8,94,157,93.7z M180.7,82
			c0-0.1,0.1-0.1,0.1-0.2c0.1-0.5,0.2-0.9,0.3-1.4c0-0.1-0.1-0.2-0.1-0.3h-0.1C180.7,80.8,180.3,81.4,180.7,82z M202.7,98.1
			c0.6-0.2,1-0.7,1.4-1.2c-0.2-0.1-0.4-0.2-0.5,0.1c0,0.2-0.2,0.3-0.4,0.4C202.9,97.5,202.7,97.7,202.7,98.1z M161.1,97.8l0.1,0.1
			c0.1-0.1,0.2-0.2,0.4-0.3c0.2-0.1,0.4-0.2,0.6-0.2c0.2-0.1,0.1-0.2,0-0.3c-0.1-0.1-0.3-0.1-0.3-0.1
			C161.7,97.2,161.4,97.5,161.1,97.8z M158.4,95.8C158.5,95.8,158.5,95.8,158.4,95.8c0.1-0.1,0.1-0.2,0.1-0.3
			c-0.1-0.3-0.3-0.7-0.5-1l-0.2-0.1c-0.1,0-0.1,0.1-0.1,0.2c0,0.2,0,0.3,0.1,0.5C158,95.4,158.2,95.6,158.4,95.8z M158.6,98.6
			c-0.2-0.2-0.3-0.4-0.5-0.5c-0.1-0.1-0.2-0.2-0.4-0.2c-0.1,0-0.3,0-0.4,0.1c-0.2,0-0.3,0.2-0.1,0.3c0.1,0.1,0.2,0.1,0.3,0.2
			c0.3-0.3,0.3-0.3,0.6-0.1C158.3,98.5,158.5,98.5,158.6,98.6z M180.7,82.2C180.6,82.2,180.6,82.2,180.7,82.2
			c-0.3,0.6-0.2,1.2,0,1.9c0.1-0.2,0.1-0.3,0.1-0.5c0-0.4,0-0.7,0-1.1C180.8,82.4,180.7,82.3,180.7,82.2z M155.7,90.3
			c0.1,0.2,0.1,0.3,0.1,0.4s0,0.1,0.1,0.2c0,0.1,0.1,0.2,0.1,0.3c0.1,0,0.2-0.1,0.3-0.1c0.1-0.1,0.1-0.2,0.1-0.3
			c-0.1-0.2-0.3-0.4-0.4-0.6v-0.1C155.9,90.2,155.7,90.2,155.7,90.3L155.7,90.3C155.5,90.2,155.6,90.3,155.7,90.3z M184.1,92.9
			L184.1,92.9c0.1,0.1,0.3,0.2,0.4,0.2c0-0.1,0-0.2,0-0.4c0.2,0.1,0.4,0,0.4-0.2c0-0.1,0.1-0.1,0.1-0.2s0-0.2,0.1-0.2
			c-0.1,0-0.2,0-0.3,0.1s-0.1,0.2-0.2,0.2C184.5,92.6,184.3,92.8,184.1,92.9z M176.1,79.7c0.1-0.3,0.2-0.5,0.3-0.8
			c-0.5,0.1-0.7,0.5-0.9,0.7C175.7,80.1,175.9,79.6,176.1,79.7z M168.8,89.5c-0.1,0.2-0.2,0.3-0.3,0.5h0.1c0,0.1,0,0.3,0,0.4
			c0,0.2-0.2,0.3,0.1,0.5C168.9,90.6,169,90,168.8,89.5z M199.1,93.9c-0.2,0.3,0,0.6,0,0.8c0,0,0.1,0.1,0.2,0.1c0,0,0.1,0,0.1-0.1
			c0.1-0.3,0.1-0.5,0.2-0.8C199.5,93.9,199.3,93.9,199.1,93.9z M167.7,80.2c0,0,0.1,0,0.1,0.1c0.2-0.2,0.4-0.3,0.7-0.5
			c-0.1-0.1-0.3-0.3-0.5-0.6C167.9,79.6,167.8,79.9,167.7,80.2z M204.6,96.4c-0.5,0.3-0.5,0.3-0.4,0.5c0.1,0,0.2-0.1,0.2-0.1
			c0.1,0,0.2,0,0.2,0.1c0.1,0.1,0.2,0.2,0.2,0.2c0.1-0.1,0.2-0.2,0.2-0.3C204.9,96.7,204.8,96.5,204.6,96.4z M157.9,95.8
			c-0.2-0.1-0.3-0.3-0.4-0.4c-0.1-0.1-0.3-0.2-0.3,0s0.1,0.4,0.2,0.6C157.5,96.2,157.9,96,157.9,95.8z M191.1,95.7
			c-0.1,0.1-0.2,0.2-0.2,0.2c0,0.4,0.2,0.6,0.5,0.9c0.1-0.2,0.1-0.3,0.2-0.4h-0.1C191.3,96.2,191.2,96,191.1,95.7z M194.8,91.8h-0.1
			c-0.2,0.2-0.4,0.4-0.5,0.6c0,0-0.1,0.1-0.1,0.2c0.1,0,0.1,0,0.2,0c0.1,0,0.2,0,0.4-0.1c0.1,0,0.1,0,0.1-0.1
			C194.8,92.2,194.8,92,194.8,91.8z M178.4,84.5L178.4,84.5c0.2-0.1,0.3-0.2,0.4-0.3c0.1-0.3,0.1-0.5-0.1-0.8
			c-0.2,0.1-0.4,0.3-0.3,0.5c0.2,0.2,0.2,0.3,0,0.5C178.4,84.4,178.4,84.4,178.4,84.5z M182.3,81.6h0.1c0.2-0.2,0.2-0.4,0.2-0.7
			c-0.1-0.4-0.1-0.5-0.3-0.6C182.3,80.8,182.3,81.2,182.3,81.6z M190.8,98.4c0-0.1,0-0.1-0.1-0.1c-0.2-0.1-0.4-0.1-0.5-0.2
			c0,0.2-0.1,0.3-0.1,0.5s0.1,0.2,0.2,0.1C190.5,98.6,190.7,98.5,190.8,98.4z M171.5,81.3c-0.2,0.4-0.2,0.9-0.2,1.4
			C171.7,82.4,171.8,81.6,171.5,81.3z M169.2,93.8c0-0.2,0-0.4-0.1-0.5c0-0.1-0.1-0.2-0.1-0.2c-0.1,0-0.2,0-0.3,0.1
			c-0.2,0.2-0.1,0.6,0.2,0.7C169,93.9,169.1,93.9,169.2,93.8z M180.2,78.2c0,0.2-0.1,0.4,0,0.4c0.2,0.1,0.2,0.3,0.2,0.4
			s0.1,0.1,0.2,0.2c0-0.1,0.1-0.1,0.1-0.2C180.8,78.7,180.6,78.4,180.2,78.2z M157,93c0.2-0.4-0.2-1-0.6-1.1
			C156.4,92.4,156.9,92.6,157,93z M167,82.7c-0.3,0.4-0.1,0.8-0.2,1.2C167,83.5,167.5,83.2,167,82.7z M189,95.8
			c-0.1-0.3-0.2-0.5-0.4-0.8c-0.1,0.1-0.1,0.2-0.1,0.3C188.3,95.8,188.3,95.9,189,95.8z M152.5,90.5c-0.2,0.2-0.3,0.3-0.5,0.4
			c0.2,0.1,0.4,0.2,0.6,0.3c0.2,0.1,0.4,0.1,0.5-0.2c-0.2,0-0.4-0.1-0.6-0.1C152.5,90.8,152.5,90.7,152.5,90.5z M156.4,98.1
			c0.2,0.2,0.3,0.3,0.5,0.5c0.2-0.4,0.2-0.4-0.1-0.8C156.7,97.9,156.6,98,156.4,98.1z M175.5,90.6c0-0.3-0.1-0.5-0.1-0.7
			c-0.2,0-0.4,0.3-0.4,0.9C175.2,90.7,175.4,90.6,175.5,90.6z M186.5,82.9c-0.5,0.1-0.2,0.5-0.3,0.8c0.3-0.1,0.5-0.1,0.7-0.4
			c-0.1,0-0.2,0-0.3,0C186.5,83.1,186.5,83,186.5,82.9z M174.5,89.3c-0.5-0.1-0.6,0.1-0.8,0.6c-0.1,0.2,0,0.3,0.2,0.4
			C173.8,89.7,174.2,89.6,174.5,89.3z M196.2,94.5C196.1,94.5,196.1,94.5,196.2,94.5c0,0.2,0.1,0.3,0.1,0.3
			c-0.1,0.2-0.1,0.4-0.2,0.5l0.1,0.1c0.2-0.1,0.3-0.2,0.5-0.3C196.5,94.8,196.3,94.6,196.2,94.5z M166.5,81.6
			C166.6,81.6,166.6,81.6,166.5,81.6c0-0.2-0.1-0.4-0.2-0.4c-0.2-0.1-0.4,0.2-0.4,0.5C166.1,81.7,166.3,81.7,166.5,81.6z
			 M187.7,97.9c-0.1-0.2-0.1-0.3-0.2-0.4c0,0-0.2,0-0.3,0c-0.1,0.1-0.2,0.3-0.3,0.5C187.3,98,187.5,97.9,187.7,97.9z M154.2,93.2
			c0.1-0.1,0.2-0.2,0.3-0.3c0.1-0.1,0.1-0.2,0.1-0.2c-0.1-0.1-0.2-0.2-0.3-0.1C154,92.6,154,92.8,154.2,93.2z M195.8,93.2
			c-0.1,0.2-0.2,0.3-0.3,0.4c-0.1,0.3,0.1,0.5,0.4,0.4C195.9,93.8,195.9,93.5,195.8,93.2z M205.3,107.2c0.4,0,0.7-0.2,0.9-0.5
			C205.9,106.6,205.6,106.7,205.3,107.2z M173.9,81h0.1c0.1-0.3,0.5-0.4,0.4-0.8c-0.4,0.1-0.6,0.3-0.6,0.5
			C173.8,80.8,173.9,80.9,173.9,81z M182,78.9c-0.1,0.4,0.1,0.8,0.4,0.8c0-0.2,0-0.4,0-0.6C182.3,79,182.2,78.9,182,78.9z
			 M169.4,91.9c-0.1,0.2-0.1,0.4-0.1,0.5s0,0.2,0.1,0.2s0.3,0,0.3-0.1C169.8,92.3,169.6,92,169.4,91.9z M195.7,90.1l-0.1-0.1
			c-0.3,0-0.4,0.3-0.7,0.4c-0.1,0-0.1,0.2-0.1,0.3c0,0,0.1,0,0.1,0.1C195.2,90.5,195.5,90.3,195.7,90.1z M182.3,82.8L182.3,82.8
			c0.2-0.3,0.3-0.6,0.4-0.9c-0.2-0.1-0.4-0.1-0.4,0.2c0,0.1-0.1,0.2-0.1,0.3C182.2,82.6,182.2,82.7,182.3,82.8z M176.7,86.8
			c-0.1,1.1-0.1,1.1,0,1.3C177,87.4,177,87.1,176.7,86.8z M156.3,87c0.3-0.1,0.5-0.2,0.7-0.4c0.1,0,0.2-0.1,0.2-0.1
			c0-0.1-0.1-0.2-0.2-0.3c-0.1,0.2,0,0.5-0.3,0.4S156.4,86.7,156.3,87z M154.9,95.2c-0.2-0.2-0.4-0.3-0.6-0.4c0,0-0.1,0-0.1,0.1
			c0,0.2,0.1,0.4,0.1,0.7C154.5,95.4,154.7,95.3,154.9,95.2z M155.6,86C155.6,86,155.6,86.1,155.6,86c-0.1,0.2,0,0.3,0,0.3
			c0.2,0,0.5,0.2,0.7,0C156.2,85.9,155.8,86.2,155.6,86z M187.8,96.1c0.1-0.2,0.2-0.3,0.3-0.5c0-0.1,0-0.1,0-0.2c0,0-0.1-0.1-0.1,0
			C187.7,95.4,187.6,95.8,187.8,96.1z M175.2,87.7c-0.2,0.2-0.2,0.4-0.1,0.6c0.1,0.2,0.2,0.3,0.4,0.3
			C175.4,88.3,175.3,88,175.2,87.7z M159.8,96.8L159.8,96.8c0.3,0.1,0.5,0.1,0.8,0.1c0,0,0.1-0.2,0.1-0.3
			C160.3,96.7,160,96.6,159.8,96.8z M189.1,81.5c-0.3,0.3-0.2,0.5,0,0.9c0.1-0.1,0.2-0.3,0.2-0.4C189.3,81.8,189.2,81.7,189.1,81.5z
			 M180.7,90.5c0.2-0.3,0.3-0.7,0.2-1.1C180.8,89.8,180.5,90.1,180.7,90.5z M180.3,85.2h0.1c0.1-0.3,0.2-0.5,0.2-0.8
			c-0.3,0-0.4,0.2-0.4,0.3C180.2,84.8,180.3,85,180.3,85.2z M180.1,86.4c0.3-0.4,0.4-0.9,0.2-1.2C180.2,85.7,180.2,86.1,180.1,86.4z
			 M205.1,104.2c0.1,0.2,0.1,0.4,0.2,0.4c0.2,0,0.3-0.2,0.3-0.3c0-0.1-0.1-0.2-0.2-0.3C205.3,104,205.2,104.1,205.1,104.2z
			 M176.5,90.4c-0.1,0.4,0,0.6,0.3,0.9C176.9,90.8,176.8,90.5,176.5,90.4z M168.5,92.3l0.1-0.1c-0.1-0.1-0.2-0.4-0.3-0.4
			c-0.2,0-0.4,0.1-0.5,0.3C168.1,92.2,168.3,92.2,168.5,92.3z M160.3,93c0,0.1,0,0.2,0.1,0.3c0.1,0.1,0.2,0.2,0.3,0.3
			c0.1,0.1,0.1,0.1,0.2,0.3C160.9,93.4,160.8,93.2,160.3,93z M164.3,82.7c0.1-0.2,0.1-0.3,0.2-0.5c0-0.1-0.1-0.2-0.1-0.2
			s-0.1,0-0.2,0C164,82.1,164,82.5,164.3,82.7z M189.5,88.8c0-0.2,0.1-0.3,0-0.4c0-0.1-0.1-0.2-0.2-0.2c-0.1,0-0.2,0.1-0.3,0.1
			c0,0.1,0.1,0.2,0.1,0.3C189.3,88.7,189.4,88.7,189.5,88.8z M203.1,98.4c0.3,0.3,0.5,0.1,0.7,0.1c0.1,0,0.1-0.2,0.1-0.3l-0.1-0.1
			C203.6,98.3,203.4,98.3,203.1,98.4z M173.6,93.5c0.3,0,0.6-0.3,0.5-0.4c0-0.1-0.2-0.1-0.3-0.2C173.8,93.1,173.7,93.3,173.6,93.5z
			 M188.6,89.7L188.6,89.7c0.1-0.2,0.2-0.4,0.2-0.6c0,0-0.1-0.1-0.2-0.1c-0.1,0-0.2,0.1-0.3,0.1C188.4,89.3,188.5,89.5,188.6,89.7z
			 M182.9,80c0.4,0.1,0.6,0.1,0.7-0.2C183.2,79.6,183,79.7,182.9,80z M208.7,102.9c0,0.2,0,0.3,0,0.5c0,0.1,0,0.2,0.1,0.2h0.2
			c0-0.2,0-0.3,0-0.5C208.9,103,208.7,103,208.7,102.9z M169.8,78.8c0.4-0.3,0.4-0.6,0-0.7C169.8,78.3,169.8,78.5,169.8,78.8z
			 M193.3,95L193.3,95c-0.2-0.1-0.5-0.1-0.7-0.2v0.1c0.1,0.1,0.2,0.2,0.3,0.3C193,95.2,193.1,95.1,193.3,95z M159.7,87.2
			c-0.1-0.1-0.1-0.3-0.2-0.4c0-0.1-0.2,0-0.3-0.1c0,0.1,0,0.2,0,0.3C159.4,87.2,159.5,87.3,159.7,87.2z M153.2,92.3L153.2,92.3
			c-0.4-0.2-0.7-0.1-0.7,0.3C152.7,92.5,153,92.4,153.2,92.3z M178.8,79.6C178.8,79.6,178.8,79.7,178.8,79.6c0.2,0,0.4,0,0.4-0.1
			c0-0.2-0.1-0.4-0.3-0.4C178.8,79.3,178.8,79.4,178.8,79.6z M154.8,90.1c-0.2-0.2-0.3-0.4-0.4-0.6h-0.1c0,0.2,0,0.4,0,0.6
			C154.5,90.1,154.6,90.1,154.8,90.1z M173.7,91.7c-0.2-0.2-0.3-0.3-0.5-0.2c-0.1,0-0.1,0.3,0,0.3C173.4,92,173.6,91.8,173.7,91.7z
			 M188.7,97.7C188.6,97.6,188.6,97.6,188.7,97.7c-0.2,0.1-0.3,0.2-0.4,0.3c0.1,0.1,0.2,0.2,0.4,0.4
			C188.7,98.1,188.7,97.9,188.7,97.7z M171.4,85.1c-0.1-0.2-0.2-0.4-0.2-0.6h-0.1c0,0.1-0.1,0.3-0.1,0.4
			C171,85,171.1,85.2,171.4,85.1z M166.7,80.7c-0.2,0-0.4-0.1-0.7-0.1c0,0.3,0.1,0.3,0.3,0.4C166.5,81,166.7,80.9,166.7,80.7z
			 M188.4,96h-0.1c-0.1,0.1-0.2,0.2-0.2,0.3c0.1,0.2,0.3,0.2,0.5,0.2C188.6,96.3,188.5,96.1,188.4,96z M191.3,85h0.1
			c0.1-0.1,0.1-0.3,0.2-0.4c-0.1,0-0.2-0.1-0.3-0.1s-0.2,0.1-0.2,0.1C191.1,84.7,191.2,84.9,191.3,85z M187,93.1
			C187,93.1,187.1,93.1,187,93.1c0.1-0.2,0-0.3,0-0.3c-0.2,0-0.4,0-0.5,0c0,0.1,0,0.2,0.1,0.2C186.7,93,186.9,93.1,187,93.1z
			 M176.3,85.7c-0.3-0.1-0.4,0-0.5,0.2c0,0,0,0.1,0,0.2c0,0,0.1,0,0.2,0C176.1,86,176.2,85.8,176.3,85.7z M152,89.9
			c0.2,0.2,0.4,0.1,0.6-0.1v-0.2C152.2,89.6,152.1,89.7,152,89.9z M157.5,96.2c-0.1,0.3,0,0.5,0.2,0.5c0.1,0,0.2-0.1,0.3-0.2
			C157.8,96.4,157.7,96.3,157.5,96.2z M171.2,93.5C171.3,93.5,171.3,93.5,171.2,93.5c0.2,0.1,0.3,0.1,0.4,0c0.1-0.2,0.1-0.4,0.1-0.6
			h-0.1C171.5,93.1,171.4,93.3,171.2,93.5z M157.9,87.6C157.9,87.6,158,87.6,157.9,87.6c0.2-0.5,0-0.6-0.4-0.5
			C157.6,87.3,157.8,87.5,157.9,87.6z M162.4,87.6c0.2-0.2,0.3-0.4,0.1-0.6C162.1,87.2,162.1,87.3,162.4,87.6z M159.3,86.4
			c0,0,0.1,0,0.1,0.1c0.1-0.1,0.2-0.3,0.3-0.4c-0.1,0-0.2-0.1-0.3-0.1C159.1,86.1,159.2,86.3,159.3,86.4z M172.8,78.4
			c-0.2-0.1-0.3-0.3-0.4-0.1c-0.1,0.1-0.1,0.4-0.1,0.4C172.6,78.9,172.7,78.6,172.8,78.4z M153.6,94.6c0.3,0.2,0.5,0.1,0.7-0.2
			C154,94.3,153.8,94.3,153.6,94.6z M176.1,91.4H176c0,0.2,0,0.4,0,0.5c0,0,0.1,0.1,0.2,0.1c0-0.1,0.1-0.1,0.1-0.2
			C176.3,91.7,176.2,91.5,176.1,91.4z M203.4,105.8c-0.1-0.3-0.2-0.4-0.4-0.3c-0.1,0-0.1,0.2-0.1,0.2
			C202.9,105.9,203.1,105.9,203.4,105.8z M171.9,92.3c-0.3-0.2-0.6,0-0.5,0.3C171.6,92.7,171.8,92.6,171.9,92.3z M190.1,81.5
			c0.2,0,0.5,0.1,0.6-0.2c0,0-0.1-0.2-0.2-0.2C190.2,81.1,190.2,81.4,190.1,81.5z M206,99.4c-0.1,0.2-0.1,0.3,0.1,0.5
			c0.1,0,0.2,0,0.2,0c0-0.1,0-0.2-0.1-0.3C206.3,99.5,206.1,99.5,206,99.4z M195.8,94.9c0-0.3-0.2-0.5-0.4-0.4
			c-0.1,0-0.1,0.1-0.1,0.1c0,0.1,0,0.1,0.1,0.2C195.5,94.8,195.6,94.9,195.8,94.9z M162.6,82.7c-0.1-0.2-0.2-0.3-0.3-0.4
			c-0.1,0-0.2,0.1-0.1,0.1c0,0.1,0.1,0.2,0.2,0.3C162.3,82.9,162.4,82.8,162.6,82.7z M152.5,93.4c0.3,0,0.4-0.2,0.4-0.4
			c0,0-0.1-0.1-0.2-0.1C152.6,93,152.5,93.2,152.5,93.4z M171.6,80.5C171.6,80.5,171.5,80.4,171.6,80.5c-0.3,0.2-0.3,0.4,0,0.6
			C171.6,80.9,171.6,80.7,171.6,80.5z M177.3,93.6c0,0.2,0.1,0.4,0.1,0.6c0.1,0,0.2-0.1,0.2-0.1C177.7,93.9,177.7,93.7,177.3,93.6z
			 M188,90.7c0.1,0.1,0.2,0.2,0.3,0.3h0.1c0-0.1,0.1-0.3,0.1-0.4C188.3,90.5,188.1,90.5,188,90.7z M175.4,91
			c-0.3,0.5-0.3,0.5-0.1,0.7C175.6,91.1,175.6,91.1,175.4,91z M204,98.8c-0.3,0.1-0.4,0.3-0.3,0.5c0,0.1,0.2,0,0.3,0
			C204,99.2,204,99,204,98.8z M178.3,94.3c0.3,0,0.5-0.1,0.5-0.4C178.5,93.9,178.4,94,178.3,94.3z M170.3,84.2
			c0.1-0.1,0.2-0.2,0.3-0.2c-0.1-0.1-0.1-0.2-0.2-0.2c-0.1,0-0.2,0.1-0.3,0.2C170.2,84,170.2,84.1,170.3,84.2z M177.4,92.2
			c-0.1,0.3,0,0.5,0.3,0.6C177.7,92.4,177.6,92.2,177.4,92.2z M154.9,88.1c0.3,0.1,0.6,0.1,0.8,0.2
			C155.5,87.9,155.3,87.8,154.9,88.1z M178.8,92.5c-0.1-0.1-0.2-0.2-0.3-0.3l-0.2,0.1c0.1,0.1,0.1,0.2,0.2,0.3
			C178.5,92.7,178.6,92.6,178.8,92.5z M166.6,81.8h-0.1c0,0.2,0,0.3,0,0.5c0.1,0,0.2,0,0.2,0C166.8,82.1,166.8,81.9,166.6,81.8z
			 M154.5,96.9l0.1,0.1c0.1-0.1,0.3-0.2,0.5-0.3c-0.1-0.1-0.3-0.2-0.3-0.2C154.7,96.6,154.6,96.8,154.5,96.9z M166.7,83
			c-0.1-0.1-0.2-0.2-0.3-0.2s-0.2,0.1-0.2,0.1c0,0.1,0.1,0.2,0.2,0.2C166.5,83.2,166.6,83.1,166.7,83z M207.5,103.6
			C207.5,103.6,207.5,103.5,207.5,103.6c0-0.2-0.1-0.3-0.2-0.3c-0.1,0-0.2,0.1-0.2,0.1c0.1,0.1,0.1,0.1,0.2,0.1
			C207.3,103.6,207.4,103.6,207.5,103.6z M159.9,84.3c0.2,0,0.4,0,0.4-0.3c0,0-0.1-0.1-0.2-0.1C159.9,84,159.8,84.1,159.9,84.3z
			 M203.6,92.9c0,0,0.1,0,0.1,0.1c0.1-0.1,0.2-0.3,0.2-0.4c0,0,0-0.1-0.1-0.1c0,0-0.1,0-0.2,0C203.7,92.6,203.6,92.7,203.6,92.9z
			 M156.9,85.2c-0.2,0-0.3,0-0.4-0.1c0,0.1,0,0.2,0,0.3C156.7,85.6,156.8,85.5,156.9,85.2z M163.5,93.2
			C163.5,93.3,163.5,93.3,163.5,93.2c0.2-0.1,0.4-0.2,0.5-0.4C163.7,92.7,163.5,92.9,163.5,93.2z M198.7,92.4
			c-0.1,0.2-0.1,0.3-0.1,0.4c0.2,0,0.3,0.2,0.5,0C199,92.6,198.9,92.6,198.7,92.4z M210.2,102.7c-0.1-0.1-0.2-0.2-0.3-0.2
			s-0.2,0.1-0.2,0.1c0.1,0.1,0.1,0.2,0.2,0.2C209.9,102.9,210,102.8,210.2,102.7z M195.2,86.1c-0.3,0.4-0.2,0.5,0.1,0.5
			C195.3,86.4,195.3,86.2,195.2,86.1z M203.3,99.1c-0.2,0-0.4-0.1-0.5,0.1l0.1,0.2C203.1,99.4,203.3,99.4,203.3,99.1z M174.6,89.9
			c0.2-0.1,0.4-0.2,0.3-0.4c0,0-0.1-0.1-0.2-0.1C174.5,89.6,174.5,89.7,174.6,89.9z M198,99.3l0.1,0.1c0.1-0.2,0.2-0.3,0.3-0.5
			c0,0-0.1-0.1-0.1-0.2C198.2,99,198.1,99.1,198,99.3z M203.7,95.9L203.7,95.9c0.1,0.2,0.2,0.3,0.3,0.3c0.1-0.1,0.2-0.2,0.3-0.3
			c0,0,0,0-0.1-0.1C204,95.9,203.8,95.9,203.7,95.9z M186.3,82.1c0,0,0.1,0,0.1-0.1c0.1-0.1,0.2-0.1,0.2-0.2c0,0-0.1-0.2-0.2-0.2
			c-0.1,0-0.2,0.1-0.2,0.2C186.2,81.9,186.3,82,186.3,82.1z M202.8,97.1l-0.1-0.1c-0.1,0-0.3,0-0.3,0.1s0,0.2,0,0.3h0.1
			C202.6,97.3,202.7,97.2,202.8,97.1z M158.7,90.1c0.4-0.1,0.6-0.3,0.4-0.6C159,89.7,158.9,89.8,158.7,90.1z M205.2,95.4
			c0.1-0.2,0.2-0.3,0.3-0.5c-0.1,0-0.2,0-0.3,0C205,95,205,95.2,205.2,95.4z M208,102.6c-0.4-0.2-0.5-0.1-0.6,0.2
			C207.6,102.8,207.8,102.7,208,102.6z M155.6,96c0-0.1,0.1-0.1,0.1-0.2c-0.1-0.1-0.2-0.1-0.3-0.2c0,0.1-0.1,0.2-0.1,0.2
			C155.4,95.9,155.5,95.9,155.6,96z M168.1,89.7H168c0,0.2-0.1,0.3-0.1,0.5c0.1,0,0.2,0,0.2,0C168.3,90,168.2,89.9,168.1,89.7z
			 M160.5,92c-0.1-0.1-0.1-0.2-0.2-0.3c-0.1,0.1-0.2,0.2-0.2,0.2s0.1,0.1,0.1,0.2C160.2,92.2,160.3,92.1,160.5,92z M192.1,96.4H192
			c-0.1,0.1-0.1,0.1-0.2,0.2l0.1,0.2c0.1,0,0.2-0.1,0.2-0.1C192.3,96.6,192.2,96.5,192.1,96.4z M178.8,78.8c0.1-0.1,0.2-0.2,0.2-0.2
			c0-0.1-0.1-0.1-0.1-0.2c-0.1,0.1-0.2,0.1-0.2,0.2C178.7,78.6,178.8,78.7,178.8,78.8z M195.4,87.1c-0.1-0.1-0.2-0.2-0.2-0.2
			c-0.1,0-0.2,0.1-0.3,0.2c0.1,0.1,0.1,0.2,0.2,0.2C195.2,87.2,195.3,87.2,195.4,87.1z M176.4,92.9c-0.1,0.1-0.2,0.2-0.1,0.2
			c0,0.1,0.1,0.2,0.1,0.2c0.1,0,0.2-0.1,0.2-0.1C176.5,93.1,176.4,93,176.4,92.9z M153.6,88.8c0.2,0,0.3-0.1,0.3-0.3
			c0-0.1-0.1-0.1-0.1-0.2c-0.1,0.1-0.1,0.2-0.2,0.3C153.6,88.7,153.6,88.8,153.6,88.8z M166.2,92.7c-0.3,0.3-0.2,0.5,0.1,0.6
			C166.3,93.1,166.3,92.9,166.2,92.7z M184.6,96.1h-0.1c0,0.2-0.3,0.4,0.2,0.5C184.6,96.4,184.6,96.2,184.6,96.1z M168.1,80.3
			c-0.1,0.1-0.2,0.1-0.2,0.2c0.1,0.1,0.1,0.1,0.2,0.2c0.1-0.1,0.1-0.1,0.2-0.2C168.2,80.5,168.1,80.4,168.1,80.3z M172,88.8
			c-0.1,0-0.1,0-0.2,0c0,0.1-0.1,0.3-0.1,0.4c0.1,0,0.2,0,0.2,0C171.9,89.1,171.9,89,172,88.8z M165.9,91.9L165.9,91.9
			c0.1,0.1,0.2,0.1,0.3,0.1s0.1-0.1,0.1-0.2c0,0,0-0.1-0.1-0.1C166.2,91.8,166,91.8,165.9,91.9z M178.4,80.1
			C178.4,80.2,178.4,80.2,178.4,80.1c0.2-0.1,0.3-0.2,0.3-0.3c0,0-0.1-0.1-0.2-0.2C178.4,79.9,178.4,80,178.4,80.1z M193.6,93.1
			L193.6,93.1c0.1,0.1,0.3,0.2,0.4,0.2c0,0,0-0.1,0.1-0.1c-0.1-0.1-0.1-0.2-0.2-0.2C193.8,93,193.7,93.1,193.6,93.1z M189.3,86.9
			c-0.1,0-0.1,0.1-0.2,0.1c0.1,0.1,0.2,0.2,0.3,0.3c0,0,0.1,0,0.1-0.1C189.5,87.1,189.4,87,189.3,86.9z M190.2,82.3
			c-0.1,0.1-0.2,0.1-0.2,0.2c0.1,0.1,0.1,0.1,0.2,0.2l0.1-0.1C190.3,82.5,190.3,82.4,190.2,82.3z M163.6,81.4c0-0.1,0-0.1,0.1-0.2
			c-0.1-0.1-0.2-0.1-0.3-0.2c0,0.1-0.1,0.1-0.1,0.2C163.4,81.3,163.5,81.4,163.6,81.4z M180.1,87.1c0.1,0,0.1,0,0.2,0
			c0-0.1,0-0.3,0-0.4c-0.1,0-0.2,0-0.2,0C180.1,86.9,180.1,87,180.1,87.1z M158.4,88.5c0,0-0.1,0-0.1,0.1s0.1,0.3,0.1,0.4
			c0,0,0.1,0,0.3,0C158.6,88.7,158.5,88.6,158.4,88.5z M185.8,86.6c-0.1,0.2-0.2,0.4-0.2,0.6C185.9,87.1,185.9,86.9,185.8,86.6z
			 M156.2,89.7c0,0.4,0.1,0.4,0.4,0.3C156.5,89.9,156.4,89.8,156.2,89.7z M192.3,95.4c0.1,0.1,0.1,0.2,0.1,0.2
			c0.1-0.1,0.1-0.1,0.2-0.2c0,0-0.1-0.1-0.1-0.2C192.4,95.3,192.4,95.3,192.3,95.4z M196.9,94.1c-0.1-0.1-0.2-0.2-0.2-0.2
			c-0.1,0-0.2,0.1-0.2,0.1c0,0.1,0.1,0.2,0.1,0.2S196.7,94.1,196.9,94.1z M174.7,81.1l0.1-0.1c-0.1-0.1-0.2-0.2-0.3-0.2l-0.1,0.1
			C174.5,81,174.6,81.1,174.7,81.1z M200.5,103.4c0.1-0.1,0.3-0.1,0.4-0.2v-0.1C200.7,103.1,200.5,103.1,200.5,103.4z M155.3,94.9
			c-0.4-0.1-0.4-0.1-0.4,0.3C155.1,95.1,155.2,95,155.3,94.9z M157.8,89.2c-0.1-0.1-0.1-0.2-0.2-0.2c-0.1,0-0.1,0.1-0.2,0.2
			c0.1,0.1,0.1,0.2,0.2,0.2C157.6,89.3,157.7,89.2,157.8,89.2z M167,82.4c0.1,0,0.1,0,0.2,0c0-0.1,0-0.3,0.1-0.4h-0.1
			C167,82.2,167,82.3,167,82.4z M197.2,86.8c-0.1,0-0.1,0-0.2,0c0,0.1,0,0.2,0,0.3c0.1,0,0.1,0,0.2,0
			C197.3,87,197.3,86.9,197.2,86.8z M167.8,90.8c-0.1-0.1-0.2-0.2-0.2-0.2c-0.1,0-0.2,0.1-0.2,0.1c0,0.1,0.1,0.2,0.1,0.2
			C167.6,90.9,167.7,90.9,167.8,90.8z M161,91.8c0.1-0.1,0.2-0.2,0.2-0.3l-0.1-0.1c-0.1,0.1-0.1,0.1-0.2,0.2
			C160.8,91.6,160.9,91.7,161,91.8z"/>
	</g>
	<g>
		<path d="M151.7,97.7c-0.4,0-0.5-0.1-0.5-0.4c0-0.1-0.1-0.3-0.1-0.4c-0.2-0.2-0.4-0.5-0.5-0.7s-0.2-0.5-0.2-0.7
			c0-0.4-0.1-0.5-0.5-0.5c-0.1,0-0.2,0-0.3-0.1c0.1,0,0.2-0.1,0.2-0.1c0-0.4,0-0.8-0.1-1.1c-0.1-0.5,0-0.8,0.3-1.1
			c0.1-0.1,0.1-0.2,0.2-0.3c0.1,0.1,0.2,0.2,0.3,0.3c0-0.3,0.3-0.4,0.1-0.7l0.1-0.2c0.1,0,0.3-0.1,0.3,0c0.5,0.3,0.7,0.8,0.8,1.3
			c0.1,0.4,0.2,0.8,0.3,1.2c0,0.2,0.1,0.4,0.1,0.6c-0.1,0.4,0.1,0.6,0.4,0.8c0.1,0,0.1,0.1,0.2,0.1c-0.1,0.1-0.1,0.2-0.2,0.3
			c-0.1,0.1-0.2,0.2-0.2,0.3c-0.1,0.2-0.3,0.4-0.3,0.7C151.6,97.1,151.6,97.3,151.7,97.7z M152.3,95.7c-0.2-0.4-0.6-0.5-1-0.4
			c-0.2,0.1-0.3,0.4-0.2,0.6c0.3,0.1,0.5,0.1,0.8,0.2c0-0.2,0-0.3-0.1-0.5C152,95.6,152.1,95.6,152.3,95.7z M150.4,92.7
			c-0.3,0.4-0.3,0.5,0,0.7c0.1,0,0.2,0.1,0.2,0c0,0,0.1-0.1,0.1-0.2C150.6,93.1,150.5,92.9,150.4,92.7z M150.4,94.2
			c0.3-0.1,0.5-0.1,0.8-0.2C150.9,93.8,150.6,93.8,150.4,94.2z M150.4,94.8c-0.2,0-0.4,0-0.6-0.1C150,95,150.2,95,150.4,94.8z"/>
	</g>
	<g>
		<path d="M205.6,113.9c0.1-0.1,0.1-0.1,0.2-0.2l0,0c0.1,0.4,0.1,0.9,0.2,1.3c0.1,0.6,0,1.1-0.2,1.6c-0.2,0.3-0.2,0.6-0.4,1
			c-0.1-0.2-0.2-0.3-0.3-0.5c-0.3,0.4,0.3,0.8-0.1,1.2c-0.1-0.1-0.2-0.3-0.2-0.4c-0.1-0.4-0.2-0.8-0.2-1.2c0-0.1,0.1-0.2,0.2-0.3
			c-0.1-0.1-0.1-0.3-0.2-0.5c-0.2-0.5,0-0.8,0.3-1.2l0.1-0.1c0.1-0.3,0.1-0.7,0.1-1s-0.1-0.4-0.4-0.4c-0.1-0.4-0.1-0.8-0.2-1.2
			c0.1,0.1,0.2,0.1,0.3,0.2c0-0.2,0-0.3-0.1-0.4c0.6-0.1,1,0.2,1,0.8c0,0.2,0,0.4,0,0.5C205.6,113.5,205.5,113.6,205.6,113.9
			C205.5,113.8,205.5,113.8,205.6,113.9z"/>
	</g>
	<g>
		<path d="M194.8,82.5c0,0.1,0,0.2,0,0.3c-0.1,0-0.2,0-0.3,0s-0.1,0.1-0.2,0.2c0.2,0,0.3,0,0.4,0c-0.1,0.3-0.1,0.5-0.2,0.8
			c-0.1,0-0.2-0.1-0.3-0.1c0.1,0.2-0.1,0.5,0.2,0.6v0.1c-0.1,0.3-0.1,0.7-0.2,1c-0.1,0.3-0.3,0.5-0.6,0.4c-0.1,0-0.3,0.1-0.5,0.1
			c0-0.1-0.1-0.2-0.1-0.3c-0.3-0.9,0-1.5,0.7-2.1c0.1-0.1,0.1-0.2,0.2-0.3c0.1-0.2,0.2-0.4,0.5-0.5
			C194.5,82.7,194.6,82.6,194.8,82.5z M193.8,84.8c0.1,0,0.2-0.1,0.4-0.1c0-0.1,0-0.2-0.1-0.2C193.9,84.4,193.8,84.5,193.8,84.8z"/>
	</g>
	<g>
		<path d="M152.2,104.4c-0.1,0.1-0.3,0.1-0.1,0.3c0.1,0.1,0,0.4-0.1,0.6c0.1,0.3,0.2,0.7-0.1,0.9c-0.2,0.2-0.5,0.1-0.8-0.1
			c0.2-0.4,0.3-0.8,0.5-1.2c0.1,0,0.2,0.1,0.3,0.1c0.1-0.3-0.1-0.3-0.2-0.4c0.1-0.3,0.1-0.5,0.2-0.8c0-0.2,0.1-0.4,0.4-0.5
			c0.1,0,0.1-0.1,0.2-0.2c0.1-0.2,0.1-0.4,0.2-0.6c-0.3-0.3-0.1-0.8,0.4-1c0,0.2-0.1,0.4,0.2,0.5c0,0,0.1,0.1,0.1,0.2
			c0,0.3,0,0.5-0.1,0.8c0,0.2-0.1,0.3-0.2,0.5H153c-0.1-0.1-0.1-0.3-0.2-0.5c-0.1,0.1-0.1,0.2-0.1,0.3c0,0.2-0.2,0.3-0.4,0.3
			c-0.3,0.1-0.4,0.1-0.3,0.5C152.2,104.3,152.2,104.4,152.2,104.4z"/>
	</g>
	<g>
		<path d="M210,107.9c-0.1-0.2-0.1-0.3-0.2-0.5c0.2-0.4,0.6-0.5,1-0.4c0.2-0.4-0.2-0.4-0.3-0.5c0.3-0.3,0.6-0.6,0.9-1
			c0,0.4,0.3,0.1,0.5,0.2c-0.2,0.2-0.4,0.3-0.6,0.5c-0.3,0.2-0.3,0.2-0.1,0.5c0,0,0,0.1,0.1,0.1c-0.1,0-0.2,0.1-0.3,0.1
			c0,0.1,0.1,0.1,0.1,0.2C210.7,107.4,210.4,107.6,210,107.9z"/>
	</g>
	<g>
		<path d="M161.9,116.2c0.1,0,0.2,0.1,0.2,0.1c0.2,0.1,0.4,0.3,0.5,0.4s0.1,0.3,0.1,0.4c-0.1,0.2-0.1,0.4,0,0.6
			c0,0.1-0.1,0.2-0.1,0.3c-0.2-0.1-0.4-0.1-0.5-0.2C162,117.4,161.7,116.8,161.9,116.2L161.9,116.2z"/>
	</g>
	<g>
		<path d="M206.7,119c-0.2,0.2-0.3,0.3-0.5,0.4c-0.1-0.1-0.1-0.3-0.2-0.4c-0.1-0.2-0.1-0.5-0.3-0.7c-0.2-0.1-0.1-0.5,0.1-0.7
			c0.1-0.1,0.1-0.2,0.1-0.3c0-0.1,0.1-0.2,0.2-0.2h0.2c0,0.1,0,0.2,0,0.3c0,0.1,0,0.2,0,0.2c0.3,0.2,0.3,0.5,0.2,0.8
			C206.5,118.7,206.5,118.9,206.7,119z"/>
	</g>
	<g>
		<path d="M198.6,85.4c0,0.4-0.2,0.5-0.5,0.4c-0.2-0.1-0.4-0.1-0.6,0.1c-0.3,0.2-0.6,0.3-0.9,0.2c-0.1-0.6,0.2-1.1,0.7-1.2
			c-0.1,0.2-0.1,0.3-0.1,0.4s-0.2,0.1-0.2,0.2s0,0.2-0.1,0.3c0.1,0,0.3,0,0.4-0.1c0.1-0.1,0.2-0.3,0.3-0.4s0.2-0.2,0.3-0.2
			s0.2,0.1,0.2,0.2c0,0.3,0.1,0.4,0.4,0.2C198.5,85.4,198.6,85.4,198.6,85.4z"/>
	</g>
	<g>
		<path d="M196.7,84.6c-0.1,0.2-0.1,0.4-0.2,0.6c0,0.1-0.2,0.1-0.3,0.2c-0.3,0-0.5,0-0.8,0c-0.1-0.2-0.1-0.5,0.1-0.7
			C195.8,84.4,196.4,84.4,196.7,84.6z"/>
	</g>
	<g>
		<path d="M205.6,119.9c-0.2-0.1-0.3-0.2-0.5-0.3c0,0-0.1-0.2,0-0.2c0.1-0.3,0.2-0.6,0.2-0.9C205.7,118.7,205.9,119.4,205.6,119.9z"
			/>
	</g>
	<g>
		<path d="M154,99.3c-0.3-0.1-0.5-0.2-0.7-0.3c0,0,0,0.1-0.1,0.1c0.1,0.2,0.2,0.3,0.3,0.5v0.1c-0.1,0-0.2,0-0.3,0
			c-0.1-0.1-0.3-0.2-0.4-0.4c0,0,0.2-0.2,0.3-0.3c0.1-0.1,0.3-0.2,0.5-0.3c0.1,0,0.3,0,0.3,0.1C153.9,98.9,153.9,99.1,154,99.3z"/>
	</g>
	<g>
		<path d="M195.2,82.7c0.1-0.1,0.3-0.3,0.4-0.4c0,0.4,0,0.9,0,1.3c0.1,0,0.2,0.1,0.3,0.1c-0.1,0.1-0.1,0.2-0.2,0.3
			c0,0-0.2-0.1-0.3-0.1s-0.3-0.1-0.4-0.1c0.1-0.1,0.2-0.1,0.2-0.2c-0.2-0.2-0.1-0.3,0-0.5C195.3,83,195.3,82.8,195.2,82.7
			C195.3,82.7,195.2,82.7,195.2,82.7z"/>
	</g>
	<g>
		<path d="M152.7,97.6c0.1-0.2,0.2-0.4,0.2-0.7c0-0.2-0.1-0.4-0.2-0.6c0,0,0.1,0,0.2,0c0.2,0.2,0.4,0.5,0.6,0.7c0,0,0,0.1,0,0.2
			C153.3,97.6,153.1,97.7,152.7,97.6z"/>
	</g>
	<g>
		<path d="M193.5,80.7c0.2,0.1,0.4,0.1,0.5,0.1v0.1c-0.1,0.1-0.3,0.2-0.4,0.2c0,0.2,0,0.4,0,0.7c0.1-0.2,0.2-0.3,0.3-0.4
			s0.2-0.1,0.2-0.1c0,0.1,0.1,0.2,0.1,0.2c0,0.2-0.3,0.4-0.6,0.4c-0.1,0-0.3-0.2-0.3-0.4C193.4,81.3,193.5,81.1,193.5,80.7z"/>
	</g>
	<g>
		<path d="M200.8,88.1c0.4,0,0.7-0.1,1.1-0.1v0.1c-0.1,0.1-0.1,0.1-0.2,0.2c-0.2,0.1-0.5,0.1-0.7,0.2c-0.1,0-0.2,0-0.2,0.1
			c-0.3,0-0.3-0.1-0.2-0.3c0.1-0.2,0.2-0.4,0.3-0.6c0,0,0.1,0,0.1,0.1C200.9,87.9,200.8,88,200.8,88.1z"/>
	</g>
	<g>
		<path d="M195.2,84c0,0.1,0,0.2,0,0.3c0.1,0.4-0.1,0.9-0.4,1c-0.1,0-0.1,0-0.2,0c0.1-0.2,0.1-0.4,0.2-0.5c0-0.1,0.1-0.2,0.1-0.3
			C194.7,84.2,194.9,84.1,195.2,84z"/>
	</g>
	<g>
		<path d="M203.8,112.4l-0.1-0.1c0-0.3-0.2-0.5-0.3-0.7c-0.1-0.3-0.2-0.6-0.3-0.9C203.6,111.1,203.8,111.7,203.8,112.4z"/>
	</g>
	<g>
		<path d="M149.7,95.4c0.3,0.2,0.1,0.4,0,0.6c0.1,0.1,0.2,0.1,0.2,0.2c0,0.2,0,0.4-0.1,0.5s-0.3,0-0.3-0.2c0-0.3,0-0.7,0-1
			C149.6,95.4,149.7,95.4,149.7,95.4z"/>
	</g>
	<g>
		<path d="M199.3,86.3c0,0.1,0,0.2,0,0.4c0.2,0,0.3-0.1,0.5-0.1c0.1,0,0.3,0.1,0.5,0.1c-0.1,0.1-0.2,0.1-0.3,0.1c-0.2,0-0.4,0-0.7,0
			c-0.1,0-0.1,0.1-0.2,0.2c-0.1-0.1-0.2-0.2-0.2-0.2C199,86.6,199.1,86.5,199.3,86.3C199.2,86.3,199.2,86.3,199.3,86.3z"/>
	</g>
	<g>
		<path d="M210.4,104.1c-0.3,0.3-0.7,0.3-1.2,0C209.5,103.8,209.9,103.8,210.4,104.1z"/>
	</g>
	<g>
		<path d="M153.7,101.8c0.2,0,0.4-0.1,0.6-0.1c0,0,0,0.1,0.1,0.1c-0.1,0.2-0.2,0.4-0.4,0.6c-0.1-0.1-0.2-0.1-0.3-0.1
			C153.8,102.1,153.8,101.9,153.7,101.8z"/>
	</g>
	<g>
		<path d="M206.8,115.9c0,0.2,0.1,0.4,0.1,0.5c-0.1,0.1-0.3,0.2-0.4,0.3l-0.1-0.1c0-0.1,0-0.3,0.1-0.3
			C206.5,116.1,206.6,116,206.8,115.9z"/>
	</g>
	<g>
		<path d="M209.1,96.8c-0.1,0-0.3,0.1-0.4,0c-0.2-0.1-0.4-0.2-0.4-0.3c-0.1-0.2,0.1-0.3,0.3-0.2c0.2,0.1,0.4,0.2,0.5,0.3
			C209.1,96.7,209.1,96.8,209.1,96.8z"/>
	</g>
	<g>
		<path d="M150.9,102.5c0.2,0,0.3,0,0.5,0c-0.3,0.3-0.2,0.9-0.7,1.1c0.1-0.1,0.1-0.3,0.2-0.4c0.2-0.2,0.2-0.3,0.1-0.5
			C150.9,102.6,150.9,102.5,150.9,102.5z"/>
	</g>
	<g>
		<path d="M202,88.9c0.2-0.1,0.3-0.2,0.4-0.3c0.1,0.1,0.2,0.3,0.3,0.4c-0.1,0.1-0.2,0.2-0.3,0.2C202.2,89.2,202.1,89,202,88.9z"/>
	</g>
	<g>
		<path d="M204.6,106.9l0.1,0.1c0.1,0.1,0.1,0.2,0.2,0.3c-0.1,0-0.3,0.1-0.4,0.1c-0.1,0-0.2-0.1-0.3-0.1
			C204.2,107.1,204.4,107,204.6,106.9z"/>
	</g>
	<g>
		<path d="M210.5,104.6c-0.2,0.5-0.5,0.7-0.8,0.5C209.9,104.8,210.1,104.5,210.5,104.6z"/>
	</g>
	<g>
		<path d="M207.5,108.5c0.1-0.4,0.4-0.3,0.7-0.4C208.2,108.4,208,108.5,207.5,108.5z"/>
	</g>
	<g>
		<path d="M204.3,118.5c0.1,0.2,0.1,0.7,0,0.9h-0.2C204.2,119.1,204.2,118.8,204.3,118.5z"/>
	</g>
	<g>
		<path d="M204,120.8c-0.1-0.3-0.1-0.5-0.2-0.8c0.2,0,0.3,0,0.3,0s0.1,0,0.1,0.1v0.1c-0.3,0.1-0.2,0.3-0.1,0.4
			C204.1,120.7,204.1,120.8,204,120.8C204.1,120.8,204,120.8,204,120.8z"/>
	</g>
	<g>
		<path d="M194.3,80.8c0.2,0.1,0.3,0.2,0.5,0.4c-0.5,0.2-0.5-0.1-0.6-0.3L194.3,80.8z"/>
	</g>
	<g>
		<path d="M201.5,122.3c0.1,0.2,0.1,0.4,0.2,0.6C201.3,122.8,201.2,122.7,201.5,122.3z"/>
	</g>
	<g>
		<path d="M207.1,117.6c-0.2,0-0.3-0.2-0.3-0.3l0.1-0.1C207,117.3,207.1,117.4,207.1,117.6L207.1,117.6z"/>
	</g>
	<g>
		<path d="M161.4,117.7c-0.1-0.1-0.2-0.3-0.3-0.4C161.5,117.2,161.6,117.3,161.4,117.7C161.5,117.7,161.5,117.7,161.4,117.7z"/>
	</g>
	<g>
		<path d="M194.5,82.3c0-0.3,0.2-0.4,0.3-0.3c0,0,0,0.1,0.1,0.2C194.7,82.2,194.6,82.2,194.5,82.3z"/>
	</g>
	<g>
		<path d="M151.6,103.5c0,0.2-0.1,0.4-0.1,0.6C151.2,103.9,151.2,103.7,151.6,103.5z"/>
	</g>
	<g>
		<path d="M151.5,99.5c0.2,0.1,0.4-0.1,0.5,0.2v0.1C151.8,99.7,151.7,99.7,151.5,99.5C151.5,99.6,151.5,99.6,151.5,99.5z"/>
	</g>
	<g>
		<path d="M159.4,115.5c-0.1,0-0.2,0-0.4,0.1c0.1-0.2,0.2-0.4,0.2-0.5h0.1C159.3,115.2,159.3,115.3,159.4,115.5z"/>
	</g>
	<g>
		<path d="M151.1,105.1c-0.3-0.3-0.2-0.4,0.1-0.6C151.2,104.8,151.1,104.9,151.1,105.1z"/>
	</g>
	<g>
		<path d="M206.6,105.2c-0.1,0.1-0.2,0.2-0.4,0.3C206.1,105.3,206.3,105.2,206.6,105.2C206.5,105.2,206.5,105.2,206.6,105.2z"/>
	</g>
	<g>
		<path d="M207.6,94.3c-0.1-0.1-0.2-0.1-0.3-0.2l0.1-0.1c0.1,0.1,0.2,0.1,0.3,0.2C207.6,94.2,207.6,94.2,207.6,94.3z"/>
	</g>
</g>
</svg>
